<svg xmlns="http://www.w3.org/2000/svg" width="1440" height="550" viewBox="0 0 1440 550">
  <title>1_all_stars</title>
  <g id="7a8aea02-34a8-46ae-a97d-2a571f0dd27e" data-name="Слой 2">
    <g id="1b7184f9-9ac0-4e8a-8e5e-78f1cf449b05" data-name="all stars">
      <g id="bb691743-6927-435d-a358-1e5b06dcbcf7" data-name="stars">
        <g id="adc4a306-5b6b-4d0f-8d3d-edf8ff4103ca" data-name="big">
          <path id="20007947-18f6-4610-8f0c-bb86149097fb" data-name="b4526f3c-35ec-435d-89db-230b7cfd102e" d="M784.379,415.807c0-.545-.582-1.17-.327-1.611s1.33.129,1.785-.134.461-1.318,1.008-1.318.543,1.1.984,1.357.971-.029,1.235.427,1.431.734,1.431,1.279-.562,1.195-.817,1.635c-.263.456-1.087.338-1.543.6s-.744,1.626-1.29,1.626-.981-1.143-1.423-1.4-.294-.865-.557-1.321c-.256-.441-.486-.6-.486-1.143" style="fill: #f1f2f2;opacity: 0.6000000238418579;isolation: isolate"/>
          <path id="96f0d0c0-7f03-4fe0-b63a-0323c44ff2e8" data-name="0bfbecd2-bc86-4de7-95ef-5afb568ca26a" d="M602.836,196.816c0-1.144,1.065-3.081,2.211-3.081s.778,1.937.778,3.081.367.37-.778.37-2.211.775-2.211-.37" style="fill: #f1f2f2;opacity: 0.6000000238418579;isolation: isolate"/>
          <path id="7099043a-0fd4-4819-846e-929269320a70" data-name="bcb3f2eb-23d7-454d-90e3-6427b4399abc" d="M1244.6,148.016c0-1.145,1.981-2.015,3.126-2.015s3.536.87,3.536,2.015" style="fill: #f1f2f2;opacity: 0.550000011920929;isolation: isolate"/>
          <path id="537d1008-3a36-4906-adc8-662522f06aea" data-name="081401fe-bf8b-45c2-a514-90987044d43c" d="M824.756,153.454c0-1-1.943-2.083-1.289-2.737s1.741-.175,2.739-.175,3.163-1.557,3.817-.9-1.242,2.819-1.242,3.815,1.272,2.539.618,3.192-2.2.547-3.193.547-1.086-1.346-1.74-2,.29-.741.29-1.739" style="fill: #f1f2f2;opacity: 0.5;isolation: isolate"/>
          <path id="fb9fa752-c8da-42e1-aabd-35ea72a61d61" data-name="f8b96166-7a87-4394-ae8f-35a96559d11f" d="M1340.17,374.842a12.575,12.575,0,0,1-4.351-1.541c-.374.526-.633,1-.3,1.342a5.57,5.57,0,0,0,3.233,1.711c.676,0,1.057-.754,1.413-1.512" style="fill: #f1f2f2;opacity: 0.5;isolation: isolate"/>
          <path id="6dfc6e83-8c97-47ce-a47a-155eb5dd6870" data-name="092e6b0e-8275-4435-959e-dcb09fa8a807" d="M1099.209,61.976c0-1.146-.564-.015.581-.015s4.2-1.131,4.2.015-3.057,4.091-4.2,4.091-.581-2.947-.581-4.091" style="fill: #f1f2f2;opacity: 0.550000011920929;isolation: isolate"/>
          <polygon id="b774dd08-647e-4b9e-98bf-98d363d402bf" data-name="d69bd8cc-0cef-497c-8e37-c70ae323d534" points="1119.526 89.743 1122.696 93.247 1118.321 91.458 1114.813 94.628 1116.604 90.254 1113.433 86.749 1117.809 88.539 1121.315 85.369 1119.526 89.743" style="fill: #fff;opacity: 0.550000011920929;isolation: isolate"/>
          <polygon id="66d3421e-548e-47c9-8ba4-b90f8f0b7701" data-name="be48e99b-fc22-413a-af26-1d7cfff1c51e" points="829.382 279.27 835.198 280.593 829.382 281.917 828.06 287.729 826.736 281.917 820.921 280.593 826.736 279.27 828.06 273.458 829.382 279.27" style="fill: #fff;opacity: 0.5;isolation: isolate"/>
          <path id="255e4d38-af7e-4e44-a254-6a1729949431" data-name="ec5cdc64-51a0-4645-b4ca-5b3a4e895a1c" d="M894.212,291.289a2.687,2.687,0,0,0-2.457,2.885,2.729,2.729,0,0,0,2.887,2.458,2.688,2.688,0,0,0,2.459-2.885,2.731,2.731,0,0,0-2.889-2.458" style="fill: #fff;opacity: 0.5;isolation: isolate"/>
          <path id="2b2e0e01-91a9-45b6-9203-607b98eda305" data-name="b49186ea-b06f-4f00-b298-db6f95545836" d="M1241.8,2.326c-1.1,0-.955,1.7.137,1.7s.953-1.7-.137-1.7" style="fill: #fff;opacity: 0.550000011920929;isolation: isolate"/>
          <path id="5323ec52-bbf2-43f4-a9ea-03790928ebe3" data-name="1d6f5b3d-d941-4e45-ad0e-9d2977e3168c" d="M1027.981,22.735c-1.1,0-.955,1.7.136,1.7s.954-1.7-.136-1.7" style="fill: #fff;opacity: 0.550000011920929;isolation: isolate"/>
          <path id="2b771e88-8f89-4d32-b198-0678f277a060" data-name="0164a217-a9a3-43b9-a917-069d538cdda8" d="M915.572,188.561c-1.1,0-.954,1.7.136,1.7s.955-1.7-.136-1.7" style="fill: #fff;opacity: 0.5;isolation: isolate"/>
          <path id="8770ba04-38cf-4869-a627-0030a8e7c2d4" data-name="4bf17a33-91e0-40cb-a841-03eda533be73" d="M1199.333,402.646c-1.1,0-.954,1.7.136,1.7s.955-1.7-.136-1.7" style="fill: #fff;opacity: 0.5;isolation: isolate"/>
          <path id="62a12cdb-c015-40da-b4e0-74ee45132add" data-name="3b54ed44-ba53-42c5-89e3-1f98825d622c" d="M909.725,190.023a.868.868,0,0,0-.781.918V192.4a.854.854,0,0,0,.917.783.868.868,0,0,0,.782-.918V190.8a.854.854,0,0,0-.918-.782" style="fill: #fff;opacity: 0.5;isolation: isolate"/>
          <path id="cd81a389-0ab6-4b47-a265-9490ef73d8c0" data-name="6b4ed0e1-073c-4773-8169-57a7637c0d87" d="M891.679,209.6a.867.867,0,0,0-.781.918v1.463a.855.855,0,0,0,.917.781.868.868,0,0,0,.782-.918v-1.462a.858.858,0,0,0-.919-.782" style="fill: #fff;opacity: 0.5;isolation: isolate"/>
          <path id="a68fc630-cbcf-4877-a66b-85c26ff5d3b3" data-name="8d0f7e0f-cec9-463e-a01e-ac8cbdab464f" d="M926.484,294.085a1.367,1.367,0,0,0-1.229,1.444v1.46a1.345,1.345,0,0,0,1.445,1.228,1.364,1.364,0,0,0,1.23-1.442v-1.461a1.348,1.348,0,0,0-1.446-1.229" style="fill: #fff;opacity: 0.5;isolation: isolate"/>
          <path id="56b41608-341d-49ea-9770-b25b5892b4da" data-name="0a3c02c7-b3e6-4d4e-a911-684da85966c6" d="M1335.669,56.036a1.346,1.346,0,0,0-1.229,1.443,1.365,1.365,0,0,0,1.444,1.229h1.462a1.346,1.346,0,0,0,1.229-1.444,1.364,1.364,0,0,0-1.444-1.228h-1.462" style="fill: #fff;opacity: 0.550000011920929;isolation: isolate"/>
          <path id="9cb88057-ca35-4e00-a488-ccfa9c8b337e" data-name="9b5d4601-5bc7-4b8e-ba6c-9c67b2bbb43f" d="M983.733,21.4a1.346,1.346,0,0,0-1.229,1.444,1.366,1.366,0,0,0,1.445,1.228h1.46a1.345,1.345,0,0,0,1.23-1.443A1.368,1.368,0,0,0,985.2,21.4h-1.462" style="fill: #fff;opacity: 0.550000011920929;isolation: isolate"/>
          <path id="df9875a3-3f86-4bee-a875-7e1b72277ae6" data-name="e45aaae4-3da2-43fb-8524-33a6a05576fb" d="M1324.77,366.221a1.509,1.509,0,0,0-1.229,1.646v1.668a1.414,1.414,0,0,0,1.428,1.4h.015a1.508,1.508,0,0,0,1.23-1.647V367.62a1.413,1.413,0,0,0-1.426-1.4h-.018" style="fill: #fff;opacity: 0.5;isolation: isolate"/>
          <path id="11f7d489-3af6-4963-9df6-860f7e3d0c00" data-name="21888c1b-d992-4027-8418-2132ff5199c6" d="M1272.3,101.324a1.364,1.364,0,0,0-1.229,1.443v1.462a1.345,1.345,0,0,0,1.443,1.228,1.364,1.364,0,0,0,1.23-1.443v-1.465a1.345,1.345,0,0,0-1.444-1.229" style="fill: #fff;opacity: 0.550000011920929;isolation: isolate"/>
          <path id="963c9b49-19af-4a1b-80f1-226c5b971b70" data-name="ec750d90-f04a-4b77-9638-66148a9e69ba" d="M871.5,316.914c-1.733,0-1.5,2.671.214,2.671,1.733,0,1.5-2.671-.214-2.671" style="fill: #fff;opacity: 0.5;isolation: isolate"/>
          <path id="17a349d3-1db8-4289-9b0a-1374bb27d6fb" data-name="2252c538-a293-4899-877f-610f0e324ff9" d="M863.7,305.222c-1.733,0-1.5,2.671.214,2.671,1.733,0,1.5-2.671-.214-2.671" style="fill: #fff;opacity: 0.5;isolation: isolate"/>
          <path id="3f5af353-91b7-4885-b432-6f86edb27840" data-name="529ba001-a7c0-4dcc-b339-eff305051e06" d="M861.746,303.273c-1.732,0-1.5,2.671.214,2.671,1.734,0,1.5-2.671-.214-2.671" style="fill: #fff;opacity: 0.5;isolation: isolate"/>
          <path id="fa2c1878-06ce-486d-95d8-aa42a9284b2f" data-name="6d80220a-a88d-4587-bb1a-ed323f811eb5" d="M682.419,40.805a.744.744,0,0,0-.67.787v1.949a.735.735,0,0,0,.787.67.743.743,0,0,0,.67-.787V41.479a.733.733,0,0,0-.787-.67" style="fill: #fff;opacity: 0.699999988079071;isolation: isolate"/>
          <path id="717aa54a-e9e8-440e-a181-87cffd128c5b" data-name="0d1123d7-ff57-4d65-b2b6-b3d6a2bf5dc4" d="M618.117,59.07a.747.747,0,0,0-.672.788v1.948a.731.731,0,1,0,1.458-.117V59.74a.733.733,0,0,0-.786-.67" style="fill: #fff;opacity: 0.699999988079071;isolation: isolate"/>
          <path id="0b882458-f00f-4695-90f0-84fd6eaf534a" data-name="f6ffe604-9539-4ef3-84bb-653a98256ac1" d="M910.739,187.753c0-1-1.943-2.084-1.289-2.738s1.741-.175,2.739-.175,3.163-1.557,3.817-.9-1.242,2.818-1.242,3.816,1.272,2.538.618,3.191-2.195.548-3.193.548-1.086-1.347-1.74-2,.29-.741.29-1.738" style="fill: #f1f2f2;opacity: 0.5;isolation: isolate"/>
          <polygon id="edb040f4-540d-493d-bd9f-8bf671325a39" data-name="78b1caa2-1c3d-4fac-b080-2c1392d1ceaa" points="9.462 207.782 15.279 209.105 9.462 210.427 8.14 216.239 6.816 210.427 1.001 209.105 6.816 207.782 8.14 201.97 9.462 207.782" style="fill: #fff"/>
          <path id="7f070020-aca1-4ec2-98af-b23abe190427" data-name="0d1855a4-afbc-4aef-8652-cf0ddfe4d2af" d="M90.82,116.264c0-1-1.944-2.084-1.29-2.738s1.741-.175,2.739-.175,3.164-1.556,3.817-.9-1.242,2.818-1.242,3.816,1.272,2.537.618,3.191-2.2.548-3.193.548-1.086-1.347-1.739-2,.29-.742.29-1.739" style="fill: #f1f2f2;opacity: 0.699999988079071;isolation: isolate"/>
          <polygon id="d436cb65-f0d8-4c21-ab7b-c88803248726" data-name="aa75b3d5-d6ea-4dea-a166-90dbdf2670db" points="1064.908 370.703 1070.555 371.83 1064.908 372.958 1063.624 377.911 1062.338 372.958 1056.691 371.83 1062.338 370.703 1063.624 365.75 1064.908 370.703" style="fill: #fff;opacity: 0.5;isolation: isolate"/>
          <path id="b963f857-7d2e-4d7c-b923-9e85e09d60f7" data-name="171fdf80-0139-4dca-976b-e630ccac46fe" d="M898.33,334.619a1.345,1.345,0,0,0-1.229,1.443,1.363,1.363,0,0,0,1.443,1.228h1.462a1.344,1.344,0,0,0,1.229-1.443,1.366,1.366,0,0,0-1.443-1.228H898.33" style="fill: #fff;opacity: 0.5;isolation: isolate"/>
          <path id="c6bf69f0-5105-447c-9522-b68235d36147" data-name="e91226aa-c92f-428f-9945-1c5125f4892b" d="M957.478,351.212c-1.733,0-1.5,2.671.214,2.671,1.733,0,1.5-2.671-.214-2.671" style="fill: #fff;opacity: 0.5;isolation: isolate"/>
          <path id="2b964ec2-f136-4664-ae00-5aaa1e763d6d" data-name="7d38084d-56b4-45a6-8c1c-0375d49bc681" d="M949.678,339.52c-1.732,0-1.5,2.671.215,2.671,1.733,0,1.5-2.671-.215-2.671" style="fill: #fff;opacity: 0.5;isolation: isolate"/>
          <path id="9d27df56-2b09-49b4-9689-fcb75f69978a" data-name="53d84772-3b35-48d2-9aa3-ac065521704d" d="M947.726,337.571c-1.732,0-1.5,2.671.214,2.671,1.734,0,1.5-2.671-.214-2.671" style="fill: #fff;opacity: 0.5;isolation: isolate"/>
          <path id="29a6e43d-1174-4090-ab1c-8e09d6ff384c" data-name="79ae37e5-cf76-45e8-b922-ab6295fb8887" d="M1179.8,367.409c-.946,0-.819,1.457.117,1.457h.866c.945,0,.818-1.457-.118-1.457h-.865" style="fill: #fff;opacity: 0.5;isolation: isolate"/>
          <polygon id="47d22a22-132e-4800-ade3-c7cfdd38f318" data-name="d5407882-878b-4b4e-90cc-446c94001d2a" points="986.14 482.244 991.786 481.118 986.14 479.989 984.855 475.037 983.569 479.989 977.923 481.118 983.569 482.244 984.855 487.198 986.14 482.244" style="fill: #fff;opacity: 0.5;isolation: isolate"/>
          <polygon id="62065c6f-968f-4942-9795-86ad28317e1a" data-name="ef420d61-cbbf-4496-b0b2-2670244cd2a4" points="836.597 539.379 842.413 538.057 836.597 536.734 835.274 530.922 833.951 536.734 828.135 538.057 833.951 539.379 835.274 545.191 836.597 539.379" style="fill: #fff;opacity: 0.6000000238418579;isolation: isolate"/>
          <path id="b8f930e6-4112-43cb-b11c-5b4942e4a75c" data-name="897276cb-f7d5-4e9d-9407-d6cad2385cee" d="M1206.544,416c-1.1,0-.954-1.7.137-1.7s.954,1.7-.137,1.7" style="fill: #fff;opacity: 0.5;isolation: isolate"/>
          <path id="59c29777-593c-4be9-acc3-cf4168c12190" data-name="59721a4b-644a-4e38-b86f-c7dc925ba032" d="M1114.79,407.311a1.347,1.347,0,0,1-1.229-1.444,1.366,1.366,0,0,1,1.444-1.229h1.462a1.346,1.346,0,0,1,1.23,1.444,1.368,1.368,0,0,1-1.444,1.229h-1.463" style="fill: #fff;opacity: 0.5;isolation: isolate"/>
          <path id="4fbd50fc-f9b9-41f3-9a23-fef76ebf51f5" data-name="4956947d-81b7-4c66-8463-c3c6e2a90ee9" d="M980.485,543.559a1.364,1.364,0,0,1-1.23-1.442v-1.461a1.346,1.346,0,0,1,1.444-1.229,1.366,1.366,0,0,1,1.23,1.444v1.457a1.344,1.344,0,0,1-1.444,1.227" style="fill: #fff;opacity: 0.5;isolation: isolate"/>
          <path id="5d08559d-8996-442d-bf8c-560d39d3fce3" data-name="2aaf7c3a-1b10-4608-96ba-1338746a1282" d="M819.562,518.329a1.345,1.345,0,0,1-1.23-1.443,1.364,1.364,0,0,1,1.444-1.229h1.462a1.345,1.345,0,0,1,1.229,1.443,1.365,1.365,0,0,1-1.444,1.229h-1.462" style="fill: #fff;opacity: 0.6000000238418579;isolation: isolate"/>
          <path id="1cb44d0f-4b8d-421c-b7d8-61c8a8eff236" data-name="a4529a6b-e508-4915-8bbc-84d5004f1077" d="M996.568,526.025a1.367,1.367,0,0,1-1.23-1.443v-1.461a1.345,1.345,0,0,1,1.443-1.229,1.365,1.365,0,0,1,1.23,1.443V524.8a1.345,1.345,0,0,1-1.443,1.228" style="fill: #fff;opacity: 0.5;isolation: isolate"/>
          <path id="99e57636-9265-4a9c-85ff-08044a915916" data-name="b6f1ecb8-976c-4728-b9fb-00cd686b0a11" d="M1320.628,535.645a1.364,1.364,0,0,1-1.229-1.442v-1.462a1.347,1.347,0,0,1,1.443-1.229,1.367,1.367,0,0,1,1.23,1.445v1.461a1.344,1.344,0,0,1-1.444,1.227" style="fill: #fff;opacity: 0.5;isolation: isolate"/>
          <path id="e8b55ca4-942f-4992-951d-7a63304d4435" data-name="cc21548d-cf66-44e0-a522-3f026d51f39e" d="M974.638,527.487c-1.734,0-1.5-2.671.214-2.671,1.732,0,1.5,2.671-.214,2.671" style="fill: #fff"/>
          <path id="ae8d10b9-2e79-4a2d-8546-4c29b83a5b05" data-name="938edfe9-9fdf-42c6-9eff-fc5e781762b5" d="M1012.65,502.648c-1.733,0-1.5-2.673.215-2.673,1.733,0,1.5,2.673-.215,2.673" style="fill: #fff;opacity: 0.5;isolation: isolate"/>
          <path id="45e7cb6a-4e35-474a-bd7d-fc1509b60b22" data-name="5a1ae281-c3b8-4ac4-b901-6563fab54b9d" d="M335.473,68.437c0-1.146-.564-.015.582-.015s4.2-1.131,4.2.015-3.057,4.091-4.2,4.091-.582-2.947-.582-4.091" style="fill: #f1f2f2;opacity: 0.699999988079071;isolation: isolate"/>
          <polygon id="ab6237e1-9f5f-4302-9978-cd5b12b93643" data-name="73495a0e-a02b-4c1b-a029-c3aeee1910a0" points="121.237 34.207 127.053 35.529 121.237 36.853 119.915 42.665 118.591 36.853 112.776 35.529 118.591 34.207 119.915 28.394 121.237 34.207" style="fill: #fff;opacity: 0.699999988079071;isolation: isolate"/>
          <polygon id="4df83e1a-fb80-4e95-966f-b7c47f722f3a" data-name="6b4c5230-7841-4ed4-bfc9-a1c493f63d0e" points="70.07 284.079 75.887 285.403 70.07 286.725 68.748 292.537 67.424 286.725 61.609 285.403 67.424 284.079 68.748 278.267 70.07 284.079" style="fill: #fff"/>
          <path id="162a8524-1ab9-45b0-97cf-5c226ef3026e" data-name="c74b94ff-16ac-43ec-9e23-c47620fc7286" d="M482.488,7.135c-1.1,0-.954,1.7.136,1.7s.955-1.7-.136-1.7" style="fill: #fff;opacity: 0.699999988079071;isolation: isolate"/>
          <g id="84f78b41-541f-41f2-b091-3a015f646eba" data-name="8e69b688-1643-48f4-93e0-3bacf153bb16" style="opacity: 0.699999988079071">
            <path id="04cd07e3-fbcc-4c83-9e4b-61af6fda1199" data-name="3cc2f037-224e-4d31-9318-bc7c93d43e23" d="M394.578,0c-1.1,0-.955,1.7.135,1.7s.955-1.7-.135-1.7" style="fill: #fff"/>
          </g>
          <path id="1b985661-b7a8-422e-b837-ee89d867b383" data-name="d7a6579f-f2e3-4377-a082-f8e07c374cfb" d="M268.669,27.544c-1.1,0-.954,1.7.136,1.7s.954-1.7-.136-1.7" style="fill: #fff;opacity: 0.699999988079071;isolation: isolate"/>
          <path id="1eea2ce8-83ca-49dc-944f-acb4f01628ce" data-name="d140898e-cb06-4da8-99d3-98480cd261ef" d="M53.034,305.13a1.346,1.346,0,0,0-1.229,1.443,1.365,1.365,0,0,0,1.443,1.229H54.71a1.346,1.346,0,0,0,1.23-1.444A1.364,1.364,0,0,0,54.5,305.13H53.034" style="fill: #fff"/>
          <path id="08cd9e77-c291-4ece-ab64-e54cbe3c2902" data-name="e9cba14c-9d8f-4af7-9deb-0853008407cf" d="M576.357,60.845a1.345,1.345,0,0,0-1.229,1.444,1.364,1.364,0,0,0,1.444,1.227h1.462a1.344,1.344,0,0,0,1.229-1.442,1.366,1.366,0,0,0-1.444-1.229h-1.462" style="fill: #fff;opacity: 0.699999988079071;isolation: isolate"/>
          <path id="f4cb76d1-1709-4f46-a8f1-dc4415432cb9" data-name="84202d24-fbf5-41d2-a397-6f5df63be9b2" d="M224.421,26.209a1.346,1.346,0,0,0-1.229,1.442,1.366,1.366,0,0,0,1.445,1.229h1.46a1.345,1.345,0,0,0,1.23-1.443,1.365,1.365,0,0,0-1.444-1.228h-1.462" style="fill: #fff;opacity: 0.699999988079071;isolation: isolate"/>
          <path id="32a3dd70-639f-4c07-88f2-c780c13ad7f7" data-name="bf319741-002a-4d15-95d2-eed555edf425" d="M512.988,106.134a1.365,1.365,0,0,0-1.23,1.443v1.461a1.346,1.346,0,0,0,1.443,1.229,1.366,1.366,0,0,0,1.23-1.444v-1.461a1.344,1.344,0,0,0-1.443-1.228" style="fill: #fff;opacity: 0.699999988079071;isolation: isolate"/>
          <polygon id="9d3fdc2e-c731-4cde-a3b6-90399849aa53" data-name="c28f8d82-f5e4-4f34-89cf-ae769580db2e" points="226.828 487.054 232.474 485.926 226.828 484.799 225.543 479.845 224.258 484.799 218.611 485.926 224.258 487.054 225.543 492.006 226.828 487.054" style="fill: #fff;opacity: 0.6000000238418579;isolation: isolate"/>
          <polygon id="9c83b845-8c1c-43ba-8061-8a9cb82944c5" data-name="26cd17c6-7040-4ba4-b8c4-8de6c2993e1e" points="77.285 544.189 83.101 542.866 77.285 541.542 75.962 535.73 74.639 541.542 68.823 542.866 74.639 544.189 75.962 550 77.285 544.189" style="fill: #fff;opacity: 0.6000000238418579;isolation: isolate"/>
          <path id="451e5289-7952-4c56-b2d9-59c71e3cca24" data-name="04944efe-73c4-4717-9734-e700e99b345d" d="M489.558,494.305a2.689,2.689,0,0,1-2.459-2.886,2.728,2.728,0,0,1,2.887-2.458,2.688,2.688,0,0,1,2.458,2.886,2.729,2.729,0,0,1-2.886,2.458" style="fill: #fff;opacity: 0.6000000238418579;isolation: isolate"/>
          <polygon id="79cb5d65-4cff-4480-92a2-4eaf2870d64e" data-name="6d04db72-f182-428c-8e34-8074f6a7b291" points="1173.335 137.543 1179.152 138.865 1173.335 140.189 1172.013 146.001 1170.689 140.189 1164.874 138.865 1170.689 137.543 1172.013 131.73 1173.335 137.543" style="fill: #fff;opacity: 0.550000011920929;isolation: isolate"/>
          <polygon id="bcfc68fa-629d-4501-b416-bf3dd6713c80" data-name="9cf93c25-8f39-4354-9148-be1995320186" points="1432.793 247.752 1438.609 249.075 1432.793 250.397 1431.471 256.21 1430.147 250.397 1424.332 249.075 1430.147 247.752 1431.471 241.94 1432.793 247.752" style="fill: #fff;opacity: 0.5;isolation: isolate"/>
          <polygon id="dcee15fd-b0c2-43fd-a839-1e4c67e1be3b" data-name="036064ea-e7c0-4be5-8f67-f04e93b9259c" points="410.138 44.908 415.955 46.231 410.138 47.554 408.816 53.366 407.492 47.554 401.677 46.231 407.492 44.908 408.816 39.095 410.138 44.908" style="fill: #fff;opacity: 0.699999988079071;isolation: isolate"/>
        </g>
        <g id="7b46a921-8f1c-4b9f-a23e-f4faaa19b619" data-name="small" style="opacity: 0.30000001192092896">
          <path id="ac891fe2-8440-4d41-9869-035d3a1c9482" data-name="1a381626-208c-47bb-a44b-8f326733661f" d="M858.9,275.6c0,1.144-2.523.365-3.669.365s-.7.779-.7-.365-.447-.02.7-.02,3.669-1.126,3.669.02" style="fill: #f1f2f2"/>
          <path id="98794fcb-192f-4e95-94c8-25a46b820934" data-name="a64dba5b-a898-4c16-9938-4996ccd5d64d" d="M582.681,51.808c0,1.144.143,2.119-1,2.119s-3.778-.975-3.778-2.119,2.633-3.469,3.778-3.469,1,2.324,1,3.469" style="fill: #f1f2f2"/>
          <path id="f68318e5-1c1f-4f6e-a660-18d59df59a2d" data-name="c88bf197-ea6a-498c-961b-2a2a140dea61" d="M163.246,232.654c0,1.146-2.328,2.825-3.474,2.825s-.558-1.679-.558-2.825-.587-1.878.558-1.878,3.474.734,3.474,1.878" style="fill: #f1f2f2"/>
          <path id="765d93d9-aca1-4efb-a344-73c3ffc3f7ed" data-name="839b0c28-12ca-47c4-96d5-6af348d4b76f" d="M733.2,423.987c0,1.145-1.844-.292-2.99-.292s-1.573,1.437-1.573.292.428-2.833,1.573-2.833,2.99,1.689,2.99,2.833" style="fill: #f1f2f2;opacity: 0.5"/>
          <g id="d5eb3c5c-b65b-4726-9292-d5bf0b2891d7" data-name="0029e9d2-9018-46f9-a941-b79794685b64">
            <path id="32217949-f6f9-412c-b07e-59d470503198" data-name="46ea53a1-c32b-4672-a0b4-a9e7009efc38" d="M2.9,94.314A2.732,2.732,0,0,0,.008,96.771a2.692,2.692,0,0,0,2.46,2.887A2.729,2.729,0,0,0,5.355,97.2,2.689,2.689,0,0,0,2.9,94.314" style="fill: #fff"/>
          </g>
          <path id="286c64f6-00fd-4727-aae9-05557770f9ec" data-name="23599b29-c15e-41d9-a6c4-e671bf2141e2" d="M552.708,65.834a.857.857,0,0,0-.918.783v1.461a.868.868,0,0,0,.782.918.856.856,0,0,0,.918-.781V66.753a.87.87,0,0,0-.782-.919" style="fill: #fff"/>
          <path id="5fab205b-0c92-4263-82e6-7c77c5ecc936" data-name="88f75857-cd66-4524-8e03-64926de981d8" d="M583.41,90.675c-1.091,0-1.239,1.7-.136,1.7s1.239-1.7.136-1.7" style="fill: #fff"/>
          <path id="b17f3d9b-9e2a-4c5a-9b6b-d58a61457d88" data-name="60949d7f-c54a-4bdd-a78c-0bc0efce200e" d="M679.905,61.451a.856.856,0,0,0-.918.783V63.7a.869.869,0,0,0,.783.918.855.855,0,0,0,.917-.783V62.369a.868.868,0,0,0-.782-.919" style="fill: #fff"/>
          <path id="615b77b8-8efc-4a8b-9ad5-effd3c45ff56" data-name="0fd698d9-41da-466f-8781-7e36c71244c4" d="M600.955,93.6c-1.09,0-1.239,1.7-.136,1.7s1.239-1.7.136-1.7" style="fill: #fff"/>
          <path id="bec5e942-db7c-489e-bf80-31ea38baa1ab" data-name="4b63c118-2ad2-4a7c-b1f3-937bf7160e5b" d="M611.189,99.443c-1.091,0-1.238,1.7-.136,1.7s1.238-1.7.136-1.7" style="fill: #fff"/>
          <path id="2cf776d9-ab36-41e4-99e6-7506a6b8b1a3" data-name="d9ef9537-462c-4d09-b1ed-e914c9a7b4ce" d="M617.038,100.9a.857.857,0,0,0-.919.782v1.462a.869.869,0,0,0,.782.919.857.857,0,0,0,.918-.782v-1.462a.868.868,0,0,0-.781-.918" style="fill: #fff"/>
          <path id="e16dcc1d-4ce9-454c-86a3-55419d59ba21" data-name="423b4ba9-3bc2-44e5-a36f-77a8db1f62c8" d="M493.482,180.471c-1.09,0-1.239,1.7-.136,1.7s1.239-1.7.136-1.7" style="fill: #fff;opacity: 0.5"/>
          <path id="b3004b22-0d00-46f1-bccf-07d0f9c7021a" data-name="cd85a1d4-9044-48f6-93e3-fdf6063d065e" d="M511.026,183.4c-1.089,0-1.239,1.7-.136,1.7s1.239-1.7.136-1.7" style="fill: #fff;opacity: 0.5"/>
          <path id="c1ca911a-f44c-42ce-a2fa-16899328f22b" data-name="f07ffa57-8099-493f-9691-fae2ed86da5d" d="M492.657,211.474c-1.09,0-1.24,1.7-.137,1.7s1.24-1.7.137-1.7" style="fill: #fff;opacity: 0.5"/>
          <path id="24a84b21-191a-4132-9c2e-139bb22ee9f0" data-name="9a378954-8407-417f-ba2d-c62f05dc4e78" d="M249.965,296.588c-1.09,0-1.239,1.7-.136,1.7s1.238-1.7.136-1.7" style="fill: #fff;opacity: 0.5"/>
          <path id="eb560c75-1a5f-431d-9ec7-232d9dbde202" data-name="9edec701-3bae-4ea6-9e68-4c27e4878a95" d="M195.033,3c-1.09,0-1.24,1.7-.137,1.7s1.239-1.7.137-1.7" style="fill: #fff"/>
          <path id="dc6656ea-5e7b-4d6c-b804-64caa301b7be" data-name="5bf7687b-8823-4e36-b111-5c557a46aed3" d="M882.98,209.421c-1.09,0-1.239,1.7-.136,1.7s1.239-1.7.136-1.7" style="fill: #fff"/>
          <path id="641ac530-1f92-4223-8aca-55e441790b46" data-name="d07d3676-a6bd-43d9-a3d6-89d19aa012d6" d="M408.852,23.412c-1.09,0-1.24,1.7-.136,1.7s1.239-1.7.136-1.7" style="fill: #fff"/>
          <path id="4d48a5b7-30ac-40c5-939d-3ae31087d01e" data-name="943b0547-6b07-448c-a4d4-7b44254db7fa" d="M210.893,242.519c-1.09,0-1.239,1.7-.135,1.7s1.239-1.7.135-1.7" style="fill: #fff"/>
          <path id="d9ddd6e6-0e7e-405c-b42d-0eb22a05fdcb" data-name="ad6dda29-bf0f-4358-9b29-591933151321" d="M521.261,189.239c-1.091,0-1.238,1.7-.136,1.7s1.239-1.7.136-1.7" style="fill: #fff;opacity: 0.5"/>
          <path id="b29aad60-f765-46bb-bc68-de24ad2a053b" data-name="bbe87c2f-86ce-4fe0-b8a4-77e401601285" d="M801.281,390.685c-1.092,0-1.239,1.7-.137,1.7s1.239-1.7.137-1.7" style="fill: #fff"/>
          <path id="a38e0a89-1bbb-4015-be0c-95ee306618d1" data-name="1a91d8f9-c1e5-480f-8cdb-47e3130c84bd" d="M733.547,367.06c-1.091,0-1.239,1.7-.137,1.7s1.238-1.7.137-1.7" style="fill: #fff;opacity: 0.5"/>
          <path id="061ea12f-4115-4b8e-995f-cde4d7e5f781" data-name="98879f57-3694-480f-9ecc-e73e9dc07442" d="M527.96,399.1c-1.091,0-1.238,1.7-.136,1.7s1.238-1.7.136-1.7" style="fill: #fff;opacity: 0.5"/>
          <path id="61cb44c7-3c18-45d7-bcff-96fa8ca48461" data-name="01271cbc-e6a2-4d77-94ee-9586181e43dc" d="M584.237,440.967c-1.091,0-1.238,1.7-.136,1.7s1.238-1.7.136-1.7" style="fill: #fff;opacity: 0.5"/>
          <path id="163b24e5-285e-4816-8f72-2ae91811b289" data-name="c23c89fd-0ab7-4f13-b843-9e692906b408" d="M237.507,403.324c-1.091,0-1.238,1.7-.136,1.7s1.239-1.7.136-1.7" style="fill: #fff;opacity: 0.5"/>
          <path id="37bb38b5-3869-4880-905f-ef2e7f309f62" data-name="5b432ef4-f45f-41c8-80c0-10175291ef1b" d="M527.115,190.7a.855.855,0,0,0-.918.783v1.461a.87.87,0,0,0,.782.919.856.856,0,0,0,.917-.783v-1.461a.868.868,0,0,0-.781-.919" style="fill: #fff;opacity: 0.5"/>
          <path id="6b28dab6-cb97-417e-8201-e7c526ca4f00" data-name="e4005d6c-ba03-4708-84df-67becf015fe9" d="M545.154,210.272a.857.857,0,0,0-.918.783v1.46a.867.867,0,0,0,.782.919.854.854,0,0,0,.917-.781v-1.459a.868.868,0,0,0-.781-.919" style="fill: #fff;opacity: 0.5"/>
          <path id="27de8e7e-aaed-45d4-8f9b-b34c16d83651" data-name="46b44bc8-e911-4ba5-ad25-82ecb0bb3808" d="M504.533,422.7h-1.462a1.364,1.364,0,0,0-1.443,1.228,1.345,1.345,0,0,0,1.229,1.444h1.457a1.366,1.366,0,0,0,1.444-1.229,1.344,1.344,0,0,0-1.229-1.443" style="fill: #fff;opacity: 0.5"/>
          <path id="88eb2e65-39c3-4e21-bc69-47b7894665fc" data-name="3bccb230-f930-4946-ac7e-9939c902f9b7" d="M653.627,207.089h-1.462a1.366,1.366,0,0,0-1.443,1.228,1.346,1.346,0,0,0,1.229,1.443h1.467a1.363,1.363,0,0,0,1.443-1.228,1.343,1.343,0,0,0-1.229-1.443" style="fill: #fff;opacity: 0.5"/>
          <path id="19ac0ea6-05c6-4728-9ce8-6325d575d5bd" data-name="a8137703-d913-451d-af0c-b7668ae0b701" d="M706.153,276.5h-1.462a1.363,1.363,0,0,0-1.443,1.228,1.345,1.345,0,0,0,1.229,1.443h1.462a1.365,1.365,0,0,0,1.444-1.228,1.347,1.347,0,0,0-1.23-1.443" style="fill: #fff;opacity: 0.5"/>
          <path id="217f12bf-e012-4990-9254-c5a87c3497e6" data-name="1f27900f-c1bb-4b9f-8a92-a732cd087b8b" d="M742.951,422.029H741.49a1.367,1.367,0,0,0-1.445,1.23,1.346,1.346,0,0,0,1.229,1.443h1.463a1.366,1.366,0,0,0,1.443-1.229,1.345,1.345,0,0,0-1.229-1.444" style="fill: #fff;opacity: 0.5"/>
          <path id="d77d9bf7-7bbb-4393-8b6e-5483eee67232" data-name="ee16297a-93d3-4ad0-9539-a166ccdf1a48" d="M624.486,301h-1.462a1.365,1.365,0,0,0-1.444,1.227,1.347,1.347,0,0,0,1.23,1.444h1.462a1.366,1.366,0,0,0,1.444-1.229,1.346,1.346,0,0,0-1.23-1.442" style="fill: #fff;opacity: 0.5"/>
          <path id="bf1e2a39-cf8d-496a-8064-71233aa58b7b" data-name="4660fefe-88b7-46e8-abbe-d8ca4cf95b26" d="M653.627,151.562h-1.462a1.364,1.364,0,0,0-1.443,1.228,1.346,1.346,0,0,0,1.229,1.444h1.467a1.363,1.363,0,0,0,1.443-1.229,1.343,1.343,0,0,0-1.229-1.443" style="fill: #fff"/>
          <path id="5dffd3c7-af97-4e8a-af2a-be4c874c0413" data-name="e1e35094-7130-4f86-838b-ddeaecc0ace1" d="M652.165,151.562c-1.715,0-1.947,2.672-.213,2.672,1.713,0,1.946-2.672.213-2.672" style="fill: #fff"/>
          <path id="f8f106c6-a9a7-4048-a04c-37da26a98db4" data-name="af6fc1b2-72dd-44b7-ab47-857fb45c53ae" d="M101.164,56.714H99.7a1.363,1.363,0,0,0-1.444,1.228,1.345,1.345,0,0,0,1.229,1.443h1.462a1.364,1.364,0,0,0,1.444-1.228,1.346,1.346,0,0,0-1.229-1.443" style="fill: #fff"/>
          <path id="cd523844-b906-40bd-937b-da4753133631" data-name="59b66106-0cc7-4b5e-b41f-284567421cce" d="M462.468,172.073h-1.462a1.365,1.365,0,0,0-1.444,1.228,1.344,1.344,0,0,0,1.229,1.443h1.461a1.366,1.366,0,0,0,1.445-1.228,1.345,1.345,0,0,0-1.229-1.443" style="fill: #fff;opacity: 0.5"/>
          <path id="c75505dc-27de-44fb-9e36-e891030664a9" data-name="6eda7ca3-5745-4d0e-a79f-9e77ed181bc5" d="M453.1,22.077h-1.462a1.365,1.365,0,0,0-1.444,1.228,1.344,1.344,0,0,0,1.23,1.444h1.46a1.366,1.366,0,0,0,1.445-1.229,1.345,1.345,0,0,0-1.229-1.443" style="fill: #fff"/>
          <path id="27cce091-f162-4ac7-b734-72c45c3a182c" data-name="97756371-f739-433d-8012-1f89e5f5e92a" d="M368.526,203.592h-2.067a1.362,1.362,0,0,0-1.443,1.228,1.343,1.343,0,0,0,1.229,1.443h2.066a1.365,1.365,0,0,0,1.444-1.229,1.345,1.345,0,0,0-1.23-1.442" style="fill: #fff;opacity: 0.5"/>
          <path id="0f5a6513-b1ca-401d-a99c-cd32579195a5" data-name="9820b842-c465-4c16-a4c0-918590849a7b" d="M13.411,357.82H11.344A1.366,1.366,0,0,0,9.9,359.043a1.346,1.346,0,0,0,1.23,1.444H13.2a1.366,1.366,0,0,0,1.444-1.229,1.346,1.346,0,0,0-1.234-1.438" style="fill: #fff"/>
          <path id="7527e9e5-6f13-47b7-8e8a-283709817bff" data-name="fda6360a-2f43-4066-a4f9-0a19ed647965" d="M123.419,283.682a1.344,1.344,0,0,0-1.443,1.227v1.462a1.365,1.365,0,0,0,1.229,1.444,1.346,1.346,0,0,0,1.444-1.229v-1.461a1.364,1.364,0,0,0-1.23-1.443" style="fill: #fff"/>
          <path id="87721597-eb4b-4c24-b315-41f901e0571a" data-name="d67348a5-1740-40bf-8d78-53ce93b8133b" d="M122.079,173.413h-1.461a1.365,1.365,0,0,0-1.444,1.227,1.345,1.345,0,0,0,1.229,1.445h1.462a1.366,1.366,0,0,0,1.444-1.23,1.344,1.344,0,0,0-1.23-1.442" style="fill: #fff"/>
          <path id="71f9fe1d-6ad5-4d1e-8b44-d499a148a78a" data-name="1d94fc22-7f46-45d8-b934-2e403beaba37" d="M161.857,196.789H159.79a1.364,1.364,0,0,0-1.443,1.228,1.344,1.344,0,0,0,1.229,1.443h2.067a1.365,1.365,0,0,0,1.443-1.228,1.343,1.343,0,0,0-1.229-1.443" style="fill: #fff"/>
          <path id="0c961d7c-be0e-4747-b0b8-f28b427fe0bc" data-name="bc55b4fb-7099-4ce8-8191-30094c743e7b" d="M129.39,207.017a1.345,1.345,0,0,0-1.444,1.229v1.461a1.364,1.364,0,0,0,1.23,1.443,1.345,1.345,0,0,0,1.443-1.228V208.46a1.364,1.364,0,0,0-1.229-1.443" style="fill: #fff"/>
          <path id="b7572ce0-2a5d-4bb9-82d6-f1506e99df1f" data-name="c9ad5b94-9d17-4609-ac99-7ceabf1e3b8d" d="M151.32,205.555c-1.714,0-1.946,2.672-.214,2.672,1.715,0,1.948-2.672.214-2.672" style="fill: #fff"/>
          <path id="be54c05e-ec85-4cd8-9300-4e8d35aca0b5" data-name="0849ad0c-8992-434a-b5a5-54e5212dfe66" d="M431.4,316.681c-1.715,0-1.947,2.673-.214,2.673,1.714,0,1.947-2.673.214-2.673" style="fill: #fff;opacity: 0.5"/>
          <path id="09ca8667-5395-4e41-af06-1e6cdc56c82b" data-name="31e3b04a-d4fc-4ff6-9de9-8f68f1d70970" d="M636.083,182.248c-1.714,0-1.947,2.671-.214,2.671,1.714,0,1.948-2.671.214-2.671" style="fill: #fff;opacity: 0.5"/>
          <path id="e7bb70ae-e933-487f-9e2d-914fbe383a79" data-name="fe845870-fc6f-4622-812c-f8da51f4b15e" d="M565.338,317.592c-1.714,0-1.947,2.67-.214,2.67,1.714,0,1.947-2.67.214-2.67" style="fill: #fff;opacity: 0.5"/>
          <path id="666cd34a-487c-46f5-85ea-5393b9605e83" data-name="c2c8d36f-085a-4b61-91f3-18186315a04c" d="M573.137,305.9c-1.715,0-1.947,2.672-.214,2.672,1.714,0,1.947-2.672.214-2.672" style="fill: #fff;opacity: 0.5"/>
          <path id="3df1d609-5839-475f-ba6b-57e2ba18a235" data-name="151546ac-af2c-44ee-ba8d-ff3e0f776c47" d="M575.087,303.947c-1.714,0-1.948,2.672-.214,2.672,1.714,0,1.946-2.672.214-2.672" style="fill: #fff;opacity: 0.5"/>
          <path id="2423bbc9-c07c-41b6-bf0f-ddbeb0781674" data-name="b7d4b97d-82a0-424e-808f-42fdbe215872" d="M754.421,41.479a.734.734,0,0,0-.787.671V44.1a.743.743,0,0,0,.67.787.734.734,0,0,0,.787-.67V42.27a.745.745,0,0,0-.67-.788" style="fill: #fff"/>
          <path id="c7ba303e-5d5c-48b2-9325-bd3a09dbcfc2" data-name="ab6b7931-1410-450e-a0c7-dc5812c29d1b" d="M818.723,59.746a.73.73,0,0,0-.786.67v1.953a.731.731,0,0,0,1.458.117V60.534a.747.747,0,0,0-.672-.788" style="fill: #fff"/>
          <path id="863b921a-409c-4978-9db1-d757a92d63f8" data-name="d0cb6793-3d9c-4103-bc54-69755e0e3bc2" d="M343.01,333.787h-.865c-.936,0-1.063,1.458-.118,1.458h.866c.936,0,1.063-1.458.117-1.458" style="fill: #fff;opacity: 0.5"/>
          <path id="7d1fcd86-88b1-4217-af64-e9e3e179c364" data-name="b9d509a0-4cae-4f49-aa70-5483fa68225a" d="M407.5,214.769c-1.09,0-1.239,1.7-.136,1.7s1.239-1.7.136-1.7" style="fill: #fff;opacity: 0.5"/>
          <path id="476ec4fc-e850-4018-bf06-b48612ed1227" data-name="399324c8-5e30-41ee-b14a-eb20908cf1fc" d="M425.043,217.691c-1.089,0-1.239,1.7-.135,1.7s1.238-1.7.135-1.7" style="fill: #fff;opacity: 0.5"/>
          <path id="3b803207-77fd-46d0-8421-d19adc1880dc" data-name="80cc03e9-1355-4475-8592-624a717826b5" d="M435.277,223.537c-1.091,0-1.238,1.7-.136,1.7s1.24-1.7.136-1.7" style="fill: #fff;opacity: 0.5"/>
          <path id="6c183012-7bf3-4d99-98d1-7c728dffdc64" data-name="4c25e6a7-da13-4fc7-9f5c-3c02ec0ff763" d="M424.365,329.061a1.347,1.347,0,0,0-1.445,1.228v1.462a1.365,1.365,0,0,0,1.229,1.442,1.345,1.345,0,0,0,1.445-1.229V330.5a1.364,1.364,0,0,0-1.229-1.443" style="fill: #fff;opacity: 0.5"/>
          <path id="987c1392-91ed-4af5-92dd-60c65e5d3bb6" data-name="4de35d64-0a7a-408c-8645-71ee75a54995" d="M538.5,335.3h-1.462a1.364,1.364,0,0,0-1.443,1.228,1.343,1.343,0,0,0,1.229,1.442h1.462a1.363,1.363,0,0,0,1.443-1.228A1.343,1.343,0,0,0,538.5,335.3" style="fill: #fff;opacity: 0.5"/>
          <path id="ba378cec-eb5f-4132-8e76-d4861de72023" data-name="f43beafe-bef3-4ded-a7e5-34d2b4ca6cf0" d="M335.18,261.845c-1.714,0-1.947,2.67-.215,2.67,1.715,0,1.949-2.67.215-2.67" style="fill: #fff;opacity: 0.5"/>
          <path id="e95d6296-9e8f-4390-8287-e8cdae1a399f" data-name="7ecab987-bbad-4aaa-b943-5515c4c1c356" d="M346.673,281.008c-1.715,0-1.947,2.671-.214,2.671,1.714,0,1.948-2.671.214-2.671" style="fill: #fff;opacity: 0.5"/>
          <path id="b673c5f8-f9a1-419b-ae15-62f785bf4329" data-name="b2fa3c11-e3d2-49f8-8121-be45fa9a79f5" d="M354.187,293.991h-1.462a1.365,1.365,0,0,0-1.443,1.229,1.343,1.343,0,0,0,1.228,1.443h1.461a1.366,1.366,0,0,0,1.445-1.228,1.346,1.346,0,0,0-1.229-1.444" style="fill: #fff;opacity: 0.5"/>
          <path id="cb636a1b-2fc7-4bbc-a63a-41b06804543a" data-name="2b9928ee-b06b-4a81-8596-c1eb3a527c74" d="M360.891,263.18h-1.462a1.364,1.364,0,0,0-1.443,1.228,1.344,1.344,0,0,0,1.229,1.444h1.461a1.369,1.369,0,0,0,1.446-1.229,1.346,1.346,0,0,0-1.231-1.443" style="fill: #fff;opacity: 0.5"/>
          <path id="2b22cc60-25b5-40f7-a664-0bc6d7e27fc7" data-name="4d1fa8dc-a36c-4298-b5ef-8cfcc19b92b2" d="M1093.7,237.22a2.681,2.681,0,0,0,3.774.351h0a2.6,2.6,0,0,0,.961-1.849v-1.461a2.836,2.836,0,0,0-.609-1.926,2.684,2.684,0,0,0-3.776-.35,2.6,2.6,0,0,0-.96,1.848v1.461a2.83,2.83,0,0,0,.61,1.926" style="fill: #fff"/>
          <path id="375ab943-18ca-4b99-83d0-254b2a866e50" data-name="2b58ed53-b5be-418e-900d-b889dc1b560b" d="M980.927,297.439c1.09,0,1.239-1.7.136-1.7s-1.239,1.7-.136,1.7" style="fill: #fff"/>
          <path id="8bc60ae9-7561-4a01-9dee-0624f25c908c" data-name="12e5e77a-74ca-41d5-a319-3cc70f202792" d="M1010.028,233.145a1.344,1.344,0,0,0,1.444-1.227v-1.462a1.365,1.365,0,0,0-1.229-1.443,1.345,1.345,0,0,0-1.444,1.228V231.7a1.364,1.364,0,0,0,1.229,1.442" style="fill: #fff"/>
          <path id="92857677-bb8e-4b1e-93dc-8cdf4b472660" data-name="27dd32b4-aeb0-4ee6-be1e-8ec985b44760" d="M1052.429,281.366c1.715,0,1.947-2.671.215-2.671-1.715,0-1.948,2.671-.215,2.671" style="fill: #fff"/>
          <path id="fd6a3466-722c-432c-8b5b-8473eb50068a" data-name="dc4fdb28-aa07-433a-8b75-ced2e62d8d91" d="M1040.929,262.2c1.715,0,1.947-2.671.215-2.671-1.715,0-1.949,2.671-.215,2.671" style="fill: #fff"/>
          <path id="843ae76d-eb79-4335-ad3d-b7fe878d4f06" data-name="55bbc8a4-c74c-44ce-a580-d8a8c41c8536" d="M1033.417,249.219h1.462a1.365,1.365,0,0,0,1.443-1.228,1.344,1.344,0,0,0-1.229-1.443h-1.465a1.366,1.366,0,0,0-1.444,1.228,1.344,1.344,0,0,0,1.229,1.443" style="fill: #fff"/>
          <path id="a8df93c0-739a-4312-95c1-0360b1089f60" data-name="652f9f1b-fb98-453a-b0d2-42913fe153ac" d="M986.055,269.551h1.462a1.366,1.366,0,0,0,1.443-1.229,1.345,1.345,0,0,0-1.229-1.443H986.27a1.366,1.366,0,0,0-1.445,1.228,1.346,1.346,0,0,0,1.23,1.444" style="fill: #fff"/>
          <path id="92f06dcc-016b-46fd-9689-4efcb6b26587" data-name="a504c681-efe9-4788-8ec4-a7850a1fdd57" d="M1026.712,280.03h1.462a1.365,1.365,0,0,0,1.444-1.228,1.344,1.344,0,0,0-1.23-1.443h-1.46a1.365,1.365,0,0,0-1.444,1.228,1.345,1.345,0,0,0,1.229,1.443" style="fill: #fff"/>
          <path id="4c71269f-7cfb-4759-a622-ea517086ba31" data-name="f2dffe6b-17fb-43a2-bd46-8f4f99483f1e" d="M1026.107,215.611a1.346,1.346,0,0,0,1.444-1.229v-1.461a1.365,1.365,0,0,0-1.23-1.443,1.344,1.344,0,0,0-1.443,1.228v1.462a1.364,1.364,0,0,0,1.229,1.443" style="fill: #fff"/>
          <path id="6b4b41ec-8884-48cf-a731-771e290d1325" data-name="46ead7b1-f79e-4c4f-83c3-4224439ffb55" d="M1004.177,217.073c1.715,0,1.947-2.672.215-2.672-1.716,0-1.948,2.672-.215,2.672" style="fill: #fff"/>
          <path id="c2a0b666-eb68-4973-81dd-2d95ce23aa20" data-name="ad61a266-cd4d-42a7-a382-06e9320e26ad" d="M1084.589,268.215c1.714,0,1.948-2.671.213-2.671-1.714,0-1.946,2.671-.213,2.671" style="fill: #fff"/>
          <path id="d8920a51-b90a-4386-a48d-e0fa97a543d1" data-name="7ebd3105-5047-4848-b42e-75131bda757c" d="M1066.088,294.142c1.09,0,1.24-1.7.136-1.7s-1.238,1.7-.136,1.7" style="fill: #fff"/>
          <path id="e0c9445e-bf85-4ded-be75-5ef8dc9bc85f" data-name="607c0ba8-5ec1-42cf-9b9c-e8be0e261155" d="M1048.544,291.22c1.09,0,1.239-1.7.136-1.7s-1.239,1.7-.136,1.7" style="fill: #fff"/>
          <path id="7ddf5709-87bd-4811-9ee0-f56b17dc7e93" data-name="8ce33b82-9492-43b0-93c5-f7a4b8e1759b" d="M1066.914,263.141c1.089,0,1.239-1.7.136-1.7s-1.239,1.7-.136,1.7" style="fill: #fff"/>
          <path id="93a63f72-2fd3-49b5-827a-fb9bece294cb" data-name="8e3b6f6d-fd49-44ee-b4bd-8e80c4ce2a17" d="M1038.309,285.376c1.091,0,1.239-1.7.136-1.7s-1.239,1.7-.136,1.7" style="fill: #fff"/>
          <path id="8d13fd00-72e0-49bd-80fa-4a58607b4614" data-name="29f01904-7359-4b33-9cce-bc2821e304d7" d="M1032.46,283.915a.855.855,0,0,0,.918-.783v-1.461a.869.869,0,0,0-.782-.919.854.854,0,0,0-.917.783V283a.868.868,0,0,0,.781.92" style="fill: #fff"/>
          <path id="85b59289-561b-448a-ac72-79cb908fdeac" data-name="22b24654-4821-458c-8df1-9a257f1065e1" d="M1014.417,264.342a.856.856,0,0,0,.917-.782V262.1a.868.868,0,0,0-.781-.918.855.855,0,0,0-.918.782v1.462a.868.868,0,0,0,.782.918" style="fill: #fff"/>
          <path id="609eca2c-af97-42fb-9d6d-a9da987fa827" data-name="441dac4b-29cc-42b9-af93-cae79819cbaf" d="M1138.407,247.068c1.715,0,1.947-2.671.215-2.671-1.715,0-1.948,2.671-.215,2.671" style="fill: #fff"/>
          <path id="bf8791b0-9982-4212-b464-7a9173a0e581" data-name="ed512b8f-d723-4f49-86aa-aa8c3c60981b" d="M1126.914,227.905c1.715,0,1.947-2.671.215-2.671-1.714,0-1.948,2.671-.215,2.671" style="fill: #fff"/>
          <path id="3987882d-2904-4f8a-8187-772fbdb060fc" data-name="8e58fe3c-486b-409c-a4aa-2dad17bf8af2" d="M1119.4,214.921h1.462a1.364,1.364,0,0,0,1.443-1.228,1.345,1.345,0,0,0-1.229-1.444h-1.461a1.365,1.365,0,0,0-1.444,1.229,1.343,1.343,0,0,0,1.229,1.443" style="fill: #fff"/>
          <path id="3bd0db88-0c01-4b92-8787-e1e187724146" data-name="93039974-8f0f-4915-b830-991987099cae" d="M1072.038,235.253h1.462a1.365,1.365,0,0,0,1.443-1.228,1.345,1.345,0,0,0-1.229-1.444h-1.461a1.366,1.366,0,0,0-1.445,1.229,1.346,1.346,0,0,0,1.23,1.443" style="fill: #fff"/>
          <path id="ca520f5b-89a2-4fdf-945b-01099d2ddc12" data-name="8c416b98-df02-4e45-90bb-ee42137c7882" d="M1112.7,245.733h1.463a1.368,1.368,0,0,0,1.444-1.229,1.346,1.346,0,0,0-1.23-1.443h-1.462a1.365,1.365,0,0,0-1.444,1.228,1.346,1.346,0,0,0,1.229,1.444" style="fill: #fff"/>
          <path id="9ba60d19-d11f-4d37-bfd4-0010bd963d57" data-name="88b74dd8-47e5-4214-8c51-87998ab5d063" d="M376.485,206.371h-1.462a1.367,1.367,0,0,0-1.444,1.228,1.343,1.343,0,0,0,1.229,1.443h1.461a1.366,1.366,0,0,0,1.445-1.228,1.346,1.346,0,0,0-1.229-1.443" style="fill: #fff;opacity: 0.5"/>
          <path id="7ee02515-5cdd-45cf-98f3-a8f44cc056aa" data-name="bc51edbc-482b-4dd6-ae20-1b9b3e055bd4" d="M282.542,237.89h-2.067a1.363,1.363,0,0,0-1.443,1.228,1.344,1.344,0,0,0,1.229,1.443h2.067a1.364,1.364,0,0,0,1.444-1.228,1.344,1.344,0,0,0-1.23-1.443" style="fill: #fff;opacity: 0.5"/>
          <path id="78773502-47a6-49b6-8726-a631627ce62b" data-name="76f4e7b2-5231-445e-b507-b1214e4cc0a1" d="M361.5,327.6a1.344,1.344,0,0,0-1.443,1.228v1.461a1.368,1.368,0,0,0,1.229,1.445,1.349,1.349,0,0,0,1.445-1.23v-1.461A1.366,1.366,0,0,0,361.5,327.6" style="fill: #fff;opacity: 0.5"/>
          <path id="b9bd202c-1329-4dfa-b1cf-3eca77d68d7a" data-name="ebfe97d8-1714-4390-b207-9045f46b1a28" d="M383.427,326.136c-1.714,0-1.946,2.671-.214,2.671,1.715,0,1.947-2.671.214-2.671" style="fill: #fff;opacity: 0.5"/>
          <path id="1ee1419b-08f2-4e91-8c52-60312f937be3" data-name="a75c2a58-cd86-4bd9-b38c-1ee9a58e1f0f" d="M345.41,350.979c-1.715,0-1.947,2.673-.214,2.673,1.714,0,1.947-2.673.214-2.673" style="fill: #fff;opacity: 0.5"/>
          <path id="af04ee36-efcc-47e9-871e-4a7e294580c7" data-name="db21e616-db52-43c0-b589-b8bb12115e51" d="M303.015,275c-1.714,0-1.948,2.672-.213,2.672,1.714,0,1.946-2.672.213-2.672" style="fill: #fff;opacity: 0.5"/>
          <path id="ac6f6ee3-aaa3-4709-8ed3-9eb82c7e08c8" data-name="f749ef0e-a720-4d41-822b-b4862e26955d" d="M479.355,351.889c-1.714,0-1.947,2.671-.214,2.671,1.714,0,1.947-2.671.214-2.671" style="fill: #fff;opacity: 0.5"/>
          <path id="43db4e02-af0c-4a82-aedd-351a63bdf028" data-name="5552a9e5-98ca-45c2-8580-36ace8efcfa5" d="M487.155,340.2c-1.716,0-1.948,2.671-.215,2.671,1.714,0,1.947-2.671.215-2.671" style="fill: #fff;opacity: 0.5"/>
          <path id="696199ae-0f58-4954-8f47-66584aa24078" data-name="69c2cf7a-87b1-4ead-9ace-8fb9a1cb2e5a" d="M489.1,338.248c-1.713,0-1.948,2.672-.214,2.672,1.714,0,1.946-2.672.214-2.672" style="fill: #fff;opacity: 0.5"/>
          <path id="8339bb9d-ad7d-4425-a056-76ff9fe4b5ee" data-name="2dc60fea-519c-4d82-9911-7ddd02d4d23e" d="M257.031,368.086h-.865c-.936,0-1.063,1.457-.118,1.457h.866c.936,0,1.063-1.457.117-1.457" style="fill: #fff;opacity: 0.5"/>
          <path id="9326d78b-43ec-4ef9-ab34-d541793abe38" data-name="c9d1add9-d011-43f6-828a-ca52588db295" d="M535.406,528.035a2.73,2.73,0,0,1-2.888-2.458,2.689,2.689,0,0,1,2.458-2.885,2.729,2.729,0,0,1,2.887,2.456,2.689,2.689,0,0,1-2.457,2.887" style="fill: #fff"/>
          <path id="cc086351-1664-4a50-b234-225ce13f09fd" data-name="0b5dca54-11bc-43c8-b472-19eedcd2fd38" d="M242.75,523.415c-1.091,0-1.24-1.7-.136-1.7s1.238,1.7.136,1.7" style="fill: #fff"/>
          <path id="7d2b4ac8-e7bd-4374-b879-517a02f3d190" data-name="622cbbad-1aa7-4e5b-a1d1-53fae8ce777e" d="M794.066,429.32c-1.091,0-1.239-1.7-.136-1.7s1.238,1.7.136,1.7" style="fill: #fff;opacity: 0.5"/>
          <path id="d99cf9ce-5e82-4d72-abce-60fc008a8e21" data-name="3f69e879-6e87-4676-91b5-ccbda3530d42" d="M726.332,452.945c-1.091,0-1.238-1.7-.136-1.7s1.238,1.7.136,1.7" style="fill: #fff"/>
          <path id="e2728aef-adc1-45cb-9efb-321ced57fb17" data-name="c2f36e08-660e-4547-9435-239723e3440b" d="M520.746,420.91c-1.092,0-1.239-1.7-.137-1.7s1.238,1.7.137,1.7" style="fill: #fff;opacity: 0.5"/>
          <path id="f9f68066-ca39-473d-bf28-1b4f22674db1" data-name="1c31f7bd-f11d-4fad-a85f-eb699f4d6aae" d="M577.022,379.038c-1.091,0-1.238-1.7-.136-1.7s1.239,1.7.136,1.7" style="fill: #fff;opacity: 0.5"/>
          <path id="ef960e75-a6b6-4905-b2d1-fe1f499d0e0a" data-name="08ada982-5488-4497-893c-864b54f64338" d="M230.289,416.681c-1.091,0-1.239-1.7-.137-1.7s1.239,1.7.137,1.7" style="fill: #fff;opacity: 0.5"/>
          <path id="1306da4b-c6be-4795-8ef9-dee1dfdf0f32" data-name="5f9f7c96-9010-4e02-bc03-7dd6a7b50f6a" d="M503.133,525.242a1.348,1.348,0,0,1-1.445-1.229v-1.461a1.365,1.365,0,0,1,1.23-1.442,1.343,1.343,0,0,1,1.444,1.228v1.46a1.367,1.367,0,0,1-1.229,1.444" style="fill: #fff"/>
          <path id="b9125126-ad13-490e-a562-36d766e91f5a" data-name="c5979a1e-eec1-4294-8993-6de225418813" d="M397.865,498.939H396.4a1.365,1.365,0,0,1-1.444-1.228,1.345,1.345,0,0,1,1.229-1.444h1.462A1.366,1.366,0,0,1,399.1,497.5a1.346,1.346,0,0,1-1.231,1.443" style="fill: #fff"/>
          <path id="dd6a650c-51a6-44a3-b7fd-7fc1a41d420e" data-name="0e487b67-3bf9-4135-9cfa-531b9aac0831" d="M322.042,407.987H320.58a1.367,1.367,0,0,1-1.444-1.227,1.345,1.345,0,0,1,1.23-1.444h1.461a1.364,1.364,0,0,1,1.444,1.229,1.343,1.343,0,0,1-1.229,1.442" style="fill: #fff;opacity: 0.5"/>
          <path id="c1321aa5-2d28-4615-b1a9-57ae1872ecc5" data-name="7ac814c9-6c54-4c3e-8bf1-58c2fd2dd9bd" d="M497.314,397.3h-1.462a1.364,1.364,0,0,1-1.443-1.228,1.343,1.343,0,0,1,1.229-1.443H497.1a1.366,1.366,0,0,1,1.445,1.228,1.345,1.345,0,0,1-1.23,1.443" style="fill: #fff;opacity: 0.5"/>
          <path id="07565577-546f-42e5-a1a6-8191d9e19d7a" data-name="89c86f2f-05b0-472a-bf26-b3f7137e8a17" d="M456.348,544.237a1.345,1.345,0,0,1-1.444-1.228v-1.461a1.364,1.364,0,0,1,1.23-1.443,1.346,1.346,0,0,1,1.444,1.228v1.462a1.364,1.364,0,0,1-1.23,1.442" style="fill: #fff"/>
          <path id="b65495ef-0bbf-4d93-b261-156eeb7c6a77" data-name="4a90cbd5-d5d1-4bc4-8918-f925a40bc42b" d="M698.937,543.506h-1.461a1.364,1.364,0,0,1-1.444-1.227,1.346,1.346,0,0,1,1.23-1.444h1.457a1.364,1.364,0,0,1,1.444,1.228,1.344,1.344,0,0,1-1.23,1.443" style="fill: #fff"/>
          <path id="cf8a2e78-52ac-410b-a7c3-de39963756a1" data-name="9d8b0fd3-605e-41c2-a728-fffb3206b0ca" d="M735.736,397.974h-1.462a1.365,1.365,0,0,1-1.444-1.228,1.344,1.344,0,0,1,1.228-1.443h1.462a1.363,1.363,0,0,1,1.443,1.228,1.344,1.344,0,0,1-1.228,1.443" style="fill: #fff;opacity: 0.5"/>
          <path id="fdf2f991-fef0-43ad-9507-b90b88cf1f8a" data-name="b6927a79-92fb-4f5e-a093-dd3305cef79d" d="M349.257,523.051c-1.714,0-1.947-2.671-.215-2.671,1.715,0,1.948,2.671.215,2.671" style="fill: #fff"/>
          <path id="9d83396c-6f39-4361-abd0-055165b4a083" data-name="106e7e14-5bfc-4556-b63a-e3ef0585de60" d="M319.739,538.735h-1.461a1.368,1.368,0,0,1-1.444-1.23,1.345,1.345,0,0,1,1.23-1.442h1.46a1.366,1.366,0,0,1,1.445,1.228,1.345,1.345,0,0,1-1.23,1.444" style="fill: #fff"/>
          <path id="07591af0-b782-41bc-a6d4-823b556d1fdf" data-name="471f19d9-154f-4f3c-8833-2c6d3086d2da" d="M6.2,462.189H4.129a1.363,1.363,0,0,1-1.443-1.228,1.345,1.345,0,0,1,1.229-1.443H5.982a1.365,1.365,0,0,1,1.444,1.228,1.345,1.345,0,0,1-1.23,1.443" style="fill: #fff"/>
          <path id="02dfceb2-c63b-4b89-bcd2-4942a74fdc47" data-name="4664a702-588f-44c4-82c0-b1c01525ab78" d="M874.464,460.854H872.4a1.365,1.365,0,0,1-1.444-1.229,1.345,1.345,0,0,1,1.229-1.443h2.067a1.366,1.366,0,0,1,1.445,1.228,1.347,1.347,0,0,1-1.231,1.444" style="fill: #fff"/>
          <path id="4badbf0a-50ce-4ca1-bbe0-1ff102b0c217" data-name="0aa69646-e00b-45cf-970f-296fe47e12ca" d="M440.265,526.7a1.345,1.345,0,0,1-1.443-1.229v-1.461a1.366,1.366,0,0,1,1.23-1.444A1.346,1.346,0,0,1,441.5,523.8v1.461a1.367,1.367,0,0,1-1.23,1.444" style="fill: #fff"/>
          <path id="1280069a-0f4a-40f5-84cc-e10c9a5f2b37" data-name="cb392b9d-c5fe-4975-a982-a7bc5ef9e63d" d="M285.554,483.857a1.345,1.345,0,0,1-1.443-1.227v-1.462a1.368,1.368,0,0,1,1.229-1.445,1.349,1.349,0,0,1,1.445,1.23v1.461a1.366,1.366,0,0,1-1.231,1.443" style="fill: #fff"/>
          <path id="e1b0bf95-4b57-442a-b779-ac9b0b5e4845" data-name="96a08805-5b82-496f-b3d7-a00e9233abc6" d="M116.2,536.323a1.345,1.345,0,0,1-1.444-1.228v-1.463a1.366,1.366,0,0,1,1.23-1.444,1.345,1.345,0,0,1,1.443,1.228v1.462a1.364,1.364,0,0,1-1.229,1.443" style="fill: #fff"/>
          <path id="d7fdf028-6e8c-43df-8b09-262e8985450a" data-name="297a6e11-bb5c-4ff9-bbf7-34ed9a9383d4" d="M462.2,528.165c-1.714,0-1.946-2.672-.214-2.672,1.715,0,1.948,2.672.214,2.672" style="fill: #fff"/>
          <path id="f092f19a-5d32-4c30-8367-b9483b1c0f72" data-name="8f97a0b8-d6df-4b40-bacd-d4b00d162b9c" d="M424.183,503.322c-1.715,0-1.948-2.671-.215-2.671,1.714,0,1.948,2.671.215,2.671" style="fill: #fff"/>
          <path id="ef7549c9-56bf-4b62-8f14-62db30f69833" data-name="c01fe924-7da0-4ec5-8f5b-d21fe95e9462" d="M558.123,502.413c-1.714,0-1.947-2.671-.214-2.671,1.715,0,1.948,2.671.214,2.671" style="fill: #fff"/>
          <path id="6f7ca408-cf5c-44cb-8d9e-8a3fd6a9252f" data-name="58379a99-72eb-40d1-9ac0-93edea5f6db4" d="M565.923,514.105c-1.715,0-1.948-2.671-.215-2.671,1.715,0,1.947,2.671.215,2.671" style="fill: #fff"/>
          <path id="edb4f2cb-fab9-4d1e-869a-21aee572079d" data-name="df9c88c6-c402-4996-8dc7-1cc595c1e3dd" d="M567.872,516.054c-1.713,0-1.948-2.672-.214-2.672,1.714,0,1.947,2.672.214,2.672" style="fill: #fff"/>
          <path id="fe88b21e-90bf-46b8-8cca-15fc56be0041" data-name="d0dfbf5e-49b2-4e40-827c-8c286f612394" d="M335.8,486.216h-.866c-.935,0-1.064-1.457-.118-1.457h.867c.935,0,1.062,1.457.117,1.457" style="fill: #fff"/>
          <path id="314fcd99-41ff-4a83-b993-4be345d7d884" data-name="fe0d7116-24d1-4c47-9bd0-b51d4d4a8190" d="M1346.418,58.271c0,1.144.143,2.119-1,2.119s-3.78-.975-3.78-2.119,2.634-3.47,3.78-3.47,1,2.324,1,3.47" style="fill: #f1f2f2"/>
          <path id="2e3afb0c-9ed9-44ae-9322-c2cf310da1b0" data-name="5fc5a520-d1b8-4b13-9883-e81ea85bfacc" d="M926.982,239.115c0,1.145-2.328,2.825-3.474,2.825s-.558-1.68-.558-2.825-.587-1.878.558-1.878,3.474.734,3.474,1.878" style="fill: #f1f2f2"/>
          <path id="2c0a7ba0-49c7-4f61-8e81-bc8fd0361078" data-name="25dd19b4-2873-461b-bb0e-7a6013bd3161" d="M1101.36,69.114c0,1.145.564,4.091-.582,4.091s-4.2-2.946-4.2-4.091,3.057-.015,4.2-.015.582-1.13.582.015" style="fill: #f1f2f2"/>
          <path id="2615a1b2-9269-4e2c-9579-b08bc06c0cb4" data-name="f1557f99-6c35-41f3-a4dc-d25f86a1d933" d="M1432.439,101.93a2.611,2.611,0,0,0-1.849-.961h-1.463a2.835,2.835,0,0,0-1.926.61,2.679,2.679,0,0,0-.352,3.774,2.615,2.615,0,0,0,1.85.961h1.461a2.849,2.849,0,0,0,1.927-.61,2.68,2.68,0,0,0,.352-3.774" style="fill: #fff"/>
          <path id="cac3e136-60f8-4374-9a4e-8e5094b1fc26" data-name="3bb4a1de-ead6-4766-ae66-269ca9a72528" d="M1394.427,55.172a2.6,2.6,0,0,0-1.848-.96h-1.462a2.84,2.84,0,0,0-1.927.609,2.677,2.677,0,0,0-.353,3.772l0,0a2.606,2.606,0,0,0,1.849.96h1.461a2.84,2.84,0,0,0,1.928-.61,2.677,2.677,0,0,0,.353-3.77l0,0" style="fill: #fff"/>
          <path id="ca1e21a5-946f-4aff-8545-584f397018c4" data-name="185aaa66-8db8-4bcc-a045-1beffe908515" d="M1312.02,70.644a.855.855,0,0,0-.918.782v1.46a.867.867,0,0,0,.782.919.855.855,0,0,0,.918-.782V71.564a.87.87,0,0,0-.782-.918" style="fill: #fff"/>
          <path id="2c6c982a-b0c1-40bc-afdc-b944dd7aaa9f" data-name="13af9bce-262a-4d08-94ac-02962ee4f412" d="M1342.723,95.485c-1.091,0-1.239,1.7-.136,1.7s1.239-1.7.136-1.7" style="fill: #fff"/>
          <path id="9aeb5738-3f29-4006-bfd7-b80a578f4bd8" data-name="8a2b9afe-770c-4e26-900d-12fee21ad2bc" d="M1439.217,66.261a.856.856,0,0,0-.919.781V68.5a.867.867,0,0,0,.784.917.852.852,0,0,0,.916-.781V67.178a.866.866,0,0,0-.781-.917" style="fill: #fff"/>
          <path id="c1aababe-9500-4138-a3b3-b7e749bedd53" data-name="7f81bf4e-3e00-470a-8c30-0626e6b55a1c" d="M1360.267,98.408c-1.09,0-1.239,1.7-.136,1.7s1.239-1.7.136-1.7" style="fill: #fff"/>
          <path id="733a2d7f-3645-4f14-abf7-16a87b3b5a59" data-name="0cb172fc-6ba6-4bc4-b8ed-6c63f4458073" d="M1370.5,104.253c-1.091,0-1.239,1.7-.136,1.7s1.238-1.7.136-1.7" style="fill: #fff"/>
          <path id="ced546f6-312d-4a50-ae7d-b3f49aa3237d" data-name="fbd0b1d3-f094-4499-865d-232aa97755a0" d="M1376.35,105.713a.858.858,0,0,0-.919.783v1.461a.868.868,0,0,0,.782.917.854.854,0,0,0,.918-.78v-1.463a.867.867,0,0,0-.781-.918" style="fill: #fff"/>
          <path id="76d06403-a625-40b0-946c-11537a4a5c02" data-name="0d09df6a-3006-4b06-a49b-d292b90b5b5f" d="M1252.794,185.281c-1.09,0-1.239,1.7-.136,1.7s1.238-1.7.136-1.7" style="fill: #fff"/>
          <path id="9486977c-d2d8-4d89-b71f-23d763010aab" data-name="fc415573-cd7b-4de9-ada7-d1ec9a7adb85" d="M1270.335,188.206c-1.09,0-1.239,1.7-.136,1.7s1.239-1.7.136-1.7" style="fill: #fff"/>
          <path id="afd31938-ff21-4460-822f-a145fbee1ac6" data-name="e4ccb59d-352c-45cc-9912-1129728b3d3b" d="M1251.968,216.282c-1.089,0-1.239,1.7-.136,1.7s1.239-1.7.136-1.7" style="fill: #fff"/>
          <path id="0592bf60-a288-40d0-852b-d9d9d74edc56" data-name="f9a816a2-eed2-459f-82f7-896cdd3d4c4f" d="M1009.276,301.4c-1.089,0-1.238,1.7-.135,1.7s1.238-1.7.135-1.7" style="fill: #fff"/>
          <path id="09b473ea-7acc-4912-b7ce-41b4fd472b9f" data-name="92c1b1be-c226-42ef-b7b4-e44818d98c15" d="M954.345,7.812c-1.091,0-1.24,1.7-.136,1.7s1.238-1.7.136-1.7" style="fill: #fff"/>
          <g id="c69a6c76-509f-4fc2-a4fa-1fee97de6872" data-name="ee65fcaf-e946-40c0-a04e-7f05db5afb91">
            <path id="32f717d3-a253-4653-abc2-9c44c42ad6cb" data-name="da2255da-0ee9-4c0e-8eb5-38a510131712" d="M1042.255.678c-1.09,0-1.24,1.7-.136,1.7s1.238-1.7.136-1.7" style="fill: #fff"/>
          </g>
          <path id="23b29825-1c18-475b-b752-4331e99fe14e" data-name="6f6505de-5061-4ec3-9b5a-b6fd989c054d" d="M1168.164,28.222c-1.09,0-1.24,1.7-.137,1.7s1.239-1.7.137-1.7" style="fill: #fff"/>
          <path id="8499406c-c130-4ffb-acef-580b3a42122f" data-name="f49cd5b3-8604-427c-80ad-23ff95fc1124" d="M970.206,247.328c-1.09,0-1.239,1.7-.135,1.7s1.238-1.7.135-1.7" style="fill: #fff"/>
          <path id="b5d49ef1-2151-4867-8404-03886bae669b" data-name="146a078d-f308-437b-9231-a446ce5beb98" d="M1280.572,194.049c-1.09,0-1.237,1.7-.135,1.7s1.239-1.7.135-1.7" style="fill: #fff"/>
          <path id="350e4e38-ad47-4776-8541-637433bafd25" data-name="2f577b34-bc42-4c26-b722-ba0b646bf5c5" d="M1287.272,403.9c-1.091,0-1.238,1.7-.137,1.7s1.239-1.7.137-1.7" style="fill: #fff"/>
          <path id="130c5c8e-1c70-4e7b-b8aa-e2dac938af39" data-name="f5639690-1f6e-4b9e-bc02-6f3861602720" d="M1343.549,445.776c-1.09,0-1.239,1.7-.135,1.7s1.238-1.7.135-1.7" style="fill: #fff"/>
          <path id="1ffad7d3-7847-45c0-b518-274db02af5ef" data-name="d77c34cb-117a-41bc-b83b-fbdc43445045" d="M708.786,408.132c-1.091,0-1.239,1.7-.136,1.7s1.238-1.7.136-1.7" style="fill: #fff;opacity: 0.5"/>
          <path id="6c9fb66e-47aa-4230-8223-82bda3a492ce" data-name="0222ba46-5138-47c9-b693-abdcb88c1bbc" d="M1286.422,195.509a.856.856,0,0,0-.918.782v1.462a.866.866,0,0,0,.782.918.854.854,0,0,0,.917-.781v-1.462a.868.868,0,0,0-.781-.919" style="fill: #fff"/>
          <path id="7c999c4e-5d9b-4985-8ac8-7fd7c0314f1a" data-name="7c34ed9a-a313-4dc6-8012-1fe049748ee8" d="M1304.466,215.082a.854.854,0,0,0-.917.782v1.461a.866.866,0,0,0,.782.918.855.855,0,0,0,.917-.781V216a.869.869,0,0,0-.782-.919" style="fill: #fff"/>
          <path id="9e1e5df0-e122-4b07-8646-b68e882040b7" data-name="acb5aa25-6bbf-4b9c-a35d-f67d5ff70753" d="M1263.845,427.509h-1.462a1.367,1.367,0,0,0-1.444,1.228,1.344,1.344,0,0,0,1.23,1.443h1.46a1.366,1.366,0,0,0,1.445-1.228,1.345,1.345,0,0,0-1.23-1.443" style="fill: #fff"/>
          <path id="fc2fdcb4-63a7-4489-a313-9f552406e6fa" data-name="4436b021-d157-41a9-90a2-f84d731d9d95" d="M1412.938,211.9h-1.462a1.364,1.364,0,0,0-1.443,1.228,1.346,1.346,0,0,0,1.229,1.442h1.463a1.362,1.362,0,0,0,1.442-1.228,1.341,1.341,0,0,0-1.229-1.442" style="fill: #fff"/>
          <path id="a6129cb9-0371-44be-a979-37e65e201553" data-name="60005ac2-afe3-44de-96f0-d72f1f22c2e7" d="M1412.938,156.372h-1.462a1.364,1.364,0,0,0-1.443,1.228,1.346,1.346,0,0,0,1.229,1.443h1.463a1.362,1.362,0,0,0,1.442-1.229,1.341,1.341,0,0,0-1.229-1.442" style="fill: #fff"/>
          <path id="2627303b-cab5-4e0a-8ff6-c0ec8516f5d7" data-name="7c20c32f-d6d4-473f-b592-aee5395dcdde" d="M1411.477,156.372c-1.715,0-1.947,2.671-.214,2.671,1.714,0,1.947-2.671.214-2.671" style="fill: #fff"/>
          <path id="c6dac943-7e7c-4c53-9f00-4322d56deb76" data-name="93f0d702-7592-4c47-b952-88185115345b" d="M860.476,61.523h-1.462a1.365,1.365,0,0,0-1.444,1.228,1.345,1.345,0,0,0,1.229,1.443h1.462a1.364,1.364,0,0,0,1.444-1.226,1.346,1.346,0,0,0-1.229-1.442" style="fill: #fff"/>
          <path id="15ecc944-bc08-4809-84af-af1202b76a04" data-name="dc4a79be-ff60-4cd2-8a20-4918b83942ad" d="M1180.475,232.355c-1.714,0-1.947,2.672-.215,2.672,1.715,0,1.948-2.672.215-2.672" style="fill: #fff"/>
          <path id="08d9338c-1c3e-4bbe-8b21-f2e612b5e97e" data-name="09a8703c-1aaa-44d4-9c49-da04ccae88cf" d="M1191.969,251.519c-1.715,0-1.948,2.67-.215,2.67,1.715,0,1.948-2.67.215-2.67" style="fill: #fff"/>
          <path id="419fa027-f130-487f-a395-fb721e2d8132" data-name="1a960f59-9a01-48f4-9765-3a9c13ba5700" d="M1199.482,264.5h-1.461a1.364,1.364,0,0,0-1.444,1.229,1.343,1.343,0,0,0,1.229,1.443h1.461a1.365,1.365,0,0,0,1.444-1.228,1.344,1.344,0,0,0-1.229-1.444" style="fill: #fff"/>
          <path id="f0343161-1664-4b20-bd9c-f854008001cd" data-name="da859393-068b-46ba-a238-a7feba238284" d="M1246.844,244.171h-1.461a1.367,1.367,0,0,0-1.444,1.228,1.343,1.343,0,0,0,1.23,1.443h1.46a1.366,1.366,0,0,0,1.445-1.228,1.346,1.346,0,0,0-1.23-1.443" style="fill: #fff"/>
          <path id="33561d47-be72-4a6b-a4d5-35eabd91a438" data-name="cdd5f388-7472-4785-9f12-0aa11422c29a" d="M1206.187,233.691h-1.462a1.366,1.366,0,0,0-1.444,1.228,1.344,1.344,0,0,0,1.23,1.443h1.461a1.363,1.363,0,0,0,1.444-1.228,1.345,1.345,0,0,0-1.229-1.443" style="fill: #fff"/>
          <path id="d6febf3b-dfe6-40c0-b1dc-148113c760f6" data-name="04ec3a7f-457f-4451-83f7-411a8d15438c" d="M1221.779,176.882h-1.462a1.366,1.366,0,0,0-1.443,1.229,1.345,1.345,0,0,0,1.229,1.443h1.461a1.366,1.366,0,0,0,1.445-1.228,1.346,1.346,0,0,0-1.23-1.444" style="fill: #fff"/>
          <path id="f4138461-d5fa-452c-8174-fbffdf279307" data-name="39b51bff-b6b0-470c-a759-8d124f5fddd0" d="M1212.412,26.887h-1.462a1.365,1.365,0,0,0-1.444,1.228,1.345,1.345,0,0,0,1.23,1.443h1.46a1.366,1.366,0,0,0,1.445-1.228,1.345,1.345,0,0,0-1.229-1.443" style="fill: #fff"/>
          <path id="ec8d78dc-7818-4dab-95b3-7201f1bee618" data-name="3b57b8db-80e3-4d77-88d6-c1b9a8516029" d="M1127.838,208.4h-2.067a1.365,1.365,0,0,0-1.444,1.23,1.345,1.345,0,0,0,1.23,1.443h2.067a1.364,1.364,0,0,0,1.443-1.229,1.345,1.345,0,0,0-1.229-1.444" style="fill: #fff"/>
          <path id="2366c907-1abb-42d2-983d-32f9cce78ee0" data-name="ce44f198-dec6-454d-ad2a-07b1d8668c51" d="M772.721,362.624h-2.067a1.365,1.365,0,0,0-1.444,1.228,1.345,1.345,0,0,0,1.23,1.444h2.067a1.365,1.365,0,0,0,1.443-1.229,1.343,1.343,0,0,0-1.229-1.443" style="fill: #fff;opacity: 0.5"/>
          <path id="8182eda1-1389-4bf3-994f-755e96b8834c" data-name="7ef76b05-ad88-429a-a7dc-f470afde0cf9" d="M1052.082,340.954a1.345,1.345,0,0,0-1.444,1.227v1.462a1.365,1.365,0,0,0,1.23,1.444,1.347,1.347,0,0,0,1.443-1.23V342.4a1.363,1.363,0,0,0-1.229-1.442" style="fill: #fff"/>
          <path id="05c73a40-85d1-49d1-9048-da9f1fba3c32" data-name="4658798d-ce30-430b-8e4c-28aa6be4ea88" d="M882.731,288.49a1.344,1.344,0,0,0-1.443,1.229v1.461a1.365,1.365,0,0,0,1.229,1.443,1.344,1.344,0,0,0,1.443-1.228v-1.461a1.365,1.365,0,0,0-1.229-1.444" style="fill: #fff"/>
          <path id="c66e9ff6-4129-4573-b105-e189d45c1bc0" data-name="bc84e2d9-904a-4f12-93bc-666097171b10" d="M923.845,106.811a1.344,1.344,0,0,0-1.443,1.229V109.5a1.362,1.362,0,0,0,1.23,1.442,1.343,1.343,0,0,0,1.442-1.228v-1.461a1.364,1.364,0,0,0-1.229-1.443" style="fill: #fff"/>
          <path id="05a0c008-72b1-4fe9-92e8-2ce95d854aaa" data-name="eb66bb2d-3334-4c0d-8d70-365a1d3e6bcb" d="M881.391,178.218h-1.462a1.364,1.364,0,0,0-1.443,1.228,1.344,1.344,0,0,0,1.229,1.443h1.461a1.364,1.364,0,0,0,1.444-1.228,1.344,1.344,0,0,0-1.229-1.443" style="fill: #fff"/>
          <path id="d6e7b733-f6cd-4014-825a-339f91b8ae03" data-name="c91bb9ad-742a-4a2d-9398-a308895ab4c3" d="M921.169,201.6H919.1a1.365,1.365,0,0,0-1.444,1.228,1.344,1.344,0,0,0,1.23,1.443h2.067a1.364,1.364,0,0,0,1.443-1.229,1.343,1.343,0,0,0-1.229-1.442" style="fill: #fff"/>
          <path id="2116128a-42d3-47a3-9346-0f560c78fa2f" data-name="c56d47b9-135d-40f6-8d7e-491dd0400b31" d="M888.7,211.827a1.344,1.344,0,0,0-1.443,1.227v1.461a1.367,1.367,0,0,0,1.23,1.445,1.349,1.349,0,0,0,1.444-1.23v-1.461a1.363,1.363,0,0,0-1.231-1.442" style="fill: #fff"/>
          <path id="c56754f2-f553-42dd-9d1e-10b19efa1865" data-name="77d051e4-c21f-404d-a7fc-87492b631650" d="M910.632,210.364c-1.714,0-1.947,2.671-.214,2.671,1.715,0,1.947-2.671.214-2.671" style="fill: #fff"/>
          <path id="4ac795a0-ed3b-49cc-a39d-ffa6d0d4feb0" data-name="b4f21aac-95c1-4694-bbb6-904b859d356f" d="M1190.71,321.491c-1.716,0-1.949,2.671-.214,2.671,1.714,0,1.947-2.671.214-2.671" style="fill: #fff"/>
          <path id="48fbcf60-5b81-4f87-bca4-b559dd74f988" data-name="3e3449db-2049-40f6-b48c-6e1c59176ca8" d="M1148.31,245.507c-1.714,0-1.948,2.671-.214,2.671,1.715,0,1.948-2.671.214-2.671" style="fill: #fff"/>
          <path id="43474e3c-85c9-4a39-afdb-c2bb03e3493c" data-name="0e63144c-9971-44b7-821f-b082ca976dc8" d="M1395.4,187.057c-1.714,0-1.948,2.672-.214,2.672,1.714,0,1.947-2.672.214-2.672" style="fill: #fff"/>
          <path id="7b21d3bf-48e5-49e6-a17f-7f44ef64aab9" data-name="70c925a1-ece3-41dc-941e-d05f1dd33b86" d="M1102.33,338.6h-.866c-.935,0-1.063,1.457-.118,1.457h.867c.936,0,1.063-1.457.117-1.457" style="fill: #fff"/>
          <path id="584715d4-9f9f-462a-b949-eb5f23e6e0e2" data-name="454ccb67-da1d-4d70-947a-1ee76ca34e1b" d="M1294.718,532.848a2.73,2.73,0,0,1-2.889-2.457,2.691,2.691,0,0,1,2.459-2.887,2.73,2.73,0,0,1,2.887,2.458,2.691,2.691,0,0,1-2.457,2.886" style="fill: #fff"/>
          <path id="deb90aee-84de-4a29-9530-f7a17fb64c3c" data-name="073ebb1c-da2b-4fb2-8e74-3de2e6ac2ff0" d="M1002.061,528.225c-1.09,0-1.239-1.7-.135-1.7s1.239,1.7.135,1.7" style="fill: #fff"/>
          <path id="32e750cb-6d7a-4ae6-bd7d-bed0ed450fe8" data-name="28000004-47b7-4e69-92bd-b7d7c525f920" d="M1280.057,425.718c-1.091,0-1.238-1.7-.136-1.7s1.238,1.7.136,1.7" style="fill: #fff"/>
          <path id="74ff5fee-9f70-4f78-b91d-50d2bd93d8b7" data-name="8b027202-883e-4dd4-92ee-e26b65ac9b66" d="M1336.336,383.846c-1.091,0-1.238-1.7-.136-1.7s1.239,1.7.136,1.7" style="fill: #fff"/>
          <path id="c9042297-2476-4300-b2a3-6b6f4e54a5b3" data-name="977b8c55-f0e5-4adb-b576-500e743c7bbf" d="M1262.445,530.051a1.348,1.348,0,0,1-1.445-1.229V527.36a1.367,1.367,0,0,1,1.23-1.442,1.344,1.344,0,0,1,1.444,1.229v1.461a1.364,1.364,0,0,1-1.229,1.443" style="fill: #fff"/>
          <path id="1572f2a4-024c-4596-ad1b-df234e9d7a6d" data-name="320ebf00-e7e0-4971-93fd-b0dc1ec12277" d="M1157.178,503.747h-1.461a1.364,1.364,0,0,1-1.444-1.227,1.343,1.343,0,0,1,1.229-1.444h1.462a1.364,1.364,0,0,1,1.443,1.228,1.344,1.344,0,0,1-1.229,1.443" style="fill: #fff"/>
          <path id="37c7acd3-3ab7-4fbd-8bcf-6bea1d13ec88" data-name="e6241577-b0d1-49de-878b-7f13d7fe7e86" d="M1081.355,412.793h-1.463a1.367,1.367,0,0,1-1.444-1.228,1.346,1.346,0,0,1,1.23-1.444h1.462a1.365,1.365,0,0,1,1.444,1.229,1.345,1.345,0,0,1-1.229,1.443" style="fill: #fff"/>
          <path id="87a2a5aa-ccc8-4643-8571-987d9a25ae1f" data-name="635e2c5a-aa99-4dfe-a7ab-8887ef033cf2" d="M1256.634,402.113h-1.462a1.364,1.364,0,0,1-1.443-1.227,1.344,1.344,0,0,1,1.229-1.443h1.461a1.365,1.365,0,0,1,1.444,1.228,1.343,1.343,0,0,1-1.229,1.442" style="fill: #fff"/>
          <path id="df8b1ba0-733e-40d2-9674-6b947b1b5067" data-name="793de15c-93b4-4ea0-9a6e-2bd3666151c8" d="M1215.66,549.045a1.342,1.342,0,0,1-1.444-1.227v-1.461a1.364,1.364,0,0,1,1.23-1.443,1.346,1.346,0,0,1,1.444,1.228V547.6a1.363,1.363,0,0,1-1.23,1.442" style="fill: #fff"/>
          <path id="46a0054d-9528-48b3-a0a1-8c0a5abf0c1c" data-name="bd3fe8be-7d0f-4561-89c9-ad4d3deed0f2" d="M1376.583,523.815h-1.462a1.364,1.364,0,0,1-1.443-1.228,1.344,1.344,0,0,1,1.229-1.443h1.462a1.363,1.363,0,0,1,1.443,1.228,1.343,1.343,0,0,1-1.229,1.443" style="fill: #fff"/>
          <path id="ce73d73f-5da6-4b22-9ed1-7f3dd79d263f" data-name="a9b525e9-06aa-4c6e-9ae0-3caa95227a8a" d="M765.508,467h-2.067a1.366,1.366,0,0,1-1.444-1.23,1.345,1.345,0,0,1,1.23-1.442h2.067a1.365,1.365,0,0,1,1.444,1.228,1.346,1.346,0,0,1-1.23,1.444" style="fill: #fff"/>
          <path id="e3791fef-44f7-4abe-8158-f248a08b9407" data-name="2ae66c80-bf50-4447-8d0d-97f9d63a5746" d="M1199.577,531.511a1.343,1.343,0,0,1-1.443-1.228v-1.461a1.365,1.365,0,0,1,1.229-1.444,1.347,1.347,0,0,1,1.444,1.23v1.461a1.362,1.362,0,0,1-1.23,1.442" style="fill: #fff"/>
          <path id="a72890f2-b321-4a56-9efa-799b65b8694a" data-name="d7b010d4-cb28-448e-a439-b909f9d04d79" d="M995.158,503.148a1.345,1.345,0,0,1-1.444-1.228v-1.461a1.364,1.364,0,0,1,1.229-1.443,1.344,1.344,0,0,1,1.443,1.228v1.461a1.363,1.363,0,0,1-1.228,1.443" style="fill: #fff"/>
          <path id="6138521e-6338-4a77-84aa-61969b74bd3b" data-name="865310f2-4bd7-43d8-8b65-ae20b3d9a833" d="M875.516,541.128a1.344,1.344,0,0,1-1.443-1.228v-1.461A1.366,1.366,0,0,1,875.3,537a1.345,1.345,0,0,1,1.443,1.228v1.462a1.364,1.364,0,0,1-1.23,1.443" style="fill: #fff"/>
          <path id="3a55a22d-87b6-4e24-b2ca-174955a5b111" data-name="54b409d9-6967-40e6-816c-21d93c7bdde8" d="M1221.507,532.974c-1.714,0-1.946-2.672-.214-2.672,1.715,0,1.947,2.672.214,2.672" style="fill: #fff"/>
          <path id="7df14f8c-4eb1-44f2-889b-7f92502d195f" data-name="1086ff5d-ba59-4278-a98b-2e4a51e1e7c5" d="M1183.495,508.132c-1.715,0-1.948-2.672-.215-2.672,1.714,0,1.948,2.672.215,2.672" style="fill: #fff"/>
        </g>
      </g>
    </g>
  </g>
</svg>
