<svg xmlns="http://www.w3.org/2000/svg" viewBox="0 0 60.6 89.7"><title>fire_1</title><g id="Слой_2" data-name="Слой 2"><g id="Слой_1-2" data-name="Слой 1"><g id="man_in_rocket" data-name="man in rocket"><g id="rocket_man" data-name="rocket man"><g id="fire"><g id="fire_middle" data-name="fire middle"><path id="Fill-23" d="M42.2,28.9l-.6-1.6c0-.1-4.3-11.5-4.7-16.2v-.6l-2.5,1.3-.1.2a20.846,20.846,0,0,0-.6,4.3,21.343,21.343,0,0,0,.5,6.9l-1.6-1.1-.1.7c0,.1-1.1,15.2-2.1,19.4a66.237,66.237,0,0,1-2-6.4,43.841,43.841,0,0,1-1.6-14l.1-.7-1.4.5,1.2-9.8h-3v.5c0,.1-1,12.2-3.5,15.2l-.8.9.9.1a4.456,4.456,0,0,0,2.8-.8c-.3,2.1-1,6.2-1.7,13.1A56.386,56.386,0,0,0,23.1,58a144.41,144.41,0,0,0,4.2,14.2,36.868,36.868,0,0,1,2,14.9l-.1,2.6.5-2.3a96.91,96.91,0,0,0,2.1-11.9,62.426,62.426,0,0,0,.5-10.2,22.065,22.065,0,0,0-1.2-7,15.7,15.7,0,0,1,.9,2.3l.5,1.5.1-1.6a56.808,56.808,0,0,0-.5-8.7c.6,1.4,1.6,4.3,2.4,10.9l.1.9.3-.5a21.893,21.893,0,0,0,2.6-6.7,35.868,35.868,0,0,0,1.1-7.2,29.826,29.826,0,0,0-.5-6.6,13.058,13.058,0,0,1,1.4,4.8l.4,3.4.2-3.4A79.464,79.464,0,0,0,40,39a65.589,65.589,0,0,0-2.2-14.3c1,1.1,2.5,2.9,3.3,3.6Z" style="fill:#f7ad31"/><path id="Fill-26" d="M28,19.5c.2,7.2.8,12.3,1.6,15.1l.3.9.2-.9s.7-3.1,1.3-7.5a104.634,104.634,0,0,0,1.3-15.5l-4.9.2v.6c0-.1.1,1.7.2,7.1" style="fill:#ff5722"/></g><g id="fire_top" data-name="fire top"><path id="Fill-28" d="M60.6,15.5l-.4-1.2c0-.1-3.4-9.5-3.8-13.5L56.3.4,54.2,1.5l-.1.2s-.3,1.5-.5,3.6a14.432,14.432,0,0,0,.5,5.7l-1.3-1v.5c0,.1-.8,12.7-1.6,16.3a44.909,44.909,0,0,1-1.5-5.3A35.887,35.887,0,0,1,48.4,9.7l.1-.7-1.1.3,1-8.1H45.9v.3c0,.1-.7,10.2-2.8,12.8l-.6.7h.7a2.964,2.964,0,0,0,2.3-.7c-.3,1.7-.8,5.2-1.4,10.9-.4,3.6.1,8.6,1.4,14.3A83.822,83.822,0,0,0,49,51.3a32.331,32.331,0,0,1,1.6,12.4v2.1l.5-1.9s1-4.5,1.7-10a50.332,50.332,0,0,0,.3-8.5,24.513,24.513,0,0,0-.9-6,11.416,11.416,0,0,1,.8,2l.3,1.1V41.2a47.685,47.685,0,0,0-.4-7.3c.5,1,1.3,3.5,1.9,9.1l.1.7.3-.5a21.871,21.871,0,0,0,2.1-5.6,24.1,24.1,0,0,0,.8-6,24.129,24.129,0,0,0-.4-5.4,12,12,0,0,1,1.1,4.1l.3,2.8.1-2.9c0-.1.1-3-.1-7a63.907,63.907,0,0,0-1.7-12,20.783,20.783,0,0,0,2.7,3Z" style="fill:#f7ad31"/><path id="Fill-30" d="M49.2,7.7c.2,6.1.6,10.2,1.3,12.6l.2.7.2-.8s.5-2.6,1-6.2A103.783,103.783,0,0,0,53,1.1l-4,.1v.5c0,.1.1,1.5.2,6" style="fill:#ff5722"/></g><g id="fire_bottom" data-name="fire bottom"><path id="Fill-32" d="M18.1,16.2l-.4-1.3c0-.2-3.4-10.1-3.8-14.4L13.8,0,11.7,1.1l-.1.2s-.3,1.6-.5,3.8a16.583,16.583,0,0,0,.5,6.1l-1.3-1.1v.5c0,.2-.8,13.5-1.6,17.3a48.621,48.621,0,0,1-1.5-5.6A40.382,40.382,0,0,1,5.9,9.8L6,9.1l-1.1.4L5.9.9H3.4v.4c0,.2-.7,10.9-2.8,13.6l-.6.7H.7A2.8,2.8,0,0,0,3,14.8c-.3,1.8-.8,5.5-1.4,11.6-.4,3.9.1,9.1,1.4,15.2A89.209,89.209,0,0,0,6.5,54.1,36.327,36.327,0,0,1,8.1,67.2v2.3l.5-2s1-4.8,1.7-10.6a56.626,56.626,0,0,0,.3-9,24.766,24.766,0,0,0-.9-6.2,13.48,13.48,0,0,1,.8,2.1l.3,1.2V43.6a52.289,52.289,0,0,0-.4-7.7c.5,1.1,1.3,3.7,1.9,9.7l.1.8.3-.5a23.3,23.3,0,0,0,2.1-6,28.041,28.041,0,0,0,.8-6.4,28.308,28.308,0,0,0-.4-5.8A12.651,12.651,0,0,1,16.3,32l.3,3,.1-3c0-.2.1-3.2-.1-7.4a70.729,70.729,0,0,0-1.7-12.7A17.581,17.581,0,0,0,17.6,15Z" style="fill:#f7ad31"/><path id="Fill-35" d="M6.7,7.8c.2,6.5.6,10.9,1.3,13.3l.2.7.2-.7s.5-2.7,1-6.5A116.877,116.877,0,0,0,10.5.9L6.5,1v.5s.1,1.6.2,6.3" style="fill:#ff5722"/></g></g></g></g></g></g></svg>