<svg xmlns="http://www.w3.org/2000/svg" width="1440" height="33.77" viewBox="0 0 1440 33.77">
  <title>2_ground</title>
  <g id="7bb55186-a779-4721-bb08-91b0f728dfc1" data-name="Слой 2">
    <g id="2f2f21ae-5274-457e-a827-0bfd49970192" data-name="ground and rocks">
      <path id="30dd4c15-3bce-453a-9d10-f8024c5b7489" data-name="ground" d="M360.6,33.571H1440V3.334a42.19,42.19,0,0,0-11.524-.18c-4.141.345-8.262.806-12.424.79-9.354-.035-18.7-.463-28.045-.771-32.515-1.073-65.046.352-97.567.093-5.53-.044-11.053-.246-16.573-.5a73.774,73.774,0,0,1-7.548.463A139.609,139.609,0,0,1,1248.5,2.054c-1.611-.19-3.214-.409-4.815-.639q-.7-.017-1.411-.029a224.987,224.987,0,0,0-23.993.835c-7.9.7-15.794,1.173-23.609-.523a2.191,2.191,0,0,1-.795-.334c-4.029-.3-8.055-.714-12.1-.721a.848.848,0,0,1-.355-.072h-4a.847.847,0,0,1-.354.072c-2.619.012-5.222.536-7.842.362a.949.949,0,0,1-.347-.087c-1.713.374-3.427.777-5.165,1a52.815,52.815,0,0,1-5.411.269h-.016a12.148,12.148,0,0,0-2.4.468,2.459,2.459,0,0,1-.385.131.66.66,0,0,1-.159.032,2.362,2.362,0,0,1-.325.038c-5.4.218-10.736,1.064-16.115,1.5a60.534,60.534,0,0,1-7.91.2c-2.8-.142-5.581-.612-8.358-1-1.427-.2-2.854-.4-4.282-.59l-.384-.05-.525-.068c-.35-.044-.7-.088-1.051-.13q-1.052-.129-2.105-.247c-2.917-.323-5.846-.575-8.781-.672a69.549,69.549,0,0,0-8.769.215c-.408.038-.816.078-1.224.125l-.524.061-.311.042c-.636.089-1.271.187-1.9.3q-2.193.392-4.344.97a2.168,2.168,0,0,1-1.091.009,10.605,10.605,0,0,1-4.243.308c-.973-.1-1.938-.255-2.9-.426V3.334a42.158,42.158,0,0,0-11.525-.18c-4.141.345-8.262.806-12.423.79-9.354-.036-18.7-.463-28.046-.771-32.515-1.073-65.046.351-97.566.093-5.53-.044-11.053-.246-16.574-.5a73.772,73.772,0,0,1-7.547.463A139.432,139.432,0,0,1,888.7,2.053c-1.611-.189-3.213-.408-4.815-.638q-.705-.017-1.41-.029a224.715,224.715,0,0,0-23.993.835c-7.9.7-15.794,1.173-23.61-.523a2.2,2.2,0,0,1-.794-.334c-4.029-.3-8.054-.714-12.1-.721a.848.848,0,0,1-.355-.072h-4a.844.844,0,0,1-.354.072c-2.618.012-5.22.536-7.841.362a.949.949,0,0,1-.348-.087c-1.713.374-3.427.777-5.164,1a52.835,52.835,0,0,1-5.412.269h-.015a12.172,12.172,0,0,0-2.4.468,2.459,2.459,0,0,1-.385.131.652.652,0,0,1-.158.032,2.394,2.394,0,0,1-.326.038c-5.4.218-10.735,1.064-16.115,1.5a60.529,60.529,0,0,1-7.91.2c-2.8-.142-5.581-.612-8.358-1-1.426-.2-2.853-.4-4.281-.59l-.384-.05-.525-.068c-.351-.044-.7-.088-1.052-.13q-1.052-.129-2.1-.247c-2.918-.323-5.846-.575-8.782-.672a69.726,69.726,0,0,0-8.768.216c-.409.038-.817.078-1.224.125-.175.02-.35.04-.525.062-.046,0-.223.029-.311.041-.636.089-1.271.187-1.9.3q-2.193.392-4.344.97a2.164,2.164,0,0,1-1.09.009,10.611,10.611,0,0,1-4.244.308c-.973-.1-1.938-.255-2.9-.426V3.335a42.151,42.151,0,0,0-11.524-.18c-4.141.345-8.262.806-12.423.79-9.354-.036-18.7-.463-28.046-.771-32.515-1.073-65.046.351-97.567.093-5.53-.044-11.053-.246-16.573-.5a73.774,73.774,0,0,1-7.548.463A139.428,139.428,0,0,1,528.9,2.054c-1.611-.189-3.213-.408-4.815-.638q-.705-.016-1.41-.029a224.706,224.706,0,0,0-23.993.835c-7.9.7-15.794,1.173-23.61-.523a2.2,2.2,0,0,1-.794-.334c-4.03-.3-8.055-.714-12.1-.721a.838.838,0,0,1-.356-.073h-4a.845.845,0,0,1-.354.073c-2.617.011-5.219.535-7.841.362a.93.93,0,0,1-.347-.087c-1.713.374-3.427.777-5.165,1a52.815,52.815,0,0,1-5.411.269h-.015a12.144,12.144,0,0,0-2.4.468,2.459,2.459,0,0,1-.385.131.714.714,0,0,1-.159.033,2.526,2.526,0,0,1-.325.037c-5.4.218-10.736,1.064-16.115,1.5a60.529,60.529,0,0,1-7.91.2c-2.8-.142-5.581-.612-8.358-1-1.426-.2-2.853-.4-4.282-.59l-.383-.05-.526-.068c-.35-.044-.7-.088-1.051-.13q-1.051-.129-2.1-.247c-2.918-.323-5.846-.575-8.782-.672a69.726,69.726,0,0,0-8.768.216c-.409.038-.817.078-1.224.125-.175.02-.35.04-.524.062l-.311.041c-.637.089-1.272.187-1.9.3q-2.194.391-4.344.97a29.061,29.061,0,0,1-5.333.317c-.973-.1-5.629-.1-6.6,0a29.138,29.138,0,0,1-5.333-.317q-2.149-.581-4.344-.97c-.632-.113-1.268-.211-1.9-.3l-.311-.041c-.175-.022-.349-.042-.524-.062-.408-.047-.816-.087-1.224-.125a69.737,69.737,0,0,0-8.769-.216c-2.935.1-5.864.349-8.781.672q-1.053.117-2.1.247c-.35.042-.7.086-1.051.13l-.525.068-.384.05c-1.428.189-2.855.389-4.282.59-2.777.392-5.553.86-8.358,1a60.534,60.534,0,0,1-7.91-.2c-5.379-.433-10.717-1.279-16.115-1.5a2.546,2.546,0,0,1-.325-.037.7.7,0,0,1-.158-.033,2.506,2.506,0,0,1-.386-.131,12.148,12.148,0,0,0-2.4-.468H281.7a52.829,52.829,0,0,1-5.411-.269c-1.737-.227-3.452-.63-5.165-1a.93.93,0,0,1-.347.087c-2.622.175-5.223-.35-7.842-.362a.868.868,0,0,1-.355-.073h-4a.848.848,0,0,1-.355.072c-4.044.007-8.069.42-12.1.721a2.179,2.179,0,0,1-.794.334c-7.816,1.7-15.706,1.224-23.61.523a224.987,224.987,0,0,0-23.994-.835q-.705.014-1.411.029c-1.6.23-3.2.449-4.814.639a139.234,139.234,0,0,1-17.823,1.172,73.774,73.774,0,0,1-7.548-.463c-5.52.257-11.043.459-16.573.5-32.521.259-65.052-1.166-97.567-.093-9.347.308-18.691.736-28.046.771-4.161.015-8.282-.445-12.423-.79A42.151,42.151,0,0,0,0,3.334V33.571Z" style="fill: #f0f3f2"/>
      <g id="d4f8cc34-412f-454a-9ae7-da4acd7d99f0" data-name="rocks right">
        <path id="9da2dc75-b5a6-4e4a-89a8-2b1f8fdbacaf" data-name="rock right" d="M1170.351,10.893a6.574,6.574,0,0,0-.472,4.825,16.184,16.184,0,0,0,7.724,10.3,12.308,12.308,0,0,0,2.207.951q-.321.145-.632.3c-.045.024-.006.089.039.068.236-.111.476-.224.721-.332a10.286,10.286,0,0,0,4.351.391c.161-.021.323-.046.483-.074.156-.01.311-.023.466-.036a.055.055,0,0,0,.013.057.056.056,0,0,0,.079,0l.081-.074c.548-.054,1.1-.13,1.635-.235-.048.269-.1.538-.155.806a.061.061,0,0,0,.042.074.062.062,0,0,0,.079-.04c.083-.294.151-.584.209-.875l.16-.034.087.032a1.793,1.793,0,0,0,.555.9.053.053,0,0,0,.068,0,.052.052,0,0,0,.005-.073,2.287,2.287,0,0,1-.464-.762c.865.318,1.746.6,2.619.884a.089.089,0,0,0,.085-.022.088.088,0,0,0,0-.124c-.167-.165-.363-.361-.576-.543,0-.028,0-.054,0-.083-.007-.187-.022-.372-.04-.557a8.126,8.126,0,0,1,1.6-.087,11.1,11.1,0,0,0,1.678.927q0,.2,0,.405a.041.041,0,0,0,.041.041c.23,0,.463,0,.7.011A11.474,11.474,0,0,1,1195.23,29v0a.038.038,0,0,0,.053,0l0,0a.035.035,0,0,0,0-.05,10.147,10.147,0,0,0-1.386-1.025c.269.008.537.016.805.016a.068.068,0,0,0,.057-.029h.5a.044.044,0,0,0,.044-.043.044.044,0,0,0-.044-.044c-.171,0-.345-.009-.52-.022a5.218,5.218,0,0,0-3.64-1.423l-.25-.163,0-.009a3.1,3.1,0,0,0-.018-.562c.113-.074.224-.153.331-.237a4.349,4.349,0,0,0,.552-.5l.019-.022a3.784,3.784,0,0,1,.645-.223l.044.022c.3.238.612.451.906.643a10.653,10.653,0,0,0,1.228.7,1.661,1.661,0,0,0,.7.209.032.032,0,0,0,.021-.008l.471.256.386.2c.177.092.193.146.174.362-.023.281-.092.449-.322.221-.088-.087-.17-.181-.258-.268a.782.782,0,0,0-.471-.279c-.036,0-.035.053,0,.057.452.05.525.647.92.756.282.078.236-.7.236-.785a.046.046,0,0,0-.024-.041c-1.022-.513-2.018-1.075-3.033-1.6.449.006.9,0,1.348,0a.016.016,0,0,0,.016-.016.017.017,0,0,0-.016-.017c-.592-.031-1.043-.5-1.629-.549a.033.033,0,0,0-.034-.025c-.2,0-.407,0-.61,0l-.022-.017a5.713,5.713,0,0,1-.669-.623,2.733,2.733,0,0,1-.264-.342l.027-.034c.1.016.309.049.343.058a8.04,8.04,0,0,0,1.749.47c.033,0,.033-.052,0-.052a20.75,20.75,0,0,1-2.036-.546,6.609,6.609,0,0,0,.58-.9,5.545,5.545,0,0,0,.644-2.194c.038.129.077.258.116.387h0a.147.147,0,0,0,.284-.078,12.127,12.127,0,0,0-.466-1.665q-.045-.279-.116-.553h0a8.782,8.782,0,0,0-2.68-4.164,13.517,13.517,0,0,0-9.615-3.633c-.111.008-.111.181,0,.173a9.852,9.852,0,0,1,1.546.017,13.2,13.2,0,0,1,9.385,5.261,8.759,8.759,0,0,1,.509.834c-.261-.433-.546-.848-.835-1.265-.094-.135-.5-.031-.639-.031a.079.079,0,0,0-.04.01.083.083,0,0,0-.031.112c.159.263.315.55.479.835a8.056,8.056,0,0,0-2.613-1.466.037.037,0,0,0-.035.009.039.039,0,0,0,0,.054,9.28,9.28,0,0,1,2.111,4.039,3.232,3.232,0,0,0-.967-.76c-.022-.012-.042.021-.019.033a3.229,3.229,0,0,1,.97.784q-.106.237-.2.48a4.054,4.054,0,0,0-.756-.736c-.01-.007-.023.009-.013.017a3.775,3.775,0,0,1,.743.787,11.565,11.565,0,0,0-.631,2.728c-.023.2-.043.393-.064.592-.049.046-.1.089-.147.133a4.371,4.371,0,0,0-.142-1.413c-.24-.881-1.029-2.113-1.98-1.188a.019.019,0,0,0,.027.028c1.094-1.03,1.806.723,1.91,1.606a4.729,4.729,0,0,1,0,1.128c-.265.232-.533.46-.808.679q-.319.253-.646.486a12.737,12.737,0,0,0-.414-2.82h0a.059.059,0,1,0-.113.031,13.174,13.174,0,0,1,.382,2.891q-.169.119-.342.231.026-.1.045-.2a4.561,4.561,0,0,0-.528-2.971c-.036-.073-.142-.01-.108.063a4.422,4.422,0,0,1,.44,2.981c-.017.067-.037.133-.059.2-.537.157-1.077.3-1.622.421q.144-.4.285-.8c.392-.364,1.063-.567,1.1-1.17a.1.1,0,0,0,0-.024.09.09,0,0,0-.11-.063c-.2.062-.41.114-.616.169l.2-.605c.05-.148-.184-.211-.233-.064-.084.252-.171.5-.259.753-.045.014-.088.026-.132.041a4.35,4.35,0,0,1-1.153.3c-.056,0-.056.09,0,.088a4.518,4.518,0,0,0,1.243-.311c-.208.588-.425,1.171-.644,1.753-.193.039-.385.077-.579.111q-.8.141-1.6.2c0-.415-.019-.831-.025-1.245a.052.052,0,0,0-.048-.048.052.052,0,0,0-.056.048c-.007.418-.021.836-.026,1.255a8.333,8.333,0,0,1-2.056-.117,10.926,10.926,0,0,1-2.365-.731c-.134-.18-.27-.358-.409-.536a6.594,6.594,0,0,0,.642.317,1.818,1.818,0,0,0,2.074-.166c.03-.03-.015-.073-.046-.046-.737.646-1.8.12-2.486-.353-.34-.235-.662-.487-.977-.748a30.994,30.994,0,0,1-2.934-4.025c-.152-.266-.3-.535-.434-.812-.066-.138-.134-.276-.194-.417-.127-.3-.06-.184.1-.088a10.131,10.131,0,0,1,1.3.972c.8.7,1.561,1.443,2.314,2.193a.03.03,0,0,0,.029,0,.029.029,0,0,0,.011-.04,17.168,17.168,0,0,0-3.878-3.333c-.024-.013-.066.009-.053.041a20.86,20.86,0,0,0,3.39,5.211c-.347-.3-.692-.592-1.049-.883h0a.129.129,0,1,0-.183.183,8.537,8.537,0,0,0,2.2,1.89c.157.194.312.39.466.586q-.436-.2-.857-.443a.106.106,0,0,0-.107.183,8.754,8.754,0,0,0,5.513,1.258v.132c-1.082,0-2.164-.011-3.245.034a.142.142,0,0,0-.1.041,13.087,13.087,0,0,1-3.6-2.29,16.915,16.915,0,0,1-4.032-5.347,10.507,10.507,0,0,1-1.205-5.435,3.535,3.535,0,0,1,2.4-3.209c2.287-.7,4.915.256,7.033,1.084.222.086.376-.285.162-.384a14.309,14.309,0,0,0-5.179-1.475A4.579,4.579,0,0,0,1170.351,10.893Zm15.17,13.326.2-.588a2.912,2.912,0,0,1,.424-.1c.324-.045-.208.419-.237.436C1185.773,24.045,1185.645,24.128,1185.521,24.219Zm5.563-.873c-.078.091-.159.181-.242.269l-.441.152a6.148,6.148,0,0,0,.286-1.658l.233-.24a.132.132,0,0,0,.021-.16c-.195-.256-.1-.8-.1-1.125A7.339,7.339,0,0,1,1191.084,23.346Zm-1.924.284q-.024.291-.04.582l-.249.085c.042-.139.078-.28.107-.423.032-.052.064-.105.093-.159Zm.1,1.231,0-.485c.034.143.063.285.089.428Zm-3.529,1.724-.029-.013.039-.017v.027Zm1-.317c-.1.036-.194.07-.291.1l-.145-.066.035-.016a.089.089,0,0,0,.069.025C1186.507,26.3,1186.617,26.288,1186.729,26.268Zm-1.88.51.048-.013-.024.009Zm.889-.351c-.074.024-.148.047-.223.069-.105-.042-.211-.079-.317-.114.181-.014.36-.031.54-.05v.095Zm1.393-.635.1-.067,0,.046-.032.011Zm1.388-.539-.112.05a4.14,4.14,0,0,0,.456-.985l.255-.089q-.021.363-.027.725-.282.159-.574.3Zm.744-1.075.938-.332c-.062.182-.131.362-.2.54-.2.134-.392.264-.6.387-.042-.17-.088-.34-.139-.508Zm1,0c.049-.133.093-.267.134-.4l.436-.152q-.273.29-.571.552Zm-5.1,2.417c-.2.054-.395.105-.593.155.028-.059.055-.119.081-.179l.217-.074c.1.03.2.062.294.1Zm1-.692c.063-.035.126-.071.188-.108l-.058.095Zm.375-.037a2.615,2.615,0,0,0,.132-.265c.2-.125.394-.257.587-.394q-.009.18-.024.36c-.123.091-.249.177-.378.26-.107.014-.214.026-.32.038Zm1.53-1.278.342-.117a6.348,6.348,0,0,1-1,.969c.006-.115.01-.229.012-.346C1187.646,24.934,1187.862,24.764,1188.075,24.589Zm-.669,1.007a6.28,6.28,0,0,0,1.208-1.191l.035-.012a4.312,4.312,0,0,1-.541,1.041c-.235.1-.473.186-.711.273,0-.037.007-.074.009-.112Zm1.229-1.219.033-.043-.012.036Zm.629-.215c0-.215.008-.43.017-.645.435-.415.857-.842,1.269-1.266,0,.023,0,.046,0,.069a6.6,6.6,0,0,1-.338,1.514q-.471.165-.943.327Zm.315,1.135-.043.087-.01-.048Zm-.139.1c.006.047.012.1.016.142q-.118.232-.24.465c.01-.158.018-.315.023-.473.067-.044.133-.089.2-.135Zm-.233.832c.095-.142.188-.29.276-.444.013.122.026.244.038.366l-.049.02c-.216.085-.432.161-.652.232l-.2-.2a.006.006,0,0,0-.009.009l.2.2c-.4.131-.816.241-1.232.334a.073.073,0,0,0-.143.01l-.126-.018-.031-.012c.008-.049.015-.1.022-.146.229-.1.456-.2.679-.313a12.8,12.8,0,0,0,1.121-.64c.006.186.014.372.029.555v0a.047.047,0,0,0,.017.065.047.047,0,0,0,.065-.017Zm-.255.306c.2-.07.393-.147.586-.228l.018.181q-.276.044-.551.1l-.054-.054Zm.035.056c-.133.028-.265.057-.4.089a.081.081,0,0,0,.021.159,1.638,1.638,0,0,1,.83.378c-.068-.021-.133-.046-.147-.05a13.675,13.675,0,0,0-1.35-.327c.336-.088.667-.187.991-.3Zm-.019.168.152-.033.135.136.09.09a2.071,2.071,0,0,0-.378-.193Zm.745.684c.081.074.16.148.233.221-.742-.248-1.49-.494-2.225-.769l.2-.05a14.68,14.68,0,0,1,1.556.4c.066.051.13.106.194.162v0a.035.035,0,0,0,.037.032Zm-2.3-.666-.088-.034c.034.005.068.009.1.015v.016Zm-.578-.015c.075.03.149.06.222.087q-.454.085-.914.15.35-.108.693-.239Zm-2.738.121a9.83,9.83,0,0,1-1.329.045l.167-.338.071-.143.628-.007c-.2.059-.4.116-.606.167-.168.042-.136.324.041.306a7.46,7.46,0,0,0,1.257-.242l-.06.162-.17.048Zm-1.5-1a16.383,16.383,0,0,0,2.156-.338l-.172.456c-.661.022-1.323.026-1.985.026v-.145Zm2.479-.411c.546-.129,1.091-.279,1.631-.444l-.013.036a12.609,12.609,0,0,1-1.789.924h-.019c.065-.173.127-.347.189-.517Zm3.048-.923q.327-.27.642-.558l-.006.024c-.1.149-.208.291-.32.427-.105.035-.211.071-.317.105Zm1.82-4.684a3.649,3.649,0,0,1,.617,1.983c-.15.146-.3.291-.454.436q-.4.376-.8.745c.007-.115.017-.23.029-.346A12.134,12.134,0,0,1,1189.946,19.864Zm.027-.073c.06-.164.124-.327.194-.488l.016.02c.026.08.053.159.081.24,0,.01.02.006.016,0-.019-.062-.039-.123-.058-.185a3.952,3.952,0,0,1,.611,1.2l-.006,0h0a.008.008,0,0,0-.008.009l-.006.386a1.185,1.185,0,0,1-.132.761,3.556,3.556,0,0,0-.706-1.936Zm.71-4.01c.187,0,.26.262.357.43.253.434.505.874.727,1.325-.231-.227-.466-.448-.71-.661-.23-.361-.433-.748-.639-1.1.088,0,.177.009.265.009Zm1.779,4.8a5.542,5.542,0,0,1-.92,2.173q0-.038.009-.075a11.5,11.5,0,0,0,.4-2.011.02.02,0,0,0-.039,0,17.641,17.641,0,0,1-.538,1.912,12.765,12.765,0,0,0-.542-3.574c0-.011-.02-.007-.016,0a12.879,12.879,0,0,1,.543,3.647c-.028.151-.042.3-.073.442-.047.06-.094.119-.143.177a5.641,5.641,0,0,0-.956-4.022c.035-.078.071-.155.108-.233.015-.033-.033-.062-.049-.029l-.087.184a8.954,8.954,0,0,0-1.838-3.821l-.126-.132a3.4,3.4,0,0,1,.673.32c.39.263.8.487,1.166.785.412.332.8.692,1.177,1.059a3.628,3.628,0,0,0,.3.353c.172.176.366.323.552.481l.009.008c.168.412.313.831.448,1.254a4.742,4.742,0,0,1-.062,1.1Zm-1.041,3.012a3.734,3.734,0,0,0,.775.9c-.05,0-.108-.014-.166-.018-.022-.006-.043-.014-.066-.019-.078-.021-.1,0-.078.037a2.554,2.554,0,0,0-.436.481c-.235.126-.464.265-.694.4a.513.513,0,0,0-.483-.315c-.047,0-.047.073,0,.073a.45.45,0,0,1,.429.274c-.143.084-.285.166-.43.241l0,0c.147-.074.291-.152.434-.231a.773.773,0,0,1,.038.105c-.061.04-.123.077-.185.115a.321.321,0,0,0-.222.075.234.234,0,0,0-.045.078c-.208.112-.422.213-.64.3-.022-.159-.047-.317-.075-.475.1-.166.19-.341.277-.515A4.279,4.279,0,0,0,1191,24.1c-.051.346-.117.679-.191.99a.022.022,0,0,0,.015.026.022.022,0,0,0,.027-.015c.084-.341.159-.708.215-1.09l.024-.033c.116-.126.227-.256.334-.388Zm-1.118,2.2a.19.19,0,0,1,.042-.068.337.337,0,0,1,.2-.07c-.079.048-.159.093-.239.137Zm2.979-.712-.2-.1c-.03-.015-.062-.031-.091-.047-.14-.1-.277-.2-.412-.308a2.84,2.84,0,0,1,.46-.041.034.034,0,0,0,.031-.019c.506.042.891.417,1.374.519h-.511C1193.718,25.081,1193.5,25.078,1193.282,25.079Zm1.805,1.052a4.666,4.666,0,0,1-1.042-.523q-.357-.21-.706-.44c.512.279,1.018.566,1.529.845l.219.118Zm-3.135-1.39c-.052.02-.1.042-.153.065.083-.109.15-.2.3-.208.047,0,.093,0,.139,0l.031.015.026.013c-.115.035-.229.076-.342.12Zm-.605.333a5.545,5.545,0,0,1-.549.417c-.01-.033-.022-.067-.035-.1.2-.107.388-.216.583-.317Zm1.8,2.4.015.012-.078-.029V27.4l.007.006v.017l0,0c0,.016.022.031.053.046Zm.632.335-.047,0-.094-.067c.065.024.132.045.2.063h-.059Zm-.7-.31c.057.023.112.046.17.067l.022.019c.1.083.212.161.32.237-.212.016-.514.036-.514-.023Zm-.1-.081a11.339,11.339,0,0,1-1.64-.88,5,5,0,0,1,3.164,1.245,6.026,6.026,0,0,1-.981-.179,1.661,1.661,0,0,1-.278-.166q-.09-.075-.174-.153a.046.046,0,0,0-.031-.013.044.044,0,0,0-.044.044v.108l-.017-.006Zm-1.9-1.037a8.657,8.657,0,0,0-1.384.088c0-.032-.007-.064-.01-.1s-.011-.08-.016-.119l.081-.034q.258-.114.508-.243c0,.084.005.168.005.232l0,.005.005-.005c0-.06-.009-.147-.007-.235q.259-.133.506-.29a4.844,4.844,0,0,1,.026.525.021.021,0,0,0,.009.018.022.022,0,0,0,.032,0l.239.158Zm-1.51.265c.019.173.04.345.063.518-.072-.056-.143-.11-.217-.16l-.28-.278c.144-.03.287-.056.433-.08Zm-8.021.168c-.252-.042-.5-.093-.749-.153.226-.083.455-.159.687-.223.468.011.936.017,1.4.014-.079.159-.158.318-.239.476a9.319,9.319,0,0,1-1.105-.114Zm-.278-.381c-.2.059-.406.124-.607.2q-.423-.108-.835-.249c.481.021.96.039,1.441.053Z" style="fill: #171724"/>
        <path d="M1053.509,21.918l.707-.021c12.021-.371,24-1.564,36-2.2a170.47,170.47,0,0,1,17.139-.36c2.428.116,4.86.279,7.291.241a18.675,18.675,0,0,0,6.45-.982c.089-.035.156-.164.064-.238a17.6,17.6,0,0,0-6.617-3.121,44.628,44.628,0,0,0-8.453-1.264c-3.016-.2-6.038-.217-9.059-.17.269-.068.537-.136.806-.207a.126.126,0,0,0-.034-.246c-5.494.155-10.988.246-16.48.47q-1.235.049-2.471.1-9.254-.142-18.5-.573a262.791,262.791,0,0,1,27.482-.97.015.015,0,0,0,.011-.011.013.013,0,0,0-.011-.015c-9.253,0-18.543-.024-27.752.983q-8.28-.39-16.546-1c-.038,0-.038.058,0,.061q8.051.6,16.113.989l-.609.069c-.025,0-.025.042,0,.039q.43-.05.862-.1,4.245.2,8.49.345,4.634.153,9.269.233c-10.817.485-21.631,1.126-32.462,1.134a.024.024,0,0,0,0,.047c5.377,0,10.752-.157,16.125-.375,5.837-.237,11.671-.539,17.508-.789q3.858.06,7.716.069c2.829.006,5.655-.085,8.482-.147-3.069.628-6.142,1.233-9.232,1.753-4.048.681-8.112,1.262-12.18,1.8-11.521,1.532-23.09,2.724-34.54,4.753-.143.025-.081.24.06.217,8.15-1.345,16.36-2.3,24.557-3.3,5.752-.7,11.507-1.419,17.238-2.292,5.278-.8,10.584-1.668,15.77-2.963q.687-.011,1.374-.017a75.219,75.219,0,0,1,12.718.732c3.484.566,7.206,1.5,9.976,3.8-4.5,1.338-9.358.636-13.972.43-2.729-.122-5.466-.061-8.2.008q-4.561.119-9.117.378c-12,.686-23.967,1.95-35.981,2.419A.142.142,0,0,0,1053.509,21.918Zm41.94-8.09q-.908.02-1.814.043c-4.517.117-9.029.124-13.547.066,5.53-.233,11.079-.473,16.614-.367Z" style="fill: #171724"/>
        <path d="M984.141,26.206a.155.155,0,0,0,.156.155c9.179.112,18.352-.172,27.523-.526,6.1-.238,12.209-.5,18.315-.7,5.071-.168,10.142-.26,15.213-.371-2.81.52-5.572,1.394-8.449,1.421a.018.018,0,0,0,0,.035,28.913,28.913,0,0,0,5.739-.793,32.541,32.541,0,0,1,4.605-.706l1.283-.029a.15.15,0,1,0,0-.3c-9.3-.223-18.634.19-27.929.526-12.1.438-24.194.977-36.3,1.128A.157.157,0,0,0,984.141,26.206Z" style="fill: #171724"/>
        <path id="c862cbbf-51e8-4fb1-97b9-68dd98fd3e4b" data-name="rock left" d="M1090.986,24.143a4.614,4.614,0,0,0,.012,3.211,6.032,6.032,0,0,0,.729,1.764,4.513,4.513,0,0,0,1.247,1.134,10.738,10.738,0,0,0,2.039.993,6.2,6.2,0,0,0,.538.537.056.056,0,1,0,.079-.079c-.1-.113-.192-.226-.287-.34.621.215,1.256.389,1.885.541a27.755,27.755,0,0,0,4.28.689c-.321.045-.643.087-.966.142a.122.122,0,0,0-.081.081.12.12,0,0,0,.081.149,4.923,4.923,0,0,0,1.606-.072.427.427,0,0,0,.227-.011l.349-.119c.111-.029.22-.058.328-.089a15.2,15.2,0,0,0,3.073-.18,7.155,7.155,0,0,1,1.053.425.086.086,0,0,0,.038.01.08.08,0,0,0,.082-.079.974.974,0,0,0-.287-.565,4.167,4.167,0,0,0,.682-.269,8.579,8.579,0,0,1,2.96.654c.135.082.271.16.411.233a.061.061,0,0,0,.076-.02.062.062,0,0,0-.015-.085,4.431,4.431,0,0,0-.527-.291c-.4-.235-.783-.49-1.169-.741l1.112,0a.02.02,0,0,0,.019-.02.02.02,0,0,0-.019-.019l-1.181,0c-.22-.143-.441-.284-.666-.418l.072-.066c.034-.033.068-.067.1-.1a16.91,16.91,0,0,0,2.216.1c.191.168.37.353.548.529a.023.023,0,0,0,.031,0,.024.024,0,0,0,0-.033c-.169-.17-.344-.356-.532-.527a.037.037,0,0,0-.018-.046l-.077-.038c-.058-.051-.118-.1-.179-.146.81.283,1.619.563,2.433.835a.065.065,0,0,0,.05-.119,29.309,29.309,0,0,0-3.767-1.45c.016-.026.032-.052.047-.078,1.23,0,2.458.014,3.687.018a.094.094,0,0,0,.09-.068.1.1,0,0,0-.065-.119,11.616,11.616,0,0,0-3.406-.48,3.309,3.309,0,0,0,.156-.588,3.853,3.853,0,0,0-1.756-3.5,6,6,0,0,0,.556-.318c.009-.006,0-.021-.009-.015a5.786,5.786,0,0,1-.562.322c-.147-.116-.3-.226-.448-.328a10.1,10.1,0,0,0-5.63-1.715.067.067,0,0,0-.068.068,1.786,1.786,0,0,0,.2.634,24.2,24.2,0,0,0-6.173-1.611C1094.472,22.272,1091.829,22.255,1090.986,24.143Zm14.768.051a9.553,9.553,0,0,1,2.381,1.3,6.87,6.87,0,0,1-1.686.523,21.033,21.033,0,0,0-2.639-1.342q-.648-.288-1.312-.552l-.033-.076c.018.04-.24-.546-.108-.541.082,0,.164.005.245.009.207.013.412.03.617.055a10.407,10.407,0,0,1,2.536.622Zm.266,4.3a17.268,17.268,0,0,0-1.439-2.291q.371-.009.735-.034c.308.382.6.777.879,1.178a6.437,6.437,0,0,1,.927,1.546,2.329,2.329,0,0,1-.994-.16c-.023-.055-.048-.111-.074-.167a.345.345,0,0,1,.079-.126.029.029,0,0,0,0-.042.03.03,0,0,0-.043,0,.37.37,0,0,0-.07.1Zm.358-1.254q-.417-.558-.868-1.085l.086-.008a8.3,8.3,0,0,1,2.027,1.315.215.215,0,0,0,.351-.222,2.831,2.831,0,0,0,.487.414,1.071,1.071,0,0,1-.62.157.089.089,0,0,0-.161.054,3.4,3.4,0,0,0,.275.919.807.807,0,0,1-.082.722h-.1a.018.018,0,0,0-.016.01.928.928,0,0,1-.459-.565.054.054,0,0,0-.008-.021c.03-.57-.608-1.286-.911-1.69Zm-12.518,1.886-.023-.047a17.809,17.809,0,0,1-.743-2.01c.744.766,1.478,1.542,2.221,2.309.3.307.6.625.9.941-.79-.386-1.587-.756-2.35-1.193Zm4.629,2.435c-.311-.572-.689-1.1-1.046-1.644.287.1.572.208.855.318a11.561,11.561,0,0,0,1.638,1.1.17.17,0,0,0,.254-.145c0-.042,0-.083,0-.122.1.049.2.1.3.152a2.969,2.969,0,0,1,.013.49.081.081,0,0,0,.031.1,2.033,2.033,0,0,0,.21.1c-.755-.087-1.507-.2-2.253-.353Zm9.9-.594a5.723,5.723,0,0,1-.619-.157l-.037-.016c.056-.046.111-.094.165-.142a.077.077,0,0,0,.048-.02.018.018,0,0,0,0-.021l0,0c.117-.106.228-.217.335-.331l.123-.066a.149.149,0,0,0,.073-.153l.087-.107.246.126a.073.073,0,0,0,.051.074l.266.087a3.185,3.185,0,0,1-.287.3c-.145.134-.292.281-.444.425Zm-.14-1.732a.736.736,0,0,0,0-.115,7.453,7.453,0,0,0-.363-1.134,4.178,4.178,0,0,1,.661.864q-.142.2-.3.385Zm-7.687,1.677c-.008-.036-.016-.064-.02-.08a1.987,1.987,0,0,0-.238-.485,15.173,15.173,0,0,1,2.969.782,4.385,4.385,0,0,1-.528.344c-.17,0-.339-.006-.509-.013a.308.308,0,0,0-.053,0,.266.266,0,0,0-.218.307c-.049.01-.1.019-.15.026a.153.153,0,0,0-.058-.183,12.4,12.4,0,0,0-1.194-.7Zm.031.75c.056-.023.055-.189.036-.37q.287.155.569.323c-.2.015-.4.033-.594.049l-.007,0h0Zm1.46.291a.251.251,0,0,0,.109.058c.068.02.138.036.207.052l-.127-.009c-.149-.01-.3-.023-.448-.036a1.941,1.941,0,0,0,.26-.066Zm4.537-.141-.087-.02h.02c.114,0,.1-.007.093.024Zm2.146-1.835-.138-.068c.078-.1.154-.2.228-.3a2.845,2.845,0,0,1,.047.4.065.065,0,0,0-.04.016Zm.127-.424.17.008.5.036a3.07,3.07,0,0,1-.231.407c-.141,0-.282,0-.423,0a2.686,2.686,0,0,0-.049-.409Zm-1.208,1.3c.044.015.088.028.134.041q.225.105.443.221a2.554,2.554,0,0,1-.734.485,5.132,5.132,0,0,1-.754.233h0a.789.789,0,0,1-.018-.1.058.058,0,0,0-.056-.056l-.391.011a6.039,6.039,0,0,0,1.382-.839Zm-1.555.923c.158.035.316.066.478.091a11.543,11.543,0,0,1-1.448.2,6.206,6.206,0,0,0,.963-.3l.01,0Zm-6.245-.882v0l-.029-.017Zm-2.316-1.224c-.108-.036-.215-.073-.321-.11-.037-.059-.073-.12-.109-.179.147.092.291.189.433.288Zm2.437.7c-.043-.032-.086-.06-.126-.088.1.011.2.023.3.038a1.783,1.783,0,0,1,.258.509c-.071-.035-.142-.071-.214-.1a.494.494,0,0,0-.217-.356Zm2.474.224a14.894,14.894,0,0,0-1.863-.435,6.94,6.94,0,0,1,1.765.393c.035.012.067.027.1.04Zm.922.568.4.155.145.1c-.313.03-.628.045-.944.048.137-.1.269-.2.4-.308Zm3.037-.434a6.152,6.152,0,0,1-1.451.528q-.171-.5-.343-.989c.409.04.816.087,1.221.129.332.036.667.056,1,.083q-.208.133-.426.247Zm2.1-3.132-.011.012-.017-.011a2.581,2.581,0,0,1-.616-.582c-.1-.14-.2-.284-.3-.425q.48.486.964.968a.136.136,0,0,1-.021.037Zm.107.1a.315.315,0,0,0,.022-.029l.157.158.058.058a1.526,1.526,0,0,0-.235-.188Zm-.074-.206q-.527-.528-1.055-1.052a3.154,3.154,0,0,1,.852.671.749.749,0,0,1,.206.38Zm-3.046-1.35c-.023-.028-.047-.054-.07-.081l.038.019.105.055Zm4.077,3.363h-.68a7.712,7.712,0,0,0,.811-1.561c.118-.3-.393-.516-.521-.22a6.212,6.212,0,0,1-.635,1.123,4.225,4.225,0,0,0-.667-.867q-.007-.03-.012-.06a1.166,1.166,0,0,0,.711-.183c.09.055.183.108.28.157h0a.029.029,0,0,0,.042,0,.03.03,0,0,0,0-.042l-.231-.231a.405.405,0,0,0-.017-.3,2.856,2.856,0,0,0-1.4-1.174c-.089-.046-.168.089-.079.134l.113.059c.2.239.357.511.552.758a8.669,8.669,0,0,0-1.376-1.059,6.833,6.833,0,0,0,1.681-.523A4,4,0,0,1,1109.784,28,2.771,2.771,0,0,1,1109.578,29.5Zm3.036.486-2.907.014a3.834,3.834,0,0,0,.177-.379,17.319,17.319,0,0,1,2.73.365Zm-2.022.806a1.516,1.516,0,0,0-.57-.188l-.45-.222c.85.279,1.705.563,2.537.9l-.848-.272-.536-.172Zm.047.1c.043.027.086.056.128.085l-.264-.132.135.047Zm-.161.25c-.229,0-.455-.007-.683-.019-.284-.015-.57-.035-.854-.069a5.036,5.036,0,0,0,.52-.646q.727.37,1.454.735c.137.069-.125,0-.181,0l-.257,0Zm-2.191-.075-.12-.062.151.034Zm-.5.893a4.349,4.349,0,0,0,.851-.613q.206.12.407.25c.06.039.12.078.178.118h-.347a.024.024,0,0,0,0,.048h.416c.266.178.525.362.789.541a9.86,9.86,0,0,0-2.272-.341Zm-.676.752a6.7,6.7,0,0,0-.694-.279c.147-.031.292-.065.438-.1a.971.971,0,0,1,.257.383Zm-9.981-1.464c-.048-.012-.1-.023-.143-.036a18.882,18.882,0,0,1-2.116-.68,8.6,8.6,0,0,1-.679-.761c-.04-.068-.077-.137-.114-.207.992.607,2.037,1.119,3.053,1.684Zm-5.757-4.989a2.669,2.669,0,0,1,.629-2.478,3.952,3.952,0,0,1,2.518-.785,20.287,20.287,0,0,1,7.528,1.587q.329.121.654.249a1.383,1.383,0,0,1,.053.262c0,.036.058.037.057,0a1.423,1.423,0,0,0-.034-.233c.779.308,1.547.644,2.3,1.018.076.091.152.183.226.275-.243.016-.487.028-.734.034l-.027-.04a.114.114,0,0,0-.2.044c-.147,0-.294,0-.442,0l-.006,0,.006.008c.148,0,.3,0,.442,0a.1.1,0,0,0,.018.051,25.809,25.809,0,0,1,1.4,2.193,3,3,0,0,1,.374.943c.06.431-.181.568-.578.616a.069.069,0,1,0,0,.138c.873.051.906-.54.621-1.286l.031.017c.268.133.894.048.953.339a.987.987,0,0,0,.448.544,3.943,3.943,0,0,1-.425.262c-.068.038-.019.132.05.119.037-.007.074-.016.111-.026-.132.105-.268.205-.407.3-.336-.057-.672-.114-1.012-.152-.454-.05-.912-.105-1.37-.152l-.019-.055a.093.093,0,0,0-.087-.068c-.554.008-1.109.011-1.661.011a.082.082,0,0,0-.077.076.083.083,0,0,0,.077.087c.538,0,1.08.039,1.619.09l.124.39q.105.331.212.663c-.093.018-.186.035-.281.051-.2-.094-.409-.184-.616-.268-.072-.052-.146-.1-.221-.149.1-.094.2-.189.293-.282h0a.033.033,0,1,0-.046-.046c-.1.1-.208.194-.314.285a7.1,7.1,0,0,0-3.539-.87.052.052,0,0,0-.052.048c-.338-.042-.678-.072-1.02-.092a4.34,4.34,0,0,0-.483-.024,12.894,12.894,0,0,0-1.689-1.118.154.154,0,0,0-.21.21c.063.123.128.245.2.365l-.029-.009a.106.106,0,0,0-.134.05,6.122,6.122,0,0,0-.539-.335c-.4-.221-.4-.423-.4-.854l-.006-.342a.057.057,0,0,0-.113,0c-.007.35-.024.7-.029,1.048a.087.087,0,0,0,.042.074,6.771,6.771,0,0,1,1.824,1.383c.15.243.3.486.444.732-.291-.171-.588-.332-.888-.486-.528-.532-1.087-1.039-1.617-1.552-.748-.724-1.5-1.439-2.252-2.166-.076-.252-.147-.5-.216-.759a.021.021,0,0,0-.041.011q.077.327.159.652l-.123-.119a.021.021,0,0,0-.028,0,.022.022,0,0,0,0,.03c.06.061.119.123.178.184a15.5,15.5,0,0,0,.663,2.046c-.071-.042-.143-.085-.214-.129a.116.116,0,0,0-.139.18,13.282,13.282,0,0,1,.877,1.018c.04.07.082.141.125.21a7.532,7.532,0,0,1-1.369-.82,4.906,4.906,0,0,1-1.552-3.2Z" style="fill: #171724"/>
        <path d="M1130.417,8.338c.879.184,2.038.516,2.292,1.449a.018.018,0,0,0,.021.012.016.016,0,0,0,.012-.021,1.183,1.183,0,0,0-.04-.132c-.318-.795-1.29-1.122-2.081-1.308q1.791,0,3.582-.013a.02.02,0,0,0,.019-.019.02.02,0,0,0-.019-.02q-1.939-.009-3.878-.013a16.274,16.274,0,0,0-1.715-.259c.443-.129.879-.278,1.3-.42.7-.235,1.4-.484,2.081-.759.008,0,0-.015,0-.012-.653.259-1.315.5-1.981.717-.475.157-.968.328-1.469.467-.963-.093-1.935-.118-2.9-.126-1.431-.012-2.859.039-4.287.1l-.044-.008a8.58,8.58,0,0,1,2.036-.349,6.533,6.533,0,0,0,1.537.053,14.827,14.827,0,0,0,3.422-.828l.012-.008h1.458a.015.015,0,0,0,.013-.013.015.015,0,0,0-.013-.018h-1.457a.023.023,0,0,0-.026-.009l-.025.009q-3.623,0-7.246-.007c-.031-.079.026-.139.175-.181a2.528,2.528,0,0,1,.536-.26,6.825,6.825,0,0,1,2.137-.259l.009,0c1.045.056,2.112.069,3.164.038,3.117.279,6.22.71,9.354.713.246.49.482.985.72,1.479a.05.05,0,0,0,.044.025c4.007.056,8.032.079,12.04.006-2.077.361-4.141.955-6.143,1.382a.034.034,0,0,0-.021.014q-1.092,0-2.184.007a.017.017,0,0,0-.015.015.019.019,0,0,0,.015.02q1.092.006,2.183.006a.034.034,0,0,0,.022.015,22.83,22.83,0,0,0,5.166.1c1.533-.119,3.07-.334,4.611-.326a10.575,10.575,0,0,1,1.068.049c.206.023.413.047.617.087.135.027.395.021.07.029a21.74,21.74,0,0,0-2.279.186c-1.256.166-2.5.4-3.748.623-1.835.205-3.666.432-5.495.662a.029.029,0,0,0,0,.058,31.825,31.825,0,0,0,5.632-.69c2.5-.288,5.008-.532,7.523-.668.791-.042,1.583-.079,2.375-.1.365-.01.731-.019,1.1-.024.183,0,.366,0,.548,0,.05,0,.37.029.4.018a21.1,21.1,0,0,1-3.844,1.026c-2.6.461-5.238.617-7.826,1.125-.033.007-.019.057.014.051,3.929-.777,8.043-.735,11.812-2.223a.018.018,0,0,0,.015-.018.02.02,0,0,0-.02-.019,109.362,109.362,0,0,0-11.5.726,31.382,31.382,0,0,1,5.59-.68.027.027,0,0,0,.007-.052,16.2,16.2,0,0,0-5.2-.018,25.822,25.822,0,0,1-6.224.067c1.837,0,3.674-.005,5.511-.006a.018.018,0,0,0,0-.035c-1.9,0-3.8-.008-5.7-.007.074-.01.226-.02.242-.024l.3-.06c.252-.053.5-.1.756-.161.464-.106.928-.216,1.392-.324.95-.221,1.9-.441,2.862-.619.456-.084.916-.161,1.378-.225h.07a.637.637,0,0,1,.156.694.02.02,0,0,0,.013.022.021.021,0,0,0,.025-.012.689.689,0,0,0-.12-.7l4.531.009c.054,0,.068-.085.013-.1a14.566,14.566,0,0,0-4.7-.051c-.773-.56-2.736-.449-3.26-.44-1.014.017-2.024.094-3.034.181a.711.711,0,0,1,.64-.373l.007-.007a.009.009,0,0,0-.007-.011.729.729,0,0,0-.662.393c-1.065.093-2.131.2-3.2.256l-3.17-1.051-.13-.129c-.1-.095-.287-.188-.107-.182a8.529,8.529,0,0,1,1.549.221,16.92,16.92,0,0,0,3.5.507l.006-.006-.006-.006a14.2,14.2,0,0,1-2.988-.4,10.881,10.881,0,0,0-2.181-.346l-.011,0a.016.016,0,0,0,0,.022c.09.091.18.188.27.285l-.988-.328a.037.037,0,0,0-.021,0,7.41,7.41,0,0,0-2.522-.65h0c-.073-.294-.578-.6-.793-.767-.426-.338-.866-.662-1.324-.957a4.418,4.418,0,0,0,.64.145c.6.085,1.2.084,1.8.117.092,0,.092-.148,0-.143a7.377,7.377,0,0,1-2.692-.284,2.139,2.139,0,0,0-1-.421c-.037,0-.055.054-.02.071.215.1.43.2.648.288.2.111.387.227.573.352a15.759,15.759,0,0,1,1.5,1.127,4.253,4.253,0,0,1,.439.41c-.048-.02-.1-.042-.143-.066a.088.088,0,0,0-.048-.007.087.087,0,0,0-.076.1c-.708-.041-1.425-.032-2.133-.032a.013.013,0,1,0,0,.026c.713,0,1.431-.008,2.145.035a.08.08,0,0,0,.029.023c.073.036.489.242.466.017.073.008.148.014.221.023a7.512,7.512,0,0,1,1.243.238,5.9,5.9,0,0,1,.592.2c.131.054.558.167.154.162-1.865-.026-3.723-.189-5.577-.378-1.044-.107-2.086-.212-3.128-.3.054,0,.109,0,.163-.006a.03.03,0,1,0,0-.06c-.482-.021-.969-.033-1.456-.035a46.063,46.063,0,0,0-5.647-.089,3.75,3.75,0,0,1-1.075-.291c-.544-.249-1.024-.615-1.576-.85-.091-.038-.181-.077-.273-.111-.026-.011-.052-.02-.077-.029.309.016.618.027.927.029q1.011.006,2.022.007a11.489,11.489,0,0,0,5.144.227l.078-.019a5.282,5.282,0,0,0,1.364.049,22.057,22.057,0,0,0,2.845.445c.315.018.637-.06.759.3.027.076.117.295-.042.279s-.339-.07-.512-.087a1.168,1.168,0,0,0-1.019.19c-.019.017.009.044.027.028a1.01,1.01,0,0,1,1.055-.113,1.07,1.07,0,0,0,.51.11c.362-.06.034-.619-.045-.782a.066.066,0,0,0-.058-.033A18.506,18.506,0,0,1,1127.4,4.9a6.453,6.453,0,0,0,.9-.217q.736,0,1.474,0a.07.07,0,0,0,.069-.07.069.069,0,0,0-.069-.069q-1.068,0-2.138,0a3.431,3.431,0,0,0-.226-.378c.1-.066.2-.134.291-.209s.454-.5.594-.646c.079-.012.159-.022.24-.029,2.122.244,4.247.462,6.379.611a73.79,73.79,0,0,0,7.925.18,70.314,70.314,0,0,0,7.822-.829c5.394-.81,10.792-1.625,16.219-2.185a125.461,125.461,0,0,1,15.792-.733,50.478,50.478,0,0,1,14.244,1.919c1.5.474,2.974,1,4.446,1.546q-.272.051-.538.11c-.861-.194-1.733-.349-2.605-.466a52.4,52.4,0,0,0-10.363-.24c-2.82.181-5.617.517-8.4.926q-2.419.09-4.833.268a22.4,22.4,0,0,0-4.534-.412,64.409,64.409,0,0,0-9.333.786c.016-.05.031-.1.045-.152V4.607l0,0h0l-3.6,0a.1.1,0,0,0-.091-.08q-1.058,0-2.114,0a.142.142,0,0,0-.139-.04c-.041.012-.08.026-.12.04q-.978,0-1.954.006a.127.127,0,0,0-.1-.048c-.128,0-.256,0-.385,0,.642-.174,1.269-.372,1.869-.571a.03.03,0,0,0,.02-.025.029.029,0,0,0-.027-.031,17.41,17.41,0,0,0-4.137.573l-.268.07c-.993.014-1.986.031-2.979.038h-.008a.08.08,0,0,0-.075.086.09.09,0,0,0,.013.045c-.218-.029-.436-.06-.656-.091a.047.047,0,0,0-.058.033.048.048,0,0,0,.033.059,7.455,7.455,0,0,0,2.011.378,11.411,11.411,0,0,0-1.12.5c-.224.074-.446.151-.665.238-.009,0-.2.07-.143.1a.39.39,0,0,0,.229-.018c-.108.065-.215.131-.321.2a.043.043,0,0,0-.02.035.043.043,0,0,0,.041.044l2.555,0a19.4,19.4,0,0,1-4.742-.145c-.129-.021-.188.169-.055.2.073.017.147.032.22.048-1.617-.147-3.25-.17-4.871-.17a.077.077,0,0,0-.078-.062l-1.89,0a.079.079,0,0,0,0,.157h.444c.15,0,.3.006.452.014a6.982,6.982,0,0,0,1.8.514,2.274,2.274,0,0,1,.217.175.055.055,0,0,0,.021.012.061.061,0,0,0,.079-.038h2.856a.043.043,0,0,0,.04.03l.558,0,.675,0a.037.037,0,0,0,.018,0c.387,0,.774,0,1.161-.008h.5a.051.051,0,0,0,.045.023q3.692.007,7.384,0a.06.06,0,0,0,0-.12q-2.2,0-4.395,0c2.891-.128,5.775-.358,8.656-.631a4.484,4.484,0,0,0,.917.2,1.9,1.9,0,0,0,1.491-.433c4.827-.493,9.647-1.062,14.48-1.435q.524.108,1.035.254l.045.014c-4.162.692-8.313,1.47-12.5,2.07-.033.005-.019.055.014.05,4.205-.6,8.378-1.4,12.565-2.1a10.891,10.891,0,0,1,1.082.375c.113.046-.3.1-.294.1l-.474.108c-.319.073-.637.144-.957.215q-2.043.456-4.095.871a91,91,0,0,1-17.246,2.025.03.03,0,0,0-.029.029.031.031,0,0,0,.029.035c7.853.024,15.648-1.555,23.266-3.314.032-.008.043-.062.01-.076a11.7,11.7,0,0,0-1.111-.4q1.788-.3,3.582-.564c1.382-.06,2.766-.1,4.153-.1h0v0q-1.889,0-3.775.058l-.055,0c1.777-.257,3.562-.481,5.354-.649a55.644,55.644,0,0,1,13.172.044c.789.115,1.578.254,2.359.429-.15.034-.3.07-.447.109-.014,0-.008.023.006.02q.264-.06.53-.109a23.018,23.018,0,0,1,3.233.967,17.739,17.739,0,0,1,2.578,1.217c.215.125.218.162.014.345-.126.113-.251.226-.385.33a5.929,5.929,0,0,1-.885.595,3.929,3.929,0,0,1-1.766.484.038.038,0,0,0-.037.037.037.037,0,0,0,.037.036,4.95,4.95,0,0,0,3.352-1.668l.006-.008a.042.042,0,0,0-.015-.057,20.958,20.958,0,0,0-5.983-2.306c.182-.033.365-.064.548-.091,2.609.968,5.2,1.99,7.843,2.868,3.639,1.209,7.546,2.306,11.414,1.81.038-.005.039-.065,0-.061a25.06,25.06,0,0,1-10.149-1.483c-2.944-.941-5.81-2.1-8.7-3.19a38.546,38.546,0,0,1,4.97-.192c2.285.012,4.581.226,6.857.4,5.27.411,10.524,1.022,15.8,1.366A116.416,116.416,0,0,0,1246.2,5.3c.176-.013.178-.29,0-.277a107.163,107.163,0,0,1-14.167.091c-5.25-.308-10.482-.783-15.723-1.19-2.78-.216-5.561-.4-8.346-.5a31.081,31.081,0,0,0-6.224.3q-.788-.3-1.578-.587a42.248,42.248,0,0,0-10-2.6,99.388,99.388,0,0,0-13.54-.49c-5.265.167-10.509.683-15.731,1.359-2.58.334-5.156.7-7.73,1.078-2.8.41-5.589.908-8.41,1.093-10.625.7-21.065-1.717-31.627-2.342C1092.522.021,1072.911,8.2,1052.4,8.387a.1.1,0,0,0-.1.094.1.1,0,0,0,.1.105c8.665.045,17.2-1.361,25.684-3.006,8.4-1.629,16.816-3.429,25.378-3.937a93.363,93.363,0,0,1,15.69.527q1.668.183,3.336.387a2.388,2.388,0,0,0,.94.5h-.3a.085.085,0,0,0,0,.169l2.216-.006a.078.078,0,0,0,0-.156l-.859,0a3.235,3.235,0,0,1-1.783-.473c1.668.2,3.334.412,5,.608-.251.055-.5.12-.747.191s-.514.163-.776.237c-.235.041-.465.112-.7.141-.045,0-.089.009-.134.011-.134.005-.134.213,0,.208a3.866,3.866,0,0,0,.936-.174.393.393,0,0,1,.048-.006.936.936,0,0,1,.786.328,3.973,3.973,0,0,1-.6.327,6.5,6.5,0,0,1-1.651-.386c-.825-.317-1.631-.675-2.471-.954-.025-.008-.034.03-.011.038a37.006,37.006,0,0,0,3.837,1.4l-1.4,0a13.859,13.859,0,0,1-1.669-.713c-.047-.023-.088.047-.041.071.426.217.857.442,1.3.627-2.4,0-4.793.029-7.188.038a.038.038,0,0,0-.011.075,23.006,23.006,0,0,1,2.131,1.065,4.433,4.433,0,0,0,.7.245l-.156.011q-1.7.007-3.4.02a.089.089,0,0,0-.082.05c-.71-.024-1.422-.021-2.133-.01a.059.059,0,0,0,0,.117c1.012.016,2.023.031,3.026.107.867.125,1.711.4,2.574.548h-4.834l-.009-.006a.031.031,0,0,0-.043.006h-.714a.026.026,0,0,0,0,.052c.07,0,.139,0,.209.006a.33.33,0,0,0,.113,0c.145.006.29.013.436.024a12.967,12.967,0,0,0,2.11,1.238q-1.237,0-2.475.016c-.918-.3-1.844-.6-2.782-.844-.2-.089-.406-.173-.613-.25.206-.27.255-.561-.191-.761a5.965,5.965,0,0,0-2.578-.245c-.535,0-1.069,0-1.6.008-1.455-.374-2.906-.766-4.34-1.211l-.422-.133a.828.828,0,0,0-.265-.049h.631c.236,0,.473,0,.709,0,.132,0,.266.015.4.009a.049.049,0,0,0,0-.1c-.137-.006-.276.006-.413.009l-.01,0c-.488.007-.979-.006-1.467-.006a.042.042,0,0,0-.011.083c1.412.469,2.847.867,4.287,1.241.2.053.4.1.6.156h-.268c-.306-.018-.612-.03-.919-.03a.065.065,0,0,0-.042.016c-1.231-.024-2.464-.044-3.69-.009-.481,0-.961,0-1.437.017a.044.044,0,1,0,0,.088,38.836,38.836,0,0,1,4.585.281.356.356,0,0,0-.037.058c-.229.463,1.988.416,2.1.416a.06.06,0,0,0,.016-.118c-.161-.051-.324-.1-.487-.145.16.025.321.046.482.063q-.3-.039-.606-.1-.38-.1-.764-.183-.151-.046-.3-.1a2.618,2.618,0,0,1,.425-.124c.162.021.321.047.481.076-.137-.035-.275-.065-.416-.09l.017,0c.029,0,.058.008.087.014.126.023.249.054.372.087.9.162,1.791.4,2.695.519-.487-.017-.974-.027-1.457-.058a7.819,7.819,0,0,0-.778-.316c.259.092.513.2.763.315-.172-.011-.344-.025-.516-.043.168.022.337.041.5.058l.05,0,.172.082,0,0-.158-.076c.286.027.579.052.873.069l0,.01a.025.025,0,0,0,.025.025,13.821,13.821,0,0,1,2.642.325,4.83,4.83,0,0,1-.461.33c-.071.049,0,.165.068.116a3.714,3.714,0,0,0,.517-.419l.116.026a19.455,19.455,0,0,1,1.933.938q-.9.021-1.8.058c-.51-.021-1.022-.026-1.535-.026a.1.1,0,0,0-.038.01c-.972-.007-1.944,0-2.916,0a.091.091,0,0,0-.061.021l-.931.006a.072.072,0,0,0-.072.072.073.073,0,0,0,.072.073c.311,0,.622.005.933.005a.1.1,0,0,0,.034.019c1.914.626,4.042.644,5.9,1.439a.07.07,0,0,0,.08-.01.068.068,0,0,0,0-.1c-.7-.773-1.88-.744-2.707-1.324a25.7,25.7,0,0,1,2.922.17,4.94,4.94,0,0,1,.731.624,2.471,2.471,0,0,0,.623.516c.532.266,1.073-.259,1.418-.595a.121.121,0,0,0,.028-.049.116.116,0,0,0-.079-.144,13.628,13.628,0,0,0-2.024-.48c1.49.03,2.982.035,4.474.03a7.419,7.419,0,0,0,1.641.171,4.391,4.391,0,0,0-.443.375.02.02,0,0,0,.028.029,4.334,4.334,0,0,1,.483-.4,11.888,11.888,0,0,0,1.974-.2q.981-.01,1.96-.017a.132.132,0,0,0,.064-.016,14.733,14.733,0,0,0,3.64-.074.037.037,0,0,0,.018-.008Q1129,8.342,1130.417,8.338Zm29.765-2.554q-.621.063-1.242.124a1.016,1.016,0,0,0,.175-.152c.433-.474-1.114-.407-1.283-.407l0,0,0,0a4.584,4.584,0,0,1,1.1.066c.356.09.173.352-.049.492l-1.286.124a8.549,8.549,0,0,1-1.182-.517l.293-.046c1.327-.206,2.659-.418,3.994-.613A2.464,2.464,0,0,1,1160.182,5.784Zm-5.128-1.072q.9,0,1.8,0a3.673,3.673,0,0,1-.848.593c-.327-.188-.646-.388-.958-.591Zm.015.047c.285.189.582.383.889.568a3.232,3.232,0,0,1-.9.269l-.016,0c.241-.223.122-.553.029-.839Zm.784.76c.087-.031.172-.065.254-.1l.085.049-.34.054Zm-1.538.335,2.006-.319a7.766,7.766,0,0,0,1.105.517l-.32.03h-1.489a.008.008,0,0,0-.008.008.009.009,0,0,0,.008.009h1.327c-3.063.281-6.129.51-9.2.616,1.642-.139,3.281-.359,4.914-.6a.019.019,0,0,0,.015,0l.025-.007q.732-.111,1.458-.226a.42.42,0,0,0-.058.212c0,.059.086.059.091,0a.3.3,0,0,1,.128-.237Zm4.246.2a1.655,1.655,0,0,1-.365.035Zm-.464.14c-.086-.021-.17-.045-.256-.071l.137-.013a3.354,3.354,0,0,0,.425-.009h.168l.005,0-.005,0h-.1a1.18,1.18,0,0,0,.219-.051q.687-.067,1.375-.138a1.425,1.425,0,0,1-.363.231,2.487,2.487,0,0,1-1.605.06Zm-17.943.6a.791.791,0,0,0-.063-.052c.286.037.574.061.863.078h-.785a.061.061,0,0,0-.015-.026Zm-2.005-.6a3.331,3.331,0,0,1,1.668.485,6.436,6.436,0,0,1-1.449-.394Zm4.547.018c.7.041,1.4.1,2.1.176.186.028.376.052.564.072l.186.026c.4.061.81.127,1.211.21-.814.052-1.628.084-2.443.084a.047.047,0,0,0-.031.012l-.639,0c-.194,0-.388,0-.582,0a.04.04,0,0,0-.04.027h-1.4a13.768,13.768,0,0,1-1.559-.1,2.723,2.723,0,0,0-1.115-.538h.1a.073.073,0,0,0,.076-.058c.342,0,.683,0,1.025.009.849.014,1.7.035,2.547.085Zm6.966.137a19.272,19.272,0,0,0,2.943-.656,9.15,9.15,0,0,0,2.235-.878c.124.21.26.553.035.679-.122.067-.263.077-.382.145l-.107.059a12.057,12.057,0,0,0-1.37.269c-2.009.307-4.026.576-6.048.715q-.4-.087-.808-.157A17.531,17.531,0,0,0,1149.662,6.346Zm-3.315-.582.346-.123c-.082.044-.163.089-.243.136l-.175.039c-.263.055-.1.011.071-.052Zm1.156-.422q.353-.156.711-.295a10.093,10.093,0,0,0,1.058-.023c-.349.089-.7.182-1.044.271-.49.127-.981.28-1.476.407.173-.092.347-.18.524-.261h0l.222-.075.006,0a.014.014,0,0,0,0-.019Zm1.626-.613.977.014c-.367.037-.737.063-1.105.075-.052,0-.1,0-.154,0,.093-.032.187-.061.28-.091Zm-.21,0c-.1.031-.2.062-.3.095a13.91,13.91,0,0,1-1.606-.119q.951.009,1.9.024Zm4.808-.746c-.188.059-.376.118-.567.173-.4.115-.8.235-1.2.313l-.035.007c-.654,0-1.308,0-1.962.014a18.257,18.257,0,0,1,1.809-.376,15.523,15.523,0,0,1,2.162-.205c.262,0-.129.05-.2.074Zm-.959.723,1.489.006c-.219.1-.437.206-.66.29-.4.153-.809.293-1.221.414a19.222,19.222,0,0,1-2.652.587c-.112.016-.224.032-.335.046l-2.233,0h-.785c-.3,0-.224,0-.017-.121.075-.045.151-.089.227-.132.312-.054.619-.137.925-.211.973-.233,1.945-.466,2.927-.659.326-.065.656-.13.987-.172q.621,0,1.242,0a.125.125,0,0,0,.1-.048Zm8-.079c-.014.05-.028.1-.046.149-1.262.181-2.52.378-3.775.572l-.673.1c-.039-.02-.076-.041-.114-.062a3.871,3.871,0,0,0,.994-.708.089.089,0,0,0,.026-.053l3.585,0Zm9.191-.562a23.436,23.436,0,0,1,4.353.355c-4.718.349-9.422.89-14.13,1.366a2.466,2.466,0,0,0,.535-.924,63.13,63.13,0,0,1,9.239-.8Zm4.865.379q2.145-.166,4.293-.266-1.658.249-3.311.523-.487-.147-.984-.258Zm-49.226.326c-.093-.018-.187-.038-.283-.063l-.014,0c.132.012.263.025.394.041l-.1.026Zm2.366-1.4a4.378,4.378,0,0,1-.686.64,1.179,1.179,0,0,0-.481-.359l.065-.019c.365-.1.73-.2,1.1-.263Zm-1.128,1.121a4.226,4.226,0,0,0,.394-.209c.054.075.1.153.151.233-.184,0-.366-.012-.547-.025Zm.98.193a6.066,6.066,0,0,1-.836.146q-.35-.063-.7-.115l.1-.033h.593c.191.02.384.033.58.035a.091.091,0,0,0,.074-.034h.191Zm-1.388.17a4.838,4.838,0,0,1-.495-.032l.106-.031c.13.02.258.04.387.062Zm-1.126-.014a10.475,10.475,0,0,1-3.687.021c-.325-.048-.652-.1-.975-.165l3.957,0a.069.069,0,0,0,.046-.017h.113a5.147,5.147,0,0,0,.544.162Zm22.485,5.869-.108.019a29.668,29.668,0,0,1-4.03.494h-.024l.166-.021,1.1-.137q1.1-.139,2.193-.272Zm-7.33-2.487c-.172.009-.345.016-.519.022a3.2,3.2,0,0,1-2.135-.792l-.183-.181.645.216,1.2.4.738.248Zm1.619.028c.581-.044,1.162-.1,1.742-.146a.8.8,0,0,0-.026.145h-1.716Zm4.12-.318c.544-.026,2.98-.28,3.908.291-.109.015-.219.031-.328.048h-.043a.045.045,0,0,0-.027-.01c-.72-.016-1.44-.016-2.161-.016l-3.733,0a.8.8,0,0,1,.026-.146c.786-.067,1.572-.132,2.358-.17Zm4.652.336a14.186,14.186,0,0,1,3.421-.006q-1.71,0-3.421.006Zm-14.4-1.445c.064.129.326.165.445.205l.62.208a3.025,3.025,0,0,0,.952.751,4.16,4.16,0,0,0,.922.266h-1.682c-.165,0-.472.1-.552-.057l-.439-.846c-.076-.148-.152-.3-.226-.447Zm-15.214,1.329.461-.025.179.031-.64-.006Zm4.856.256a18.275,18.275,0,0,1-1.958-.052h2.717c-.252.022-.505.043-.759.051Zm-5.129.062c-.28.03-.561.052-.843.06l.087-.054.756-.007Zm-.92.063a7.587,7.587,0,0,1-1.087-.048l1.176-.009c-.031.019-.06.037-.089.057Zm-5.967.664c-.2-.2-.4-.385-.614-.557a13.7,13.7,0,0,1,2.061.46c-.231.226-.541.5-.851.464a1.083,1.083,0,0,1-.6-.367Zm-1.637.436c-.864-.212-1.716-.455-2.592-.631-.788-.159-1.556-.361-2.32-.593.753,0,1.506,0,2.26-.005.743.667,1.805.737,2.652,1.229Zm-3.066-2.789c.154.012.307.022.462.024a.038.038,0,0,0,.032-.025.035.035,0,0,0-.023-.044l-1.614-.407a14.937,14.937,0,0,1,1.494.323c.356.1.7.21,1.04.335a14.059,14.059,0,0,0-1.473-.2Zm-1.854-.553.891.224,1.09.271c-.052,0-.1-.006-.155-.011-.131-.012-.262-.024-.392-.041-1.049-.139-2.084-.421-3.133-.565C1106.389,6.181,1106.957,6.22,1107.521,6.288Zm-2.165-.138a1.736,1.736,0,0,0-.3.1c-.078-.031-.157-.062-.234-.1l.476-.009.056.006Zm-.162.171c.045.016.09.032.136.046l-.171-.032.036-.014Zm.022.358c-.139-.023-.5-.094-.262-.242a13.114,13.114,0,0,1,1.518.33,8.128,8.128,0,0,1-1.256-.089Zm-.256-.378q-.473-.082-.95-.136l.772-.012c.083.038.167.074.252.107-.025.012-.05.026-.073.04Zm6.341.346a.464.464,0,0,1-.132.367c-.468-.172-.942-.316-1.407-.437a17.106,17.106,0,0,0-2.406-.44c.391,0,.782.006,1.172,0a13.026,13.026,0,0,1,2,.128c.208.039.721.109.769.378Zm2.467,1.3.606.2-.953.018a7.957,7.957,0,0,0-1.085-.652c.481.136.958.283,1.432.436Zm3.733.177a12.4,12.4,0,0,1-2.317-1.225,54.053,54.053,0,0,1,5.375,1.018L1121,8c-.863.041-1.727.086-2.59.126l-.913,0Zm2.4-1.487c-.243-.043-.484-.1-.725-.151.242.044.484.094.724.15Zm.729-.687a42.742,42.742,0,0,1,5,.074q-.882.008-1.755.054l-.01,0a9.864,9.864,0,0,0-1.406.073.085.085,0,0,0,.02-.055.092.092,0,0,0-.09-.095c-.222,0-.444,0-.666,0a.111.111,0,0,0-.073-.024h-.875c-.06,0-.12-.01-.178-.017l.034,0Zm1.62.233a2.741,2.741,0,0,0-1.288.576.089.089,0,0,0-.029-.015,13.933,13.933,0,0,0-2.472-.544q1.595.012,3.187.007a.106.106,0,0,0,.073-.025h.529Zm5.91.662a16.4,16.4,0,0,1-2.8.73l0-.01a.023.023,0,0,0-.023-.023c-.661,0-1.347,0-2.027.044l-.092-.013a7.539,7.539,0,0,1-1.5-.409c-.214-.084-.428-.172-.635-.273a.307.307,0,0,1-.034-.038Zm-4.626.771c.579-.03,1.159-.027,1.722-.027A6.988,6.988,0,0,1,1123.536,7.618Zm-.376-.019a8.17,8.17,0,0,0-1.936.362c-1.795-.325-3.571-.756-5.376-1.018-.228-.032-.457-.063-.686-.087h.767q2.13,0,4.261,0a6.022,6.022,0,0,0,.723.058.072.072,0,0,0,.066-.034,8.434,8.434,0,0,0,2.181.718Zm2.144.4c1.01-.01,2.039-.015,3.058.058a7.671,7.671,0,0,1-1.063.205h-3.31a.121.121,0,0,0-.122-.087l-1.45-.013c-.119-.017-.237-.035-.356-.055,1.08-.054,2.161-.1,3.243-.109Zm3.137.066a14.914,14.914,0,0,1,1.645.211l-2.5,0a.037.037,0,0,0-.026-.01h-.043a8.1,8.1,0,0,0,.925-.2Z" style="fill: #171724"/>
      </g>
      <g id="fd9933af-b254-401a-975a-a11a5de988fe" data-name="rocks right">
        <path id="941f5a4d-39d5-4283-9d0c-cb7f07b24218" data-name="rock left" d="M269.386,9.045a14.3,14.3,0,0,0-5.179,1.475c-.215.1-.06.47.162.384,2.118-.828,4.745-1.783,7.033-1.084a3.533,3.533,0,0,1,2.4,3.209,10.5,10.5,0,0,1-1.2,5.435,16.945,16.945,0,0,1-4.032,5.347,13.1,13.1,0,0,1-3.6,2.29.143.143,0,0,0-.1-.041c-1.081-.045-2.163-.036-3.244-.034v-.132a8.756,8.756,0,0,0,5.513-1.258.108.108,0,0,0,.033-.147.105.105,0,0,0-.14-.036q-.422.244-.857.443c.153-.2.309-.392.465-.586a8.542,8.542,0,0,0,2.2-1.89.13.13,0,1,0-.184-.183h0c-.357.291-.7.588-1.049.883a20.863,20.863,0,0,0,3.391-5.211c.013-.032-.03-.054-.054-.041a17.163,17.163,0,0,0-3.877,3.333.029.029,0,0,0,.011.04.03.03,0,0,0,.029,0c.753-.75,1.508-1.5,2.313-2.193a10.071,10.071,0,0,1,1.3-.972c.157-.1.224-.21.1.088-.06.141-.127.279-.194.417-.133.277-.281.546-.434.812a30.9,30.9,0,0,1-2.934,4.025c-.315.261-.636.513-.977.748-.687.473-1.748,1-2.486.353-.031-.027-.075.016-.045.046a1.818,1.818,0,0,0,2.074.166,6.691,6.691,0,0,0,.641-.317c-.138.178-.274.356-.408.536a10.96,10.96,0,0,1-2.365.731,8.341,8.341,0,0,1-2.057.117c0-.419-.019-.837-.025-1.255a.052.052,0,0,0-.056-.048.052.052,0,0,0-.048.048c-.006.414-.021.83-.025,1.245q-.807-.061-1.605-.2c-.194-.034-.386-.072-.578-.111-.219-.582-.436-1.165-.645-1.753a4.533,4.533,0,0,0,1.244.311c.056,0,.055-.084,0-.088a4.347,4.347,0,0,1-1.154-.3c-.043-.015-.087-.027-.132-.041-.087-.25-.174-.5-.259-.753-.048-.147-.283-.084-.232.064q.1.3.2.605c-.206-.055-.412-.107-.616-.169a.09.09,0,0,0-.109.063.1.1,0,0,0,0,.024c.037.6.707.806,1.1,1.17q.139.4.285.8c-.546-.121-1.086-.264-1.623-.421-.021-.066-.041-.132-.058-.2a4.416,4.416,0,0,1,.44-2.981c.034-.073-.072-.136-.109-.063a4.561,4.561,0,0,0-.528,2.971q.021.1.045.2-.171-.112-.342-.231a13.3,13.3,0,0,1,.382-2.891.058.058,0,0,0-.041-.072.057.057,0,0,0-.071.041h0a12.68,12.68,0,0,0-.415,2.82q-.325-.233-.645-.486c-.276-.219-.544-.447-.809-.679a4.836,4.836,0,0,1,0-1.128c.1-.883.817-2.636,1.91-1.606.019.017.046-.01.028-.028-.951-.925-1.74.307-1.981,1.188a4.343,4.343,0,0,0-.141,1.413c-.05-.044-.1-.087-.148-.133-.02-.2-.041-.4-.064-.592a11.563,11.563,0,0,0-.63-2.728,3.775,3.775,0,0,1,.743-.787c.009-.008,0-.024-.013-.017a4.054,4.054,0,0,0-.756.736c-.062-.162-.128-.322-.2-.48a3.233,3.233,0,0,1,.971-.784c.022-.012,0-.045-.02-.033a3.241,3.241,0,0,0-.966.76,9.288,9.288,0,0,1,2.11-4.039.038.038,0,0,0,0-.054.038.038,0,0,0-.035-.009,8.045,8.045,0,0,0-2.613,1.466c.163-.285.319-.572.478-.835a.082.082,0,0,0-.031-.112.076.076,0,0,0-.039-.01c-.14,0-.546-.1-.64.031-.288.417-.574.832-.834,1.265a8.749,8.749,0,0,1,.508-.834,13.2,13.2,0,0,1,9.386-5.261,9.852,9.852,0,0,1,1.546-.017c.111.008.11-.165,0-.173a13.513,13.513,0,0,0-9.615,3.633,8.784,8.784,0,0,0-2.681,4.164h0q-.071.274-.116.553a12.123,12.123,0,0,0-.465,1.665.147.147,0,0,0,.1.181.148.148,0,0,0,.181-.1h0c.038-.129.077-.258.116-.387a5.56,5.56,0,0,0,.643,2.194,6.8,6.8,0,0,0,.58.9,20.656,20.656,0,0,1-2.035.546.026.026,0,0,0,0,.052,8.031,8.031,0,0,0,1.748-.47c.035-.009.243-.042.344-.058l.026.034a2.641,2.641,0,0,1-.264.342,5.635,5.635,0,0,1-.669.623l-.021.017c-.2,0-.407,0-.611,0a.033.033,0,0,0-.034.025c-.586.048-1.037.518-1.628.549a.018.018,0,0,0-.017.017.017.017,0,0,0,.017.016c.448,0,.9.009,1.348,0-1.015.526-2.012,1.088-3.033,1.6a.046.046,0,0,0-.024.041c0,.081-.047.863.236.785.394-.109.468-.706.919-.756.036,0,.036-.058,0-.057a.785.785,0,0,0-.471.279c-.087.087-.17.181-.258.268-.229.228-.3.06-.322-.221-.018-.216,0-.27.174-.362.13-.067.258-.136.387-.2l.471-.256a.032.032,0,0,0,.02.008,1.665,1.665,0,0,0,.7-.209,10.738,10.738,0,0,0,1.228-.7c.293-.192.608-.4.906-.643l.043-.022a3.755,3.755,0,0,1,.645.223l.019.022a4.49,4.49,0,0,0,.552.5c.107.084.218.163.332.237a3.2,3.2,0,0,0-.019.562l0,.009-.25.163a5.222,5.222,0,0,0-3.641,1.423c-.174.013-.349.02-.52.022a.044.044,0,0,0-.043.044.043.043,0,0,0,.043.043h.5a.067.067,0,0,0,.056.029c.268,0,.537-.008.805-.016a10.209,10.209,0,0,0-1.386,1.025.035.035,0,0,0,0,.05l0,0a.038.038,0,0,0,.053,0v0a11.484,11.484,0,0,1,1.492-1.083c.232-.007.465-.012.7-.011a.041.041,0,0,0,.041-.041c0-.135,0-.27,0-.405a11.1,11.1,0,0,0,1.678-.927,8.121,8.121,0,0,1,1.6.087c-.018.185-.032.37-.04.557,0,.029,0,.055,0,.083-.214.182-.409.378-.577.543a.088.088,0,0,0,.086.146c.872-.288,1.753-.566,2.618-.884a2.284,2.284,0,0,1-.463.762.051.051,0,0,0,0,.073.053.053,0,0,0,.068,0,1.8,1.8,0,0,0,.554-.9l.087-.032.16.034c.058.291.127.581.21.875a.062.062,0,0,0,.079.04.063.063,0,0,0,.042-.074q-.083-.4-.155-.806c.539.105,1.086.181,1.634.235l.082.074a.056.056,0,0,0,.079,0,.055.055,0,0,0,.013-.057c.155.013.31.026.465.036.161.028.322.053.484.074a10.289,10.289,0,0,0,4.351-.391c.244.108.484.221.72.332.045.021.084-.044.04-.068-.208-.106-.418-.208-.633-.3a12.318,12.318,0,0,0,2.208-.951,16.186,16.186,0,0,0,7.723-10.3,6.569,6.569,0,0,0-.472-4.825A4.579,4.579,0,0,0,269.386,9.045ZM258.158,23.964c-.03-.017-.562-.481-.238-.436a2.957,2.957,0,0,1,.425.1q.1.294.2.588C258.421,24.128,258.292,24.045,258.158,23.964Zm-4.929-3.38c0,.32.09.869-.1,1.125a.13.13,0,0,0,.021.16l.232.24a6.149,6.149,0,0,0,.287,1.658l-.442-.152c-.083-.088-.163-.178-.242-.269A7.359,7.359,0,0,1,253.229,20.584ZM255,23.715c.029.054.061.107.092.159q.044.215.108.423l-.249-.085q-.016-.291-.041-.582Zm-.28,1.089c.026-.143.055-.285.09-.428l0,.485Zm3.614,1.778v-.027l.039.017-.029.013Zm-.661-.268a.087.087,0,0,0,.069-.025l.036.016-.145.066c-.1-.033-.194-.067-.291-.1C257.449,26.288,257.559,26.3,257.668,26.314Zm1.524.46-.024-.009.049.013Zm-.864-.347v-.095c.179.019.359.036.539.05-.106.035-.212.072-.317.114-.074-.022-.149-.045-.222-.069Zm-1.454-.645-.032-.011,0-.046.1.067Zm-1.326-.529q-.291-.139-.574-.3,0-.361-.026-.725l.255.089a4.1,4.1,0,0,0,.456.985l-.112-.05Zm-.744-.988c-.051.168-.1.338-.139.508-.2-.123-.4-.253-.6-.387-.073-.178-.142-.358-.2-.54l.939.332Zm-1-.088q-.3-.263-.572-.552l.436.152q.061.2.135.4ZM258.9,26.6c.1-.035.2-.067.294-.1l.216.074.081.179c-.2-.05-.4-.1-.592-.155Zm-1.134-.7-.059-.095c.063.037.125.073.189.108Zm-.243-.025c-.106-.012-.212-.024-.32-.038-.129-.083-.255-.169-.378-.26-.009-.12-.017-.24-.023-.36.192.137.387.269.586.394a2.851,2.851,0,0,0,.133.265Zm-.882-.771c0,.117.006.231.011.346a6.391,6.391,0,0,1-1-.969l.342.117C256.2,24.764,256.42,24.934,256.641,25.1Zm.019.5c0,.038.006.075.009.112-.239-.087-.477-.176-.712-.273a4.344,4.344,0,0,1-.54-1.041l.034.012A6.286,6.286,0,0,0,256.66,25.6Zm-1.251-1.225-.011-.036.032.043Zm-.608-.209q-.471-.162-.943-.327a6.649,6.649,0,0,1-.338-1.514c0-.023,0-.046,0-.069.411.424.833.851,1.269,1.266.009.215.013.43.016.645Zm-.262,1.175-.009.048c-.015-.029-.029-.058-.043-.087Zm.088.06c.066.046.132.091.2.135.006.158.013.315.023.473l-.24-.465c0-.047.011-.1.017-.142Zm.232.833a.048.048,0,0,0,.083-.048v0c.014-.183.023-.369.029-.555a12.658,12.658,0,0,0,1.121.64c.222.113.449.215.678.313.008.048.014.1.022.146l-.031.012c-.042,0-.083.012-.126.018a.072.072,0,0,0-.142-.01c-.416-.093-.828-.2-1.232-.334l.2-.2a.006.006,0,1,0-.009-.009l-.206.2c-.219-.071-.436-.147-.652-.232l-.049-.02c.013-.122.025-.244.038-.366.089.154.182.3.277.444Zm.255.3-.054.054q-.274-.057-.551-.1c.007-.06.013-.12.019-.181.192.081.387.158.586.228Zm.016.006c.324.113.655.212.991.3a13.813,13.813,0,0,0-1.35.327c-.014,0-.079.029-.147.05a1.641,1.641,0,0,1,.83-.378c.087-.006.115-.136.021-.159-.132-.032-.264-.061-.4-.089Zm-.032.219a2.071,2.071,0,0,0-.378.193l.09-.09.135-.136.153.033Zm-.745.684a.036.036,0,0,0,.038-.032v0c.063-.056.128-.111.194-.162a14.618,14.618,0,0,1,1.556-.4l.2.05c-.735.275-1.483.521-2.224.769.073-.073.151-.147.233-.221Zm2.281-.669v-.016l.1-.015-.087.034Zm.591-.014q.342.131.692.239-.457-.064-.914-.15c.073-.027.148-.057.222-.087Zm2.739.121-.17-.048c-.02-.054-.039-.108-.06-.162a7.46,7.46,0,0,0,1.257.242c.177.018.209-.264.042-.306-.206-.051-.408-.108-.607-.167l.629.007.07.143.167.338a9.815,9.815,0,0,1-1.328-.045Zm1.5-1v.145c-.662,0-1.324,0-1.985-.026l-.171-.456a16.331,16.331,0,0,0,2.156.338Zm-2.479-.411c.062.17.125.344.189.517h-.019a12.663,12.663,0,0,1-1.789-.924l-.012-.036c.539.165,1.084.315,1.63.444Zm-3.048-.924c-.106-.034-.211-.07-.317-.105q-.166-.2-.32-.427l-.006-.024q.317.288.643.558Zm-1.213-1.864c.012.116.021.231.029.346q-.4-.367-.8-.745c-.153-.145-.3-.29-.455-.436a3.65,3.65,0,0,1,.618-1.983A12.186,12.186,0,0,1,254.727,22.682Zm-.634-2.892a3.549,3.549,0,0,0-.707,1.936,1.185,1.185,0,0,1-.131-.761l-.006-.386a.009.009,0,0,0-.009-.009h0l-.006,0a3.95,3.95,0,0,1,.61-1.2c-.019.062-.038.123-.058.185,0,.011.013.015.017,0l.081-.24.016-.02q.1.241.194.488Zm-.711-4.01c.089,0,.177-.006.266-.009-.206.356-.41.743-.64,1.1q-.365.32-.709.661c.221-.451.474-.891.727-1.325.1-.168.17-.427.356-.43Zm-1.778,4.8a4.634,4.634,0,0,1-.062-1.1c.135-.423.28-.842.447-1.254l.009-.008c.186-.158.38-.3.553-.481a3.762,3.762,0,0,0,.3-.353c.378-.367.765-.727,1.177-1.059.369-.3.776-.522,1.166-.785a3.43,3.43,0,0,1,.673-.32l-.126.132a8.952,8.952,0,0,0-1.837,3.821c-.029-.062-.058-.123-.088-.184-.016-.033-.064,0-.048.029.037.078.073.155.107.233a5.646,5.646,0,0,0-.956,4.022c-.048-.058-.1-.117-.143-.177-.03-.14-.045-.291-.073-.442a12.916,12.916,0,0,1,.544-3.647c0-.011-.014-.015-.017,0a12.8,12.8,0,0,0-.542,3.574,17.636,17.636,0,0,1-.537-1.912.021.021,0,0,0-.022-.017.019.019,0,0,0-.017.017,11.494,11.494,0,0,0,.4,2.011c0,.025.007.05.01.075a5.542,5.542,0,0,1-.92-2.173Zm1.041,3.012c.107.132.217.262.333.388l.024.033c.056.382.131.749.216,1.09a.021.021,0,0,0,.026.015.021.021,0,0,0,.016-.026c-.074-.311-.14-.644-.192-.99a4.294,4.294,0,0,0,1.141,1.008c.087.174.181.349.277.515-.027.158-.052.316-.075.475-.218-.092-.432-.193-.639-.3a.255.255,0,0,0-.046-.078.321.321,0,0,0-.222-.075c-.062-.038-.124-.075-.184-.115a.769.769,0,0,1,.037-.105c.143.079.287.157.434.231l0,0c-.146-.075-.288-.157-.43-.241a.449.449,0,0,1,.429-.274c.047,0,.047-.075,0-.073a.515.515,0,0,0-.484.315c-.23-.136-.459-.275-.694-.4a2.521,2.521,0,0,0-.436-.481c.019-.037,0-.058-.078-.037-.022,0-.044.013-.066.019-.058,0-.116.014-.166.018a3.738,3.738,0,0,0,.776-.9Zm1.118,2.2c-.081-.044-.161-.089-.24-.137a.333.333,0,0,1,.2.07.192.192,0,0,1,.043.068Zm-3.633-.709h-.51c.483-.1.868-.477,1.373-.519a.036.036,0,0,0,.032.019,2.817,2.817,0,0,1,.459.041c-.134.106-.272.208-.412.308-.029.016-.061.032-.091.047l-.2.1C250.567,25.078,250.347,25.081,250.13,25.081Zm-1.151,1.05.218-.118c.512-.279,1.018-.566,1.53-.845q-.35.23-.706.44a4.694,4.694,0,0,1-1.043.523Zm3.135-1.39c-.112-.044-.226-.085-.342-.12l.026-.013.032-.015c.046,0,.092,0,.138,0,.148.007.215.1.3.208-.051-.023-.1-.045-.152-.065Zm.6.333c.195.1.388.21.584.317a.992.992,0,0,0-.035.1,5.558,5.558,0,0,1-.55-.417Zm-1.8,2.4c.031-.015.05-.03.053-.046l0,0v-.017l.006-.006v.054l-.078.029.016-.012Zm-.631.335h-.061q.1-.027.2-.063l-.095.067-.046,0Zm.7-.01c0,.059-.3.039-.514.023.109-.076.216-.154.32-.237l.022-.019c.059-.021.114-.044.17-.067Zm.1-.381-.017.006v-.108a.044.044,0,0,0-.045-.044.043.043,0,0,0-.03.013c-.057.052-.114.1-.175.153a1.661,1.661,0,0,1-.278.166,6.034,6.034,0,0,1-.98.179,5,5,0,0,1,3.163-1.245,11.287,11.287,0,0,1-1.64.88Zm1.9-1.037.238-.158a.023.023,0,0,0,.041-.015,4.6,4.6,0,0,1,.027-.525c.164.1.333.2.5.29,0,.088-.006.175-.006.235l0,.005,0-.005c0-.064.007-.148,0-.232q.249.129.507.243l.082.034c-.006.039-.011.079-.016.119s-.006.065-.01.1a8.657,8.657,0,0,0-1.384-.088Zm1.509.265c.145.024.288.05.432.08l-.28.278c-.073.05-.145.1-.216.16.023-.173.043-.345.062-.518Zm8.021.168a9.276,9.276,0,0,1-1.1.114q-.12-.237-.238-.476c.468,0,.935,0,1.4-.014.233.064.461.14.688.223-.249.06-.5.111-.749.153Zm.278-.381c.48-.014.959-.032,1.441-.053q-.412.141-.836.249-.3-.108-.607-.2Z" style="fill: #171724"/>
        <path d="M390.556,21.635c-12.014-.469-23.979-1.733-35.981-2.419q-4.554-.26-9.117-.378c-2.73-.069-5.468-.13-8.2-.008-4.613.206-9.467.908-13.971-.43,2.769-2.308,6.492-3.238,9.976-3.8a75.213,75.213,0,0,1,12.718-.732q.685.006,1.373.017c5.186,1.3,10.492,2.159,15.771,2.963,5.731.873,11.485,1.587,17.238,2.292,8.2,1,16.406,1.958,24.556,3.3.142.023.2-.192.06-.217-11.45-2.029-23.018-3.221-34.539-4.753-4.069-.541-8.133-1.122-12.18-1.8-3.091-.52-6.163-1.125-9.232-1.753,2.827.062,5.653.153,8.481.147q3.858-.009,7.717-.069c5.836.25,11.671.552,17.508.789,5.372.218,10.748.376,16.124.375a.023.023,0,0,0,.021-.026.023.023,0,0,0-.021-.021c-10.83-.008-21.645-.649-32.461-1.134q4.635-.081,9.268-.233,4.245-.139,8.491-.345.431.046.861.1c.025,0,.025-.036,0-.039l-.608-.069q8.061-.39,16.112-.989c.039,0,.039-.063,0-.061q-8.265.612-16.545,1c-9.209-1.007-18.5-.986-27.752-.983a.013.013,0,0,0-.011.015.014.014,0,0,0,.011.011,262.772,262.772,0,0,1,27.481.97q-9.243.43-18.5.573-1.236-.054-2.472-.1c-5.492-.224-10.986-.315-16.48-.47a.126.126,0,0,0-.033.246c.268.071.537.139.805.207-3.02-.047-6.043-.029-9.058.17a44.616,44.616,0,0,0-8.453,1.264,17.591,17.591,0,0,0-6.617,3.121c-.092.074-.026.2.063.238a18.679,18.679,0,0,0,6.45.982c2.432.038,4.864-.125,7.291-.241a170.47,170.47,0,0,1,17.139.36c12.007.639,23.981,1.832,36,2.2l.707.021A.142.142,0,0,0,390.556,21.635ZM347.363,13.57c5.536-.106,11.085.134,16.615.367-4.519.058-9.03.051-13.548-.066q-.906-.024-1.814-.043Z" style="fill: #171724"/>
        <path d="M459.768,26.049c-12.1-.151-24.2-.69-36.3-1.128-9.3-.336-18.627-.749-27.93-.526a.15.15,0,0,0,0,.3l1.284.029a32.55,32.55,0,0,1,4.6.706,28.912,28.912,0,0,0,5.74.793.019.019,0,0,0,.015-.02.017.017,0,0,0-.015-.015c-2.877-.027-5.639-.9-8.45-1.421,5.072.111,10.143.2,15.214.371,6.106.2,12.21.46,18.315.7,9.17.354,18.344.638,27.522.526a.155.155,0,0,0,.156-.155A.156.156,0,0,0,459.768,26.049Z" style="fill: #171724"/>
        <path id="b4a35d68-703c-4bcf-9bcd-46c20d4b75bc" data-name="rock right" d="M330.321,28.115a4.611,4.611,0,0,0,1.095,3.019,5.994,5.994,0,0,0,1.282,1.414,4.525,4.525,0,0,0,1.557.646,10.675,10.675,0,0,0,2.254.247,6.432,6.432,0,0,0,.688.323.057.057,0,0,0,.075-.027.056.056,0,0,0-.027-.074q-.195-.111-.385-.223c.657-.008,1.313-.058,1.956-.127a27.8,27.8,0,0,0,4.262-.8c-.287.151-.576.3-.861.46a.12.12,0,0,0,.077.216,4.894,4.894,0,0,0,1.487-.61.42.42,0,0,0,.211-.087l.288-.23c.1-.064.187-.129.278-.194a15.174,15.174,0,0,0,2.832-1.208,7.175,7.175,0,0,1,1.135.045.086.086,0,0,0,.039,0,.082.082,0,0,0,.051-.1.987.987,0,0,0-.462-.434,4.169,4.169,0,0,0,.552-.484,8.581,8.581,0,0,1,3.007-.383c.154.031.309.059.465.08a.061.061,0,0,0,.065-.045.06.06,0,0,0-.043-.074,4.273,4.273,0,0,0-.594-.1c-.455-.087-.9-.2-1.351-.3l1.046-.377a.019.019,0,0,0,.011-.025.018.018,0,0,0-.025-.012l-1.112.4c-.256-.06-.511-.118-.768-.169.015-.029.031-.057.046-.087s.041-.085.061-.128a17.077,17.077,0,0,0,2.118-.66c.236.095.467.208.694.314a.024.024,0,0,0,.029-.011.022.022,0,0,0-.009-.032c-.215-.1-.443-.219-.678-.316a.035.035,0,0,0-.032-.037l-.086-.011c-.072-.028-.145-.053-.218-.076.858-.008,1.714-.017,2.572-.036a.065.065,0,0,0,.007-.129,29.218,29.218,0,0,0-4.035-.093c.006-.03.013-.06.018-.09,1.159-.41,2.319-.816,3.477-1.227a.1.1,0,0,0,.061-.094.1.1,0,0,0-.1-.09,11.625,11.625,0,0,0-3.368.7,3.318,3.318,0,0,0-.052-.6,3.852,3.852,0,0,0-2.834-2.7,5.869,5.869,0,0,0,.416-.487c.007-.008-.006-.02-.013-.011a6.172,6.172,0,0,1-.42.493q-.269-.09-.533-.158a10.1,10.1,0,0,0-5.879.287.069.069,0,0,0-.041.087,1.819,1.819,0,0,0,.4.531,24.2,24.2,0,0,0-6.355.568C332.97,25.177,330.476,26.053,330.321,28.115Zm13.918-4.939a9.59,9.59,0,0,1,2.68.422,6.862,6.862,0,0,1-1.41,1.062,20.889,20.889,0,0,0-2.937-.372q-.708-.052-1.421-.078c-.02-.02-.039-.039-.058-.06.031.032-.41-.432-.284-.473.078-.026.156-.05.234-.073.2-.058.4-.111.6-.157a10.413,10.413,0,0,1,2.6-.271Zm1.7,3.959a17.057,17.057,0,0,0-2.128-1.67q.345-.133.681-.281c.419.256.827.529,1.224.812a6.442,6.442,0,0,1,1.395,1.142,2.333,2.333,0,0,1-.99.186c-.04-.045-.082-.089-.126-.133a.331.331,0,0,1,.033-.145.03.03,0,0,0-.015-.04.03.03,0,0,0-.04.015.349.349,0,0,0-.034.114Zm-.087-1.3q-.579-.383-1.183-.728l.078-.036a8.315,8.315,0,0,1,2.352.553.215.215,0,0,0,.256-.327,2.838,2.838,0,0,0,.6.225,1.077,1.077,0,0,1-.53.358.089.089,0,0,0-.134.105,3.4,3.4,0,0,0,.57.772.806.806,0,0,1,.165.707l-.093.033a.02.02,0,0,0-.012.015.921.921,0,0,1-.622-.377.049.049,0,0,0-.016-.016c-.164-.547-1.006-1.006-1.428-1.284Zm-11.145,6c-.013-.013-.026-.024-.038-.037a17.687,17.687,0,0,1-1.378-1.64c.959.469,1.912.951,2.87,1.423.385.188.771.388,1.161.583-.873-.1-1.749-.176-2.615-.329Zm5.179.729c-.486-.433-1.02-.8-1.54-1.194.305,0,.609,0,.913.01a11.635,11.635,0,0,0,1.912.481.168.168,0,0,0,.083-.007.17.17,0,0,0,.107-.216c-.014-.039-.026-.078-.038-.116.11.013.22.028.33.043a2.89,2.89,0,0,1,.177.458.081.081,0,0,0,.065.087,2.006,2.006,0,0,0,.232.025c-.741.173-1.488.318-2.24.429Zm9.118-3.9a5.655,5.655,0,0,1-.636.061l-.04,0c.037-.063.073-.127.108-.19a.076.076,0,0,0,.038-.035.019.019,0,0,0,0-.021l0,0c.074-.139.142-.281.2-.424.031-.035.061-.07.093-.1a.146.146,0,0,0,.016-.168l.047-.13.274.035a.071.071,0,0,0,.072.052l.28-.007a2.9,2.9,0,0,1-.167.384c-.091.175-.18.362-.274.549Zm-.717-1.583a.711.711,0,0,0-.037-.11c-.164-.376-.512-.61-.724-.944a4.176,4.176,0,0,1,.914.59q-.067.234-.151.463Zm-6.669,4.174-.045-.069a2.038,2.038,0,0,0-.389-.376,15.164,15.164,0,0,1,3.059-.266,4.419,4.419,0,0,1-.381.5q-.24.084-.483.16a.213.213,0,0,0-.049.021.266.266,0,0,0-.1.363q-.065.039-.132.075a.155.155,0,0,0-.117-.153,12.314,12.314,0,0,0-1.361-.257Zm.283.7c.045-.04-.013-.2-.092-.36.215.032.43.07.646.112-.182.081-.363.165-.543.247H341.9Zm1.472-.218a.269.269,0,0,0,.122.018c.071,0,.142-.014.212-.022l-.121.035-.435.117a2.219,2.219,0,0,0,.223-.149Zm4.223-1.665-.089.01.019-.006c.108-.036.092-.042.1-.009Zm1.4-2.452-.153-.017c.041-.12.078-.241.112-.363a2.664,2.664,0,0,1,.18.363.066.066,0,0,0-.032.028Zm-.023-.442.163-.05.485-.136a3.108,3.108,0,0,1-.08.461c-.132.05-.265.1-.4.145a2.65,2.65,0,0,0-.185-.369Zm-.7,1.635.14-.006c.165.014.329.035.492.058a2.55,2.55,0,0,1-.528.7,5.19,5.19,0,0,1-.631.473h0a.653.653,0,0,1-.05-.085.059.059,0,0,0-.072-.034l-.364.143a6.008,6.008,0,0,0,1.017-1.257ZM347.126,30.2c.16-.02.32-.045.481-.076a11.554,11.554,0,0,1-1.294.68,6.161,6.161,0,0,0,.8-.607h.011ZM340.95,31.48v0l-.033-.006Zm-2.593-.37-.34,0-.163-.133c.169.038.338.08.5.126Zm2.529-.166c-.051-.015-.1-.027-.148-.04.1-.023.2-.046.3-.066a1.8,1.8,0,0,1,.414.393l-.237-.028a.5.5,0,0,0-.324-.261Zm2.4-.625a15.346,15.346,0,0,0-1.9.22,6.967,6.967,0,0,1,1.8-.226l.108,0Zm1.059.224.434.009c.056.017.114.032.172.049-.284.134-.576.255-.873.364.1-.137.186-.28.269-.424Zm2.712-1.434a6.072,6.072,0,0,1-1.187.987l-.657-.815c.4-.1.8-.194,1.193-.29.325-.079.647-.173.97-.26q-.15.2-.317.376Zm.924-3.658-.006.015-.02-.005a2.562,2.562,0,0,1-.776-.34c-.144-.1-.282-.2-.423-.3q.615.3,1.234.586a.141.141,0,0,1-.007.041Zm.134.055a.23.23,0,0,0,.01-.035l.2.095.074.035a1.586,1.586,0,0,0-.284-.1Zm-.139-.169q-.673-.32-1.349-.635a3.159,3.159,0,0,1,1.029.345.748.748,0,0,1,.322.288Zm-3.324-.243-.093-.052.042,0,.118.016Zm4.973,1.789-.639.23a7.766,7.766,0,0,0,.236-1.743c.01-.323-.545-.353-.565-.031a6.16,6.16,0,0,1-.219,1.271,4.2,4.2,0,0,0-.92-.591l-.032-.052a1.157,1.157,0,0,0,.608-.413c.1.022.209.04.317.054h0a.03.03,0,0,0,.018-.057l-.3-.139a.4.4,0,0,0-.118-.279,2.858,2.858,0,0,0-1.71-.634c-.1-.012-.129.141-.029.153l.125.017c.273.157.509.361.776.527a8.623,8.623,0,0,0-1.652-.531,6.886,6.886,0,0,0,1.406-1.061,4,4,0,0,1,2.378,1.789A2.757,2.757,0,0,1,349.63,26.883Zm3.023-.568-2.731,1c.02-.139.032-.278.038-.417a17.441,17.441,0,0,1,2.692-.579Zm-1.632,1.442a1.529,1.529,0,0,0-.6.015l-.5-.057c.894-.024,1.8-.046,2.69-.012l-.889.03-.562.019Zm.077.077c.051.01.1.023.15.036l-.293-.035Zm-.067.289c-.215.074-.43.147-.649.213-.273.081-.548.159-.827.223a5.037,5.037,0,0,0,.272-.783q.808.1,1.616.2c.152.019-.117.044-.17.063l-.242.085Zm-2.087.67-.134-.019c.051-.005.1-.012.153-.019Zm-.167,1.007a4.264,4.264,0,0,0,.594-.864c.157.03.313.061.468.1l.208.051-.327.118a.023.023,0,0,0-.014.03.023.023,0,0,0,.03.015l.392-.141c.31.078.616.164.925.242a9.888,9.888,0,0,0-2.253.447Zm-.382.937a6.653,6.653,0,0,0-.747-.028c.128-.079.253-.161.377-.247a.977.977,0,0,1,.371.274Zm-9.888,1.992c-.05.005-.1.011-.147.014a18.729,18.729,0,0,1-2.222.075,8.524,8.524,0,0,1-.9-.487c-.06-.05-.119-.1-.177-.156,1.138.236,2.3.365,3.442.554Zm-7.1-2.752a2.666,2.666,0,0,1-.245-2.545,3.955,3.955,0,0,1,2.1-1.589,20.286,20.286,0,0,1,7.622-1.048c.233,0,.466.007.7.014a1.362,1.362,0,0,1,.139.228c.015.032.067.015.053-.019a1.378,1.378,0,0,0-.11-.208c.837.027,1.673.084,2.5.184.1.059.205.12.306.181-.222.1-.449.192-.679.281l-.039-.029a.115.115,0,0,0-.084-.019.113.113,0,0,0-.094.13c-.137.053-.276.1-.415.153l0,.006.007.006c.14-.05.278-.1.416-.152a.1.1,0,0,0,.034.042,25.773,25.773,0,0,1,2.063,1.59,2.971,2.971,0,0,1,.67.761c.2.386.022.6-.336.775a.069.069,0,1,0,.047.13c.839-.247.67-.814.15-1.421.012,0,.023,0,.035.006.3.035.857-.256,1.012,0a.984.984,0,0,0,.6.362,4.172,4.172,0,0,1-.311.389c-.051.059.026.131.087.1.032-.019.064-.039.1-.061-.088.143-.183.283-.283.417-.335.061-.67.12-1,.2-.445.106-.894.209-1.34.319l-.037-.045a.093.093,0,0,0-.105-.034c-.519.2-1.04.384-1.56.571a.081.081,0,0,0,.055.153c.508-.179,1.029-.327,1.555-.462l.248.326.423.552c-.081.049-.163.1-.247.143-.223-.019-.447-.035-.67-.044-.086-.025-.172-.046-.258-.066.064-.123.124-.245.18-.364h0a.033.033,0,0,0-.015-.044.033.033,0,0,0-.044.016c-.063.128-.13.252-.2.374a7.106,7.106,0,0,0-3.625.376.052.052,0,0,0-.033.064q-.5.111-.991.257a4.12,4.12,0,0,0-.463.141,12.687,12.687,0,0,0-1.967-.482.154.154,0,0,0-.127.268c.1.1.2.187.308.278h-.031a.108.108,0,0,0-.109.093,5.945,5.945,0,0,0-.62-.133c-.451-.073-.517-.264-.67-.667-.041-.107-.081-.214-.121-.321a.057.057,0,0,0-.107.039c.113.332.214.666.327,1a.083.083,0,0,0,.065.055,6.8,6.8,0,0,1,2.184.687c.223.177.446.355.664.539-.331-.063-.665-.114-1-.158-.677-.322-1.375-.611-2.046-.915-.949-.429-1.9-.846-2.851-1.278-.156-.211-.31-.425-.46-.642a.022.022,0,0,0-.035.025q.183.28.37.56l-.156-.071a.021.021,0,0,0-.026.009.022.022,0,0,0,.007.03l.23.112a15.358,15.358,0,0,0,1.315,1.7c-.082-.016-.164-.032-.246-.05a.117.117,0,0,0-.07.217,12.806,12.806,0,0,1,1.169.662c.062.053.126.1.19.156a7.473,7.473,0,0,1-1.567-.31,4.9,4.9,0,0,1-2.541-2.49Z" style="fill: #171724"/>
        <path id="04e3896b-aa9f-4243-809b-41bfe8a4d10f" data-name="rock middle" d="M265.853,19.6a4.609,4.609,0,0,0,.333,3.194,6.019,6.019,0,0,0,.9,1.682,4.529,4.529,0,0,0,1.354,1,10.76,10.76,0,0,0,2.128.784,6.6,6.6,0,0,0,.589.48.057.057,0,0,0,.079-.008.056.056,0,0,0-.008-.079q-.162-.155-.319-.309c.639.151,1.288.261,1.929.349a27.721,27.721,0,0,0,4.328.256c-.315.077-.631.151-.947.238a.12.12,0,0,0,.023.229,4.9,4.9,0,0,0,1.59-.233.427.427,0,0,0,.226-.033L278.4,27c.107-.039.213-.08.317-.121a15.176,15.176,0,0,0,3.039-.488,7.279,7.279,0,0,1,1.091.317.072.072,0,0,0,.038.007.082.082,0,0,0,.075-.087.98.98,0,0,0-.343-.533,4.19,4.19,0,0,0,.652-.337,8.587,8.587,0,0,1,3.01.355c.143.067.286.132.432.19a.061.061,0,0,0,.051-.111,4.431,4.431,0,0,0-.554-.236c-.421-.194-.828-.409-1.237-.621l1.106-.114a.019.019,0,0,0,.017-.021.02.02,0,0,0-.021-.018l-1.176.116c-.233-.12-.467-.238-.7-.349.022-.025.044-.048.065-.074s.061-.072.09-.109a17.078,17.078,0,0,0,2.215-.129c.207.149.4.314.6.472a.023.023,0,0,0,.03,0,.024.024,0,0,0,0-.034c-.184-.151-.377-.319-.581-.47a.037.037,0,0,0-.023-.044l-.08-.031c-.064-.045-.128-.087-.194-.126.835.2,1.668.4,2.5.586a.066.066,0,0,0,.038-.124,29.289,29.289,0,0,0-3.893-1.064l.039-.083c1.223-.118,2.447-.232,3.67-.351a.1.1,0,0,0,.006-.189,11.586,11.586,0,0,0-3.437-.136,3.219,3.219,0,0,0,.1-.6,3.854,3.854,0,0,0-2.1-3.3,5.939,5.939,0,0,0,.521-.372c.009-.007,0-.021-.01-.014a5.935,5.935,0,0,1-.527.377c-.158-.1-.318-.2-.478-.282a10.113,10.113,0,0,0-5.774-1.142.068.068,0,0,0-.061.075,1.794,1.794,0,0,0,.258.611,24.182,24.182,0,0,0-6.3-.984C269.133,17.388,266.5,17.636,265.853,19.6Zm14.7-1.431a9.6,9.6,0,0,1,2.5,1.057,6.9,6.9,0,0,1-1.626.69,20.809,20.809,0,0,0-2.76-1.071q-.674-.222-1.36-.418c-.014-.024-.028-.048-.041-.072.022.038-.294-.519-.161-.528.081-.006.163-.011.244-.015.207-.008.413-.011.619-.007a10.412,10.412,0,0,1,2.586.364Zm.7,4.253a17.138,17.138,0,0,0-1.662-2.135q.368-.045.729-.108c.344.35.675.713.992,1.084a6.48,6.48,0,0,1,1.078,1.445,2.326,2.326,0,0,1-1.006-.059q-.042-.078-.09-.159a.333.333,0,0,1,.066-.133.029.029,0,0,0,0-.042.03.03,0,0,0-.043,0,.408.408,0,0,0-.06.1Zm.23-1.284q-.469-.512-.972-.992l.085-.017a8.328,8.328,0,0,1,2.148,1.105.213.213,0,0,0,.212.026.215.215,0,0,0,.116-.282,2.721,2.721,0,0,0,.526.363,1.072,1.072,0,0,1-.6.219.086.086,0,0,0-.076-.028.089.089,0,0,0-.079.1,3.389,3.389,0,0,0,.367.887.81.81,0,0,1-.01.726l-.1.01a.021.021,0,0,0-.016.011.922.922,0,0,1-.512-.515.043.043,0,0,0-.011-.02c-.027-.571-.733-1.219-1.076-1.591ZM269.212,24.27l-.028-.045a17.839,17.839,0,0,1-.941-1.925c.818.687,1.626,1.385,2.442,2.074.327.276.654.563.985.846-.824-.3-1.655-.593-2.458-.95Zm4.85,1.958c-.367-.538-.8-1.026-1.206-1.531.3.074.59.15.883.23a11.47,11.47,0,0,0,1.739.929.178.178,0,0,0,.082.014.172.172,0,0,0,.157-.184c0-.042-.007-.082-.009-.122.1.04.206.08.309.122a2.846,2.846,0,0,1,.062.487.08.08,0,0,0,.042.1,1.846,1.846,0,0,0,.219.08c-.761-.011-1.52-.051-2.278-.125Zm9.79-1.584a5.633,5.633,0,0,1-.632-.094l-.038-.012c.051-.052.1-.105.15-.158a.081.081,0,0,0,.046-.025.017.017,0,0,0,0-.021l0,0q.158-.176.3-.363c.039-.026.076-.052.115-.077a.149.149,0,0,0,.057-.16l.076-.115.258.1a.073.073,0,0,0,.058.069l.273.06a3.016,3.016,0,0,1-.255.332c-.131.148-.262.309-.4.467Zm-.313-1.709a.733.733,0,0,0-.009-.115,7.477,7.477,0,0,0-.475-1.092,4.238,4.238,0,0,1,.744.793q-.121.211-.258.413Zm-7.48,2.439-.027-.077a2.021,2.021,0,0,0-.287-.459,15.177,15.177,0,0,1,3.033.48,4.339,4.339,0,0,1-.491.4c-.169.015-.338.028-.507.038a.235.235,0,0,0-.053.009.266.266,0,0,0-.186.327c-.048.015-.1.029-.146.042a.155.155,0,0,0-.076-.177,12.445,12.445,0,0,0-1.259-.579Zm.106.743c.054-.028.036-.193,0-.371q.3.125.6.264c-.2.034-.392.073-.587.108h-.011Zm1.481.144a.283.283,0,0,0,.115.047c.07.012.141.021.211.03l-.126,0c-.151,0-.3.006-.45.008a2.225,2.225,0,0,0,.252-.091Zm4.5-.6-.089-.011.02,0c.114-.008.1-.017.1.015Zm1.951-2.041-.144-.053c.068-.106.133-.215.2-.325a2.65,2.65,0,0,1,.087.395.07.07,0,0,0-.038.02Zm.084-.435.17-.008.5-.015a3.019,3.019,0,0,1-.188.428c-.14.016-.281.031-.421.045a2.523,2.523,0,0,0-.09-.4Zm-1.071,1.419c.045.011.09.019.137.028.157.054.311.113.463.175a2.546,2.546,0,0,1-.682.557,5.278,5.278,0,0,1-.727.307h0a.633.633,0,0,1-.028-.094.058.058,0,0,0-.061-.051l-.388.051a6.042,6.042,0,0,0,1.29-.974Zm-1.455,1.074c.161.02.321.034.485.043a11.532,11.532,0,0,1-1.42.348,6.37,6.37,0,0,0,.928-.395l.01,0Zm-6.3-.251v0l-.03-.014Zm-2.427-.985-.331-.077c-.042-.055-.084-.112-.126-.168.155.077.309.159.46.244Zm2.5.451c-.046-.027-.092-.051-.135-.076.1,0,.2,0,.3.008a1.817,1.817,0,0,1,.308.481l-.224-.083a.488.488,0,0,0-.251-.332Zm2.484-.026a15.135,15.135,0,0,0-1.9-.246,6.933,6.933,0,0,1,1.8.215l.1.029Zm.974.473.419.114c.05.029.1.058.155.089q-.464.091-.935.142c.126-.11.248-.227.363-.346Zm2.978-.737a6.043,6.043,0,0,1-1.39.671l-.441-.949c.412,0,.821,0,1.228.006.334,0,.669-.011,1-.018-.129.1-.262.2-.4.289Zm1.781-3.326-.01.013-.018-.01a2.583,2.583,0,0,1-.672-.517c-.116-.129-.224-.263-.337-.393q.525.435,1.056.867a.184.184,0,0,1-.017.038Zm.116.086a.258.258,0,0,0,.018-.032l.173.141.063.052a1.551,1.551,0,0,0-.252-.163Zm-.094-.2q-.577-.473-1.156-.942a3.16,3.16,0,0,1,.915.583.746.746,0,0,1,.243.357Zm-3.167-1.038-.078-.074.04.015.111.045Zm4.394,2.937-.676.068a7.735,7.735,0,0,0,.65-1.634c.088-.311-.443-.474-.541-.167a6.121,6.121,0,0,1-.519,1.181,4.162,4.162,0,0,0-.751-.795c-.006-.02-.012-.039-.017-.059a1.161,1.161,0,0,0,.689-.254c.095.047.193.089.294.129h0a.031.031,0,0,0,.042-.009.032.032,0,0,0-.01-.042l-.252-.206a.406.406,0,0,0-.048-.3,2.847,2.847,0,0,0-1.507-1.028c-.093-.037-.158.105-.064.141l.117.047c.227.218.407.473.626.7a8.658,8.658,0,0,0-1.475-.915,6.911,6.911,0,0,0,1.62-.689,4,4,0,0,1,1.876,2.31A2.765,2.765,0,0,1,284.888,23.068Zm3.07.179q-1.446.155-2.891.306a3.928,3.928,0,0,0,.138-.395,17.462,17.462,0,0,1,2.753.089Zm-1.932,1a1.51,1.51,0,0,0-.585-.13l-.47-.176c.874.193,1.753.389,2.614.638l-.871-.186-.55-.117Zm.057.093c.046.022.091.046.136.072l-.276-.105.14.033Zm-.135.264c-.227.021-.453.039-.681.05-.285.013-.571.023-.857.017a5.1,5.1,0,0,0,.453-.694q.761.3,1.52.585c.143.054-.124.014-.18.02l-.255.023Zm-2.188.146-.125-.05c.051.007.1.013.154.018Zm-.4.938a4.33,4.33,0,0,0,.785-.7c.144.067.288.135.43.209.063.032.127.066.189.1l-.345.034a.024.024,0,1,0,0,.048l.414-.042c.282.151.558.308.839.459a9.852,9.852,0,0,0-2.3-.111Zm-.6.816a6.942,6.942,0,0,0-.719-.208c.143-.046.285-.094.425-.148a.968.968,0,0,1,.294.356Zm-10.078-.455-.145-.022a18.929,18.929,0,0,1-2.174-.464,8.458,8.458,0,0,1-.752-.689c-.047-.063-.091-.129-.135-.194,1.048.5,2.139.908,3.207,1.369Zm-6.228-4.387a2.667,2.667,0,0,1,.377-2.528,3.955,3.955,0,0,1,2.426-1.034,20.284,20.284,0,0,1,7.65.824q.339.088.675.182a1.37,1.37,0,0,1,.08.255c.007.035.061.031.056,0a1.358,1.358,0,0,0-.057-.228c.806.228,1.6.485,2.385.782.085.083.17.166.253.251q-.36.061-.727.107l-.031-.037a.109.109,0,0,0-.077-.039.113.113,0,0,0-.122.1c-.146.018-.293.033-.44.048l0,0,.006.008c.148-.015.294-.031.44-.048a.1.1,0,0,0,.023.05,25.464,25.464,0,0,1,1.618,2.041,3.014,3.014,0,0,1,.467.9c.1.423-.124.584-.514.671a.07.07,0,0,0-.062.076.069.069,0,0,0,.076.062c.874-.037.847-.629.489-1.343a.327.327,0,0,0,.033.014c.279.106.894-.042.982.242a.993.993,0,0,0,.5.5,4.148,4.148,0,0,1-.4.3c-.064.044-.006.133.061.113.036-.011.072-.023.108-.037q-.181.177-.375.337c-.34-.022-.68-.046-1.022-.05-.457,0-.918-.012-1.378-.013l-.025-.053a.1.1,0,0,0-.093-.059c-.55.064-1.1.122-1.652.177a.082.082,0,0,0,.016.163c.537-.052,1.079-.07,1.621-.073l.162.376c.092.213.185.425.277.638-.09.028-.182.054-.274.079-.212-.073-.425-.142-.64-.205-.077-.045-.155-.086-.234-.126.091-.1.179-.208.263-.31h0a.033.033,0,1,0-.051-.041c-.092.108-.187.214-.283.315a7.1,7.1,0,0,0-3.609-.511.052.052,0,0,0-.047.054q-.512-.012-1.024.01a4.091,4.091,0,0,0-.483.025,12.659,12.659,0,0,0-1.793-.943.155.155,0,0,0-.188.23c.075.116.153.231.232.344l-.03-.007a.106.106,0,0,0-.128.063,6.008,6.008,0,0,0-.57-.279c-.42-.18-.438-.381-.488-.809-.014-.113-.028-.227-.041-.34a.056.056,0,0,0-.112.011c.028.35.046.7.076,1.046a.083.083,0,0,0,.049.069,6.8,6.8,0,0,1,1.954,1.194c.174.226.347.453.515.684q-.46-.212-.932-.395c-.579-.476-1.186-.925-1.764-1.382-.818-.646-1.643-1.281-2.458-1.929q-.151-.365-.292-.734a.021.021,0,0,0-.028-.012.022.022,0,0,0-.012.028c.073.211.147.422.224.633L267.956,22a.021.021,0,0,0-.028,0,.022.022,0,0,0,0,.03l.2.165a15.326,15.326,0,0,0,.865,1.969c-.076-.034-.152-.07-.227-.107a.117.117,0,0,0-.12.194,12.69,12.69,0,0,1,.974.924c.048.066.1.132.147.2a7.471,7.471,0,0,1-1.445-.679,4.9,4.9,0,0,1-1.865-3.03Z" style="fill: #171724"/>
        <path d="M316.476,8.343a.046.046,0,0,0,.019.008,14.731,14.731,0,0,0,3.64.074.132.132,0,0,0,.064.016q.978.006,1.959.017a11.9,11.9,0,0,0,1.975.2,4.427,4.427,0,0,1,.483.4.02.02,0,0,0,.027-.029,4.283,4.283,0,0,0-.443-.375,7.419,7.419,0,0,0,1.641-.171c1.492.005,2.985,0,4.475-.03a13.671,13.671,0,0,0-2.025.48.117.117,0,0,0-.079.144.133.133,0,0,0,.028.049c.346.336.886.861,1.418.595a2.459,2.459,0,0,0,.624-.516,4.882,4.882,0,0,1,.73-.624,25.71,25.71,0,0,1,2.922-.17c-.827.58-2.01.551-2.706,1.324a.067.067,0,0,0,.081.106c1.858-.795,3.986-.813,5.9-1.439a.088.088,0,0,0,.034-.019c.311,0,.622,0,.933-.005a.073.073,0,0,0,.073-.073.073.073,0,0,0-.073-.072l-.93-.006a.093.093,0,0,0-.062-.021c-.972,0-1.944,0-2.915,0a.1.1,0,0,0-.039-.01c-.512,0-1.024.005-1.534.026q-.9-.036-1.8-.058a19.562,19.562,0,0,1,1.933-.938l.117-.026a3.657,3.657,0,0,0,.517.419c.071.049.138-.067.067-.116a4.945,4.945,0,0,1-.46-.33,13.821,13.821,0,0,1,2.642-.325.025.025,0,0,0,.024-.025l0-.01c.294-.017.586-.042.872-.069l-.158.076,0,0,.172-.082.051,0c.168-.017.336-.036.5-.058-.171.018-.343.032-.516.043.251-.116.5-.223.764-.315a7.723,7.723,0,0,0-.778.316c-.483.031-.97.041-1.458.058.905-.12,1.8-.357,2.7-.519.122-.033.246-.064.372-.087.029-.006.058-.01.087-.014l.016,0c-.14.025-.278.055-.416.09.161-.029.32-.055.482-.076a2.607,2.607,0,0,1,.424.124c-.1.035-.2.068-.3.1q-.386.081-.765.183-.3.058-.6.1c.161-.017.321-.038.481-.063q-.245.069-.487.145a.06.06,0,0,0-.039.076.061.061,0,0,0,.055.042c.11,0,2.326.047,2.1-.416a.362.362,0,0,0-.038-.058,38.84,38.84,0,0,1,4.586-.281.044.044,0,1,0,0-.088c-.477-.014-.956-.021-1.438-.017-1.226-.035-2.459-.015-3.69.009a.062.062,0,0,0-.041-.016c-.307,0-.614.012-.92.03h-.268l.605-.156c1.439-.374,2.874-.772,4.286-1.241a.042.042,0,0,0,.029-.053.041.041,0,0,0-.04-.03c-.488,0-.978.013-1.467.006l-.01,0c-.137,0-.276-.015-.413-.009a.049.049,0,0,0,0,.1c.132.006.266,0,.4-.009.237,0,.473,0,.71,0h.631a.829.829,0,0,0-.266.049l-.422.133c-1.434.445-2.884.837-4.34,1.211-.533,0-1.068-.011-1.6-.008a5.97,5.97,0,0,0-2.579.245c-.446.2-.4.491-.191.761-.206.077-.411.161-.613.25-.938.239-1.863.539-2.781.844q-1.237-.016-2.476-.016a12.976,12.976,0,0,0,2.111-1.238c.145-.011.29-.018.436-.024a.33.33,0,0,0,.113,0c.069,0,.139,0,.208-.006a.026.026,0,0,0,.024-.029A.026.026,0,0,0,329.8,6.8h-.714a.03.03,0,0,0-.042-.006l-.01.006H324.2c.863-.153,1.706-.423,2.573-.548,1-.076,2.015-.091,3.026-.107a.059.059,0,0,0,0-.117c-.711-.011-1.423-.014-2.132.01a.091.091,0,0,0-.083-.05q-1.7-.014-3.4-.02l-.155-.011a4.433,4.433,0,0,0,.7-.245,22.988,22.988,0,0,1,2.13-1.065.04.04,0,0,0,.027-.047.038.038,0,0,0-.037-.028c-2.4-.009-4.792-.038-7.189-.038.445-.185.876-.41,1.3-.627.048-.024.006-.094-.041-.071a13.845,13.845,0,0,1-1.668.713l-1.4,0a36.99,36.99,0,0,0,3.836-1.4c.024-.008.014-.046-.01-.038-.84.279-1.647.637-2.472.954a6.5,6.5,0,0,1-1.651.386,3.916,3.916,0,0,1-.6-.327.934.934,0,0,1,.785-.328.393.393,0,0,1,.048.006,3.875,3.875,0,0,0,.936.174c.135,0,.134-.2,0-.208-.045,0-.089-.006-.134-.011-.238-.029-.468-.1-.7-.141-.261-.074-.521-.164-.775-.237s-.5-.136-.747-.191c1.667-.2,3.334-.407,5-.608a3.234,3.234,0,0,1-1.782.473l-.859,0a.078.078,0,0,0,0,.156l2.215.006a.085.085,0,1,0,0-.169h-.3a2.4,2.4,0,0,0,.94-.5q1.666-.2,3.335-.387A93.374,93.374,0,0,1,340.6,1.643c8.561.508,16.978,2.308,25.377,3.937C374.459,7.225,383,8.631,391.662,8.586a.1.1,0,0,0,0-.2C371.155,8.2,351.544.021,330.938,1.239c-10.562.625-21,3.039-31.627,2.342C296.491,3.4,293.7,2.9,290.9,2.488c-2.574-.378-5.15-.744-7.73-1.078C277.95.734,272.705.218,267.44.051a99.388,99.388,0,0,0-13.54.49,42.273,42.273,0,0,0-10,2.6q-.79.288-1.577.587a31.091,31.091,0,0,0-6.225-.3c-2.785.1-5.566.281-8.345.5-5.242.407-10.474.882-15.723,1.19a107.161,107.161,0,0,1-14.167-.091c-.179-.013-.177.264,0,.277a116.4,116.4,0,0,0,16.693.058c5.275-.344,10.529-.955,15.8-1.366,2.277-.178,4.573-.392,6.857-.4a38.561,38.561,0,0,1,4.971.192c-2.89,1.093-5.756,2.249-8.7,3.19a25.055,25.055,0,0,1-10.148,1.483c-.039,0-.038.056,0,.061,3.867.5,7.774-.6,11.413-1.81,2.642-.878,5.234-1.9,7.843-2.868.184.027.366.058.549.091a20.964,20.964,0,0,0-5.984,2.306.042.042,0,0,0-.014.057l.006.008A4.95,4.95,0,0,0,240.5,7.968a.036.036,0,0,0,.037-.036A.037.037,0,0,0,240.5,7.9a3.936,3.936,0,0,1-1.766-.484,5.981,5.981,0,0,1-.885-.595c-.133-.1-.259-.217-.385-.33-.2-.183-.2-.22.014-.345a17.838,17.838,0,0,1,2.578-1.217,23.071,23.071,0,0,1,3.234-.967q.266.05.53.109c.013,0,.019-.017.006-.02-.149-.039-.3-.075-.448-.109.781-.175,1.57-.314,2.359-.429a55.652,55.652,0,0,1,13.173-.044c1.792.168,3.576.392,5.353.649l-.055,0q-1.886-.063-3.774-.058l0,0h0c1.386.006,2.77.043,4.153.1q1.794.262,3.582.564a11.72,11.72,0,0,0-1.112.4c-.033.014-.022.068.01.076,7.619,1.759,15.414,3.338,23.266,3.314a.032.032,0,0,0,0-.064A90.994,90.994,0,0,1,273.09,6.428q-2.053-.411-4.1-.871c-.319-.071-.638-.142-.957-.215l-.474-.108c.009,0-.407-.056-.294-.1a10.891,10.891,0,0,1,1.082-.375c4.187.7,8.36,1.491,12.566,2.1.033,0,.047-.045.014-.05-4.182-.6-8.333-1.378-12.5-2.07l.046-.014q.512-.145,1.034-.254c4.834.373,9.654.942,14.481,1.435a1.9,1.9,0,0,0,1.49.433,4.494,4.494,0,0,0,.918-.2c2.881.273,5.764.5,8.656.631q-2.2,0-4.4,0a.06.06,0,0,0,0,.12q3.693.006,7.384,0a.051.051,0,0,0,.045-.023h.5c.386.005.773.007,1.16.008a.041.041,0,0,0,.019,0l.675,0,.557,0a.042.042,0,0,0,.04-.03H303.9a.061.061,0,0,0,.079.038A.055.055,0,0,0,304,6.871a2.287,2.287,0,0,1,.218-.175,7,7,0,0,0,1.8-.514c.151-.008.3-.012.451-.014h.444a.079.079,0,0,0,0-.157l-1.89,0a.076.076,0,0,0-.077.062c-1.621,0-3.255.023-4.872.17l.221-.048c.133-.031.074-.221-.055-.2a19.4,19.4,0,0,1-4.742.145l2.554,0a.043.043,0,0,0,.042-.044.046.046,0,0,0-.02-.035c-.106-.069-.214-.135-.322-.2a.39.39,0,0,0,.229.018c.053-.029-.133-.095-.142-.1-.219-.087-.442-.164-.665-.238a11.534,11.534,0,0,0-1.121-.5,7.455,7.455,0,0,0,2.012-.378.049.049,0,0,0,.033-.059.047.047,0,0,0-.059-.033c-.22.031-.438.062-.655.091a.089.089,0,0,0,.012-.045.08.08,0,0,0-.074-.086h-.008c-.993-.007-1.986-.024-2.979-.038l-.269-.07a17.409,17.409,0,0,0-4.136-.573.029.029,0,0,0-.008.056c.6.2,1.227.4,1.869.571-.128,0-.256,0-.385,0a.126.126,0,0,0-.1.048q-.976,0-1.954-.006c-.04-.014-.08-.028-.12-.04a.141.141,0,0,0-.139.04q-1.058,0-2.114,0a.094.094,0,0,0-.091.08l-3.6,0h0l0,0v.009c.014.052.03.1.045.152a64.383,64.383,0,0,0-9.332-.786,22.407,22.407,0,0,0-4.535.412q-2.414-.174-4.833-.268c-2.785-.409-5.581-.745-8.4-.926a52.4,52.4,0,0,0-10.363.24c-.873.117-1.745.272-2.6.466q-.269-.058-.538-.11c1.471-.545,2.949-1.072,4.446-1.546A50.471,50.471,0,0,1,261.4.331a125.452,125.452,0,0,1,15.792.733c5.427.56,10.826,1.375,16.22,2.185a70.289,70.289,0,0,0,7.822.829,73.766,73.766,0,0,0,7.924-.18c2.132-.149,4.257-.367,6.38-.611.08.007.16.017.24.029.14.149.49.564.593.646s.191.143.291.209a3.594,3.594,0,0,0-.226.378q-1.07,0-2.137,0a.069.069,0,0,0-.07.069.07.07,0,0,0,.07.07l1.474,0a6.419,6.419,0,0,0,.9.217,18.506,18.506,0,0,1-3.111.389.068.068,0,0,0-.059.033c-.078.163-.407.722-.044.782a1.068,1.068,0,0,0,.509-.11,1.01,1.01,0,0,1,1.055.113c.019.016.046-.011.028-.028a1.17,1.17,0,0,0-1.02-.19c-.173.017-.339.072-.511.087s-.069-.2-.043-.279c.122-.36.445-.282.76-.3a22.042,22.042,0,0,0,2.844-.445,5.28,5.28,0,0,0,1.364-.049l.078.019a11.493,11.493,0,0,0,5.145-.227q1.011,0,2.021-.007c.31,0,.619-.013.928-.029-.026.009-.052.018-.077.029-.092.034-.183.073-.273.111-.553.235-1.032.6-1.576.85a3.757,3.757,0,0,1-1.076.291,46.047,46.047,0,0,0-5.646.089q-.732,0-1.456.035a.03.03,0,1,0,0,.06c.054,0,.108,0,.162.006-1.041.088-2.083.193-3.127.3-1.855.189-3.713.352-5.578.378-.4,0,.023-.108.155-.162a5.812,5.812,0,0,1,.592-.2,7.481,7.481,0,0,1,1.242-.238c.074-.009.148-.015.222-.023-.023.225.392.019.465-.017a.066.066,0,0,0,.029-.023c.714-.043,1.433-.033,2.146-.035a.013.013,0,0,0,0-.026c-.709,0-1.425-.009-2.134.032a.086.086,0,0,0-.075-.1.087.087,0,0,0-.048.007c-.048.024-.1.046-.144.066a4.358,4.358,0,0,1,.439-.41,15.646,15.646,0,0,1,1.5-1.127c.186-.125.378-.241.572-.352.218-.089.434-.188.648-.288a.038.038,0,0,0-.019-.071,2.135,2.135,0,0,0-1,.421,7.379,7.379,0,0,1-2.692.284c-.092,0-.092.148,0,.143.6-.033,1.2-.032,1.794-.117a4.359,4.359,0,0,0,.64-.145c-.458.295-.9.619-1.323.957-.215.171-.721.473-.793.767h0a7.409,7.409,0,0,0-2.523.65.034.034,0,0,0-.02,0l-.989.328c.091-.1.18-.194.27-.285a.016.016,0,0,0,0-.022l-.011,0a10.87,10.87,0,0,0-2.181.346,14.207,14.207,0,0,1-2.988.4l-.007.006.007.006a16.9,16.9,0,0,0,3.5-.507,8.54,8.54,0,0,1,1.55-.221c.179-.006-.01.087-.107.182l-.131.129-3.169,1.051c-1.068-.058-2.133-.163-3.2-.256a.727.727,0,0,0-.661-.393.009.009,0,0,0-.008.011l.008.007a.713.713,0,0,1,.64.373c-1.01-.087-2.021-.164-3.034-.181-.525-.009-2.487-.12-3.261.44a14.567,14.567,0,0,0-4.7.051c-.054.01-.04.1.013.1l4.531-.009a.687.687,0,0,0-.119.7.021.021,0,0,0,.025.012.02.02,0,0,0,.012-.022.636.636,0,0,1,.157-.694h.07c.461.064.921.141,1.378.225.959.178,1.911.4,2.862.619.464.108.927.218,1.391.324.252.058.5.108.756.161.1.019.2.04.3.06.015,0,.167.014.241.024-1.9,0-3.8,0-5.7.007a.017.017,0,0,0-.015.02.018.018,0,0,0,.015.015c1.837,0,3.673.007,5.511.006a25.83,25.83,0,0,1-6.225-.067,16.2,16.2,0,0,0-5.2.018.025.025,0,0,0-.017.033.026.026,0,0,0,.025.019,31.382,31.382,0,0,1,5.589.68,109.345,109.345,0,0,0-11.5-.726.019.019,0,0,0-.019.019.018.018,0,0,0,.014.018c3.769,1.488,7.883,1.446,11.813,2.223.033.006.046-.044.014-.051-2.588-.508-5.231-.664-7.827-1.125a21.125,21.125,0,0,1-3.844-1.026c.028.011.348-.018.4-.018.183,0,.366,0,.548,0,.366.005.731.014,1.1.024.792.021,1.583.058,2.375.1,2.515.136,5.021.38,7.523.668a31.8,31.8,0,0,0,5.631.69.029.029,0,0,0,0-.058c-1.828-.23-3.66-.457-5.494-.662-1.247-.224-2.492-.457-3.749-.623a21.718,21.718,0,0,0-2.279-.186c-.325-.008-.064,0,.071-.029.2-.04.41-.064.616-.087a10.594,10.594,0,0,1,1.069-.049c1.541-.008,3.077.207,4.61.326a22.838,22.838,0,0,0,5.167-.1.034.034,0,0,0,.022-.015q1.09,0,2.182-.006a.018.018,0,0,0,0-.035q-1.09-.006-2.183-.007a.038.038,0,0,0-.021-.014c-2-.427-4.066-1.021-6.144-1.382,4.008.073,8.033.05,12.04-.006a.05.05,0,0,0,.044-.025c.238-.494.474-.989.72-1.479,3.135,0,6.238-.434,9.354-.713,1.052.031,2.119.018,3.164-.038l.01,0a6.823,6.823,0,0,1,2.136.259,2.536,2.536,0,0,1,.537.26c.148.042.206.1.174.181q-3.623,0-7.245.007l-.025-.009a.024.024,0,0,0-.027.009h-1.457a.016.016,0,0,0,0,.031h1.459l.011.008a14.827,14.827,0,0,0,3.422.828,6.543,6.543,0,0,0,1.538-.053,8.572,8.572,0,0,1,2.035.349l-.044.008c-1.427-.065-2.856-.116-4.287-.1-.962.008-1.934.033-2.9.126-.5-.139-.994-.31-1.468-.467-.667-.22-1.329-.458-1.981-.717-.008,0-.011.009,0,.012.685.275,1.38.524,2.08.759.421.142.857.291,1.3.42a16.293,16.293,0,0,0-1.716.259q-1.938,0-3.877.013a.02.02,0,1,0,0,.039q1.791.011,3.581.013c-.791.186-1.762.513-2.08,1.308a1.187,1.187,0,0,0-.041.132.018.018,0,0,0,.012.021.017.017,0,0,0,.021-.012c.255-.933,1.414-1.265,2.292-1.449Q315.061,8.343,316.476,8.343Zm-33.11-3.48c1.335.195,2.667.407,3.994.613l.293.046a8.445,8.445,0,0,1-1.182.517l-1.286-.124c-.222-.14-.4-.4-.049-.492a4.584,4.584,0,0,1,1.1-.066l0,0,0,0c-.168,0-1.716-.067-1.282.407a1.009,1.009,0,0,0,.174.152q-.621-.06-1.242-.124A2.492,2.492,0,0,1,283.366,4.863Zm5.647-.152c-.313.2-.632.4-.958.591a3.658,3.658,0,0,1-.849-.593q.9,0,1.806,0ZM289,4.759c-.093.286-.212.616.029.839l-.016,0a3.252,3.252,0,0,1-.9-.269c.307-.185.6-.379.89-.568Zm-.783.76-.341-.054.085-.049c.083.038.168.072.255.1Zm1.538.335a.3.3,0,0,1,.128.237c0,.059.093.059.09,0a.42.42,0,0,0-.058-.212q.728.116,1.458.226l.025.007a.022.022,0,0,0,.016,0c1.633.245,3.271.465,4.914.6-3.075-.106-6.141-.335-9.2-.616h1.327a.009.009,0,0,0,.009-.009.008.008,0,0,0-.009-.008H286.96l-.32-.03a7.818,7.818,0,0,0,1.105-.517l2.006.319Zm-3.883.23a1.652,1.652,0,0,1-.364-.035Zm.1.105a2.484,2.484,0,0,1-1.6-.06A1.43,1.43,0,0,1,284,5.9l1.375.138a1.19,1.19,0,0,0,.22.051h-.1l0,0,0,0h.169a3.347,3.347,0,0,0,.425.009l.136.013c-.085.026-.17.05-.255.071Zm17.943.6a.054.054,0,0,0-.016.026h-.785c.289-.017.578-.041.864-.078a.806.806,0,0,0-.064.052Zm1.786-.5a6.451,6.451,0,0,1-1.449.394,3.327,3.327,0,0,1,1.667-.485C305.863,6.214,305.789,6.243,305.7,6.282Zm-4.327-.072c.848-.05,1.7-.071,2.547-.085.341,0,.683-.007,1.024-.009a.074.074,0,0,0,.077.058h.1A2.73,2.73,0,0,0,304,6.712a13.753,13.753,0,0,1-1.559.1h-1.4a.04.04,0,0,0-.04-.027c-.194,0-.388,0-.582,0l-.64,0a.043.043,0,0,0-.031-.012c-.814,0-1.628-.032-2.442-.084.4-.083.805-.149,1.211-.21l.185-.026c.189-.02.378-.044.565-.072.7-.081,1.4-.135,2.1-.176Zm-3.466.312c-.27.047-.54.1-.808.157-2.022-.139-4.039-.408-6.048-.715A12.04,12.04,0,0,0,289.68,5.7l-.107-.059c-.12-.068-.26-.078-.382-.145-.226-.126-.089-.469.034-.679a9.172,9.172,0,0,0,2.236.878,19.219,19.219,0,0,0,2.943.656A17.525,17.525,0,0,0,297.9,6.522Zm-.185-.758c.169.063.333.107.07.052l-.174-.039c-.081-.047-.162-.092-.243-.136l.345.123Zm-1.156-.422a.013.013,0,0,0,0,.019l.006,0,.222.075h0c.177.081.35.169.523.261-.494-.127-.985-.28-1.476-.407-.347-.089-.695-.182-1.044-.271a10.112,10.112,0,0,0,1.059.023q.357.139.711.295Zm-1.626-.613c.094.03.188.059.281.091-.052,0-.1,0-.154,0-.369-.012-.738-.038-1.105-.075l.977-.014Zm.21,0q.951-.015,1.9-.024a13.926,13.926,0,0,1-1.606.119c-.1-.033-.2-.064-.3-.095Zm-4.808-.746c-.076-.024-.467-.078-.206-.074a15.537,15.537,0,0,1,2.163.205,18.238,18.238,0,0,1,1.808.376c-.654-.009-1.308-.015-1.962-.014l-.035-.007c-.407-.078-.806-.2-1.2-.313-.191-.055-.379-.114-.567-.173Zm.96.723a.122.122,0,0,0,.1.048q.621.006,1.243,0c.331.042.66.107.987.172.981.193,1.953.426,2.926.659.307.074.614.157.925.211q.114.064.228.132c.206.122.286.121-.018.121h-.785l-2.232,0c-.112-.014-.224-.03-.336-.046a19.241,19.241,0,0,1-2.651-.587c-.412-.121-.819-.261-1.221-.414-.223-.084-.441-.19-.661-.29L291.3,4.7Zm-8-.079,3.586,0a.084.084,0,0,0,.026.053,3.854,3.854,0,0,0,.994.708l-.114.062-.673-.1c-1.255-.194-2.514-.391-3.775-.572-.018-.05-.033-.1-.046-.149ZM274.1,4.063a63.143,63.143,0,0,1,9.24.8,2.464,2.464,0,0,0,.534.924c-4.708-.476-9.411-1.017-14.129-1.366a23.436,23.436,0,0,1,4.353-.355Zm-4.865.378q-.5.111-.985.258-1.653-.273-3.31-.523,2.147.1,4.292.266Zm49.226.327-.1-.026c.131-.016.262-.029.394-.041l-.015,0c-.1.025-.189.045-.282.063Zm-2.366-1.4c.37.067.735.16,1.1.263l.065.019a1.185,1.185,0,0,0-.481.359,4.416,4.416,0,0,1-.685-.64Zm1.128,1.121c-.181.013-.363.021-.547.025a2.5,2.5,0,0,1,.151-.233,4.1,4.1,0,0,0,.394.209Zm-.98.193h.189a.091.091,0,0,0,.073.034c.2,0,.39-.015.58-.035h.594c.032.012.066.022.1.033-.234.035-.467.073-.7.115a6.052,6.052,0,0,1-.835-.146Zm1.388.17c.128-.022.257-.042.386-.062l.106.031a4.8,4.8,0,0,1-.5.032Zm1.125-.014a5.165,5.165,0,0,0,.545-.162h.112a.071.071,0,0,0,.046.017l3.957,0c-.323.064-.649.117-.974.165a10.48,10.48,0,0,1-3.688-.021Zm-21.779,5.953q1.1.133,2.192.272l1.1.137.166.021h-.023a29.683,29.683,0,0,1-4.031-.494l-.108-.019Zm6.876-2.655.738-.248,1.2-.4.646-.216-.184.181a3.2,3.2,0,0,1-2.135.792c-.173-.006-.346-.013-.519-.022Zm-1.873.112h-1.715a.9.9,0,0,0-.026-.145c.579.051,1.16.1,1.741.146Zm-4.119-.317c.785.038,1.572.1,2.357.17a.8.8,0,0,1,.027.146l-3.734,0c-.72,0-1.44,0-2.16.016a.045.045,0,0,0-.027.01h-.044c-.109-.017-.218-.033-.328-.048.928-.571,3.365-.317,3.909-.291Zm-4.652.336-3.421-.006a14.186,14.186,0,0,1,3.421.006ZM307.574,6.9c-.075.15-.15.3-.227.447l-.438.846c-.08.155-.387.059-.553.057h-1.681a4.175,4.175,0,0,0,.922-.266,3.033,3.033,0,0,0,.951-.751l.621-.208c.118-.04.381-.076.445-.205Zm15.254,1.249-.64.006.179-.031.461.025Zm-4.856.255c-.254-.008-.507-.029-.76-.051h2.717a18.256,18.256,0,0,1-1.957.052Zm5.128.062.756.007.088.054c-.283-.008-.563-.03-.844-.06Zm.921.064-.089-.057,1.176.009a7.593,7.593,0,0,1-1.087.048Zm5.966.664a1.08,1.08,0,0,1-.6.367c-.31.035-.619-.238-.851-.464a13.737,13.737,0,0,1,2.062-.46c-.214.172-.413.36-.615.557Zm1.637.436c.847-.492,1.909-.562,2.653-1.229.753.005,1.506.005,2.26.005-.764.232-1.533.434-2.321.593-.875.176-1.728.419-2.592.631Zm3.149-2.787a14.059,14.059,0,0,0-1.473.2c.338-.125.684-.238,1.04-.335a14.918,14.918,0,0,1,1.493-.323L334.22,6.8a.035.035,0,0,0-.023.044.035.035,0,0,0,.032.025c.154,0,.308-.012.461-.024Zm3.471-.677c-1.049.144-2.085.426-3.133.565-.13.017-.262.029-.393.041-.051,0-.1.007-.154.011l1.09-.271.89-.224C337.108,6.22,337.676,6.181,338.244,6.166Zm.465-.016.056-.006.477.009c-.078.034-.156.065-.235.1a1.708,1.708,0,0,0-.3-.1Zm.162.171.035.014-.17.032c.045-.014.09-.03.135-.046Zm-.021.357a8.132,8.132,0,0,1-1.257.089,13.114,13.114,0,0,1,1.518-.33c.238.148-.123.219-.261.242Zm.255-.378c-.024-.014-.048-.028-.073-.04.084-.033.168-.069.252-.107q.385.008.772.012c-.319.036-.635.081-.951.136Zm-6.339.347c.047-.269.56-.339.768-.378a13.034,13.034,0,0,1,2-.128c.391,0,.782,0,1.173,0a17.054,17.054,0,0,0-2.406.44c-.466.121-.939.265-1.407.437a.464.464,0,0,1-.132-.367Zm-2.468,1.3c.474-.153.951-.3,1.432-.436a7.908,7.908,0,0,0-1.086.652q-.476-.01-.953-.018.3-.1.607-.2Zm-3.733.178-.913,0c-.863-.04-1.726-.085-2.59-.126l.445-.083A54.033,54.033,0,0,1,328.881,6.9a12.368,12.368,0,0,1-2.317,1.225Zm-2.4-1.488c.241-.056.482-.106.725-.15-.242.056-.483.108-.726.151Zm-.728-.686.033,0c-.058.007-.118.012-.177.017h-.876a.114.114,0,0,0-.073.024c-.222,0-.443,0-.665,0a.093.093,0,0,0-.091.095.1.1,0,0,0,.02.055,9.857,9.857,0,0,0-1.406-.073l-.009,0q-.873-.048-1.755-.054a42.728,42.728,0,0,1,5-.074Zm-1.621.232h.528a.11.11,0,0,0,.073.025q1.594,0,3.187-.007a13.923,13.923,0,0,0-2.471.544.073.073,0,0,0-.029.015,2.74,2.74,0,0,0-1.289-.576Zm1.2.671a.426.426,0,0,1-.035.038c-.207.1-.42.189-.634.273a7.566,7.566,0,0,1-1.5.409l-.091.013c-.681-.046-1.367-.043-2.028-.044a.022.022,0,0,0-.022.023l0,.01a16.4,16.4,0,0,1-2.8-.73Zm-4.208.736c.562,0,1.143,0,1.722.027A6.988,6.988,0,0,1,318.808,7.591Zm2.1.007a8.434,8.434,0,0,0,2.181-.718.075.075,0,0,0,.067.034,6.039,6.039,0,0,0,.723-.058q2.13,0,4.261,0h.767c-.23.024-.459.055-.687.087-1.805.262-3.58.693-5.375,1.018a8.188,8.188,0,0,0-1.936-.362Zm-2.143.4c1.082.01,2.162.055,3.243.109-.119.02-.238.038-.356.055l-1.45.013a.12.12,0,0,0-.122.087h-3.311a7.686,7.686,0,0,1-1.062-.205c1.018-.073,2.048-.068,3.058-.058Zm-3.138.066a8.07,8.07,0,0,0,.926.2h-.043a.035.035,0,0,0-.026.01q-1.251,0-2.5,0a14.927,14.927,0,0,1,1.644-.211Z" style="fill: #171724"/>
      </g>
    </g>
  </g>
</svg>
