<svg xmlns="http://www.w3.org/2000/svg" width="65.106" height="157.8" viewBox="0 0 65.106 157.8">
  <title>rocket_without_fire</title>
  <g id="Слой_2" data-name="Слой 2">
    <g id="Слой_1-2" data-name="Слой 1">
      <g id="man_in_rocket" data-name="man in rocket">
        <g id="rocket_man" data-name="rocket man">
          <g id="rocket">
            <g id="turbine_back" data-name="turbine back">
              <polygon id="Fill-1" points="47.106 147 61.706 146.8 58.906 142.6 49.106 142.8 47.106 147"
                       style="fill:#e6e7e8"/>
              <path id="Fill-2"
                    d="M58.406,141.9l2.7,4-14.4.3,2-4.1Zm.4-.7h-.4l-9.8.2h-.5l-.2.4-2,4.1-.6,1.1h1.2l14.4-.3h1.4l-.8-1.2-2.7-4Z"
                    style="fill:#231f2d"/>
              <polygon id="Fill-4" points="3.906 147.7 18.606 147.5 15.806 143.4 5.906 143.6 3.906 147.7"
                       style="fill:#e6e7e8"/>
              <path id="Fill-3"
                    d="M16.206,143.3l2.7,4-14.4.3,2-4.1Zm.4-.8h-.4l-9.8.2h-.5l-.1.3-2,4.1-.6,1.1h1.2l14.4-.3h1.4l-.8-1.2-2.7-4Z"
                    style="fill:#231f2d"/>
              <path id="Fill-17"
                    d="M54.906,116.2c3.6,2.3,11.8,9.5,8.3,24.9a2.369,2.369,0,0,1-2.3,1.8l-14.4.1a2.463,2.463,0,0,1-2.3-1.7c-4-15.3,4-22.8,7.5-25.2a3.293,3.293,0,0,1,3.2.1"
                    style="fill:#e6e7e8"/>
              <path id="Fill-19"
                    d="M48.006,133.3c-.1.3-.1.6-.2.9.1.1.1.2.2.4v.2h0c.3.3.3.7.4,1.2h0a1.486,1.486,0,0,1,.2.9h0v.4c.1,1,.2,1.8.3,2.8s.2,1.8.3,2.8c0,.2.1.5,0,.7a10.341,10.341,0,0,0-3-.2,2.073,2.073,0,0,0-.6-.2,1.268,1.268,0,0,0-.6-.1V143a5.428,5.428,0,0,1,0-1.8,21.052,21.052,0,0,1,.2-2.5c.1-.5.2-1,.3-1.6,0-.2.1-.4.1-.6a1.141,1.141,0,0,1,.3-.6,1.863,1.863,0,0,1,.9-1.2c.1-.1.1-.2.2-.3s.2-.1.4-.2a3.49,3.49,0,0,1,.6-.9h0"
                    style="fill:#c1c4cb"/>
              <path id="Fill-21"
                    d="M54.906,116.2c3,1.9,9,7,9.2,17.4a29.436,29.436,0,0,1-.9,7.5,2.369,2.369,0,0,1-2.3,1.8l-14.4.1a2.463,2.463,0,0,1-2.3-1.7,30.9,30.9,0,0,1-1.1-7.5c-.1-10.3,5.7-15.7,8.6-17.6a3.064,3.064,0,0,1,3.2,0m-3.5-.6a20.015,20.015,0,0,0-5.6,5.9,22.359,22.359,0,0,0-3.3,12.4,35.73,35.73,0,0,0,1.1,7.7,3.24,3.24,0,0,0,3.1,2.3l14.5-.2a3.1,3.1,0,0,0,3-2.4,35.941,35.941,0,0,0,.9-7.8,22.29,22.29,0,0,0-3.7-12.3,18.187,18.187,0,0,0-5.9-5.7,4.261,4.261,0,0,0-4.1.1"
                    style="fill:#231f2d"/>
              <path id="Fill-5"
                    d="M12.106,117c3.6,2.3,11.8,9.5,8.3,24.9a2.369,2.369,0,0,1-2.3,1.8l-14.5.2a2.463,2.463,0,0,1-2.3-1.7c-4-15.3,4-22.8,7.5-25.2a3.811,3.811,0,0,1,3.3,0"
                    style="fill:#e6e7e8"/>
              <path id="Fill-9"
                    d="M5.406,142.8h0m2.6-23.6a2.092,2.092,0,0,0-.6.4,2.181,2.181,0,0,1-.5.4l-.9.9c-.2.1-.3.3-.5.6-.1,0-.1.1-.3.2-.1.1-.2.3-.4.4-.2.4-.4.7-.6,1.1a13.9,13.9,0,0,0-1.2,2.8,28.648,28.648,0,0,0-1.3,5.8,26.6,26.6,0,0,0-.3,2.8v2.8c.1,1.1.2,2.2.2,3.2a8.447,8.447,0,0,0,.5,1.7,3.166,3.166,0,0,0,.8,1.2,1.439,1.439,0,0,1,.2.3c0,.1.1.1.1.2h0a2.485,2.485,0,0,1,.8.1,2.483,2.483,0,0,1,.9.1c0-.2.1-.3,0-.5,0,.2.1-.1.1-.1.1-.1.1-.1,0-.2,0-.1.1-.1,0-.2a.764.764,0,0,0,.2-.5c0-.2.1-.3.1-.5V142h0c0-.2.1-.3.1-.5s.1-.3,0-.5v-1.4h0v-.7c0-.2-.1-.5-.1-.8a24.369,24.369,0,0,0-.1-2.7,34.433,34.433,0,0,1,.3-5.6c.1-.5.1-.9.2-1.5a1.268,1.268,0,0,1,.1-.6c.1-.1,0-.2.1-.3,0-.1,0-.1.1-.1v-.2a.367.367,0,0,1,.1-.3l.1-.1c0-.2.1-.4.1-.6a9.288,9.288,0,0,1,.4-1.3c.1-.4.3-.8.4-1.3.1-.2.2-.3.2-.5v-.2c0-.2.1-.3.1-.4a3.08,3.08,0,0,1,.5-1.2c.1-.2.1-.4.2-.6s.1-.3.2-.5c.3-.8,0-1.1-.3-.9"
                    style="fill:#c1c4cb"/>
              <path id="Fill-15"
                    d="M12.506,116.9c3,1.9,9,7,9.2,17.4a29.436,29.436,0,0,1-.9,7.5,2.369,2.369,0,0,1-2.3,1.8l-14.5.2a2.463,2.463,0,0,1-2.3-1.7,30.9,30.9,0,0,1-1.1-7.5c-.1-10.3,5.7-15.7,8.6-17.6a3.517,3.517,0,0,1,3.3-.1m-3.6-.6a20.015,20.015,0,0,0-5.6,5.9,22.359,22.359,0,0,0-3.3,12.4,35.73,35.73,0,0,0,1.1,7.7,3.24,3.24,0,0,0,3.1,2.3l14.5-.2a3.1,3.1,0,0,0,3-2.4,35.941,35.941,0,0,0,.9-7.8,22.29,22.29,0,0,0-3.7-12.3,18.187,18.187,0,0,0-5.9-5.7,4.55,4.55,0,0,0-4.1.1"
                    style="fill:#231f2d"/>
            </g>
            <g id="rocket_bg" data-name="rocket bg">
              <path id="Fill-133"
                    d="M49.806,28.3a55.468,55.468,0,0,0-8.2-12.1c-3.5-3.8-6.9-5.8-9.7-5.7a8.256,8.256,0,0,0-4.3,1.5,27.118,27.118,0,0,0-5,4.4,59.124,59.124,0,0,0-8.1,12.1,44.791,44.791,0,0,0,10.8,2.9,46.119,46.119,0,0,0,24.5-3.1"
                    style="fill:#e6e7e8"/>
              <path
                d="M63.406,85.2c.4-4.1-.5-8.1-1.1-12.2-1.4-9.1-3.2-26.9-9.9-41.7-.6-1.2-1.2-2.5-1.8-3.7l.2.4c-1.5.6-3,1.1-4.5,1.7-.2,0-.3.1-.5.1a8.469,8.469,0,0,1-1.7.4,2.388,2.388,0,0,1-.9.2c-.5.1-.9.2-1.3.3-.6.1-1.2.2-1.7.3a2.769,2.769,0,0,1-.9.1.9.9,0,0,0-.5.1c-.3,0-.6.1-.9.1s-.6.1-.9.1a10.869,10.869,0,0,1-1.8.1,19.269,19.269,0,0,1-2.4.1q-3,0-6-.3a7.844,7.844,0,0,1-1.4-.2,7.719,7.719,0,0,0-1.5-.2c-.3-.1-.6-.1-.9-.2-.8-.1-1.5-.3-2.1-.4-.2,0-.3-.1-.4-.1-.2,0-.3-.1-.4-.1-.2,0-.3-.1-.4-.1-.2,0-.3-.1-.4-.1a38.551,38.551,0,0,1-4.6-1.6c0,.1-.1.2-.1.3l-.3.6a9.292,9.292,0,0,0-.5,1,9.292,9.292,0,0,0-.5,1c0,.2-.2.3-.2.5-2.7,5.8-7.4,15.3-9.8,28.2,0,.1-2.5,20-2.4,25.9,0,6,.9,11,1.3,15.8.2,1.7.2,3.9.5,5.4.2,2,2.2,7.9,3.2,10.4.5,1.3.9,2.4,1.3,3.3a119.326,119.326,0,0,0,15.6,2.6c9,.9,22.4,1.2,35.3-2.5a78.554,78.554,0,0,0,3.5-12.2.31.31,0,0,0,.2-.1c.2-1.1,1.2-6,1.4-7.2a15.18,15.18,0,0,0,.6-4.7C63.806,92.8,63.006,89.1,63.406,85.2Z"
                style="fill:#e6e7e8"/>
              <path d="M14.006,29.3h.1c.1-.1.1-.3.2-.5Z" style="fill:#e6e7e8"/>
              <path id="Fill-143"
                    d="M39.406,124.6c-1.6.1-3.1.1-4.8.1-4,0-8.1-.2-12.2-.6a81.273,81.273,0,0,1-15.2-2.8,31.793,31.793,0,0,0,1.4,3.1h0a39.517,39.517,0,0,0,11.5,3.9c7.4,1.4,19.5,2,35.7-3.1l.3-.5s.6-1.2,1.3-3a67.809,67.809,0,0,1-18,2.9"
                    style="fill:#e6e7e8"/>
              <path id="Fill-145"
                    d="M31.606,130.4a62.6,62.6,0,0,1-11.6-1,40.225,40.225,0,0,1-11.4-3.8,37.912,37.912,0,0,0,2,3.4c5.1,7.8,12.5,11.7,21.9,11.6,9.3-.1,16.6-4,21.8-11.8.4-.7,1-1.4,1.4-2.2a88.784,88.784,0,0,1-20.2,3.9,17.111,17.111,0,0,0-3.9-.1"
                    style="fill:#e6e7e8"/>
            </g>
            <g id="shadow">
              <path id="Fill-151"
                    d="M34.606,10.8a3.329,3.329,0,0,1-.6-.3,4.3,4.3,0,0,0-1.6,0h-.2a.367.367,0,0,0-.3-.1,4.086,4.086,0,0,0-2.2.3,5.171,5.171,0,0,0-1.3.6,7.1,7.1,0,0,0-1.4,1,19.2,19.2,0,0,0-1.5,1.4,19.911,19.911,0,0,0-3,2.8c-1.5,1.7-3,3.5-4.3,5.3-1.2,1.7-2.2,3.6-3.3,5.5a1.408,1.408,0,0,0,2.2,1.7v.1a1.059,1.059,0,0,0,1.3,1.3c.1.1.2.3.4.4a1.522,1.522,0,0,0,2.2-.9c.7-1.6,1.2-3.3,1.9-4.8a6.943,6.943,0,0,1,.5-1.3c.2-.4.4-.9.6-1.3.2-.5.4-.9.6-1.4a2.589,2.589,0,0,1,.7-1.1c.4-.8.9-1.6,1.3-2.5a8.234,8.234,0,0,1,1.6-2.2c.4-.5.9-1,1.4-1.6a9.737,9.737,0,0,1,2.4-1.5c.5-.1.8-.4,1.3-.5.4-.1.8-.1,1.1-.2.2,0,.3.1.5,0,.2,0,.3-.2.4-.2h0c-.4-.3-.3-.4-.7-.5"
                    style="fill:#c1c4cb"/>
              <path id="Fill-163"
                    d="M16.906,32.7a6.637,6.637,0,0,0,2,.6l-1.2,3.9a88.935,88.935,0,0,0-2.2,8.9c.1-.3.1-.5.2-.9-.8,4.4-2,8.7-2.8,13a132.855,132.855,0,0,0-2.4,34.5c.1,1.1.1,2.1.2,3.2V95a99.273,99.273,0,0,0,4.4,24.2,47.078,47.078,0,0,0,5.1,10.3c-.2-.3-.3-.5-.5-.8.7.9,1.3,1.9,2,3,.1.2.3.4.4.6a3.039,3.039,0,0,0-.5-.7c.6.9,1,1.8,1.5,2.7a2.667,2.667,0,0,1-.1,2.6,2.7,2.7,0,0,1-3,1.1,9.933,9.933,0,0,1-2-1.1,15.371,15.371,0,0,1-1.9-1.7,14.974,14.974,0,0,1-2.6-3.6,37.2,37.2,0,0,1-3.5-6.9,75.57,75.57,0,0,1-4.5-16.1,126.688,126.688,0,0,1-1.6-13.8,135.46,135.46,0,0,1,2.7-39.6,85.37,85.37,0,0,1,4-14.2,49.432,49.432,0,0,1,3.3-7c.4-.6.8-1.2,1.3-1.9.3.4,1,.5,1.7.6"
                    style="fill:#c1c4cb"/>
            </g>
            <g id="rocket_borders" data-name="rocket borders">
              <path id="Fill-193"
                    d="M27.606,12a8.256,8.256,0,0,1,4.3-1.5c2.9,0,6.2,2,9.7,5.7a55.209,55.209,0,0,1,8.2,12.1,44.945,44.945,0,0,1-24.5,3,41.438,41.438,0,0,1-10.8-2.9,60.447,60.447,0,0,1,8.1-12.1,26.758,26.758,0,0,1,5-4.3m-16,71a63.11,63.11,0,0,0-.3,8,81.689,81.689,0,0,0,1.8,17.6c-5.4-.9-9.1-1.8-10.3-2.1-.3-1.6-.5-3.3-.7-5h0c-.4-4.8-.8-10.2-.8-15.8,0-1.9,0-3.9.1-5.9m.1.1a67.722,67.722,0,0,0,10.1,3.1m-8.6,24.8a166.879,166.879,0,0,0,20.1,3.3c4.3.4,8.5.6,12.5.6,2.5,0,4.8-.1,7.1-.2a61.307,61.307,0,0,0,18.9-4,75.369,75.369,0,0,1-3.8,13.4c-12.9,3.7-26.3,3.4-35.3,2.5a135.945,135.945,0,0,1-15.6-2.6c-.4-1-.9-2-1.3-3.3a99.065,99.065,0,0,1-2.6-9.7m4.3,13.7a103.066,103.066,0,0,0,15.2,2.8c4.2.4,8.3.6,12.2.6,1.6,0,3.1,0,4.8-.1a85.667,85.667,0,0,0,18.1-2.8c-.8,1.9-1.3,3-1.3,3l-.3.5c-16.2,5.1-28.3,4.5-35.7,3.1a40.761,40.761,0,0,1-11.5-3.9h0a26.672,26.672,0,0,1-1.5-3.2m1.4,4.1a39.038,39.038,0,0,0,11.4,3.8,62.6,62.6,0,0,0,11.6,1c1.2,0,2.5,0,3.8-.1a83.663,83.663,0,0,0,20.2-3.9,16.443,16.443,0,0,1-1.4,2.2c-5.1,7.8-12.4,11.7-21.8,11.8-9.3.1-16.7-3.8-21.9-11.6a33.713,33.713,0,0,1-1.9-3.2m3.7-42.4c2,.5,4.3.8,6.7,1.2a89.34,89.34,0,0,0,12.7.9,57.923,57.923,0,0,0,7.2-.4c11.5-1.3,15.8-2.1,23.5-4.2-.1-.3-.2-.5-.3-.8-12.5,3.2-28.9,4.6-33.7,4.5a5.652,5.652,0,0,0-1.3,0h0a2.2,2.2,0,0,1-.8-.1,2.2,2.2,0,0,1-.8-.1h-.4c-.4,0-.8-.1-1.3-.1-.1-.1-.2,0-.3-.1h-1.2a3.6,3.6,0,0,1-1.1-.2,11.271,11.271,0,0,1-1.8-.3,78.2,78.2,0,0,1-17.8-4.6h0v-.4a8.2,8.2,0,0,1,.2-2.2c0-.2.1-.6.1-.8a3.4,3.4,0,0,1,.1-1,1.268,1.268,0,0,1,.1-.6c0-.4.1-.8.1-1.2a1.268,1.268,0,0,1,.1-.6,11.076,11.076,0,0,1,.2-1.9,2.769,2.769,0,0,0,.1-.9,2.769,2.769,0,0,0,.1-.9,7.844,7.844,0,0,1,.2-1.4,2.769,2.769,0,0,0,.1-.9c.2-1.2.3-2.4.6-3.6.1-.4.2-.9.3-1.3a112.942,112.942,0,0,1,8.8-28.4c0-.2.2-.3.2-.5a9.292,9.292,0,0,0,.5-1,9.292,9.292,0,0,0,.5-1l.3-.6c.1-.1.1-.3.2-.4s.1-.3.2-.4h0l-.1.4a27.876,27.876,0,0,0,4.7,1.6c.2,0,.3.1.4.1.2,0,.3.1.4.1.2,0,.3.1.4.1.2,0,.3.1.4.1.2,0,.3.1.5.1a.494.494,0,0,0,.3.1c.1,0,.1.1.2,0h.2c.2,0,.3.1.5.1.1.1.2,0,.3.1.2,0,.3.1.4.1.2,0,.3.1.4.1a7.719,7.719,0,0,0,1.5.2,1.952,1.952,0,0,1,.7.1,1.952,1.952,0,0,1,.7.1,40.206,40.206,0,0,0,6,.3c.7,0,1.3-.1,1.9-.1h.4c.6,0,1.2-.1,1.8-.1.3,0,.6-.1.9-.1s.6-.1.9-.1a.9.9,0,0,0,.5-.1c.3,0,.6-.1.9-.1.2,0,.3-.1.5-.1.3-.1.6-.1.9-.2.2,0,.3-.1.5-.1.5-.1.9-.2,1.3-.3a2.388,2.388,0,0,1,.9-.2c.3-.1.5-.2.8-.3s.5-.2.8-.3c.2,0,.3-.1.5-.1.2-.1.4-.1.6-.2.2,0,.2-.1.4-.1h.2c.1,0,.2-.1.3-.1s.2-.1.3-.1.2-.1.3-.1.2-.1.3-.1c.4-.1.7-.3,1.1-.4.1,0,.2-.1.3-.1a4.116,4.116,0,0,1,.8-.3h0l-.2-.4c.6,1.2,1.2,2.4,1.8,3.7a112.647,112.647,0,0,1,5.7,15s2,9.1,3.3,17.2c.8,5,1.2,9.5,1.5,12.2a141.833,141.833,0,0,1,.8,14.9c-.1,5.5-.7,10.2-.7,10.2-.1,1.4-.4,2.9-.6,4.3-10.5,4.4-25.5,4.8-38.6,3.8-3.4-.3-6.5-.8-9.3-1.2a84.328,84.328,0,0,1-1.9-17.8,38.806,38.806,0,0,1-.1-7.6m19.5-73.5c-5.8,0-13.8,8.9-20.1,22.5a118.472,118.472,0,0,0-8,24.2A127.935,127.935,0,0,0,.506,86c0,4.9.2,9.6.6,13.9h0v2.2a69.139,69.139,0,0,0,3.6,15.7c.4,1.1.8,2.1,1.2,3.1l.1.2h0a25.427,25.427,0,0,0,1.1,2.6c0,.1.1.2.2.3.2.4.3.8.5,1.3s.3,1,.5,1.4c0,.2.2.3.2.5.4.8.9,1.5,1.3,2.2a25.63,25.63,0,0,0,9.1,8.6,1.421,1.421,0,0,1,.6.2c.1.1.2.1.3.2a.52.52,0,0,0,.4.2,28.033,28.033,0,0,0,12.2,2.6,27.794,27.794,0,0,0,12.3-2.8h.1c.2-.1.5-.3.7-.4h0a25.983,25.983,0,0,0,9.4-9,27.668,27.668,0,0,0,2-3.4,6.9,6.9,0,0,1,.4-1h0a71.412,71.412,0,0,0,2.7-6.9,70.578,70.578,0,0,0,3.4-15.6,61.333,61.333,0,0,0,.8-10.4c0-5.3-.4-11-.7-14-.2-2.7-.9-10.2-1.7-15-1.4-8.3-3.5-15.7-3.5-15.7a118.31,118.31,0,0,0-5.6-14.9,63.648,63.648,0,0,0-10.4-16.3c-3.7-4.1-7.3-6.2-10.4-6.1m18.9,81.7a72.724,72.724,0,0,0-.2-8.1l-.8.1c.1,1.1.2,4,.2,8m0-.1a104.513,104.513,0,0,1-1.8,18.2h.8a98.278,98.278,0,0,0,1.8-18"
                    style="fill:#231f2d"/>
            </g>
            <g id="nose">
              <polygon id="Fill-153" points="30.506 2.7 30.606 10 32.606 10 32.406 2.7 30.506 2.7"
                       style="fill:#e6e7e8"/>
              <path id="Fill-155" d="M32.006,3.1l.1,6.6h-1.2l-.1-6.6Zm.9-.8h-2.8l.1,8.1h2.8Z" style="fill:#231f2d"/>
              <path id="Fill-157" d="M31.606.4a3.076,3.076,0,0,0-3,3,3,3,0,1,0,6,0,3.009,3.009,0,0,0-3-3"
                    style="fill:#ff5722"/>
              <path id="Fill-159"
                    d="M31.606.8a2.734,2.734,0,0,1,2.7,2.6,2.65,2.65,0,0,1-5.3.1,2.667,2.667,0,0,1,2.6-2.7m0-.8a3.415,3.415,0,0,0-3.3,3.4,3.415,3.415,0,0,0,3.4,3.3,3.351,3.351,0,0,0,3.3-3.4,3.487,3.487,0,0,0-3.4-3.3"
                    style="fill:#231f2d"/>
            </g>
            <g id="dots">
              <path id="Fill-167" d="M9.806,85.5a.7.7,0,1,0-.4-.9c-.2.4,0,.7.4.9" style="fill:#231f2d"/>
              <path id="Fill-169" d="M10.006,90.3a.7.7,0,1,0,.4.9.608.608,0,0,0-.4-.9" style="fill:#231f2d"/>
              <path id="Fill-171" d="M9.306,97.8a.7.7,0,1,0,1.3.5.751.751,0,0,0-.4-.9.608.608,0,0,0-.9.4"
                    style="fill:#231f2d"/>
              <path id="Fill-173" d="M9.806,103.8a.7.7,0,1,0,1.3.5.751.751,0,0,0-.4-.9c-.3-.2-.7,0-.9.4"
                    style="fill:#231f2d"/>
              <path id="Fill-175" d="M14.806,86.5a.7.7,0,1,0-.4-.9.608.608,0,0,0,.4.9" style="fill:#231f2d"/>
              <path id="Fill-177"
                    d="M15.106,91.3a.751.751,0,0,0-.9.4.807.807,0,0,0,.4.9.751.751,0,0,0,.9-.4c.2-.3-.1-.8-.4-.9"
                    style="fill:#231f2d"/>
              <path id="Fill-179" d="M14.306,98.8a.7.7,0,1,0,1.3.5.807.807,0,0,0-.4-.9.631.631,0,0,0-.9.4"
                    style="fill:#231f2d"/>
              <path id="Fill-181" d="M14.906,104.8a.7.7,0,0,0,1.3.5.807.807,0,0,0-.4-.9.74.74,0,0,0-.9.4"
                    style="fill:#231f2d"/>
            </g>
            <g id="dots-2" data-name="dots">
              <path id="Fill-167-2" data-name="Fill-167"
                    d="M52.706,85.5a.608.608,0,0,0,.4-.9.7.7,0,1,0-1.3.5.807.807,0,0,0,.9.4" style="fill:#231f2d"/>
              <path id="Fill-169-2" data-name="Fill-169" d="M52.506,90.3a.7.7,0,1,0,.9.4.666.666,0,0,0-.9-.4"
                    style="fill:#231f2d"/>
              <path id="Fill-171-2" data-name="Fill-171" d="M53.206,97.8a.7.7,0,1,0-.4.9.631.631,0,0,0,.4-.9"
                    style="fill:#231f2d"/>
              <path id="Fill-173-2" data-name="Fill-173" d="M52.706,103.8a.7.7,0,1,0-.4.9.807.807,0,0,0,.4-.9"
                    style="fill:#231f2d"/>
              <path id="Fill-175-2" data-name="Fill-175"
                    d="M47.706,86.5a.608.608,0,0,0,.4-.9.7.7,0,1,0-1.3.5.666.666,0,0,0,.9.4" style="fill:#231f2d"/>
              <path id="Fill-177-2" data-name="Fill-177" d="M47.406,91.3a.7.7,0,1,0,.9.4.807.807,0,0,0-.9-.4"
                    style="fill:#231f2d"/>
              <path id="Fill-179-2" data-name="Fill-179"
                    d="M48.206,98.8a.7.7,0,1,0-1.3.5c.2.3.6.6.9.4a.751.751,0,0,0,.4-.9" style="fill:#231f2d"/>
              <path id="Fill-181-2" data-name="Fill-181"
                    d="M47.606,104.8c-.1-.4-.5-.5-.9-.4a.631.631,0,0,0-.4.9c.2.3.6.6.9.4a.751.751,0,0,0,.4-.9"
                    style="fill:#231f2d"/>
            </g>
            <g id="separate_2" data-name="separate 2">
              <path id="Fill-207"
                    d="M11.706,28.5a1.173,1.173,0,0,0,.7,1.6,45.716,45.716,0,0,0,39.4-.7,1.235,1.235,0,0,0,.6-1.6,1.191,1.191,0,0,0-1.6-.5,43.39,43.39,0,0,1-37.4.6,1.511,1.511,0,0,0-1.7.6"
                    style="fill:#e6e7e8"/>
              <path id="Fill-209"
                    d="M13.306,28a43.734,43.734,0,0,0,37.4-.6,1.165,1.165,0,0,1,1.6.5c0,.2.1.3.1.5a1.167,1.167,0,0,1-.7,1.1,46.072,46.072,0,0,1-39.4.7,1.033,1.033,0,0,1-.7-1.1c0-.2.1-.3.1-.4a1.173,1.173,0,0,1,1.6-.7m.3-.7a1.945,1.945,0,0,0-2.6.9,1.2,1.2,0,0,0-.2.8,2.09,2.09,0,0,0,1.2,1.8,49.73,49.73,0,0,0,9.9,3.2,44.379,44.379,0,0,0,10.3.9,49.1,49.1,0,0,0,10.2-1.3,50.751,50.751,0,0,0,9.7-3.5,2.219,2.219,0,0,0,1.2-1.8h0a1.135,1.135,0,0,0-.3-.8,1.967,1.967,0,0,0-2.6-.8,43.1,43.1,0,0,1-36.8.6"
                    style="fill:#231f2d"/>
            </g>
            <g id="separate_1" data-name="separate 1">
              <path id="Fill-219"
                    d="M20.206,16.5a.687.687,0,0,0,.3.9,26.533,26.533,0,0,0,22.7-.4c.4-.2.6-.6.4-.9a.687.687,0,0,0-.9-.3,25.635,25.635,0,0,1-21.5.3.951.951,0,0,0-1,.4"
                    style="fill:#e6e7e8"/>
              <path id="Fill-221"
                    d="M21.206,16.2a25.151,25.151,0,0,0,21.6-.4.593.593,0,0,1,.9.3.367.367,0,0,0,.1.3.822.822,0,0,1-.4.6,26.54,26.54,0,0,1-22.7.4.723.723,0,0,1-.4-.6.367.367,0,0,1,.1-.3c0-.3.4-.5.8-.3m-1.6,0a1.268,1.268,0,0,0-.1.6,1.291,1.291,0,0,0,.9,1.3,23.2,23.2,0,0,0,5.8,1.9,29.783,29.783,0,0,0,6,.6,30.688,30.688,0,0,0,6-.7,27.755,27.755,0,0,0,5.7-2.1,1.441,1.441,0,0,0,.8-1.3,1.072,1.072,0,0,0-.2-.6,1.462,1.462,0,0,0-2-.6,24.653,24.653,0,0,1-20.9.4c-.9-.5-1.7-.3-2,.5"
                    style="fill:#231f2d"/>
            </g>
            <g id="turbine_front" data-name="turbine front">
              <polygon id="Fill-161" points="24.906 157 41.006 156.7 38.006 152.2 27.106 152.4 24.906 157"
                       style="fill:#e6e7e8"/>
              <path id="Fill-195"
                    d="M38.006,152.2l3,4.5-16,.3,2.3-4.6Zm.4-.8h-.4l-10.8.2h-.5l-.2.4-2.3,4.6-.6,1.2h1.2l16-.3h1.4l-.8-1.2-3-4.5Z"
                    style="fill:#231f2d"/>
              <path id="Fill-197"
                    d="M34.006,123.3c4,2.5,13.1,10.5,9.2,27.5a2.769,2.769,0,0,1-2.5,2l-15.8.2a2.672,2.672,0,0,1-2.5-1.9c-4.4-16.9,4.4-25.1,8.3-27.8a3.25,3.25,0,0,1,3.3,0"
                    style="fill:#e6e7e8"/>
              <path id="Fill-199"
                    d="M33.006,124a5.008,5.008,0,0,0-.8.7c-.1.1-.3.2-.4.4l-.2.2c-.1.1-.2.4-.1,0l-.3.6-.2.2-.3.3-.2.2-.1.1c-.1.1-.2.3-.4.4-.1.1-.2.3-.3.4l-.2.2h0a10.375,10.375,0,0,1-.4,1c-.2.5-.4.9-.6,1.3-.1.2-.2.3-.3.5h0a.31.31,0,0,0-.1.2,36.109,36.109,0,0,0-1.7,4.6l-.3,1.2c0,.2-.1.4-.1.6-.1.1,0,.2-.1.3v.1c-.2.8-.2,1.6-.4,2.5-.1,1.2-.2,2.4-.2,3.6v2.7h0a.9.9,0,0,0,.1.5c.1,1.1.3,2.2.5,3.3a1.7,1.7,0,0,1,.1.7v.1a4.8,4.8,0,0,1,0,1.2c-.1.3,0,.7-.1.9-.1.1-.1.2-.2.3a1.656,1.656,0,0,0-1.2,0c-.2.1-.5.1-.7.2,0-.1-.1-.1-.1-.2a4.44,4.44,0,0,1-.8-1.1,5.528,5.528,0,0,1-.7-2.5,29.373,29.373,0,0,1-.5-5.1,31.461,31.461,0,0,1,1.4-10.2c.4-1.2.8-2.3,1.3-3.5a11.4,11.4,0,0,1,1-1.9,10.917,10.917,0,0,1,1.3-1.7,11.985,11.985,0,0,1,1.2-1.1,7.41,7.41,0,0,1,1.3-1.2,3.508,3.508,0,0,1,.8-.5c.1,0,.2-.1.3-.1h.1c.2,0,.3-.2.4-.2.5-.2,1.1-.5,1.6-.7.7-.2.8.2.6.5"
                    style="fill:#c1c4cb"/>
              <path id="Fill-201"
                    d="M34.006,123.3c3.3,2.1,9.9,7.8,10.1,19.1a37.622,37.622,0,0,1-.9,8.4,2.769,2.769,0,0,1-2.5,2l-15.8.2a2.672,2.672,0,0,1-2.5-1.9,33.21,33.21,0,0,1-1.2-8.3c-.2-11.4,6.3-17.3,9.5-19.5a3.25,3.25,0,0,1,3.3,0m-1.6-1.2a3.48,3.48,0,0,0-2.1.6,22.906,22.906,0,0,0-6.2,6.5,24.944,24.944,0,0,0-3.6,13.6,37.028,37.028,0,0,0,1.2,8.5,3.621,3.621,0,0,0,3.3,2.5l15.9-.3a3.861,3.861,0,0,0,2-.8,3.055,3.055,0,0,0,1.2-1.8,37.069,37.069,0,0,0,1-8.5,23.915,23.915,0,0,0-4.1-13.5,21.87,21.87,0,0,0-6.4-6.3,5.45,5.45,0,0,0-2.2-.5"
                    style="fill:#231f2d"/>
            </g>
            <g id="window">
              <path id="white_bg" data-name="white bg"
                    d="M46.306,48.9c-2.7-4.3-5.8-7.8-11.1-8.2a2.922,2.922,0,0,0-2.1.6,20.046,20.046,0,0,0-9.4,1.5c-4.9,1.9-6.7,7.2-8.2,11.8a17.735,17.735,0,0,0,1.6,14.9c2.6,4.3,6,8.5,11.1,9.6,4.7,1,10.2,1,13.8-2.6,3.6-3.5,7.1-8,7.8-13C50.806,58,49.106,53.5,46.306,48.9Z"
                    style="fill:#fff"/>
              <path id="border"
                    d="M28.206,78.4l4.7.6,4.6-.9,4.2-2,3.6-3,2.3-4.1,1.5-4.4.5-4.7-.4-4.7-1.7-4.2-2.6-4-3.6-3-4.3-1.8-4.6-.7-4.6.6-4.1,2.1-3.5,3.1-2.7,3.9-1.6,4.5-.3,4.7.5,4.7,1.6,4.5,2.6,3.9,3.6,3Zm4.6,1.5-4.9-.7-4.5-2.1-3.8-3.2-2.7-4.1-1.6-4.6-.6-4.9.3-4.9,1.6-4.7,2.8-4.1,3.7-3.2,4.4-2.2h.1l4.8-.8,4.9.8,4.5,1.9,3.8,3.2,2.7,4.1,1.8,4.6v.1l.4,4.9v.1l-.5,4.8V65l-1.6,4.5-2.4,4.3-3.8,3.2h-.2l-4.3,2Z"
                    style="fill:#171724"/>
              <path id="glass"
                    d="M47.106,60c.1,8.7-6.1,15.9-14,16s-14.3-6.9-14.4-15.7c-.1-8.7,6.1-15.9,14-16s14.3,6.9,14.4,15.7"
                    style="fill:#171724"/>
              <path id="reflect"
                    d="M32.806,48.6a2.359,2.359,0,0,0-2.8-1.6,10.754,10.754,0,0,0-4.7,2.8,12.88,12.88,0,0,0-2.7,4.5,25.1,25.1,0,0,0-1.3,9.1,2.3,2.3,0,1,0,4.6,0c0-1.3.1-2.6.2-3.8a25.578,25.578,0,0,1,.5-2.7c.1-.4.2-.7.3-1.1.1-.1.2-.5.3-.6.1-.3.3-.5.4-.8a3.112,3.112,0,0,1,.4-.6l.1-.1.1-.1a4.741,4.741,0,0,1,1-1c.1-.1.2-.1.3-.2a3.112,3.112,0,0,0,.6-.4.367.367,0,0,1,.3-.1,6.89,6.89,0,0,0,.8-.3,2.538,2.538,0,0,0,1.6-3"
                    style="fill:#fff"/>
            </g>
          </g>
        </g>
      </g>
    </g>
  </g>
</svg>
