<?xml version="1.0" encoding="utf-8"?>
<!-- Generator: Adobe Illustrator 22.1.0, SVG Export Plug-In . SVG Version: 6.00 Build 0)  -->
<svg version="1.1" id="spaceman_x5F_go" xmlns="http://www.w3.org/2000/svg" xmlns:xlink="http://www.w3.org/1999/xlink" x="0px"
	 y="0px" width="566px" height="85px" viewBox="0 0 566 85" style="enable-background:new 0 0 566 85;" xml:space="preserve">
<g id="cloud">
	<path id="background" style="fill:#EEEEEE;" d="M560.4,73.7c-1.3-2.6-1.6-5.2-4.6-7.4l-0.1-0.1l0.1-1l0.3-0.1c5.8-2.7,9-6.3,9-10.1
		c0-3.5-2.8-6.9-7.9-9.6c-4.4-2.3-10.3-4-16.9-4.6l-1.2-0.1l0.4-0.5c1.3-1.5,2-3,2-4.6c0-3.2-2.8-6.2-7.8-8.4
		c-5-2.3-11.7-3.5-18.8-3.5c-13.7,0-25.3,4.8-26.4,10.9l-0.1,0.5l-1.2-0.2c-3.8-0.5-7.6-0.8-11.7-0.8c-8,0-15.7,1.1-22.3,3.2
		c-6,1.9-10.7,4.6-13.5,7.7l-0.3,0.2l-0.5,0.1c-5.4,0.4-10.3,1.3-14.4,3c-0.5,0.2-1.1,0.4-1.6,0.7l-1.2,0.5l-0.4-0.7
		c-1.1-1.9-3.1-3.6-5.9-5.1c-5.4-2.9-13.3-4.6-21.7-4.6c-6.7,0-13.3,1.1-18.5,3.1c-3.1,1.2-5.5,2.6-7.2,4.3l-0.7,0.7l-0.9-0.5
		c-0.1-0.1-0.1-0.1-0.3-0.2l-0.1-0.1l0,0c-2.8-1.5-6.8-2.3-11-2.3c-2.7,0-5.4,0.4-7.6,1l-1.2,0.4l-0.3-0.7c-0.7-1.9-2.3-3.6-4.8-5.1
		c-2.7-1.6-6.3-2.9-10.5-3.8l-0.9-0.2l0.4-0.4c0.9-1,1.5-2,1.3-3c-0.3-2.9-4.6-5.5-10.7-6.3l-0.8-0.1v-0.4c0-0.2,0-0.4,0-0.5
		c-0.1-1.8-2.7-3.4-6.4-4.1l-0.9-0.2l0.3-0.4c0.7-0.9,0.9-1.8,0.9-2.7c-0.1-2.1-1.9-4-5.1-5.4c-2.7-1.2-5.9-1.9-9.5-2.2L298,9.8
		l0.1-0.4c0.1-0.3,0.1-0.7,0.1-1c0-0.6-0.4-1.2-0.9-1.8c-0.5-0.6-0.5-1.3-1.5-1.6c-0.5-0.4-1.2-0.9-1.5-1.2c-0.8-0.6-2-1-3.1-1.5
		c-2-1-5.2-1.2-7.9-1.3c-6.4-0.4-13.5,0.5-16.9,3.2c-0.5,0.4-0.7,0.9-0.5,1.2c-1.7,0.9-2.8,1.9-2.8,3.1v0.4L262.3,9
		c-7.8,0.4-13.7,3.5-13.4,7.1c0,0.9,0.4,1.6,1.2,2.4l0.3,0.3l-0.5,0.2c-2.8,1.1-4.4,2.7-4.4,4.4c0,0.1,0,0.2,0,0.4l0.1,0.5l-1.2-0.1
		c-0.8-0.1-1.6-0.1-2.4-0.1l0,0c-0.1,0-0.1,0-0.3,0c-4.7,0.1-9,0.9-12.2,2.4c-3.2,1.5-5,3.5-4.8,5.7c0.1,2.4,2.5,4.6,6.7,6.1
		l1.1,0.4l-1.2,0.4c-4.4,1.2-7.6,3.2-9.3,5.4l-0.9,1.3l-0.5-0.9l-1.2,0.5c-0.3,0.1-0.5,0.2-0.8,0.3l-0.4,0.1l-0.4-0.1
		c-4.4-0.8-9.1-1.2-13.9-1.2c-6.7,0-13.1,0.8-18.9,2.3c-4.2,1-7.8,2.4-10.9,4.1l-1.3,0.7l-0.4-0.9c-3.5-8.3-19.4-14.3-38-14.3
		c-7.1,0-14.1,0.9-20.3,2.6l-0.9,0.2l-0.4-0.5c-2.8-2.9-7.2-5.5-13-7.3c-6.6-2.1-14.4-3.3-22.5-3.3c-9.1,0-18,1.5-24.9,4.1
		c-6.7,2.6-11.3,6.1-13,9.9L39,42.5l-0.3,0.1c-7.1,2.4-12.1,5.9-14.2,9.8l-0.1,0.2L24,52.7c-6.7,1.3-12.5,3.5-16.5,6.2
		c-4.4,2.9-6.8,6.4-6.8,9.9c0,3.3,2,6.5,5.8,9.3c3.6,2.7,8.9,4.9,15.2,6.3l0.3,0.1h532.6C554.7,84.5,562.6,78.2,560.4,73.7z"/>
	<g id="borders">
		<g>
			<g>
				<g>
					<path style="fill:#171724;" d="M445.4,47.9c-1.3-0.1-2.7-0.1-4.2-0.1c-1.3,0-2.7,0.1-4,0.3c-1.3,0.2-2.7,0.3-3.9,0.6
						c-1.2,0.3-2.4,0.4-3.5,0.8c-1.1,0.3-2,0.6-3,0.8c-0.9,0.3-1.6,0.6-2.4,0.8c-0.7,0.3-1.3,0.5-1.7,0.7c-0.5,0.2-0.8,0.4-1.1,0.4
						c-0.3,0.1-0.4,0.2-0.4,0.2s0.1-0.1,0.3-0.2c0.1-0.1,0.4-0.3,0.8-0.6c0.4-0.3,0.8-0.5,1.5-0.8s1.3-0.6,2.1-1
						c0.8-0.3,1.7-0.7,2.8-1c1.1-0.3,2.3-0.6,3.5-0.9c1.3-0.3,2.7-0.5,4.2-0.7c1.5-0.1,3-0.3,4.4-0.3c1.5-0.1,3.1,0,4.6,0.1
						c0.7,0.1,1.5,0.1,2.1,0.2c0.7,0.1,1.3,0.2,2,0.3c0.7,0.1,1.3,0.2,2,0.3s1.2,0.3,1.7,0.4c0.5,0.1,1.1,0.3,1.6,0.4
						c0.5,0.1,1.1,0.3,1.5,0.4c0.4,0.1,0.9,0.3,1.3,0.4c0.4,0.1,0.8,0.3,1.2,0.4c0.7,0.3,1.3,0.5,1.7,0.7c0.5,0.2,0.8,0.4,1.1,0.4
						c0.3,0.1,0.4,0.2,0.4,0.2s-0.1-0.1-0.4-0.1c-0.3-0.1-0.7-0.2-1.3-0.3c-0.5-0.1-1.2-0.3-2-0.5c-0.4-0.1-0.8-0.2-1.2-0.3
						c-0.4-0.1-0.9-0.2-1.3-0.3c-0.5-0.1-0.9-0.2-1.5-0.3c-0.5-0.1-1.1-0.2-1.6-0.3c-0.5-0.1-1.2-0.2-1.7-0.3
						c-0.7-0.1-1.2-0.1-1.9-0.3"/>
				</g>
			</g>
		</g>
		<g>
			<g>
				<g>
					<path style="fill:#171724;" d="M252.4,20.4c-0.4-0.2-0.5-0.4-0.8-0.6c-0.3-0.2-0.5-0.4-0.8-0.6c-0.4-0.4-0.8-0.8-0.9-1.2
						c-0.3-0.4-0.3-0.8-0.4-1.2c0-0.4,0-0.8,0.1-1.1c0.1-0.3,0.3-0.6,0.4-0.9c0.1-0.3,0.4-0.4,0.5-0.6c0.1-0.2,0.3-0.3,0.4-0.4
						c0.1-0.1,0.1-0.1,0.1-0.1s0,0.1,0,0.1c0,0.1-0.1,0.3-0.1,0.4s0,0.4-0.1,0.6c0,0.3,0,0.5,0,0.8c0,0.3,0.1,0.6,0.3,0.9
						c0.1,0.3,0.3,0.7,0.5,1c0.1,0.4,0.7,0.6,0.9,1c0.1,0.2,0.4,0.3,0.7,0.4c0.3,0.1,0.4,0.3,0.7,0.4c0.5,0.3,1.1,0.6,1.7,0.8
						c0.7,0.3,1.2,0.5,1.9,0.7c0.7,0.2,1.2,0.4,1.9,0.6c0.7,0.2,1.2,0.3,1.9,0.5c0.5,0.2,1.1,0.3,1.6,0.4c0.5,0.1,0.9,0.2,1.2,0.3
						c0.4,0.1,0.7,0.1,0.8,0.2c0.1,0.1,0.3,0.1,0.3,0.1s-0.1,0-0.3,0c-0.3,0-0.5,0-0.9-0.1c-0.4,0-0.8-0.1-1.5-0.1
						c-0.5-0.1-1.2-0.1-1.7-0.2c-0.7-0.1-1.3-0.2-2.1-0.3s-1.5-0.3-2.3-0.5"/>
				</g>
			</g>
		</g>
		<g>
			<g>
				<g>
					<path style="fill:#171724;" d="M311.4,14.7c0,0,0,0.1,0.1,0.1c0.1,0.1,0.3,0.2,0.5,0.3c0.3,0.1,0.4,0.3,0.7,0.5
						c0.3,0.2,0.5,0.4,0.7,0.8c0.3,0.3,0.4,0.6,0.5,0.9s0.3,0.7,0.4,1.1c0,0.2,0,0.4,0,0.6c0,0.2,0,0.4,0,0.6c0,0.2-0.1,0.4-0.1,0.6
						c-0.1,0.2-0.3,0.4-0.3,0.6c-0.1,0.4-0.5,0.8-0.9,1.1c-0.1,0.2-0.4,0.3-0.7,0.5c-0.3,0.2-0.5,0.3-0.7,0.4
						c-0.5,0.3-1.1,0.5-1.6,0.8c-0.3,0.1-0.5,0.3-0.8,0.3s-0.5,0.2-0.8,0.3c-0.5,0.2-0.9,0.3-1.5,0.4c-0.4,0.1-0.8,0.2-1.2,0.3
						c-0.3,0.1-0.5,0.1-0.8,0.1c-0.1,0-0.3,0.1-0.3,0.1s0.1-0.1,0.3-0.1c0.1-0.1,0.3-0.2,0.5-0.3c0.3-0.1,0.5-0.3,0.9-0.4
						c0.4-0.1,0.7-0.3,1.1-0.6c0.1-0.1,0.4-0.2,0.7-0.3c0.3-0.1,0.4-0.2,0.7-0.3c0.4-0.3,0.8-0.5,1.2-0.8c0.1-0.1,0.4-0.3,0.5-0.4
						c0.1-0.1,0.4-0.3,0.5-0.4c0.3-0.3,0.7-0.6,0.8-0.9c0.1-0.2,0.3-0.3,0.3-0.5c0-0.2,0.1-0.3,0.1-0.5c0.1-0.2,0.1-0.3,0.1-0.5
						c0-0.2,0.1-0.3,0.1-0.5c0-0.3,0-0.6,0-0.9s-0.1-0.6-0.1-0.9s-0.1-0.5-0.3-0.8c-0.1-0.2-0.1-0.4-0.3-0.6
						c-0.1-0.2-0.1-0.3-0.1-0.4C311.4,14.7,311.4,14.7,311.4,14.7z"/>
				</g>
			</g>
		</g>
		<g>
			<g>
				<g>
					<path style="fill:#171724;" d="M299.5,9.4c0,0,0-0.1-0.1-0.1c0-0.1-0.1-0.3-0.3-0.4c-0.1-0.2-0.3-0.4-0.4-0.6
						c-0.1-0.3-0.4-0.5-0.5-0.8c-0.3-0.3-0.5-0.6-0.8-0.8c-0.3-0.3-0.7-0.6-1.1-0.9c-0.4-0.3-0.9-0.6-1.5-0.8
						c-0.5-0.3-1.1-0.5-1.7-0.6c-0.7-0.2-1.3-0.3-2-0.5c-0.7-0.1-1.5-0.3-2.1-0.3c-0.7-0.1-1.5-0.1-2.1-0.1c-0.7,0-1.3-0.1-2,0
						c-0.7,0-1.2,0-1.7,0s-0.9,0-1.3,0.1c-0.4,0-0.7,0-0.9,0c-0.3,0-0.3,0-0.3,0s0.1,0,0.3-0.1s0.4-0.1,0.8-0.2s0.8-0.2,1.2-0.3
						c0.5-0.1,1.1-0.2,1.7-0.3c0.7-0.1,1.3-0.1,2.1-0.2c0.8,0,1.6-0.1,2.4,0s1.7,0.1,2.7,0.3c0.8,0.1,1.7,0.3,2.5,0.6
						c0.8,0.3,1.5,0.6,2.1,0.9c0.7,0.3,1.1,0.7,1.5,1c0.4,0.4,0.7,0.7,0.9,1.1c0.3,0.3,0.4,0.7,0.5,1c0.1,0.3,0.1,0.6,0.1,0.8
						c0,0.3,0,0.4,0,0.6s0,0.3-0.1,0.4C299.5,9.3,299.5,9.4,299.5,9.4z"/>
				</g>
			</g>
		</g>
		<g>
			<g>
				<g>
					<path style="fill:#171724;" d="M295.2,19.8c0,0,0.1,0,0.3,0c0.3,0,0.5,0.1,0.9,0.1c0.4,0.1,0.9,0.1,1.5,0.3
						c0.5,0.1,1.1,0.3,1.7,0.4c0.7,0.2,1.3,0.3,2,0.6c0.7,0.3,1.3,0.5,2,0.8c0.7,0.3,1.2,0.7,1.7,1.1c0.5,0.4,0.8,0.9,1.1,1.4
						s0.1,1,0,1.5s-0.4,0.9-0.8,1.3c-0.4,0.4-0.8,0.8-1.3,1.1c-0.5,0.3-0.9,0.6-1.5,0.9c-0.4,0.3-0.9,0.4-1.3,0.6
						c-0.4,0.2-0.8,0.3-1.2,0.4c-0.3,0.1-0.5,0.2-0.8,0.3c-0.1,0.1-0.3,0.1-0.3,0.1s0-0.1,0.1-0.1c0.1-0.1,0.3-0.2,0.5-0.4
						c0.3-0.1,0.5-0.4,0.8-0.6c0.3-0.3,0.7-0.4,0.9-0.8c0.4-0.3,0.7-0.6,1.1-0.9c0.3-0.3,0.7-0.7,0.8-1c0.3-0.4,0.4-0.8,0.5-1.1
						c0-0.4,0.1-0.8-0.1-1.1c-0.1-0.4-0.4-0.8-0.7-1.1c-0.4-0.3-0.8-0.7-1.2-0.9c-0.5-0.3-0.9-0.6-1.5-0.8c-0.5-0.3-1.1-0.5-1.6-0.7
						c-0.5-0.2-0.9-0.4-1.5-0.6c-0.4-0.1-0.8-0.3-1.2-0.4c-0.3-0.1-0.5-0.2-0.8-0.3C295.3,19.8,295.2,19.8,295.2,19.8z"/>
				</g>
			</g>
		</g>
		<g>
			<g>
				<g>
					<path style="fill:#171724;" d="M234.4,50.4c0,0-0.1-0.1-0.3-0.1c-0.1-0.1-0.4-0.1-0.8-0.3c-0.4-0.1-0.8-0.3-1.2-0.4
						c-0.5-0.1-1.1-0.3-1.6-0.4c-0.7-0.1-1.3-0.3-2-0.4c-0.7-0.1-1.5-0.3-2.3-0.3c-0.8-0.1-1.6-0.1-2.5-0.1c-0.8,0-1.7,0.1-2.5,0.1
						c-0.8,0.1-1.6,0.2-2.4,0.4c-0.8,0.2-1.6,0.3-2.3,0.6c-0.7,0.2-1.3,0.4-2,0.6c-0.7,0.3-1.2,0.4-1.7,0.7s-0.9,0.4-1.5,0.6
						c-0.4,0.2-0.8,0.4-1.1,0.5c-0.3,0.1-0.5,0.3-0.7,0.3c-0.1,0.1-0.3,0.1-0.3,0.1s0-0.1,0.1-0.1c0.1-0.1,0.3-0.3,0.4-0.4
						c0.1-0.2,0.4-0.4,0.8-0.6c0.3-0.3,0.7-0.5,1.1-0.8c0.4-0.3,0.9-0.6,1.6-0.8c0.5-0.3,1.2-0.6,2-0.8c0.8-0.3,1.6-0.5,2.5-0.7
						c0.9-0.2,1.9-0.4,3-0.4c1.1-0.1,2-0.1,3.1-0.1c1.1,0,2,0.1,3,0.3c0.9,0.1,1.7,0.3,2.5,0.5s1.5,0.4,2,0.6
						c0.5,0.2,1.1,0.4,1.5,0.6c0.4,0.2,0.8,0.4,1.1,0.6C234.2,50.2,234.3,50.4,234.4,50.4C234.3,50.3,234.4,50.4,234.4,50.4z"/>
				</g>
			</g>
		</g>
		<g>
			<g>
				<g>
					<path style="fill:#171724;" d="M394.9,72.8c0,0,0-0.1,0.1-0.3c0-0.1,0-0.2,0.1-0.4c0-0.1,0-0.3,0-0.4c0-0.2,0-0.4,0-0.6
						c0-0.2,0-0.4-0.1-0.7c0-0.3-0.1-0.5-0.3-0.8c-0.1-0.3-0.3-0.6-0.4-0.8c-0.3-0.6-0.8-1.2-1.2-1.8c-0.5-0.6-1.2-1.3-1.9-2
						c-0.7-0.7-1.6-1.3-2.4-2c-0.9-0.6-1.9-1.3-3-1.9c-1.1-0.6-2.1-1.2-3.4-1.7c-1.2-0.6-2.4-1-3.8-1.5c-1.3-0.4-2.7-0.7-3.9-0.9
						c-1.3-0.2-2.7-0.4-3.9-0.4c-0.7,0-1.2,0-1.7,0c-0.5,0.1-1.1,0.1-1.6,0.1c-0.5,0.1-0.9,0.1-1.3,0.2c-0.4,0.1-0.8,0.2-1.1,0.3
						c-0.7,0.1-1.2,0.3-1.5,0.4c-0.4,0.1-0.5,0.1-0.5,0.1s0.1-0.1,0.4-0.2c0.3-0.1,0.7-0.3,1.3-0.5c0.3-0.1,0.7-0.2,1.1-0.3
						s0.9-0.2,1.3-0.3c0.5-0.1,1.1-0.2,1.6-0.3c0.7-0.1,1.2-0.1,1.9-0.1c1.3-0.1,2.8,0.1,4.4,0.3c1.5,0.2,3.1,0.5,4.4,0.9
						c1.5,0.4,2.8,0.9,4.2,1.5c1.3,0.6,2.5,1.2,3.6,1.8c1.1,0.6,2.1,1.3,3.1,2c0.9,0.7,1.7,1.5,2.4,2.1c0.7,0.7,1.2,1.5,1.6,2.1
						c0.4,0.7,0.8,1.3,0.9,2c0.1,0.3,0.1,0.6,0.3,0.9c0,0.3,0,0.6,0,0.8c0,0.3,0,0.5-0.1,0.7c0,0.2-0.1,0.4-0.1,0.6
						c-0.1,0.2-0.1,0.3-0.3,0.4c-0.1,0.1-0.1,0.3-0.3,0.3C395,72.7,394.9,72.8,394.9,72.8z"/>
				</g>
			</g>
		</g>
		<g>
			<g>
				<g>
					<path style="fill:#171724;" d="M266.9,41.9c0,0,0-0.1,0.1-0.3c0.1-0.1,0.3-0.4,0.5-0.6s0.5-0.6,0.9-0.9
						c0.4-0.4,0.9-0.8,1.5-1.2c0.5-0.4,1.3-0.9,2.1-1.3c0.8-0.4,1.7-0.9,2.8-1.3c1.1-0.4,2.1-0.8,3.5-1.1c1.2-0.3,2.7-0.6,4.2-0.8
						c1.5-0.2,3-0.3,4.4-0.3s3,0.2,4.3,0.4c1.3,0.2,2.5,0.6,3.6,0.9c1.1,0.3,1.9,0.8,2.7,1.1c0.8,0.4,1.3,0.8,1.9,1.1
						c0.5,0.3,0.8,0.6,1.2,0.9c0.3,0.3,0.5,0.4,0.7,0.6c0.1,0.1,0.3,0.2,0.3,0.2s-0.1-0.1-0.3-0.2c-0.3-0.1-0.5-0.3-0.9-0.5
						c-0.4-0.2-0.9-0.5-1.5-0.8c-0.5-0.3-1.3-0.6-2-0.9c-0.8-0.3-1.7-0.6-2.7-0.9c-0.9-0.3-2.1-0.5-3.2-0.7
						c-1.2-0.2-2.4-0.3-3.8-0.3c-1.2,0-2.5,0.1-3.8,0.3c-1.2,0.1-2.5,0.4-3.6,0.7c-1.2,0.3-2.3,0.6-3.2,0.9c-0.9,0.4-2,0.8-2.8,1.1
						c-0.8,0.4-1.6,0.8-2.3,1.1c-0.7,0.4-1.3,0.7-1.7,1c-0.5,0.3-0.9,0.6-1.3,0.8c-0.4,0.3-0.7,0.4-0.8,0.6
						C267,41.9,266.9,41.9,266.9,41.9z"/>
				</g>
			</g>
		</g>
		<g>
			<g>
				<g>
					<path style="fill:#171724;" d="M277.2,31.6c0,0-0.1-0.1-0.3-0.2s-0.5-0.3-0.8-0.5c-0.3-0.1-0.4-0.2-0.7-0.3
						c-0.1-0.1-0.3-0.1-0.4-0.2c-0.1-0.1-0.3-0.1-0.4-0.2c-0.5-0.3-1.3-0.4-2.1-0.7c-0.3-0.1-0.4-0.1-0.7-0.1
						c-0.3-0.1-0.4-0.1-0.7-0.1c-0.4-0.1-0.9-0.1-1.5-0.2c-1.1-0.1-2,0-3.1,0.1c-1.1,0.1-2.1,0.3-3.2,0.6c-1.1,0.3-2,0.6-3,1
						c-0.9,0.4-1.7,0.8-2.4,1.3c-0.7,0.4-1.3,0.9-1.9,1.5c-0.4,0.5-0.9,1-1.2,1.5c-0.3,0.5-0.4,0.9-0.5,1.4c0,0.2,0,0.4,0,0.6
						s0,0.4,0.1,0.6c0,0.2,0.1,0.3,0.1,0.5c0.1,0.1,0.1,0.3,0.3,0.4c0.1,0.3,0.4,0.4,0.4,0.6c0.1,0.1,0.1,0.2,0.1,0.2
						s-0.1-0.1-0.3-0.2s-0.5-0.3-0.8-0.5c-0.1-0.1-0.3-0.3-0.4-0.4c-0.1-0.2-0.3-0.3-0.4-0.5c-0.1-0.2-0.3-0.4-0.4-0.6
						c-0.1-0.2-0.1-0.4-0.3-0.7c0-0.5,0-1,0.1-1.6c0.1-0.6,0.5-1.1,0.9-1.7c0.5-0.6,1.1-1.1,1.9-1.6s1.6-1,2.7-1.5
						c1.1-0.4,2.1-0.8,3.4-1.1s2.5-0.5,3.9-0.6c1.3-0.1,2.7-0.1,3.9,0.1c0.5,0.1,1.2,0.1,1.7,0.3c0.3,0.1,0.5,0.1,0.8,0.2
						s0.4,0.1,0.7,0.2c0.8,0.3,1.5,0.6,2,0.9c0.1,0.1,0.3,0.1,0.4,0.2s0.3,0.1,0.3,0.2c0.1,0.1,0.4,0.3,0.5,0.4
						c0.3,0.3,0.4,0.4,0.5,0.6C277.1,31.4,277.2,31.6,277.2,31.6z"/>
				</g>
			</g>
		</g>
		<g>
			<g>
				<g>
					<path style="fill:#171724;" d="M263,12.6c0,0,0,0-0.1-0.1c0-0.1-0.1-0.1-0.3-0.3c-0.1-0.1-0.3-0.3-0.3-0.4
						c-0.1-0.2-0.3-0.4-0.3-0.6c0-0.2-0.1-0.4,0-0.7c0-0.3,0.1-0.5,0.3-0.8c0.3-0.3,0.4-0.6,0.7-0.8c0.1-0.1,0.3-0.3,0.5-0.4
						l0.5-0.4c0.4-0.2,0.8-0.4,1.3-0.6c0.5-0.2,1.1-0.3,1.5-0.4c0.5-0.1,1.1-0.3,1.6-0.3c0.5-0.1,0.9-0.1,1.5-0.1
						c0.4-0.1,0.9-0.1,1.2,0c0.4,0,0.7,0,0.9,0.1c0.3,0,0.4,0.1,0.5,0.1c0.1,0,0.3,0,0.3,0s-0.1,0-0.3,0.1c-0.1,0-0.3,0.1-0.5,0.1
						s-0.5,0.1-0.8,0.1c-0.3,0.1-0.7,0.1-1.1,0.2c-0.4,0.1-0.8,0.2-1.2,0.3c-0.4,0.1-0.8,0.3-1.2,0.4c-0.4,0.1-0.8,0.3-1.1,0.4
						c-0.4,0.1-0.7,0.3-1.1,0.5l-0.5,0.3c-0.1,0.1-0.3,0.2-0.4,0.3c-0.3,0.2-0.5,0.4-0.8,0.6c-0.1,0.2-0.4,0.4-0.5,0.6
						c-0.1,0.2-0.3,0.4-0.4,0.6c-0.1,0.2-0.1,0.4-0.3,0.5c-0.1,0.2-0.1,0.3-0.1,0.4c0,0.1,0,0.2-0.1,0.3C263,12.5,263,12.6,263,12.6
						z"/>
				</g>
			</g>
		</g>
		<g>
			<g>
				<g>
					<path style="fill:#171724;" d="M316.5,65.3c0,0,0.3,0,0.7,0s0.9,0,1.7,0.1c0.4,0,0.8,0.1,1.2,0.1c0.4,0.1,0.9,0.1,1.5,0.1
						c1.1,0.1,2.1,0.3,3.5,0.4c1.2,0.2,2.5,0.5,3.9,0.8c1.3,0.4,2.7,0.8,3.9,1.3c1.2,0.5,2.4,1.1,3.5,1.8c1.1,0.6,2,1.4,2.7,2.1
						c0.8,0.8,1.3,1.6,1.6,2.4c0.4,0.8,0.4,1.6,0.4,2.4c0,0.8-0.4,1.5-0.8,2.2c-0.3,0.3-0.4,0.7-0.7,1c-0.1,0.1-0.3,0.3-0.4,0.4
						c-0.1,0.1-0.3,0.3-0.4,0.4c-0.3,0.3-0.5,0.6-0.9,0.8c-0.3,0.3-0.7,0.4-0.9,0.7c-0.5,0.4-1.2,0.8-1.7,1
						c-0.5,0.3-0.9,0.4-1.2,0.6c-0.3,0.1-0.4,0.2-0.4,0.2s0.1-0.1,0.3-0.3c0.3-0.2,0.5-0.4,0.9-0.7c0.4-0.3,0.8-0.6,1.3-1.1
						c0.3-0.2,0.5-0.4,0.7-0.7c0.3-0.3,0.4-0.5,0.7-0.8c0.1-0.1,0.3-0.3,0.3-0.4c0.1-0.1,0.1-0.3,0.3-0.4c0.3-0.3,0.3-0.6,0.5-0.9
						c0.3-0.6,0.4-1.3,0.4-2.1c0-0.7-0.1-1.5-0.5-2.2c-0.4-0.8-0.8-1.5-1.5-2.1c-0.7-0.7-1.5-1.3-2.4-2c-0.9-0.6-2-1.1-3.1-1.6
						c-1.1-0.5-2.3-0.9-3.5-1.3c-1.2-0.4-2.3-0.7-3.5-0.9c-1.1-0.3-2.1-0.4-3.1-0.6c-0.5-0.1-0.9-0.1-1.3-0.2
						c-0.4-0.1-0.8-0.1-1.2-0.1c-0.7-0.1-1.3-0.1-1.6-0.2C316.7,65.3,316.5,65.3,316.5,65.3z"/>
				</g>
			</g>
		</g>
		<g>
			<g>
				<g>
					<path style="fill:#171724;" d="M277,62.7c0,0-0.1,0-0.4-0.1c-0.3-0.1-0.7-0.1-1.1-0.2c-0.5-0.1-1.1-0.1-1.7-0.3
						c-0.7-0.1-1.5-0.2-2.3-0.3c-0.8-0.1-1.7-0.1-2.7-0.1c-0.9,0-1.9,0-3,0.1c-0.9,0.1-1.9,0.3-2.8,0.4c-0.9,0.3-1.6,0.5-2.3,0.9
						c-0.7,0.4-1.2,0.8-1.6,1.3s-0.8,0.9-1.1,1.4c-0.3,0.4-0.5,0.9-0.7,1.4c-0.1,0.4-0.3,0.9-0.3,1.3c0,0.4-0.1,0.8-0.1,1.1
						c0,0.3,0,0.6,0,0.9s0,0.4,0,0.6c0,0.1,0,0.2,0,0.2s0-0.1-0.1-0.2c-0.1-0.1-0.3-0.3-0.3-0.6c-0.1-0.3-0.3-0.5-0.4-0.9
						c-0.1-0.3-0.3-0.7-0.3-1.1c-0.1-0.4-0.1-0.9,0-1.4c0-0.5,0.1-1,0.4-1.5c0.3-0.5,0.5-1.1,1.1-1.6c0.5-0.5,1.1-1.1,2-1.5
						c0.8-0.4,1.9-0.8,3.1-1.1c1.2-0.3,2.4-0.4,3.6-0.5c1.2-0.1,2.3,0,3.4,0.1c1.1,0.1,2,0.2,2.8,0.4c0.8,0.1,1.6,0.3,2.3,0.4
						s1.2,0.3,1.6,0.4s0.8,0.3,0.9,0.3C276.8,62.7,277,62.7,277,62.7z"/>
				</g>
			</g>
		</g>
		<g>
			<g>
				<g>
					<path style="fill:#171724;" d="M332.1,58.6c0,0,0-0.1,0.1-0.2c0.1-0.1,0.3-0.3,0.5-0.6c0.1-0.1,0.1-0.3,0.3-0.4
						c0.1-0.1,0.1-0.3,0.3-0.5c0.1-0.4,0.4-0.8,0.5-1.3c0-0.3,0.1-0.4,0.1-0.7s0-0.5,0-0.8c0-0.5-0.1-1.1-0.3-1.6s-0.4-1.1-0.8-1.7
						c-0.4-0.6-0.8-1.1-1.3-1.6c-0.5-0.5-1.2-1-2-1.5c-0.8-0.4-1.6-0.8-2.5-1.1c-0.9-0.3-1.9-0.6-3-0.7c-1.1-0.1-2-0.3-3-0.3
						c-0.5,0-0.9,0-1.3,0s-0.8,0-1.2,0.1c-0.8,0-1.5,0.1-2,0.1c-0.5,0.1-1.1,0.1-1.3,0.1c-0.3,0.1-0.5,0.1-0.5,0.1s0.1-0.1,0.4-0.1
						c0.3-0.1,0.7-0.2,1.2-0.3c0.5-0.1,1.2-0.3,2-0.4c0.4-0.1,0.8-0.1,1.3-0.1c0.4-0.1,0.9-0.1,1.5-0.1c1.1-0.1,2.3,0,3.5,0.1
						c1.2,0.1,2.4,0.4,3.6,0.7c1.2,0.3,2.3,0.8,3.2,1.3c0.9,0.5,1.7,1.1,2.4,1.6c0.7,0.6,1.1,1.2,1.5,1.8s0.5,1.3,0.7,1.9
						c0.1,0.6,0,1.2,0,1.8c0,0.3-0.1,0.6-0.3,0.8c-0.1,0.3-0.3,0.5-0.4,0.8c-0.3,0.4-0.7,0.9-0.9,1.3c-0.1,0.2-0.4,0.3-0.5,0.5
						c-0.1,0.1-0.4,0.3-0.5,0.4c-0.3,0.3-0.7,0.4-0.8,0.5C332.2,58.5,332.1,58.6,332.1,58.6z"/>
				</g>
			</g>
		</g>
		<g>
			<path style="fill:#171724;" d="M226.9,35.8c0,0,5.8,4.4,16.6,3.6c0,0-14.6,1.9-19.7,5.7c0,0,3.9-3.6,8.9-4.7
				C232.7,40.5,227.6,36.9,226.9,35.8z"/>
		</g>
		<g>
			<path style="fill:#171724;" d="M325.7,28.4c0,0-5.5-1.6-9.7-0.4h-0.1c0,0,3.9-2.7,2.8-3.8c0,0,1.3,1,0.4,2.8
				C318.9,27,323.2,27.3,325.7,28.4z"/>
		</g>
		<g>
			<path style="fill:#171724;" d="M270.4,77.7c0,0-0.1-0.1-0.1-0.3c-0.1-0.2-0.3-0.4-0.5-0.7c-0.3-0.3-0.7-0.6-1.1-1
				c-0.5-0.4-1.2-0.8-1.9-1.1c-0.8-0.4-1.7-0.7-2.7-1.1c-1.1-0.3-2.1-0.6-3.5-0.9c-1.2-0.3-2.5-0.5-4-0.7c-1.3-0.2-2.8-0.3-4.3-0.4
				c-1.5-0.1-3-0.2-4.4-0.2c-1.5,0-3-0.1-4.3,0c-1.3,0.1-2.7,0.1-4,0.3c-1.2,0.1-2.4,0.3-3.5,0.4c-1.1,0.2-2,0.4-2.8,0.6
				s-1.5,0.4-2,0.6s-0.9,0.4-1.2,0.5c-0.3,0.1-0.4,0.2-0.4,0.2s0.1-0.1,0.3-0.3c0.1-0.1,0.4-0.4,0.8-0.6c0.4-0.3,0.9-0.6,1.7-0.9
				c0.8-0.3,1.6-0.6,2.7-0.9c1.1-0.3,2.3-0.6,3.6-0.8c1.3-0.2,2.8-0.4,4.3-0.5c1.5-0.1,3.1-0.2,4.7-0.2c1.6,0,3.2,0.1,4.8,0.2
				c1.6,0.1,3.2,0.3,4.7,0.6c1.5,0.3,3,0.6,4.3,0.9c1.3,0.3,2.5,0.8,3.6,1.2c1.1,0.4,2,0.9,2.7,1.4c0.7,0.5,1.2,0.9,1.6,1.4
				s0.5,0.8,0.7,1.1c0.1,0.3,0.1,0.6,0.1,0.8C270.4,77.6,270.4,77.7,270.4,77.7z"/>
		</g>
		<g>
			<path style="fill:#171724;" d="M169.8,67.4c0,0-0.3-0.1-0.5-0.3c-0.4-0.2-0.9-0.5-1.6-0.8c-0.4-0.2-0.8-0.3-1.2-0.6
				c-0.5-0.2-0.9-0.4-1.6-0.6c-1.1-0.4-2.4-0.8-4-1.2c-0.8-0.2-1.6-0.3-2.4-0.5c-0.9-0.1-1.7-0.3-2.7-0.4c-1.9-0.3-3.9-0.4-6-0.6
				c-2.1-0.1-4.3-0.1-6.6,0c-2.1,0.1-4.4,0.3-6.6,0.6c-2.1,0.3-4.3,0.7-6.3,1.1c-2,0.5-3.9,1-5.5,1.6c-1.6,0.6-3.2,1.3-4.4,2
				c-0.7,0.3-1.2,0.7-1.7,1c-0.5,0.4-1.1,0.7-1.5,1.1c-0.8,0.7-1.6,1.4-2,2c-0.3,0.3-0.5,0.6-0.7,0.9c-0.1,0.3-0.3,0.5-0.4,0.8
				c-0.3,0.4-0.4,0.8-0.5,1.1c-0.1,0.3-0.1,0.4-0.1,0.4s0-0.1,0-0.4c0-0.3-0.1-0.6,0-1.1c0-0.3,0.1-0.5,0.1-0.8
				c0.1-0.3,0.3-0.6,0.4-0.9c0.4-0.7,0.8-1.5,1.6-2.2c0.4-0.4,0.8-0.8,1.3-1.2c0.5-0.4,1.1-0.8,1.7-1.2c1.2-0.8,2.8-1.6,4.6-2.3
				c1.7-0.7,3.8-1.3,5.9-1.9c2.1-0.5,4.4-0.9,6.8-1.3s4.8-0.5,7.2-0.6c2.4-0.1,4.8,0,7.1,0.2c2.3,0.2,4.4,0.4,6.4,0.8
				c0.9,0.2,1.9,0.4,2.8,0.6c0.8,0.3,1.7,0.4,2.4,0.7c1.5,0.5,2.8,1,3.9,1.5c0.5,0.3,0.9,0.5,1.3,0.7c0.4,0.3,0.8,0.4,1.1,0.6
				c0.7,0.4,1.1,0.8,1.3,0.9C169.7,67.2,169.8,67.4,169.8,67.4z"/>
		</g>
		<g>
			<path style="fill:#171724;" d="M129.8,50.1c0,0-0.1-0.1-0.5-0.3c-0.3-0.2-0.8-0.4-1.3-0.8c-0.3-0.1-0.7-0.3-1.1-0.5
				c-0.4-0.2-0.8-0.4-1.2-0.6c-0.9-0.4-2-0.8-3.1-1.3c-1.2-0.4-2.5-0.9-4-1.3c-1.5-0.4-3.1-0.8-4.8-1.1c-1.7-0.3-3.5-0.6-5.4-0.9
				c-1.9-0.3-3.8-0.4-5.8-0.5c-2-0.1-3.9-0.1-5.9,0c-1.9,0.1-3.8,0.2-5.6,0.4c-1.7,0.3-3.5,0.5-5,0.8c-0.8,0.1-1.5,0.4-2.1,0.5
				c-0.7,0.2-1.3,0.4-2,0.6c-1.2,0.4-2.3,0.8-3.2,1.2c-0.4,0.2-0.9,0.4-1.3,0.6c-0.4,0.2-0.7,0.4-1.1,0.5c-0.7,0.3-1.1,0.6-1.3,0.8
				c-0.3,0.2-0.5,0.3-0.5,0.3s0.1-0.1,0.4-0.3c0.3-0.2,0.5-0.5,1.1-0.9c0.3-0.2,0.5-0.4,0.8-0.6c0.3-0.2,0.7-0.4,1.1-0.7
				c0.8-0.4,1.7-0.9,3-1.5c0.5-0.3,1.2-0.5,1.9-0.8c0.7-0.3,1.5-0.5,2.3-0.7c1.6-0.4,3.4-0.8,5.4-1.1c1.9-0.3,4-0.5,6-0.6
				c2.1-0.1,4.3-0.1,6.4,0c2.1,0.1,4.3,0.3,6.3,0.6c2,0.3,4,0.7,5.8,1.1c1.7,0.4,3.5,0.9,5,1.4c1.5,0.5,2.8,1.1,3.9,1.6
				s2,1.1,2.8,1.5c0.4,0.3,0.7,0.4,1.1,0.7c0.3,0.3,0.5,0.4,0.8,0.6c0.5,0.4,0.8,0.7,1.1,0.9C129.7,50,129.8,50.1,129.8,50.1z"/>
		</g>
		<g>
			<path style="fill:#171724;" d="M65.5,79.9c0,0-0.3-0.1-0.9-0.1C64,79.6,63,79.5,62,79.3c-1.1-0.3-2.4-0.5-3.8-0.9
				c-0.4-0.1-0.7-0.2-1.1-0.3c-0.4-0.1-0.7-0.3-1.1-0.4c-0.4-0.1-0.8-0.3-1.1-0.4c-0.4-0.2-0.7-0.3-1.1-0.5
				c-1.5-0.7-2.7-1.6-3.8-2.5c-1.1-1-1.9-2.1-2.3-3.3c-0.4-1.2-0.4-2.5-0.1-3.7c0.4-1.3,1.1-2.5,2.1-3.7c1.1-1.2,2.5-2.3,4.3-3.3
				c1.7-1,3.9-1.8,6-2.5c1.1-0.3,2.3-0.6,3.4-0.8c0.5-0.1,1.2-0.2,1.7-0.3l0.8-0.1l0.9-0.1c0.5-0.1,1.2-0.1,1.7-0.2
				c0.5,0,1.1-0.1,1.7-0.1c1.1-0.1,2.1,0,3.2,0c2,0.1,3.9,0.3,5.4,0.5c0.4,0.1,0.8,0.1,1.1,0.2c0.4,0.1,0.7,0.1,1.1,0.2
				c0.7,0.1,1.2,0.3,1.7,0.4c1.1,0.3,1.7,0.5,2.3,0.6c0.5,0.1,0.8,0.3,0.8,0.3s-0.3-0.1-0.9-0.1c-0.5-0.1-1.5-0.3-2.5-0.4
				c-0.5-0.1-1.2-0.1-1.9-0.3c-0.3-0.1-0.7-0.1-1.1-0.1c-0.4,0-0.7-0.1-1.1-0.1c-1.5-0.1-3.2-0.2-5.2-0.2c-0.9,0-1.9,0-3,0.1
				c-0.5,0.1-0.9,0.1-1.5,0.1c-0.5,0.1-0.9,0.1-1.5,0.2l-0.8,0.1l-0.8,0.1c-0.5,0.1-1.1,0.2-1.5,0.3c-0.9,0.3-2,0.5-3,0.8
				c-1.9,0.6-3.6,1.4-5.1,2.3s-2.8,1.9-3.8,3c-0.9,1.1-1.6,2.2-2,3.3c-0.3,1.1-0.4,2.3-0.1,3.3c0.3,1.1,0.8,2.1,1.6,3
				c0.8,0.9,1.9,1.8,3.1,2.5c0.3,0.2,0.5,0.3,0.8,0.5c0.3,0.2,0.7,0.3,0.9,0.4c0.3,0.1,0.5,0.3,0.9,0.4c0.3,0.1,0.7,0.3,0.9,0.4
				c1.2,0.5,2.3,0.8,3.2,1.1c0.9,0.3,1.7,0.4,2.3,0.6C65.2,79.8,65.5,79.9,65.5,79.9z"/>
		</g>
		<g>
			<path style="fill:#171724;" d="M541.3,53.2c0,0,0-0.1,0-0.3s0.1-0.4,0.1-0.7s0.3-0.7,0.3-1.1c0-0.4,0.1-0.9,0.1-1.4
				c0-0.3-0.1-0.5-0.1-0.8c0-0.1,0-0.3,0-0.4c0-0.1-0.1-0.3-0.1-0.4c-0.1-0.3-0.1-0.6-0.3-0.9c-0.1-0.3-0.4-0.6-0.5-0.9
				s-0.4-0.6-0.7-0.9c-0.3-0.3-0.5-0.6-0.9-0.8c-0.4-0.3-0.7-0.6-1.1-0.8l-1.3-0.7l-1.5-0.6c-0.5-0.2-1.1-0.3-1.6-0.5
				c-0.5-0.2-1.2-0.3-1.7-0.4l-0.9-0.2c-0.3-0.1-0.7-0.1-0.9-0.1c-0.7-0.1-1.2-0.2-1.9-0.3c-0.7-0.1-1.2-0.1-1.9-0.1
				c-0.5-0.1-1.2-0.1-1.7-0.1c-0.5,0-1.2,0-1.7-0.1c-1.1,0-2.1,0.1-3,0.1c-0.9,0-1.7,0.1-2.3,0.1c-0.7,0.1-1.2,0.1-1.5,0.1
				c-0.4,0-0.5,0-0.5,0s0.1-0.1,0.5-0.1c0.3-0.1,0.8-0.2,1.5-0.3c0.7-0.1,1.3-0.3,2.3-0.4c0.9-0.1,1.9-0.3,3.1-0.4
				c0.5-0.1,1.2-0.1,1.9-0.1c0.7-0.1,1.3-0.1,2-0.1s1.3,0,2.1,0.1c0.7,0.1,1.5,0.1,2.1,0.2c0.4,0.1,0.8,0.1,1.1,0.1
				c0.4,0.1,0.7,0.1,1.1,0.2c0.7,0.1,1.5,0.3,2.1,0.4c0.7,0.2,1.5,0.4,2,0.6l1.9,0.8c0.5,0.3,1.1,0.6,1.6,0.9c0.5,0.3,0.8,0.6,1.3,1
				c0.4,0.3,0.7,0.7,0.9,1c0.3,0.4,0.5,0.7,0.7,1.1c0.1,0.4,0.3,0.7,0.4,1c0,0.3,0,0.7,0.1,1c0,0.2,0,0.3,0,0.4s0,0.3-0.1,0.4
				c-0.1,0.3-0.1,0.6-0.3,0.9c-0.1,0.6-0.5,1-0.7,1.5c-0.1,0.4-0.5,0.8-0.8,1.1s-0.5,0.5-0.7,0.7C541.3,53.2,541.3,53.2,541.3,53.2z
				"/>
		</g>
		<g>
			<path style="fill:#171724;" d="M459.2,83.8c0,0-0.1-0.1-0.4-0.3s-0.5-0.5-0.9-0.9c-0.3-0.2-0.5-0.4-0.8-0.6
				c-0.3-0.2-0.7-0.4-0.9-0.6c-0.7-0.4-1.6-0.9-2.7-1.5c-0.5-0.3-1.1-0.5-1.7-0.8c-0.7-0.3-1.2-0.5-1.9-0.7c-1.3-0.4-3-0.9-4.6-1.3
				c-1.6-0.4-3.4-0.7-5.2-0.9s-3.8-0.4-5.6-0.5c-1.9-0.1-3.9-0.1-5.8,0c-1.9,0.1-3.8,0.3-5.5,0.5c-1.7,0.3-3.4,0.6-4.7,1
				c-0.7,0.2-1.3,0.4-2,0.6c-0.5,0.3-1.2,0.4-1.7,0.7c-1.1,0.4-2,0.9-2.7,1.4c-0.4,0.3-0.7,0.4-0.9,0.6s-0.5,0.4-0.8,0.6
				c-0.5,0.4-0.8,0.6-0.9,0.9c-0.3,0.2-0.4,0.3-0.4,0.3s0-0.1,0.1-0.3c0.1-0.2,0.3-0.6,0.5-0.9c0.1-0.2,0.3-0.4,0.5-0.7
				c0.3-0.3,0.5-0.5,0.8-0.8c0.5-0.5,1.3-1.1,2.4-1.7c0.5-0.3,1.1-0.6,1.7-0.9c0.7-0.3,1.3-0.6,2.1-0.8c1.5-0.5,3.2-0.9,5.1-1.3
				c1.9-0.3,3.9-0.6,6-0.8c2.1-0.1,4.3-0.1,6.4-0.1c2.1,0.1,4.3,0.3,6.3,0.6c2,0.3,3.9,0.7,5.6,1.1c1.7,0.4,3.4,1,4.7,1.6
				c0.7,0.3,1.3,0.6,1.9,0.9c0.5,0.3,1.1,0.6,1.6,0.9c0.9,0.6,1.7,1.2,2.3,1.7c0.3,0.3,0.5,0.5,0.8,0.8c0.1,0.3,0.4,0.4,0.5,0.7
				c0.3,0.4,0.4,0.8,0.5,0.9C459.2,83.6,459.2,83.8,459.2,83.8z"/>
		</g>
		<g>
			<path style="fill:#171724;" d="M516,67.2c0,0-0.1-0.1-0.3-0.3c-0.3-0.2-0.4-0.5-0.9-0.9c-0.3-0.2-0.4-0.4-0.7-0.6
				c-0.3-0.2-0.7-0.4-0.9-0.6c-0.4-0.2-0.8-0.4-1.2-0.6s-0.9-0.4-1.5-0.6c-1.2-0.4-2.4-0.8-3.9-1.2c-1.5-0.4-3.1-0.6-4.8-0.9
				c-1.7-0.3-3.5-0.4-5.4-0.5c-1.9-0.1-3.8-0.1-5.6-0.1c-1.9,0.1-3.8,0.2-5.5,0.4c-1.7,0.3-3.5,0.5-5.1,0.9c-1.5,0.4-3,0.8-4,1.4
				c-0.7,0.3-1.1,0.6-1.5,0.8c-0.4,0.3-0.8,0.6-1.2,0.9c-0.7,0.6-1.1,1.2-1.3,1.7c-0.3,0.6-0.4,1-0.5,1.5c-0.1,0.4,0,0.8,0,0.9
				c0,0.3,0,0.3,0,0.3s0-0.1-0.1-0.3s-0.3-0.5-0.4-0.9c-0.1-0.4-0.3-0.9-0.1-1.5c0-0.6,0.3-1.3,0.8-2c0.3-0.4,0.7-0.7,1.1-1.1
				c0.5-0.3,0.9-0.7,1.6-1c1.2-0.7,2.7-1.3,4.4-1.8c1.7-0.5,3.6-0.9,5.6-1.2c2-0.3,4.2-0.4,6.2-0.5c2.1-0.1,4.2,0,6.3,0.1
				c2,0.1,4,0.4,5.9,0.7s3.6,0.7,5.1,1.2c1.6,0.4,2.8,1,3.9,1.5c0.5,0.3,1.1,0.6,1.5,0.8c0.4,0.3,0.8,0.6,1.1,0.8s0.5,0.5,0.8,0.8
				c0.3,0.3,0.4,0.4,0.5,0.7c0.3,0.4,0.4,0.8,0.5,0.9C515.8,67,516,67.2,516,67.2z"/>
		</g>
	</g>
	<path id="cloud_border" style="fill:#171724;" d="M556.7,66.1c-0.1-0.1-0.4-0.2-0.5-0.4c0.1-0.1,0.4-0.2,0.5-0.2
		c5.9-2.8,9.3-6.5,9.3-10.4c0-3.6-2.8-7.1-8-9.9c-4.6-2.4-10.7-4.1-17.4-4.8c1.5-1.5,2.1-3.1,2.1-4.8c0-3.3-2.8-6.4-8-8.7
		s-12.1-3.6-19.4-3.6c-14.4,0-26.3,5-27.4,11.3c-3.9-0.5-7.9-0.9-11.9-0.9c-8.2,0-16.1,1.2-22.8,3.3c-6.2,2-11,4.7-13.8,7.9
		c-5.5,0.4-10.6,1.4-14.9,3c-0.5,0.2-1.2,0.5-1.7,0.7c-1.1-1.9-3.2-3.7-6-5.2c-5.6-3-13.8-4.7-22.4-4.7c-7,0-13.8,1.2-19,3.2
		c-3.1,1.2-5.6,2.7-7.5,4.4c-0.1-0.1-0.3-0.1-0.4-0.2l0,0l0,0c-3-1.6-7.2-2.5-11.8-2.5c-3,0-5.8,0.4-8.2,1.1c-0.7-1.9-2.4-3.7-5-5.3
		c-2.8-1.7-6.6-3-10.9-3.9c1.1-1,1.5-2.1,1.5-3.3c-0.3-3.2-5-5.8-11.4-6.7c0-0.2,0-0.4,0-0.6c-0.1-2-3-3.8-7-4.5
		c0.7-0.9,1.1-1.9,0.9-2.9c-0.1-2.2-2-4.2-5.4-5.8c-2.8-1.3-6.3-2.1-10.1-2.3c0.1-0.4,0.3-0.7,0.1-1.1c0-0.7-0.4-1.3-0.9-1.8
		c-1.7-0.2-2.7-0.9-3-1.6c0.3,0.2,0.4,0.4,0.7,0.6c0.1,0.1,0.3,0.2,0.3,0.2s0-0.1-0.1-0.2c-0.1-0.1-0.1-0.4-0.3-0.7
		c-0.1-0.1-0.1-0.3-0.3-0.4c-0.1-0.2-0.3-0.3-0.5-0.5c-0.4-0.4-0.9-0.7-1.6-1.2c-0.7-0.4-1.5-0.8-2.5-1.2c-1.1-0.4-2.1-0.7-3.5-0.9
		c-1.3-0.2-2.7-0.4-4.2-0.5c-1.5-0.1-3-0.1-4.4-0.1c-1.5,0.1-3,0.2-4.4,0.5c-1.3,0.2-2.7,0.5-3.8,1c-1.1,0.4-2.1,0.9-2.8,1.3
		c-0.1,0.1-0.4,0.2-0.5,0.4c-0.1,0.1-0.3,0.2-0.5,0.4c-0.3,0.2-0.5,0.5-0.8,0.7c-0.3,0.4-0.5,0.7-0.8,1c-1.9,0.9-3.1,2.1-3.1,3.4
		c-8.3,0.4-14.6,3.7-14.2,7.5c0.1,0.9,0.5,1.8,1.2,2.6c-3.1,1.2-4.8,2.9-4.7,4.8c0,0.1,0,0.2,0,0.4c-0.8-0.1-1.6-0.1-2.5-0.1
		c-0.1,0-0.3,0-0.4,0c-5,0.1-9.5,1-12.9,2.6c-3.4,1.6-5.2,3.7-5.1,6c0.1,2.6,2.8,4.9,7.1,6.5c-4.6,1.3-8,3.3-9.7,5.6l-0.1-0.1
		l-2.3,1c-0.3,0.1-0.4,0.2-0.7,0.2c-4.6-0.8-9.4-1.2-14.4-1.2c-6.8,0-13.5,0.8-19.4,2.3c-4.3,1.1-8,2.5-11.1,4.2
		c-3.5-8.3-19.7-14.6-38.9-14.6c-7.4,0-14.5,0.9-20.7,2.7c-2.8-3-7.4-5.6-13.4-7.6c-6.7-2.2-14.8-3.3-23.1-3.3
		c-9.4,0-18.4,1.5-25.6,4.3c-6.8,2.6-11.5,6.2-13.3,10.2c-7.2,2.5-12.3,6.1-14.5,10c-6.8,1.3-12.7,3.5-17,6.3c-5,3-7.4,6.5-7.4,10.2
		c0,3.3,2,6.6,5.9,9.5c3.8,2.7,9.1,5,15.4,6.5l0.4,0.1h533.5l0.5-0.4c3.6-2.4,5.5-5.3,5.5-8.3c0-0.4,0-0.8-0.1-1.3
		c0.1-0.5,0.1-0.9,0.1-1.3C561.3,71,559.7,68.4,556.7,66.1z M559.4,76.3c0,2.9-1.9,5.5-5.2,7.8H22.4C10.3,81.2,2,75.5,2,68.9
		c0-7.2,9.8-13.3,23.7-15.9c2-4.1,7.2-7.8,14.6-10.2c3.2-8,18.5-14.1,37-14.1c16.4,0,30.3,4.8,35.5,11.3c6.2-1.9,13.5-3.1,21.7-3.1
		c19.2,0,35,6.5,37.4,14.9c0.1,0.4,0.1,0.8,0.3,1.2c0.5-0.4,1.1-0.7,1.6-1c6.8-4.2,17.8-6.9,30.3-6.9c4.8,0,9.5,0.4,13.8,1.2
		c0.1,0.1,0.4,0.1,0.5,0.1c0.7-0.1,1.2-0.3,1.7-0.5c0.1-0.1,0.1-0.1,0.3-0.1v0.1c0.1,0.3,2.1,0.1,2.3-0.1c0.4-0.9,1.1-1.8,2-2.7l0,0
		c2.3-1.9,5.9-3.5,10.3-4.3c-2.5-0.6-4.8-1.5-6.4-2.6l0,0c-0.5-0.4-1.1-0.8-1.3-1.2l0,0c-0.1-0.1-0.1-0.2-0.3-0.2l0,0
		c-0.7-0.8-0.9-1.6-1.1-2.4c-0.1-4.1,7.1-7.6,16.1-7.6c0.1,0,0.3,0,0.3,0c1.5,0,3,0.1,4.3,0.2c0.3,0.1,0.5,0.1,0.8,0.1
		c-0.4-0.5-0.5-1-0.5-1.6c0-0.7,0.3-1.4,0.8-2l0,0c0.8-0.9,2.1-1.7,3.8-2.3c0.1-0.1,0.4-0.1,0.5-0.2c-1.1-0.9-1.6-1.8-1.7-2.9
		c-0.1-1,0.3-1.9,1.1-2.7l0,0c1.9-2.1,6-3.6,11.1-3.8l0,0c0.4,0,0.8-0.1,1.3-0.1c0.1,0,0.1,0,0.3,0c0.3,0,0.4,0,0.7,0
		c-0.1-0.2-0.1-0.4-0.1-0.6c0-0.4,0-0.7,0.3-1.1c0-0.1,0.1-0.3,0.3-0.5c0.1-0.1,0.4-0.4,0.5-0.6c0.3-0.2,0.4-0.6,0.8-0.9
		c0.3-0.4,0.8-0.7,1.2-1.2c0.3-0.2,0.5-0.4,0.9-0.6c0.1-0.1,0.3-0.2,0.5-0.3c0.1-0.1,0.4-0.2,0.5-0.3c0.8-0.4,1.7-0.7,2.7-1
		c1.1-0.3,2.1-0.5,3.4-0.8c1.2-0.2,2.5-0.3,3.9-0.4c1.3-0.1,2.7-0.1,3.9,0c1.3,0.1,2.5,0.2,3.8,0.4c1.2,0.2,2.3,0.4,3.2,0.7
		c0.9,0.2,1.9,0.6,2.5,0.9s1.3,0.7,1.9,1c0.3,0.2,0.4,0.3,0.7,0.4c0,0.1,0.1,0.1,0.1,0.1c-0.7-0.2-1.5-0.5-2.3-0.7
		c-0.4,0.1-1.3-0.1-1.7,0c1.6,0.2,3.8,0.9,4.2,1.5c1.6,0.7,2.1,1.8,2.1,2.9c0,0.4-0.1,0.9-0.4,1.3c-0.1,0.2-0.3,0.4-0.5,0.6
		c0.5,0,0.9,0,1.5,0.1c5.5,0.2,10.3,1.8,12.7,4l0,0c1.2,1,1.9,2.1,1.9,3.3c0,1.2-0.5,2.4-1.7,3.4c0.4,0,0.8,0.1,1.2,0.1
		c2.7,0.4,4.8,1.2,5.8,2.4l0,0l0,0l0,0l0,0l0,0c0.4,0.4,0.5,0.9,0.7,1.4c0,0.1,0,0.2,0,0.4l0,0l0,0v0.1c0,0.2-0.1,0.5-0.3,0.8
		c0,0,0.1,0,0.3,0c1.3,0.1,2.5,0.3,3.8,0.5l0,0c0.9,0.2,1.7,0.5,2.5,0.8l0,0l0,0c3,1.1,5,2.8,5.1,4.7c0.1,1.2-0.5,2.4-1.9,3.3
		c-0.1,0.1-0.3,0.2-0.4,0.4c4.2,0.7,7.8,1.8,10.7,3.3l0,0c3.4,1.7,5.5,3.8,6.2,6.3l0,0c0.1,0.4,0.1,0.7,0.1,1
		c0.3-0.2,0.7-0.3,0.9-0.4c0.1-0.1,0.3-0.1,0.4-0.1c2.5-0.9,5.5-1.3,8.4-1.3c3.9,0,7.6,0.7,10.3,2.2c0.8,0.4,1.3,0.9,1.9,1.3
		c0.1,0.1,0.3,0.2,0.4,0.4l0,0l0,0c0.1-0.1,0.1-0.2,0.3-0.4c1.6-2,4.3-3.8,8-5.3c5.2-2,11.5-3,17.8-3c3.2,0,6.3,0.2,9.3,0.7
		c0.1,0,0.1,0,0.3,0.1c0.1,0,0.1,0,0.1,0.1c0.1,0,0.4,0.1,0.5,0.1l0,0c0,0,0,0,0.1,0l0,0c1.1,0.2,2.1,0.4,3.2,0.7l0,0l0,0
		c2,0.5,3.9,1.2,5.6,1.9l0,0c0.5,0.2,1.1,0.5,1.6,0.8c1.7,0.9,3.2,1.9,4.2,3l0,0c0.8,0.8,1.3,1.6,1.7,2.4c0.1,0.2,0.3,0.5,0.3,0.8
		c0,0.1,0.1,0.3,0.1,0.4l0,0l0,0c0.1-0.1,0.3-0.2,0.5-0.3c0.1-0.1,0.3-0.1,0.4-0.2c0.1-0.1,0.4-0.2,0.5-0.3c0.8-0.4,1.7-0.9,2.7-1.2
		c4.4-1.7,9.7-2.7,15-2.9c0.1-0.2,0.3-0.4,0.4-0.5c5.6-6.2,19.2-10.5,34.7-10.5c4.8,0,9.5,0.4,13.8,1.2c0-0.1,0-0.2,0-0.2
		c0-6.3,11.4-11.4,25.5-11.4c14.1,0,25.5,5.1,25.5,11.4c0,1.7-0.8,3.3-2.3,4.8c-0.3,0.2-0.5,0.4-0.7,0.7c0.8,0.1,1.7,0.1,2.5,0.2
		c13.7,1.5,24,7.1,24,13.7c0,3.5-2.8,6.7-7.5,9.1c-0.9,0.5-1.9,1-3,1.4c0.9,0.6,1.9,1.3,2.5,1.9c2,1.9,3.2,4,3.2,6.2
		c0,0.4,0,0.9-0.1,1.3C559.3,75.4,559.4,75.9,559.4,76.3z"/>
</g>
</svg>
