<?xml version="1.0" encoding="utf-8"?>
<!-- Generator: Adobe Illustrator 22.1.0, SVG Export Plug-In . SVG Version: 6.00 Build 0)  -->
<svg version="1.1" id="Слой_1" xmlns="http://www.w3.org/2000/svg" xmlns:xlink="http://www.w3.org/1999/xlink" x="0px" y="0px"
	 viewBox="0 0 239.7 163.5" style="enable-background:new 0 0 239.7 163.5;" xml:space="preserve">
<style type="text/css">
	.st0{fill:#FFFFFF;}
	.st1{fill:#BCBEC0;}
	.st2{fill:#FF5722;}
	.st3{fill:#171724;}
</style>
<title>svg_flying_man</title>
<g id="_x37_e912b9e-5ff6-44cb-9df5-5cb8a16f8d3e">
	<g id="_x39_6c87d8b-055e-4a93-9775-45c9e1e703db">
		<path class="st0" d="M217.6,133.9c-9.8-3.6-15.7-10.1-22.7-17.9c-3.2-3.6-6.4-7.2-9.6-10.8l1.4,1.5c2.6,2.3,14.6,1.2,21-5.2
			c2.2-1.2,2.6-4.2,4.9-5.3c3.1-1.5,6-3.3,8.6-5.5c5.3-4.4,9.5-9.9,12.3-16.2c3-6.8,4-8,5.1-15.2c1.6-10.4-2.3-19.1-5.2-26
			c-4-7.6-9.4-14.4-15.8-20.2c-6.6-5.9-15.2-9.2-23.9-11.1c-6.6-1.4-13.6-1.8-20.1-0.2c-9.9,2.5-19.5,9-26.9,15.9
			c-1.8,1.7-3.7,3.6-4.8,5.7c-3.9-1.2-9.6-3-12.8-3.5c-8.1-1.2-16.7-0.5-23.3,5.2c-4,3.5-8.3,6.9-11.7,11c-1.4,1.9-3,3.6-4.7,5.2
			c-2.2,2-1.8,6.9-7.3,5.4c-2.8-0.8-6.1-2.4-8.6-3.7c-2.7-1.3-5.3-2.8-7.8-4.3c-0.7-0.4-1.5-0.9-2.2-1.3l-10.6-8.1
			c-2.8-2.1-6.4-6-10.3-4.4c-2.9,1.1-3.2,4.3-3.2,7.2c0,4.1,1.5,8,4.1,11.1c3.5,4.1,6.3,9.2,9.9,13.2c3.4,3.7,15.3,11.9,15.2,12.1
			c-0.9,0.4-21,17.3-10,31.2c-2.2,4.7-11.9,9.7-18,10.3c1.2-2.2,1.1-3.7,1.2-6.2c0.1-2.9-0.3-7.4-1.2-10.2c-1.3-3.8-5.3-6.1-9.2-6.5
			c-4.9-0.4-9.7,0.5-14.1,2.8c-5,2.6-9.6,6.1-13.4,10.4c-2.5,3-3.9,6.8-2.5,10.6c1.6,4.1,4.9,4.9,8.9,4.8c1.4,0,2.7,0.1,4.1,0.3
			c0.3,1.2,0.4,4.4,0.5,5.6c0.2,2.3,0.6,4.6,1,6.9c0.9,4.1,2.4,8.2,5.1,11.5c4.5,5.4,10.5,6.3,16.9,6.1c-0.3,1,1.2,2.5,1.5,3.5
			c1.7,5.5,7.9,8.8,12.8,11c6,2.8,12.7,2.8,19.2,1.7c8.7-1.4,16.9-1.6,24.7-5.7c6.8-3.6,10.9-0.7,17.9-1.8
			c10.1-1.7,21.2-5.9,29.6-10.7c3-1.7,17.7-10.7,22.3-17.6c2.5-3.7,1.8,2.3,12.8,9.3c16,10,31.3,17.9,50.7,15.6c0.8-0.1,7-3.2,7-4
			C236.2,142.5,223.4,136,217.6,133.9z"/>
		<path class="st1" d="M151.5,133.7c0,0-9.4,6.8-19.1,10.3c-7,2.7-14.4,4.2-21.9,4.6c-3.6,0.1-7.1,0.1-10.7-0.2
			c-3.6-0.2-7.5-0.4-10.8-2c-2.9-1.4-5-2.9-7.7-4.7c-3.1-2-7.5-6.5-11.6-6.6c-2.1,0,1.8,3.5,2.6,4c-0.1,0-0.2,0-0.3,0
			c-2.4,0.1-5,1.4-7.4,2c-2.5,0.6-4.9,1.2-7.4,1.7c-4.2,0.8-8.4,1.5-12.6,1.9c-2.6,0.1-5.2,0.4-7.7,0.8c-1.6,0.3,6.3,2.3,8.2,2
			c7.4-0.1,15,1.9,22.2,3.2c8.9,1.6,20.1,5.4,30.6,4.4c0.5,0,13.7-0.5,17.5-1.4c18-4.5,28.6-9.9,30.2-10.8
			c2.4-1.3,10.3-6.5,10.3-6.5L151.5,133.7z"/>
		<path class="st1" d="M205.6,143.8c-2.4-0.8-8.5-2.8-10.7-4c-1.9-1-16.8-6.7-16.6-13.1c0.1-3.1,2-6.1,3.3-8.8
			c1.4-2.8,6.3-10.5,4.7-11.2c-2.3-0.9-8.3-3.7-8.6-3.2c-4.1,7.5-9.3,14.4-15.4,20.4c-0.5,0.5-0.6,1.2-0.3,1.7
			c1.1,2.6,3.4,1.7,5.5,0.1c0.9,1.8,2.8,3.4,4.1,4.5c7.9,6.7,16.7,11.5,26.1,15.9c5.1,2.2,10.4,4,15.9,5.4
			C216,152.1,208.2,144.8,205.6,143.8z"/>
		<path class="st1" d="M180.2,106c-10.8-4.7-19.6-13.1-24.8-23.7c-0.8-1.7-3.4-0.3-2.5,1.4c5.4,11.1,14.6,19.8,25.8,24.8
			C180.4,109.2,181.9,106.7,180.2,106z"/>
		<path class="st1" d="M101,77.2c-5.5-2.6-13.3-4.1-18.8-6.7c-5.2-2.4-10.5-4.7-15.4-7.7c-5-3.1-16.6-11.5-15.6-10.3
			c3.5,4.2,10.4,9,14.7,12.5c4.7,3.7,7.4,5.6,12.8,8.1c0.7,0.3-15.3,14.8-16.9,15.7c-0.8,0.4-2.4,0.2-3.3-0.4
			c-0.6-0.4-1-2.7-1.2-3.3c-0.5-1.6-1.8-2-1.9-0.4c-0.3,4.5-1.9,10.4,2.1,14.5c0.2,0.2,2.6-1.4,5.9-3.9c-2.5,2-9.5,9.1-13.9,11.8
			c-1.6,1,4.9,2.5,16.2-6.5c4-3.1,20.5-12,25.2-14.2c7.6-3.6,18.9,3,18.6,1.1C108.7,81.2,102,77.7,101,77.2z M84,79.5
			c1.2-1,2.2-1.8,2.9-2.4c0.4,0.2,0.7,0.3,1.1,0.5C87.2,77.6,85.8,78.4,84,79.5L84,79.5z"/>
		<path class="st1" d="M131.9,42.5c-3-0.8-6.5-2.8-8-5.5c-1.6-2.8-1.9-6.1-3-9.1c-0.9-2.3-2.1-4.4-3.6-6.2c-1.8-2.1-5.4-0.2-5.4-0.2
			c-1.2-0.1-2.1,1.8-0.8,2.8c2.2,1.7,0.6,5.8,0,8c-0.6,2.3-1.4,4.6-2.3,6.8c-1.9,4.5-5.1,8.6-10.1,9.6c-1.4,0.3-1.5,2.5,0,2.8
			c9.3,1.9,17.9,3.3,26.9,6.2C126.2,57.8,132.8,42.7,131.9,42.5z"/>
		<path class="st2" d="M39.7,26c-3.9,4,5.6,24.2,8.8,24.7c7,1.2,14.6-8.2,15.3-12.5C64.1,36.6,45.6,19.9,39.7,26z"/>
		<path class="st2" d="M236,146.5c0.4-4.3-15.2-12.1-17.4-10.9c-4.9,2.6-4.9,12-3.3,15C215.9,151.6,235.4,153,236,146.5z"/>
		<path class="st2" d="M40.9,97.4c-2.3-7.5-5-9.3-10.1-10.1c-4.3-0.7-8.6,0.8-12.5,2.4c-4.1,1.7-18.6,14.6-17.9,18.2
			c1.4,6.8,13.1,9.4,13.1,6.3c0-4,1.8-12.2,4.1-13.9C26.9,93.4,41.4,99,40.9,97.4z"/>
		<polygon class="st2" points="154,117.7 165.3,127.5 156.2,135.4 143,126.3 		"/>
		<path class="st2" d="M153.4,117.1l-11.1,9.3c0,0-17.5-16.2-16.9-22.6c0.6-6.4,3.5-12.7,6.4-11.6s8.7,11,10.5,13.3
			C144.1,107.8,153.4,117.1,153.4,117.1z"/>
		<path class="st3" d="M14.5,107.6c0.6-1.1-0.6-2.8-2-1.9c-0.8,0.5-1.4,1.2-2.1,1.7c-0.8,0.5-1.8,0.9-2.8,1.1
			c-0.8,0.2-1.5,0.4-2.3,0.7c-0.5,0.2-1.6,1.2-2.1,1.3c-0.8,0-1.5,0.7-1.4,1.5c0,0.2,0.1,0.5,0.2,0.7c0.8,1.2,2.4,1.5,3.7,1.9
			c1.7,0.4,3.5,0.6,5.3,0.7c1.2,0.1,2.4,0.2,3.1-1.1c0.7-1.5,0.5-3.9,0.6-5.6C14.8,108.1,14.7,107.9,14.5,107.6z"/>
		<path class="st3" d="M229.1,80.7c-1.1,2-3.8,4.3-5.6,6c-1.9,1.8-3.8,3.5-5.7,5.3c-0.8,0.8-1,3.3-0.2,2.5c2.4-2.1,5.9-4.8,8.2-6.9
			c2.4-2.5,4.5-5.2,6.4-8.1c1.9-3.1,3.5-6.4,4.8-9.9c1.6-4.7,2.2-9.6,2.7-14.5c0.6-6.9-1.1-13.8-3.9-20.1c-2.9-6.4-7-11.6-8.7-13.9
			C219.1,10.6,205.7,3.3,193,0.9c-9.1-1.8-18.6-0.8-27.1,2.9c-8.8,3.7-16.4,8.8-22.1,16.6c-0.7,0.9-1.3,1.9-2,2.8c0,0,0,0,0,0
			c-12.2-4.2-26.6-8.5-37.4,1.3c-3.6,3.3-7,6.9-10.4,10.5c-3.3,3.6-6.7,7.3-9.2,11.5c-4.9-1.5-9.5-4.3-13.9-6.7
			c-3.5-1.9-7-3.9-10.3-6.1c-2.1-1.5-4-3.2-6-4.9c-3.4-2.8-11.3-8.3-15.3-3.3c-1.8,2.3-1.2,6-0.6,8.6c0.8,3.9,2.3,7.7,4.3,11.2
			c3.4,5.5,8.9,10.3,13.6,14.7c3.1,3,6.5,5.7,10,8.1c0.2,0.1,0.4,0.2,0.6,0.3c-8.2,8.2-19.3,20.7-9.7,31.8c0,0,0,0,0.1,0.1
			c-1.4,1.7-3,3.2-4.7,4.6c-3.2,2.2-6.8,3.5-10.6,3.9c0.4-4.3,0.1-8.7-0.9-12.9c-0.6-2.4-1.4-5-3.2-6.7c-2.3-2.1-5.9-2.9-9-3.1
			c-7.3-0.3-14.3,3.5-19.7,8.1c-3.9,3.2-8.6,7.6-9.3,12.8c-1.1,7.5,7,9.6,12.9,9.3c0.2,0,1.5,11,3.4,16.2c1.5,4,3.7,7.8,7.1,10.4
			c3.7,2.9,8.5,3.8,13.2,4.1c0.2,0,0.4,0,0.5,0c1.9,4.9,5.8,9.3,9.9,12.4c5.4,4.1,11.8,4.3,18.4,4.2c11.9-0.3,25-2.8,35.8-8.1
			c3,0.5,6.1,0.6,9.2,0.4c10.7-0.8,20.9-4.4,30.3-9.3c9.4-4.9,18.9-11.2,26.2-18.9c0-0.1,0.1-0.1,0.1-0.2c8.7,8,18.7,14.4,29.6,18.8
			c5.8,2.4,11.8,4.2,17.9,5.4c5.5,1.1,12.7,2.4,18-0.1c2.7-1.3,6.3-4.7,4.2-7.9c-1.8-2.8-6.1-4.5-9-5.7c-6.7-2.8-13.5-6-19.4-10.1
			c-8-5.6-13.5-13.8-20.2-20.8c-0.5,0.4-1.1,0.6-1.7,0.5c-0.1,0-0.1,0-0.2,0c5,5.3,9.3,11.3,14.5,16.3c4.8,4.6,10.3,7.8,16,10.9
			c-1.8,1.7-3,3.5-3.3,6.1c-0.4,2.9-0.1,5.9-0.1,8.8c-4.5-1-8.9-2.3-13.2-3.9c-11.9-4.4-22.7-11.1-32-19.7
			c5.2-5.9,9.1-12.7,13.5-19.2c0.6-0.9-0.9-1.8-1.5-0.9c-3.9,5.8-7.3,11.7-11.7,17.1c-0.6,0.7-1.2,1.4-1.8,2.1
			c-0.4,0.1-0.7,0.4-0.8,0.8c-0.1,0.1-0.2,0.2-0.3,0.3l-10.9-9.5c2-2.1,3.9-4.4,5.5-6.9c2.5-3.9,5.3-7.6,6.6-12
			c0.3-1.1-1.4-1.5-1.7-0.5c-1.5,4.8-4.7,9.1-7.5,13.2c-1.3,1.8-2.7,3.5-4.2,5.1l-5.5-4.7c-5.3-4.8-8.3-11.6-12.8-17
			c-1.2-1.4-2.3-2.7-4.3-2.2c-2.8,0.7-4.5,3.4-5.3,6c-2.5,8,2.1,14.4,7.1,20.1c2.6,3,5.4,5.7,8.4,8.3c-4.4,2.9-9,5.4-13.8,7.7
			c-6.8,3.4-14.1,5.1-21.6,6.2c-3.6,0.5-7.2,0.8-10.9,0.9c-1.8,0.1-3.9,0.3-5.7-0.2c-1.1-0.3-1.6,1.4-0.5,1.7
			c3.6,0.9,8,0.2,11.6-0.1c6.7-0.5,13.3-1.7,19.7-3.6c5.3-1.7,10.2-4.3,15.1-7c2.5-1.4,5-2.9,7.4-4.5c2.2,1.8,4.5,3.5,6.9,5.1
			c1.4,0.9,2.9,1.9,4.3,2.7c0.3,0.2,0.6,0.4,1,0.7c-3.1,2.3-6.4,4.4-9.7,6.3c-9,5.3-18.8,9.5-29.1,11.3c-9.7,1.7-19.7,0.2-28.4-4.5
			c-6.6-3.5-12.2-8.1-17.7-13c-0.8-0.7-2.1,0.5-1.2,1.2c0.9,0.8,1.8,1.6,2.7,2.3c-9.2,2.4-18.4,4.9-28,5.6c-1.7,0.1-3.3,0.2-5,0.1
			c-0.3-0.3-0.9-0.3-1.2,0c-7.3-0.4-14-2.8-17.7-10.1c-3.5-6.9-4.1-15.1-4.2-22.7c0-3.3-0.4-7.1,1.5-9.7c4.9-6.9,16.3-5.5,23.4-4.1
			c0.7,3.4,0.8,6.9,0.3,10.4c-2.3,0.2-4.6,0.2-6.8,0.1c-1.1-0.1-1.1,1.7,0,1.7c2.4,0.1,4.9,0.1,7.3-0.1c0.3,0.2,0.7,0.1,0.9-0.1
			c3.7-0.3,7.4-1.5,10.6-3.4c3.7-2.3,6.2-5.6,9.1-8.8c3.5-3.8,7.8-6.9,11.7-10.2c1.8-1.5,3.6-3.1,5.5-4.6c3.3-2.5,7.1-4.3,10.7-6.2
			c0.1,0,0.1-0.1,0.2-0.1c2.6,0.8,5.2,1.6,7.7,2.5c5.1,1.8,8.9,3.7,12.5,7.7c0.8,0.8,2-0.4,1.2-1.2c-2.4-2.6-4.6-4.6-7.9-6.1
			c-4-1.7-8.2-3.1-12.4-4.3c-8.7-2.6-17.8-5.1-25.2-10.5c-5.3-4-10.3-8.4-14.7-13.3c2.8-1.1,5.6-2.4,7.9-4.3c2.9-2.4,4.4-5.8,6-9.1
			c0-0.1,0.1-0.1,0.1-0.2c1.6,0.9,3.2,1.8,4.8,2.7c4.9,2.7,10.2,5.9,15.6,7.3c4.1,1.1,8.4,1.8,12.5,2.7c6,1.3,12,2.8,18,4.4
			c0.2,0.2,0.5,0.3,0.8,0.2c1.2,0.4,2.4,0.7,3.7,1.1c6.8,2.1,14.3,4.4,20,8.8c0.9,0.7,2.1-0.5,1.2-1.2c-4.2-3.2-9.2-5.3-14.3-7.1
			c4.4-10.2,8.1-20.9,14.1-30.3c5.3-8.3,11.4-14.8,20.3-19.3c8.6-4.4,17.2-6.7,26.9-5.7c8.5,1,16.7,4,23.8,8.9
			c3.2,2.3,6.2,4.9,8.9,7.7c3.4,3.3,6.4,6.7,8.7,10.9c1.9,3.4,3.5,6.8,4.8,10.4c2.3,6.1,3.4,12.3,2,18.9
			C235.1,67.4,234.5,70.8,229.1,80.7z M215.3,142.8c0.1-3.2,1-5.1,3.3-7.2c0.1,0.1,0.3,0.1,0.4,0.2c2.6,1.4,5.3,2.6,8,3.6
			c2.4,1,9.6,3.7,8.6,7c-0.9,3.3-5.4,4.3-8.4,4.6c-3.5,0.2-7,0-10.4-0.7c-0.5-0.1-1-0.2-1.5-0.3
			C215.3,147.6,215.2,145.2,215.3,142.8L215.3,142.8z M138.8,121.7c-4.8-4.8-11-10.5-11.9-17.6c-0.4-3.4,0.2-8.1,3.4-10.1
			c2.4-1.5,3.7,1.1,5,2.9c3.7,5.2,6.8,11.1,11.6,15.4l5.5,4.8c-1.4,1.4-2.8,2.7-4.2,3.9c-1.8,1.5-3.6,2.9-5.5,4.2
			C141.3,124.1,140,122.9,138.8,121.7L138.8,121.7z M151.9,131.9c-2.8-1.8-5.4-3.6-7.9-5.6c2.8-1.9,5.5-4.1,8-6.5
			c0.6-0.6,1.1-1.1,1.7-1.7l10.5,9.1c-1.1,1-2.1,1.9-3.2,2.9c-1.3,1.1-3.2,3.5-4.8,4.1c-0.2,0.1,0.3,0.2-0.3,0
			c-0.3-0.1-0.7-0.3-0.9-0.5C153.8,133.1,152.9,132.5,151.9,131.9L151.9,131.9z M72.9,140.8c7.6,6.3,16,11.7,25.5,14
			c-9.3,4.1-20.1,6.2-30,6.8c-6.1,0.4-13.4,0.7-18.8-2.7c-4.3-2.8-8.4-7.1-10.5-12C50.5,147,61.9,143.6,72.9,140.8L72.9,140.8z
			 M16.7,100c-3,2.8-3.1,6.1-3.2,10c-0.1,1.5-0.1,3.1,0,4.6c-0.1-0.1-0.3-0.1-0.5-0.1c-3.1,0.1-6.7,0.1-9.2-2
			c-3.9-3.3-1.4-8.3,1.1-11.5c3.7-4.5,8.2-8.2,13.5-10.7c6.6-3.2,17.7-4.6,20.6,4c0.3,0.8,0.5,1.6,0.7,2.4
			C32.3,95.3,22.7,94.5,16.7,100L16.7,100z M80.9,74.4c2.2,0.7,4.3,1.4,6.5,2.1c-3.2,1.7-6.6,3.3-9.5,5.6c-1.5,1.1-2.9,2.4-4.3,3.6
			c-4,3.4-8.3,6.6-12.1,10.2c-1,0.9-1.9,2-2.8,3c-8.9-10.2,2.6-22.2,10-29.6C72.6,71.4,76.7,73.1,80.9,74.4z M63.3,37.6
			c-1.4,2.9-2.6,6-5,8.2c-2.4,2.3-5.5,3.6-8.6,4.8c-0.3-0.3-0.6-0.7-0.9-1C44,44.4,40.5,38.1,40,31c-0.1-1.4-0.2-3.5,0.9-4.6
			c1.4-1.4,3.8-1.1,5.4-0.5c3.3,1.1,6.2,3.4,8.8,5.7c2.6,2.2,5.4,4.2,8.3,6C63.3,37.5,63.3,37.6,63.3,37.6z M115.6,53.7
			c-4.3-1.2-8.7-2.3-13.1-3.3C97.3,49.2,92,48.1,86.8,47c-0.1,0-0.2-0.1-0.3-0.1c4.7-7.6,11.7-14.3,18.1-20.4
			c1.9-1.8,4.2-3.3,6.6-4.5c0,0,0.1,0,0.1,0.1c5.1,2.3,4.2,10.1,4.4,14.7C115.9,42.5,115.9,48.1,115.6,53.7z M125.6,56.7
			c-0.3-0.1-0.6-0.2-0.9-0.3c-2.4-0.8-4.9-1.6-7.3-2.3c0.4-7,0.2-14.1,0-21.1c-0.1-4.1-0.4-9.3-4.1-11.8c1.2-0.4,2.5-0.8,3.8-1
			c8-1.3,16.2,1.8,23.7,4.4C134.4,34.7,130.4,45.8,125.6,56.7L125.6,56.7z"/>
		<g id="c7597ffc-c254-442c-9981-0ad5e1c094fa">
			<g id="_x39_8b5ebd1-3237-486d-95de-455b215cc490">
				<g id="_x34_6b93c64-eda2-4ba0-b5fd-6b6728c8497e">
					<g id="_x33_28b1a68-916b-49f3-b27c-3c219a8174d5">
						<path class="st0" d="M178.1,26.1l-0.1,0.2l0.3,0.5c1,1.3,0.8,3.1-0.5,4.1c0,0,0,0,0,0c0,0-0.1,0.1-0.1,0.1
							c-0.6,0.5-1.4,0.7-2.1,0.7c-0.8-0.1-1.5-0.5-1.9-1.1c-0.5-0.6-0.7-1.4-0.8-2.1c0.1-0.4,0.2-0.7,0.3-1c0.2-0.3,0.5-0.6,0.8-0.9
							c0.7-0.5,1.4-0.7,2.2-0.7C176.9,25.8,177.5,25.9,178.1,26.1z"/>
						<path class="st1" d="M169.7,37.2L169.7,37.2c0.2-0.8,0.4-1.2,0.3-1.2c-0.1-0.4-0.2-0.7-0.4-1.1c-0.3-0.9-1.6-4.4-1.7-5.2
							c0-1,0.4-3.6-0.2-3.6c-0.3-0.1-0.7,0.1-0.9,0.4c-0.8,0.9-1.4,2-1.6,3.1c-0.1,0.5-0.2,1-0.1,1.4c-0.1,0.5,0,1.1,0,1.4
							c0.1,1.1,0.2,2.1,0.6,3.1c0.1,0.6,0.3,1.2,0.4,1.8c-0.3,0.2-0.6,0.4-0.9,0.7c-1.1,0.9-2,2-2.6,3.2c-0.4,0.6-0.8,1.3-1.2,2
							c0.2-0.4-0.3,0.4-0.4,0.5l-0.8,1.4c-0.7,1.5-1.2,3-1.6,4.7c-0.4,1.5-0.7,3-0.8,4.5c-0.4,3.2-0.4,6.5-0.1,9.8
							c0.2,2.3,0.7,4.5,1.4,6.7c0.2-0.6,0.3-1.3,0.5-2C159.6,68.4,167.8,39.4,169.7,37.2z"/>
						<path class="st1" d="M171.7,28.2c-0.4,1,3.1,3.7,3.4,3.9c1.1,0.6,4-1.2,4.5-2.3c0-2.3-1.4-4.3-3.5-5.2
							C174.9,24.3,172,27.6,171.7,28.2z"/>
						<path class="st0" d="M217.1,94c0.1,0,0.2-0.2,0.4-0.3C217.4,93.7,217.3,93.9,217.1,94C217.1,94.2,217,94.1,217.1,94z"/>
						<path class="st0" d="M217.5,93.6c0.6-0.9,1.4-1.7,2.1-2.5C219,92,218.3,92.8,217.5,93.6z"/>
						<path class="st0" d="M231.6,70.1c-1,2.9-2.1,5.8-3.4,8.5c-1.4,2.7-3,5.3-4.7,7.8c-0.9,1.3-2.1,2.6-3.1,3.8
							c-0.2,0.3-0.4,0.6-0.7,0.8c0.3-0.6,0.7-1.1,1.1-1.6c1.2-1.7,2.4-3.4,3.4-5.1c1.7-2.6,3.2-5.4,4.4-8.3c1.2-3,2.1-6.2,2.4-9.4
							c0.7-5.6,0.1-11.4-1.9-16.7c-1.7-4.6-3.9-9.2-7.4-12.9c-3.5-3.6-7.8-6.2-12.6-7.5c-0.9-0.3-1.1-1.7,0.1-1.7
							c4.7,0,9.3,1.8,12.6,5.1c3.7,3.5,6.5,7.8,8.2,12.6c0.9,2.3,1.5,4.7,1.9,7.2c0.5,2.6,0.8,5.2,0.9,7.8
							C232.9,63.9,232.5,67.1,231.6,70.1z"/>
						<path class="st0" d="M222.7,45.6c-0.4,0.7-1.1,0.7-1.7,1c-2,0.8-4.1-0.8-5-2.4c-0.6-1.4-0.1-3,1.1-3.8
							c1.1-0.7,2.5-0.9,3.8-0.5c1.1,0.3,2,1.2,2.2,2.3c0.1,0.9,0.1,1.8-0.1,2.6C222.8,45.2,222.8,45.5,222.7,45.6z"/>
						<path class="st0" d="M213.5,38.2c-0.4,0.3-0.8,0.5-1.3,0.5c-1.2,0.1-2.3-0.5-2.7-1.6c-0.5-1.4,0.2-2.9,1.6-3.4c0,0,0,0,0,0
							c0.4-0.1,0.8-0.2,1.2-0.1c0.1,0,0.3,0.1,0.5,0.1c1.2,0.3,2,1.5,1.7,2.7c0,0,0,0,0,0l0,0C214.4,37.1,214,37.7,213.5,38.2z"/>
						<path class="st0" d="M199.2,28.9c0,0.1,0,0.1,0,0.2l-0.1,0c-0.1,0.2-0.2,0.3-0.3,0.4c-0.2,0.1-0.4,0.1-0.6,0.1
							c-0.4-0.1-0.7-0.5-0.6-0.9c0,0,0,0,0,0c0.1-0.4,0.5-0.7,0.9-0.6c0.2,0,0.4,0.1,0.5,0.3C199.1,28.5,199.2,28.7,199.2,28.9z"/>
						<path class="st0" d="M204.5,27.4c0.2,0.5,0.2,1,0,1.4c-0.1,0.6-0.7,1-1.3,0.8c-0.2-0.1-0.4-0.2-0.6-0.4
							c-1-0.9,0.3-2.2,1.2-2.2C204.1,27.1,204.3,27.2,204.5,27.4z"/>
						<path class="st0" d="M222.7,51.4c-0.4,0.8-1.3,1.1-2.1,0.8c-0.8-0.3-1.2-1.2-0.9-1.9c0,0,0,0,0,0l0,0c0.4-0.8,1.3-1.1,2.1-0.8
							C222.6,49.8,222.9,50.7,222.7,51.4z"/>
						<path class="st0" d="M171.1,45L171.1,45c-3,3.8-5.2,8.1-6.6,12.8c-2.5,8.1-2.3,17.7,1.9,25.4c2.2,3.9,5.2,7.2,8.7,9.9
							c1.9,1.5,4,2.7,6.2,3.7c1.4,0.7,2.9,1.2,4.3,1.6c1.5,0.4,3.1,0.9,4.7,1.2c0.2,0.1,0.3,0.2,0.2,0.4c-0.1,0.2-0.2,0.3-0.4,0.2
							c-3.9-0.6-7.9-1-11.4-3c-2.7-1.5-5.2-3.2-7.4-5.3c-6.1-6.1-9.5-14.3-9.5-23C162,60.1,165.3,51.6,171.1,45z"/>
						<path class="st3" d="M227.9,33.7c-0.1-0.2-0.3-0.3-0.4-0.4s-0.3-0.3-0.4-0.4c-1.1-1-2.3-2-3.5-2.9c-0.4-0.2-0.9-0.6-1.4-0.9
							l-1.4-0.8l-0.9-0.5c-1.3-0.6-2.6-1.2-4-1.6c-1.3-0.4-2.6-0.8-4-1.1c-6.7-1.2-13.7-1-20.3,0.5l-0.4,0.1
							c-2.4,0.6-4.8,1.4-7.1,2.3c-0.2,0.1-1.8-3.4-2-3.6c-0.4-0.6-0.8-1.2-1.3-1.6c-1.2-1-2.7-1.6-4.2-1.6c-1.5-0.1-3.1,0.3-4.5,0.9
							c-1.4,0.6-2.6,1.6-3.6,2.8c-0.9,1.2-1.5,2.7-1.6,4.2c0,1.4,0.3,2.8,1,4c0.3,0.5,2.5,3.8,3.2,2.5c0.2-0.3-1.3-2.3-1.6-2.9
							c-0.5-0.8-0.8-1.8-0.9-2.8c-0.1-1.5,0.4-3,1.4-4.2c1-1.2,2.3-2,3.8-2.4c2.1-0.6,4.8-0.6,6.2,1.1c2.2,2.5,0.9,4.9,0.6,5.1
							c-0.1,0.1-0.2,0.1-0.4,0.2c0.2-0.7,0.3-1.4,0.2-2.2c-0.2-1.4-1-2.6-2.1-3.3c-1.3-0.9-3.1-0.6-4.5,0c-2.3,0.8-3.6,3.3-2.8,5.7
							c0.1,0.4,0.3,0.7,0.5,1c0.7,1.1,1.6,1.6,2.5,2.3c-0.4,0.3-0.9,0.6-1.3,0.9l-0.5,0.4c-0.5,0.4-2.5,1.8-2.7,2
							c-0.4,0.3-0.7,0.6-1.1,1c-0.7,0.7-1.4,1.4-2,2.1c-1.8,2-3.2,4.3-4.2,6.8c-0.1,0.5-0.4,1-0.6,1.5c-0.8,2.3-1.5,4.6-2,6.9
							c-0.9,4.5-1.3,9.1-1.2,13.6c0,2.1,0.2,4.1,0.7,6.1c0.3,1,0.6,2,1,2.9c3.5,9.1,9.8,17.4,18.7,21.9c1.1,0.6,2.3,1.1,3.5,1.5
							c8.4,3.1,17.4,2.4,25.7-0.8c0,0,0,0-0.1,0.1c-0.4,0.7-1.5,1.4-2.2,2c-0.7,0.6-1.5,1.1-2.3,1.6c-1.7,1-3.4,1.9-5.3,2.5
							c-3.7,1.2-7.7,1.3-11.5,0.4c-1.4-0.4-2.8-0.8-4.2-1.4c-8.6-3.5-15.6-9.2-21.8-16c-0.7-0.8-1.2-1.3-1.5-1.7l-0.1,0
							c-0.1,0-0.2-0.1-0.2-0.2c0-0.1-0.1-0.2-0.2-0.2l-0.2-0.1c-0.1,0-0.1,0-0.2,0c-0.2,0-0.4,0.1-0.6,0.2l0,0.1l0,0.1
							c-0.2,0.4-0.1,0.8,0.1,1.2c0,0,0.6,0.7,1.8,2.1c1.2,1.3,2.9,3.1,5,5.1c0.8,0.8,1.7,1.6,2.6,2.4c1,0.8,2,1.6,3,2.4l0.5,0.4
							c0.4,0.3,3.3,2.3,3.9,2.8c0.6,0.4,3.9,2.1,4.3,2.3c0.7,0.4,5.6,2.1,5.6,2.1c0.6,0.2,3.2,0.8,3.9,0.9c3.6,0.5,7.3,0.1,10.8-1
							c3.9-1.4,7.4-3.6,10.3-6.6c0.4-0.3,0.8-0.7,1.1-1c0.6-0.5,0.7-1.1,1.2-1.7c0.2-0.2,0.4-0.3,0.7-0.4c8-3.8,14.2-11.7,18.1-19.3
							c1.5-2.9,2.7-6,3.5-9.2c0.9-3.2,1.5-6.4,1.8-9.7c0.1-0.4,0.1-0.8,0.1-1.2l0.1-1.3l0-1.3l0-0.6c0,0-0.5-7.5-2-10.7
							c-0.7-1.5-1.1-3.1-1.8-4.5c-0.5-0.9-1-1.8-1.5-2.6L227.9,33.7z M178.9,29.3c-0.4,0.9-1.1,1.6-1.9,2c-0.7,0.3-1.5,0.4-2.3,0
							c-0.6-0.3-1-0.7-1.3-1.3c-0.2-0.3-0.3-0.6-0.4-1c-0.2-0.8,0-1.6,0.6-2.2c0.1-0.1,0.2-0.2,0.3-0.2c0.6-0.5,1.3-0.8,2.1-0.9
							c1.2-0.2,2.4,0.5,2.9,1.5c0.2,0.3,0.2,0.7,0.2,1C179.1,28.7,179,29,178.9,29.3z"/>
						<path class="st0" d="M205.7,97.6c0.2,0,0.4-0.1,0.5-0.1c-0.2,0.1-0.3,0.2-0.5,0.3C205.6,97.7,205.5,97.7,205.7,97.6z"/>
						<path class="st0" d="M206.1,97.5c0.9-0.6,1.9-1.1,2.9-1.6C208.1,96.5,207.2,97,206.1,97.5z"/>
						<g id="_x32_8d1ce0f-cce7-45e3-b0d9-2f32559268f7">
							<path class="st0" d="M228.1,80.6c-1.9,2.4-4,4.6-6.3,6.7c-2.3,2-4.8,3.8-7.3,5.4c-1.4,0.9-2.8,1.6-4.3,2.4
								c-0.3,0.2-0.6,0.4-1,0.6c0.6-0.3,1.1-0.6,1.6-1c1.7-1,3.4-2.2,5-3.3c2.6-1.8,4.9-3.8,7.1-6.1c2.2-2.4,4.1-5,5.7-7.8
								c2.8-4.9,4.4-10.4,4.6-16.1c0.2-4.9,0-9.9-1.8-14.6c-1.8-4.6-4.8-8.5-8.7-11.5c-0.7-0.6-0.2-2,0.7-1.5
								c4.3,1.8,7.7,5.1,9.5,9.4c2,4.6,2.9,9.5,2.7,14.5c-0.1,2.5-0.4,4.9-1,7.3c-0.6,2.6-1.3,5.1-2.2,7.6
								C231.5,75.5,230,78.2,228.1,80.6z"/>
							<path class="st0" d="M229.1,55.1c-0.6,0.4-1.3,0.3-1.9,0.4c-2,0.1-3.5-2.2-3.6-4c0-1.5,1-2.8,2.5-3.1
								c1.3-0.3,2.6,0.1,3.6,0.9c0.9,0.6,1.4,1.8,1.1,2.9c-0.3,0.8-0.6,1.6-1.2,2.3C229.5,54.6,229.3,54.8,229.1,55.1z"/>
							<path class="st0" d="M223.6,44.7c-0.2,0.1-0.5,0.1-0.7,0.1c-1.4,0-2.5-1.1-2.5-2.5c0,0,0,0,0,0v0c0-0.4,0.1-0.7,0.3-1.1
								c0.6-1.3,2.1-1.9,3.4-1.3c0.1,0,0.2,0.1,0.2,0.1l0.5,0.3c1,0.7,1.3,2.2,0.5,3.2C224.9,44,224.3,44.5,223.6,44.7z"/>
							<path class="st0" d="M214.2,31l-0.1,0.2l-0.1,0c-0.1,0-0.3,0.2-0.4,0.2l0,0c-0.4,0.1-0.8-0.2-0.9-0.6
								c-0.1-0.4,0.2-0.8,0.6-0.9c0,0,0,0,0,0c0.4-0.1,0.8,0.2,0.9,0.6C214.2,30.6,214.2,30.8,214.2,31L214.2,31L214.2,31z"/>
							<path class="st0" d="M219.5,31.7c0,0.5-0.2,0.9-0.6,1.2c-0.1,0.2-0.3,0.4-0.6,0.4c-0.6,0.1-1.1-0.2-1.3-0.7
								c-0.6-1.2,1.1-2,2-1.6C219.3,31.1,219.5,31.4,219.5,31.7z"/>
							<path class="st0" d="M226.9,60.3L226.9,60.3c-0.6,0.6-1.5,0.6-2.1,0.1c0,0,0,0-0.1-0.1c-0.6-0.6-0.6-1.5-0.1-2.1c0,0,0,0,0,0
								c0,0,0,0,0,0c0.6-0.6,1.5-0.6,2.1-0.1c0,0,0,0,0.1,0.1C227.4,58.8,227.4,59.7,226.9,60.3z"/>
						</g>
						<path class="st0" d="M182.4,35.6L182.4,35.6c-4.1,2.4-7.8,5.5-10.9,9.2c-5.5,6.6-8.9,15.5-7.9,24.1c0.5,4.3,1.9,8.5,4.1,12.3
							c1.2,2.1,2.6,4,4.3,5.7c1,1.2,2.1,2.2,3.4,3.1c1.3,0.9,2.5,1.9,3.8,2.8c0.1,0.1,0.2,0.2,0.1,0.4c0,0.1-0.2,0.2-0.3,0.1
							c0,0,0,0-0.1,0c-3.3-2-6.7-3.8-9.3-6.9c-7.6-8.9-9.4-21.4-4.6-32.1C168.3,46.2,174.5,39.5,182.4,35.6L182.4,35.6z"/>
					</g>
				</g>
			</g>
		</g>
	</g>
</g>
</svg>
