<svg xmlns="http://www.w3.org/2000/svg" width="435" height="196" viewBox="0 0 435 196"><title>ufo</title><g id="9c83d272-b098-4523-bb47-f42146512ad9" data-name="Слой 2"><g id="44f80107-62ed-408f-af67-563b5b6bdcac" data-name="Слой 1"><g id="0654a2c7-9932-44cd-8937-ba233f471292" data-name="fd5d383f-5396-475d-9603-3cb0480764b5"><g id="18cedacb-e92d-484d-b582-66d64652f3ae" data-name="b89f1065-bc8a-42e9-b0fd-602adc435cc6"><path d="M110.442,107.7S247.19,85.367,322.953,87.251l13.958,11.185-78.2,34.632L90.509,129.793Z" style="fill:#fff"/><ellipse cx="219.82" cy="110.758" rx="96.041" ry="10.895" transform="translate(-8.494 18.774) rotate(-4.798)" style="fill:#171723"/><path d="M253.494,46.939c-.013-.049-.029-.1-.044-.146.064-.246.127-.493.185-.741a1.146,1.146,0,0,1-.287-.742v-2.5c0-.054,0-.107.006-.16a26.165,26.165,0,0,1,.272-3.844,1.634,1.634,0,0,1,.174-.521,17.79,17.79,0,0,0-.851-2.422c-.034-.218-.07-.435-.106-.651-.154-.929-.371-1.846-.613-2.756a1.286,1.286,0,0,1-.254-.306,5.987,5.987,0,0,1-.644-1.564,1.542,1.542,0,0,1-.655-.72,6.1,6.1,0,0,1-.376-2.508,4.932,4.932,0,0,0-.476-.472,4.717,4.717,0,0,0-2.3-3.848,4.53,4.53,0,0,0-1.292-.5,1.616,1.616,0,0,1-1.147.783,1.52,1.52,0,0,1-1.648-1.111c-.015-.015-.03-.03-.044-.046-2.071-2.369-3.474-5.22-5.279-7.784-2.049-1.1-4.271-1.9-6.458-2.819l1.114.471a36.164,36.164,0,0,0-13.491-3.2,32.788,32.788,0,0,0-6.983.7c-2.07.4-4.011,1.155-6.024,1.759-1.965.589-3.965,1.051-5.886,1.781a22.211,22.211,0,0,0-4.66,2.679c-3.528,2.452-6.949,5.5-7.27,10.073a7.648,7.648,0,0,0,.032,1.257q-.231.416-.454.839a1.823,1.823,0,0,0-1.619.944,18.923,18.923,0,0,0-2.072,7.325,1.425,1.425,0,0,1,1.115,1.635c-.019.095-.041.19-.062.284s-.084.416-.093.49c-.03.243-.056.486-.073.729s-.02.5-.047.744a1.366,1.366,0,0,1-.686,1.087c-.083.223-.167.447-.255.669l-.011.024q.085,1.089.253,2.173a11.089,11.089,0,0,0,.572,2.165,3.224,3.224,0,0,0,1.122,1.675c.129.1.262.186.4.273a44.1,44.1,0,0,0,1.491,4.63,64.985,64.985,0,0,0,4.52,9.352,38.1,38.1,0,0,0,2.119,3.632l.023.032a1.443,1.443,0,0,1,1.248.339,1.832,1.832,0,0,1,.476.712.855.855,0,0,1,.052.17c.007.027.011.054.016.081s.032.07.049.105c.115.236.235.471.357.7.343.655.7,1.3,1.05,1.954.426.783.861,1.563,1.285,2.348.139.175.28.345.431.516a10.85,10.85,0,0,0,2.041,1.816,34.428,34.428,0,0,1,2.2,3.783c.15.3.294.6.435.9.139.786.3,1.585.477,2.425.3,1.423.663,2.834,1.07,4.231.166.773.335,1.545.5,2.319.178.867.332,1.641.449,2.4a4.7,4.7,0,0,0-1.209,2.908,11.6,11.6,0,0,0-3.427,1.3l-.028,0c-1.177.234-2.362.439-3.538.681a14.887,14.887,0,0,0-7.379,3.294c-2.3,2.105-3.075,5.2-3.343,8.173-.051.568-.066,1.137-.067,1.706a1.635,1.635,0,0,1,.916,1.608,22.066,22.066,0,0,1-1.494,8.721,1.5,1.5,0,0,1-.472.619c-.012.242-.021.484-.023.727a4.424,4.424,0,0,0,.139,1.128c15.628.253,31.22-1.363,46.77-2.841a5.206,5.206,0,0,0,.412-1.05c.113-.178.23-.353.341-.533a6.23,6.23,0,0,0,.827-2.254,14.163,14.163,0,0,1,.052-5.409,17.936,17.936,0,0,0-.494-2A22.866,22.866,0,0,0,232,96.329a4.683,4.683,0,0,0-2.775-2.138,4.365,4.365,0,0,0-.842-.146,1.648,1.648,0,0,1-1.542.209l-.071-.026c-.106.031-.211.065-.317.1h0l.085-.036c-.03.013-.06.023-.091.035q-.108-.034-.216-.072a1.853,1.853,0,0,1-1.212.384,8.624,8.624,0,0,1-3.967-1.006q-.207.039-.423.09c-.071.017-.14.037-.21.058,0-.175,0-.351-.007-.526a9.1,9.1,0,0,1-1.954-1.714,1.525,1.525,0,1,1,2.444-1.825,5.1,5.1,0,0,0,.648.633,1.61,1.61,0,0,1,.429-.124,17.728,17.728,0,0,1,5.342.294c.412.063.831.129,1.254.186a4.441,4.441,0,0,1,1.161-.2,1.783,1.783,0,0,1,1.015.247l.093,0a15.425,15.425,0,0,0,1.939-.243,1.388,1.388,0,0,1,.441-.014c.389-.166.771-.348,1.14-.548a7.505,7.505,0,0,0,2.606-2.343l0,0a5.235,5.235,0,0,0,2.866-2.267c.323-.43.649-.857.957-1.3a9.564,9.564,0,0,0,1.753-4.7c.119-.395.229-.795.327-1.2a43.1,43.1,0,0,0,.933-4.869c.161-1.3.19-2.606.314-3.907a10.964,10.964,0,0,1,.4-1.554c1.384-2.853,3.306-5.42,4.754-8.239.368-.716.663-1.455,1.075-2.147.439-.738.855-1.487,1.225-2.262a17.135,17.135,0,0,0,1.208-3.064,23.14,23.14,0,0,1,.608-2.444l-.177.419A4.653,4.653,0,0,0,253.494,46.939Z" style="fill:#fff"/><path d="M221.6,62.368a6.176,6.176,0,0,0,2.493-.616A12.381,12.381,0,0,1,221.6,62.368Z" style="fill:#171723"/><path d="M195.332,39.4a.27.27,0,0,0-.539,0,15.927,15.927,0,0,0,.032,4.442,16.67,16.67,0,0,0,1.349,4.1,23.561,23.561,0,0,0,4.907,6.985,25.869,25.869,0,0,0,14.847,7.349,20.892,20.892,0,0,0,5.667.086c-.5.034-.989.037-1.447.034a21.357,21.357,0,0,1-4.5-.623A20.782,20.782,0,0,1,211.9,60.6a32.7,32.7,0,0,1-3.867-2.1c-4.9-2.989-9.2-7.194-11.148-12.71A31.8,31.8,0,0,1,195.332,39.4Z" style="fill:#171723"/><path d="M224.221,61.678c-.043.026-.088.049-.133.073.048-.017.095-.032.143-.05C224.248,61.7,224.237,61.669,224.221,61.678Z" style="fill:#171723"/><path d="M224.722,32.915c-.64-.022-.959-.534-1.359-.98a6.606,6.606,0,0,0-1.087-1.027,28.811,28.811,0,0,0-2.7-1.681,26.516,26.516,0,0,0-6.634-2.565c-4.187-1.043-9.817-1.1-12.682,2.7-.171.226.152.505.372.373a15.676,15.676,0,0,1,6.515-2.335,20.921,20.921,0,0,1,7.527.687,27.93,27.93,0,0,1,6.656,2.713,11.059,11.059,0,0,1,1.449.937c.438.359.828.773,1.266,1.132.229.188.575.062.646.368.064.281.264.222.52.237a.012.012,0,0,0,.011-.014.011.011,0,0,0-.011-.011c-.36.017-.459-.182-.443-.483A.052.052,0,0,0,224.722,32.915Z" style="fill:#171723"/><path d="M253.349,44.4a15.664,15.664,0,0,0,.84-6.416,17.253,17.253,0,0,0-3.276-8.564,4.377,4.377,0,0,0-.024-2.45,7.152,7.152,0,0,0-1.846-3.673,5.347,5.347,0,0,0-3.963-1.107c-.484.019-.967.062-1.451.1-.191-.373-.375-.753-.553-1.147-1.307-2.9-2.608-5.67-5.219-7.628a30.748,30.748,0,0,0-8.973-4.431,36.823,36.823,0,0,0-15-1.564,26.672,26.672,0,0,0-5.667.983,34.79,34.79,0,0,0-9.515,4.66c-1.406,1-2.757,2.09-4.1,3.164a28.4,28.4,0,0,0-3.664,3.415,26.9,26.9,0,0,0-5.034,8.979A34.08,34.08,0,0,0,184.17,38.8a31.5,31.5,0,0,0,1.187,10.35,30.507,30.507,0,0,0,2.1,5.037c.842,1.627,1.879,3.142,2.783,4.735a70.121,70.121,0,0,0,5.862,9.4A84.53,84.53,0,0,1,202.7,77a17.769,17.769,0,0,1,1.805,4.4c.259.9.532,1.8.78,2.7a.1.1,0,0,0-.037.126c.665,1.739-.109,3.731.7,5.419a5.4,5.4,0,0,1-.792,2.123,5.785,5.785,0,0,1-2.372,1.987c.025-.124.045-.251.068-.379,0-.013-.013-.024-.023-.014a3.077,3.077,0,0,1-1.514.836c-.3.111-.609.087-.923.2s-.6.244-.906.35a31.142,31.142,0,0,1-4.078.929c-2.966.6-5.577,1.832-7.114,4.568-1.931,3.438-.831,7.43-.485,11.1a12.265,12.265,0,0,1,0,2.821,25.017,25.017,0,0,1-.674,2.893,16.363,16.363,0,0,0-.388,2.218,5.082,5.082,0,0,1-.433,2.214c-.2.294.211.735.506.507a5.293,5.293,0,0,0,1.7-3.616,34.5,34.5,0,0,0,1.008-5.447c.051-3.77-1.656-7.79-.031-11.431,1.336-2.992,4.228-3.823,7.177-4.41a19.826,19.826,0,0,0,4.038-1.1,1.675,1.675,0,0,0,.844-.58,1.38,1.38,0,0,1,.109-.175c.062-.013.124-.025.186-.039a7.092,7.092,0,0,0,5.112-4.41c.795-2.28.167-4.871-.444-7.114-.341-1.254-.707-2.506-1.076-3.752a17.069,17.069,0,0,0-2.129-4.419c-2-3.074-4.464-5.779-6.718-8.658-2.308-2.95-3.9-6.338-5.784-9.555-.928-1.583-1.924-3.1-2.724-4.76a27.614,27.614,0,0,1-1.888-5.223,33.1,33.1,0,0,1-.628-10.423,30.259,30.259,0,0,1,2.42-9.989,23.927,23.927,0,0,1,6.017-8.363c1.274-1.13,2.648-2.137,4-3.164a35.112,35.112,0,0,1,4.471-2.923,28.129,28.129,0,0,1,10.485-3.389,39.027,39.027,0,0,1,10.18.151,34.518,34.518,0,0,1,9.676,3,28.966,28.966,0,0,1,4.291,2.553,10.929,10.929,0,0,1,3.01,3.577c.749,1.327,1.324,2.747,1.957,4.131a.645.645,0,0,0-.094.079,4.1,4.1,0,0,0-.3.358,1.656,1.656,0,0,0-.968.55,1.682,1.682,0,0,0-.936.559,1.432,1.432,0,0,0-.951.6l-.273.028c-.188.019-.4.159-.379.38.006.065.013.129.02.194l-.135.009a.3.3,0,0,0-.292.293l.018.267c-.295.06-.419.208-.428.542-.095.011-.191.021-.287.028a.155.155,0,0,0-.154.153c.008.127.016.254.023.38-.121.009-.242.018-.363.025a.093.093,0,0,0-.091.091l.028.458c0-.042-.268,0-.306.019-.2.095-.147.322-.137.513a.011.011,0,0,0,.012.011.011.011,0,0,0,.011-.011c.021-.347.179-.451.483-.435a.062.062,0,0,0,.061-.061c.007-.139.016-.279.024-.418,0,.045.016.019.162.029l.247.018a.125.125,0,0,0,.124-.124l.02-.328c.117.012.233.026.35.035a.2.2,0,0,0,.2-.2c.022-.266.032-.247.293-.237a.261.261,0,0,0,.258-.258c0-.062.008-.123.013-.185.074.005.149.011.223.018.191.02.312-.165.329-.329l.01-.1a1.417,1.417,0,0,0,.777-.307c.161-.1.329-.014.511-.064.216-.06.373-.395.578-.408.279-.017.473.033.706-.169.321-.279.222-.274.55-.269a1.392,1.392,0,0,0,.794-.444c1.737-.074,3.927-.626,5.3.658a5.35,5.35,0,0,1,1.23,2.481,7.858,7.858,0,0,1,.25,1.039,10.282,10.282,0,0,0-1.53-1.2c-2.1-1.331-4.594-.705-6.558.554a8.834,8.834,0,0,0-2.526,2.224,9.133,9.133,0,0,0-1.306,2.944c-.157.557-.379,1.1-.516,1.669-.166.689-.351,1.36-.457,2.054a8.411,8.411,0,0,0-.131,2.336c.063.64-.019,1.279,0,1.92.015.564.187,1.095.209,1.651a28.8,28.8,0,0,0,.455,3.694,32.385,32.385,0,0,0,.853,3.612,12.967,12.967,0,0,0,1.56,4.275,5.352,5.352,0,0,0,1.487,1.73c.657.366.938.171,1.532-.177,1.373-.8,2.787-1.441,4.183-2.183a12.687,12.687,0,0,0,5.12-5.441,12.978,12.978,0,0,1,.364,3c-.045.157-.094.314-.15.468-.092.1-.2.2-.236.256a5.591,5.591,0,0,0-.33.7,5.3,5.3,0,0,1-.394.65,2.3,2.3,0,0,1-.666.451.7.7,0,0,0-.354.617v.009a2.244,2.244,0,0,0-.528.412,1.189,1.189,0,0,0-.5.12,1.032,1.032,0,0,0-.3.352l-.26.125c-.1.047-.2.092-.3.138a.287.287,0,0,0-.053.025q-.506.234-1.012.465c-.538.2-1.084.389-1.617.6a9.739,9.739,0,0,0-1.267.646,3.044,3.044,0,0,1-.368.064.018.018,0,0,0-.018.018c0,.034,0,.068,0,.1a3.035,3.035,0,0,0-.764.344l0,0v0l.007.005c.046,0,.092,0,.138,0l0,0,0,0c.06,0,.121-.008.181-.017.147-.01.294-.022.439-.037V57.2a5.26,5.26,0,0,1-.978.024c-.016,0-.016.026,0,.025.329-.016.659-.006.988,0a.01.01,0,0,0,.01-.01v-.095a15.069,15.069,0,0,0,4.315-1.122l.047.014a.277.277,0,0,0,.344-.182q.532-.236,1.062-.5l.012-.006a.873.873,0,0,0,.3-.022,1.3,1.3,0,0,0,.5-.377l.052-.016a1.412,1.412,0,0,1,.283.017.542.542,0,0,0,.406-.133c-.026.13-.056.26-.089.388-.1.221-.21.44-.321.655a29.491,29.491,0,0,1-2.627,4.025,26.539,26.539,0,0,0-2.732,4.4,29.77,29.77,0,0,0-2.567,9.895A23.723,23.723,0,0,1,240.854,83a13.558,13.558,0,0,1-6.321,5.667,17.985,17.985,0,0,1-15.359.077,12.3,12.3,0,0,1-5.319-4.778.009.009,0,0,0-.013,0l0,.011a14.327,14.327,0,0,0,4.218,4.746.2.2,0,0,0-.02.126,15.293,15.293,0,0,0,.506,3.069c.283.769.852,1.726,1.747,1.8a.3.3,0,0,0,.253-.118,5.356,5.356,0,0,0,.613.42A10.956,10.956,0,0,0,223.78,95c1.786.481,3.692.353,5.5.738a5.544,5.544,0,0,1,4.011,2.927,11.244,11.244,0,0,1,1.028,3.846,37.158,37.158,0,0,1,.123,5.883c-.089,2.241-.246,4.482-.129,6.725a20,20,0,0,0,.423,3.178,8.2,8.2,0,0,0,.51,1.468,3.135,3.135,0,0,0,1.137,1.209.166.166,0,0,0,.236-.006.164.164,0,0,0,.046-.111,7.328,7.328,0,0,0,.045-1.228c-.083-.444-.19-.886-.284-1.329a21.425,21.425,0,0,1-.455-2.948,50.828,50.828,0,0,1,.073-5.983c.162-3.443.343-7.153-.858-10.449a7.092,7.092,0,0,0-4.069-4.345,17.483,17.483,0,0,0-5.465-.824,19.242,19.242,0,0,1-3.311-.276A16.768,16.768,0,0,1,220.565,93a8.56,8.56,0,0,0-.96-1.764,17.973,17.973,0,0,1-1.119-2.222c.086.056.173.113.261.167a16.072,16.072,0,0,0,7.177,2.3,18.723,18.723,0,0,0,7.912-1.074,15.817,15.817,0,0,0,7-4.716,17.7,17.7,0,0,0,3.288-8.37c.25-1.6.314-3.222.548-4.825a29.658,29.658,0,0,1,1.173-5,22.5,22.5,0,0,1,2.166-4.656c.482-.79,1.029-1.536,1.579-2.28a.192.192,0,0,0,.139-.049,5.109,5.109,0,0,0,1.09-1.806,13.266,13.266,0,0,0,.81-2.35,7.935,7.935,0,0,0,.3-2.387,7.009,7.009,0,0,0,2.126-4.484,10.256,10.256,0,0,0-.019-3.285A4.192,4.192,0,0,0,253.349,44.4Zm-.274-7.241c.048.286.09.572.121.859a.621.621,0,0,0-.286-.129q.056-.31.108-.621c.021-.036.04-.072.058-.109Zm-5.047,14.067c.024-.044.049-.087.073-.13.078-.042.157-.087.234-.136-.1.091-.2.179-.306.266Zm1.764-1.88c.035-.066.07-.133.1-.2a.594.594,0,0,0,.1-.074C249.928,49.16,249.86,49.252,249.792,49.342Zm-5.634,7.432-.036.019-.058.02a.23.23,0,0,1,.094-.039Z" style="fill:#171723"/><path d="M200.773,46.077a12.927,12.927,0,0,0,1.067,1.69,10.109,10.109,0,0,0,.7,1.452c.248.3.613.471.882.753a20.505,20.505,0,0,0,2.423,2.482c.676.509,1.156,1.283,1.886,1.666l.215.153a14.517,14.517,0,0,0,5.392,3.044,31.274,31.274,0,0,0,4.259.729,8.192,8.192,0,0,0,2.684.388,10.853,10.853,0,0,1,2.585-.274,8.472,8.472,0,0,0,1.392.146,5.333,5.333,0,0,1,1.394-.015,2.393,2.393,0,0,0,1.435-.147c1.014-.52,1.235-1.757,1.226-3.044-.009-1.091-.183-2.217-.183-2.974,0-2.64.325-5.234-.289-7.839-1.394-5.892-6.268-10.776-11.642-13.248A11.165,11.165,0,0,0,208.981,30a10.758,10.758,0,0,0-5.878,3.724,13.274,13.274,0,0,0-3.1,8A10.655,10.655,0,0,0,200.773,46.077Zm4.857,5.7c.02.049.04.1.061.147l-.113-.1a.286.286,0,0,0,.052-.046Z" style="fill:#171723"/><path d="M231.818,63.67c-.017.142-.082.288-.1.5a.421.421,0,0,0,.415.417h.018a1.347,1.347,0,0,0,.611.1c.207.007.417.019.625.03a.682.682,0,0,0,.644-.137.626.626,0,0,0,.2-.458,1.147,1.147,0,0,0,.067-.208,2.916,2.916,0,0,0,.043-.74.731.731,0,0,0-.725-.726,2.146,2.146,0,0,0-.647.078.74.74,0,0,0-1.072.648,1.159,1.159,0,0,0,.041.256A.367.367,0,0,0,231.818,63.67Z" style="fill:#171723"/><path d="M237.414,63.886a.7.7,0,0,0,1.139.269c.169-.162.352-.3.519-.47a.771.771,0,0,0,.085-.1l.009-.015c.009-.014.018-.028.026-.042s.01-.016.014-.024.012-.027.019-.041l0-.007a.864.864,0,0,0,.031-.085c0-.013.005-.025.008-.038l0-.018a.686.686,0,0,0,.013-.128v-.008c0-.012,0-.024,0-.035l0-.037c0-.012,0-.022-.006-.034a.554.554,0,0,0-.011-.056v0a.738.738,0,0,0-.106-.236l.008-.095a.562.562,0,0,0-.414-.562,1.574,1.574,0,0,0-.683-.1.653.653,0,0,0-.618.443.736.736,0,0,0-.036,1.427Zm1.254-1.793-.043-.009.034,0Z" style="fill:#171723"/><path d="M215.033,108.558a27.617,27.617,0,0,1,.611,4.807,33.884,33.884,0,0,1-.562,6.6c-.027.2.221.429.385.225,1.395-1.747,1.2-4.411.913-6.488A32.233,32.233,0,0,0,215.033,108.558Z" style="fill:#171723"/><path d="M215.033,108.558a13.886,13.886,0,0,0-.468-1.571C214.711,107.515,214.87,108.038,215.033,108.558Z" style="fill:#171723"/><path d="M214.46,106.708c.036.092.07.186.1.279l-.079-.286C214.482,106.683,214.453,106.692,214.46,106.708Z" style="fill:#171723"/><path d="M230.377,114.076a31.083,31.083,0,0,1-1.228,7.121.3.3,0,0,0,.54.228c2.469-3.678,1.286-8.158.261-12.223A24.742,24.742,0,0,1,230.377,114.076Z" style="fill:#171723"/><path d="M229.42,107.124c.038.116.073.232.107.35-.027-.12-.054-.239-.08-.357C229.443,107.1,229.415,107.107,229.42,107.124Z" style="fill:#171723"/><path d="M229.95,109.2c-.115-.587-.255-1.166-.423-1.728C229.657,108.039,229.8,108.616,229.95,109.2Z" style="fill:#171723"/><path d="M197.421,111.7c-.567,1.9-1.394,3.719-1.81,5.667-.447,2.091-.835,4.424-.086,6.479.078.213.449.274.5,0,.347-2.094.338-4.233.582-6.345a39.538,39.538,0,0,1,.846-5.793.014.014,0,0,0-.027-.008Z" style="fill:#171723"/><path d="M209.9,86.252c-.018.982,0,1.965.021,2.947Q209.941,87.723,209.9,86.252Z" style="fill:#171723"/><path d="M200.344,100.578c3.029-.151,7.348-.866,8.857-3.915a10.8,10.8,0,0,0,.7-4.086c.059-1.125.043-2.252.022-3.378-.011.956-.038,1.912-.083,2.861a13.835,13.835,0,0,1-.281,2.339,7.033,7.033,0,0,1-.717,1.846c-1.552,2.953-5.691,3.31-8.53,4.1a.119.119,0,0,0,.032.233Z" style="fill:#171723"/><path d="M209.9,85.888c0,.121,0,.243.007.365,0-.122,0-.243.007-.365l-.007-.007Z" style="fill:#171723"/><path d="M212.381,89.219c.007.135.011.271.017.406,0-.136,0-.272.011-.406a.014.014,0,0,0-.028,0Z" style="fill:#171723"/><path d="M212.442,91.252c-.011-.541-.024-1.083-.044-1.627C212.388,90.162,212.405,90.707,212.442,91.252Z" style="fill:#171723"/><path d="M214.763,100.539c.4-1.536.515-3.192.775-4.759.269-1.62.5-3.233.729-4.859a.137.137,0,0,0-.095-.168.135.135,0,0,0-.168.095h0a26.792,26.792,0,0,0-1.246,4.716,33.974,33.974,0,0,0-.578,4.427,30.447,30.447,0,0,1-1.263-5.06,35.548,35.548,0,0,1-.475-3.679c.026,1.238.052,2.474.191,3.718a36.163,36.163,0,0,0,1.159,5.563.281.281,0,0,0,.265.2l.416.025A.3.3,0,0,0,214.763,100.539Z" style="fill:#171723"/><path d="M199.391,104.189q-.783.165-1.555.351C198.358,104.444,198.875,104.323,199.391,104.189Z" style="fill:#171723"/><path d="M210.375,102.859c-1.9-.87-4.227-.385-6.186.028-1.613.34-3.2.885-4.8,1.3,1.465-.309,2.951-.567,4.415-.807a25.864,25.864,0,0,1,3.391-.317c1.041-.032,2.08.065,3.12.006C210.42,103.065,210.485,102.91,210.375,102.859Z" style="fill:#171723"/><path d="M197.438,104.636c.132-.033.266-.064.4-.1-.134.024-.27.048-.405.069C197.414,104.612,197.421,104.64,197.438,104.636Z" style="fill:#171723"/><path d="M226.525,102.111c-.787.023-1.57-.2-2.363-.226-.873-.028-1.751-.037-2.624.009a16.123,16.123,0,0,0-5.015.96c-.1.039-.1.225.027.211,1.655-.192,3.324-.381,4.987-.5.787-.058,1.574-.119,2.362-.163.869-.049,1.763-.288,2.624-.263a.014.014,0,0,0,.014-.014A.015.015,0,0,0,226.525,102.111Z" style="fill:#171723"/><path d="M218.622,93.791a2.844,2.844,0,0,0,.21,4.366c1.673,1.184,4.09,1.174,6.03,1.151a.1.1,0,0,0,.026-.192c-.917-.2-1.8-.4-2.73-.536a9.979,9.979,0,0,1-2.456-.63,2.418,2.418,0,0,1-1.448-1.36c-.327-.923.175-1.9.384-2.789a.009.009,0,0,0-.006-.012Z" style="fill:#171723"/><path d="M231.976,77.426c.714-.289,1.325-.8,2.042-1.09a3.492,3.492,0,0,1,2.648-.092.374.374,0,0,0,.376-.646,3.066,3.066,0,0,0-1.36-.694,4.467,4.467,0,0,0-1.591.12,3.905,3.905,0,0,0-2.576,1.8C231.388,77.107,231.6,77.578,231.976,77.426Z" style="fill:#171723"/><path d="M220.033,38.961q-.157-.288-.336-.561C219.8,38.589,219.917,38.776,220.033,38.961Z" style="fill:#fff"/><path d="M219.436,38.025c.092.121.178.247.261.375-.074-.133-.146-.267-.213-.4C219.468,37.964,219.414,38,219.436,38.025Z" style="fill:#fff"/><path d="M219.573,40.478c-.045-.112-.245-.111-.23.031a24.652,24.652,0,0,0,.437,2.925c.185.8.486,2.181,1.267,2.616a.149.149,0,0,0,.205-.056.122.122,0,0,0,.014-.033,6.314,6.314,0,0,0-.638-2.518C220.315,42.439,219.962,41.454,219.573,40.478Z" style="fill:#fff"/><path d="M219.616,43.423a7.577,7.577,0,0,0-.257-1.246,13.34,13.34,0,0,1-.2-1.668.117.117,0,0,0-.117-.117.119.119,0,0,0-.117.117c-.012.3-.055.675-.075,1.068-.223-.679-.469-1.35-.752-2.007a23.354,23.354,0,0,0-1.421-2.755c-.534-.891-1.255-1.667-1.766-2.564-.02-.034-.071,0-.044.034a10.464,10.464,0,0,1,1.352,2.53c.417.916.773,1.866,1.116,2.812s.657,1.873.942,2.823c.315,1.051.712,2.051,1.062,3.088.042.126.253.113.242-.032-.052-.677-.1-1.315-.208-1.955a.156.156,0,0,0,.215-.043A.167.167,0,0,0,219.616,43.423Z" style="fill:#fff"/><path d="M216.562,39.67c-.008-.012-.029-.005-.024.01.358,1.034.6,2.115.942,3.16a16.167,16.167,0,0,0,1.025,3.153.145.145,0,0,0,.267-.072,8.012,8.012,0,0,0-.686-3.249A12.284,12.284,0,0,0,216.562,39.67Z" style="fill:#fff"/><path d="M221.358,36.17c.387.453.8.872,1.184,1.317A8.317,8.317,0,0,0,221.358,36.17Z" style="fill:#fff"/><path d="M221.1,35.949c.087.071.171.146.255.221-.073-.086-.146-.171-.216-.26C221.119,35.882,221.075,35.926,221.1,35.949Z" style="fill:#fff"/><path d="M214.794,41.312c.178.555.346,1.113.518,1.652a15.975,15.975,0,0,1,.771,4.206.052.052,0,0,0,.052.052.052.052,0,0,0,.052-.052,12.422,12.422,0,0,0-.681-4.017C215.309,42.535,215.047,41.925,214.794,41.312Z" style="fill:#fff"/><path d="M214.033,39.274c.049.106.094.214.139.321-.032-.113-.062-.228-.088-.342C214.076,39.215,214.016,39.236,214.033,39.274Z" style="fill:#fff"/><path d="M214.794,41.312c-.188-.583-.389-1.163-.622-1.717A15.091,15.091,0,0,0,214.794,41.312Z" style="fill:#fff"/><path d="M250.6,31.78c.059.094.113.192.166.29-.039-.1-.078-.207-.116-.311C250.64,31.72,250.583,31.748,250.6,31.78Z" style="fill:#fff"/><path d="M251.464,33.859a7.625,7.625,0,0,0-.693-1.789C251,32.671,251.243,33.26,251.464,33.859Z" style="fill:#fff"/><path d="M249.472,32.885c-.023-.1-.045-.2-.064-.294-.007-.037-.069-.017-.051.021C249.4,32.7,249.435,32.794,249.472,32.885Z" style="fill:#fff"/><path d="M250.252,39.052a18.363,18.363,0,0,1-.3,3.407c-.188,1.015-.532,1.99-.729,3a.169.169,0,0,0,.308.13c1.227-1.71,1.238-4.293,1.174-6.317a20.217,20.217,0,0,0-.4-3.316c-.118-.6-.3-1.183-.476-1.768.1.536.16,1.08.224,1.586A26.58,26.58,0,0,1,250.252,39.052Z" style="fill:#fff"/><path d="M249.472,32.885c.1.438.225.871.356,1.3A7.1,7.1,0,0,0,249.472,32.885Z" style="fill:#fff"/><path d="M248.842,42.591a.125.125,0,0,0,.132.117.124.124,0,0,0,.11-.085,8.18,8.18,0,0,0,.475-3.512c-.054-1.125-.334-2.212-.488-3.319C249.386,38.02,248.682,40.36,248.842,42.591Z" style="fill:#fff"/><path d="M248.939,35.1a6.711,6.711,0,0,1,.132.687c-.032-.23-.06-.461-.078-.693a.028.028,0,0,0-.055,0Z" style="fill:#fff"/><path d="M248.578,35.513c0-.036-.059-.036-.056,0a7.693,7.693,0,0,1-.267,1.705c-.084.548-.213,1.074-.25,1.626a.131.131,0,0,0,.133.128.134.134,0,0,0,.109-.063,3.383,3.383,0,0,0,.453-1.418C248.786,36.82,248.525,36.176,248.578,35.513Z" style="fill:#fff"/><path d="M252.407,35.351a15.978,15.978,0,0,1,.026,1.723,19.044,19.044,0,0,1-.115-2.394c0-.035-.058-.035-.056,0a13.162,13.162,0,0,1-.064,2.11q-.114-.732-.28-1.453a12.316,12.316,0,0,0-.454-1.479,14.429,14.429,0,0,1,.4,3.1,2.621,2.621,0,0,1-.374-.623c-.009-.042-.075-.01-.051.021.152.2.067.7.1.949.06.473.089.955.123,1.431.038.526.074,1.06.088,1.594a40.178,40.178,0,0,1-.938,4.273.254.254,0,0,0,.414.246,3.479,3.479,0,0,0,.077,1.114.171.171,0,0,0,.213.114.169.169,0,0,0,.1-.074,7.288,7.288,0,0,0,.712-3.239l.007-.064a17.353,17.353,0,0,0,.425-3.405A26.451,26.451,0,0,0,252.407,35.351Z" style="fill:#fff"/><path d="M252.407,35.351c-.013-.167-.028-.334-.05-.5C252.372,35.018,252.388,35.185,252.407,35.351Z" style="fill:#fff"/><path d="M252.263,34.272q.058.287.094.579c-.017-.2-.031-.391-.039-.587a.029.029,0,0,0-.028-.028.028.028,0,0,0-.028.028Z" style="fill:#fff"/><path d="M251.016,43.423a9.308,9.308,0,0,1-1.067,2.7c-.415.884-.831,1.748-1.166,2.666a.19.19,0,0,0,.315.184,6.679,6.679,0,0,0,1.4-2.619c.272-.953.219-1.989.573-2.919C251.083,43.4,251.022,43.381,251.016,43.423Z" style="fill:#fff"/><path d="M227.152,48.622a.227.227,0,0,0,.064-.127,5.022,5.022,0,0,0-.448-2.4c-.318-.9-.675-1.782-1.064-2.655a10.522,10.522,0,0,0-.531-1.022c-.056-.11-.113-.218-.171-.327a.14.14,0,0,0-.059-.059c-.168-.274-.341-.544-.51-.81-.019-.03-.04-.058-.06-.088a8.887,8.887,0,0,0-1.021-2.546,7.333,7.333,0,0,0-.81-1.1,11.1,11.1,0,0,1,1.629,3.364c-.428-.561-.935-1.035-1.363-1.6-.026-.035-.072.01-.043.034A5.148,5.148,0,0,1,224,41.239a20.265,20.265,0,0,1,.833,2.57c.205.67.389,1.345.588,2.016q.086.559.165,1.121-.251-.55-.512-1.094a22.627,22.627,0,0,0-.929-2.876A.117.117,0,0,0,224,42.9a.115.115,0,0,0-.079.14c.059.3.122.6.187.9-.1-.194-.2-.389-.306-.583-.583-1.1-1.164-2.2-1.711-3.315-.286-.585-.564-1.173-.85-1.758a15.417,15.417,0,0,1-.921-1.94c-.011-.035-.067-.018-.054.015.213.52.306,1.077.478,1.611.2.618.416,1.229.643,1.837q.65,1.74,1.3,3.479c.065.175.129.352.194.527-.014-.027-.028-.055-.041-.083-.476-.982-1.013-1.932-1.573-2.868-.383-.64-.828-1.258-1.229-1.895.285.518.531,1.064.782,1.583.5,1.04.955,2.1,1.377,3.176.4,1.026.755,2.075,1.068,3.132a14.863,14.863,0,0,0,1,2.924.216.216,0,0,0,.4-.109,5.146,5.146,0,0,0,0-.842q.324.948.639,1.9a.873.873,0,0,0,.2.339c.039.326.075.652.1.979.042.531.055,1.063.06,1.595a9.974,9.974,0,0,1,0,1.853c-.007.04.054.047.054.007.008-.541.167-1.059.2-1.594s.031-1.063.023-1.595c0-.34-.014-.682-.027-1.024a.963.963,0,0,0,.257.018q.068.59.133,1.18c.057.527.167,1.055.272,1.575a7.328,7.328,0,0,1,.337,1.856c0,.036.058.036.055,0a9.126,9.126,0,0,1,.284-1.856q.111-.785.151-1.575a21.412,21.412,0,0,0-.231-3.717C227.166,48.717,227.158,48.67,227.152,48.622Z" style="fill:#fff"/><path d="M222.944,46.831c-.486-2.015-1.1-4.444-2.561-6a.132.132,0,0,0-.185.005.13.13,0,0,0-.032.122,12.728,12.728,0,0,0,.739,1.964,15.9,15.9,0,0,0,.6,2.175c.016.047.09.028.075-.021-.212-.669-.475-1.386-.651-2.11.122.278.245.553.358.83.428,1.044.847,2.087,1.176,3.167a26.776,26.776,0,0,1,.719,3.023,18.177,18.177,0,0,1,.41,3.427.028.028,0,1,0,.056,0c-.031-1.089.027-2.149-.095-3.239A27.265,27.265,0,0,0,222.944,46.831Z" style="fill:#fff"/><path d="M246.31,36.346c.064.877.252,1.748.383,2.617a14.612,14.612,0,0,1,.071,3.211c-.01.144.2.163.243.033a9.959,9.959,0,0,0-.378-5.9C246.573,36.137,246.3,36.154,246.31,36.346Z" style="fill:#fff"/><path d="M321.4,97.774c.086-.9.363-1.8.473-2.7.12-.991.239-1.978.293-2.974a37.628,37.628,0,0,0-.083-5.8A80.867,80.867,0,0,0,319.6,74.557c-.957-3.766-2.394-7.427-3.628-11.109a51.389,51.389,0,0,0-4.548-10.542c-4.049-6.642-9.437-12.351-14.65-18.073-2.1-2.3-4.209-4.55-6.518-6.64-2.395-2.169-4.925-4.188-7.52-6.111a128.926,128.926,0,0,0-17.385-10.669A111.191,111.191,0,0,0,245.7,3.465,84.294,84.294,0,0,0,228.7.2,55.826,55.826,0,0,0,220.841.09a67.851,67.851,0,0,0-7.965,1.09,1.776,1.776,0,0,0,0,3.4,7.679,7.679,0,0,0,2.839.241c.726-.144,1.457-.262,2.19-.365-.511.072.066-.007.143-.017.172-.021.345-.041.517-.06.348-.039.7-.072,1.044-.1.765-.068,1.532-.113,2.3-.144a59,59,0,0,1,9.244.405c.191.022.381.046.571.069.044,0,.675.089.22.028.384.052.767.109,1.15.167.839.128,1.675.273,2.509.428,1.636.3,3.261.664,4.876,1.062a101.9,101.9,0,0,1,9.834,2.988c1.645.587,3.273,1.217,4.89,1.877,1.364.558,2.944,1.243,4.543,1.957q4.791,2.139,9.355,4.721,4.437,2.506,8.653,5.384,2.028,1.383,3.991,2.86c1.113.835,2.233,1.722,3.481,2.761,5.212,4.341,9.708,9.444,14.211,14.5a94.628,94.628,0,0,1,6.968,8.633c1.069,1.526,2.033,3.119,3.024,4.7a36.941,36.941,0,0,1,2.687,5.006c.566,1.319.99,2.706,1.483,4.054q.8,2.178,1.624,4.345c1.135,2.992,2.354,5.981,3.3,9.04a91.772,91.772,0,0,1,2.391,9.218,30.763,30.763,0,0,1,.61,4.684c.032.764.069,1.516.03,2.281a12.234,12.234,0,0,1-.224,2.466.035.035,0,1,0,.068.01Z" style="fill:#fff"/><path d="M288.819,39.544C285.791,34.23,281.29,28.7,277.4,26.749c-5.68-2.85-9.6.044-9.258,6.17.332,5.966,4.814,9.036,9.416,11.924,3.877,2.432,7.8,8.693,11.517,10.1C298.426,58.468,290.175,41.924,288.819,39.544Zm-1.33,1.118-.149-.18c-.072-.088-.143-.177-.214-.265-.126-.157-.248-.318-.37-.478-.052-.108-.106-.216-.163-.321.379.483.744.98,1.088,1.488-.064-.081-.126-.163-.192-.244Zm-14.371-12.5a5.129,5.129,0,0,0-.411-.423,8.766,8.766,0,0,1,.774.455c-.118-.016-.24-.026-.363-.032Z" style="fill:#fff"/><path d="M305.93,80.221a5.31,5.31,0,0,0,.39-2.866c-.28-4.931-7.461-17.208-8.068-6.358C298.032,74.932,304.253,83.049,305.93,80.221Z" style="fill:#fff"/><path d="M434.605,119.152l0-.039-.252-7.14c-.4-1.4-.771-2.812-1.05-4.241q-.045-.23-.087-.459l-.055.064-.093.1-.108.12c-.031.035-.064.069-.1.1l-.112.12-.1.106-.116.119-.105.106-.121.119c-.036.035-.073.071-.111.106s-.081.079-.123.118-.078.073-.117.109l-.126.117c-.042.039-.082.074-.123.111s-.084.076-.128.114-.088.078-.133.116-.083.074-.126.11-.1.087-.155.13-.074.064-.113.095c-.09.076-.182.151-.276.226a40.733,40.733,0,0,1-5.922,3.848q-2.949,1.614-6.7,3.253a177.1,177.1,0,0,1-16.654,6.16l-.479.152q-3.006.958-6.256,1.915T388,126.837l-.529.144q-3.911,1.065-8.112,2.125-3.495.882-7.189,1.759c-40.458,9.615-94.457,17.836-152.049,23.149-41.688,3.846-82.351,5.879-117.589,5.879h-.019c-30.427,0-55.983-1.526-73.908-4.415q-14.972-2.412-22.42-5.968l-.007,0q-.7-.337-1.34-.683l0,0c-.1-.052-.191-.1-.285-.158l-.057-.032c-.091-.051-.18-.1-.269-.154l-.037-.022q-.412-.242-.791-.488l-.065-.041c-.071-.046-.142-.093-.211-.141l-.089-.06c-.067-.046-.133-.091-.2-.137l-.083-.059q-.315-.225-.6-.453l-.1-.076-.152-.125-.1-.087-.143-.122-.1-.092c-.065-.059-.129-.117-.192-.176s-.1-.091-.145-.137-.074-.073-.111-.11l-.108-.108-.106-.111-.1-.112-.1-.107-.11-.127-.08-.094,0,0,.484,13.684c.236,2.443,2.766,4.721,7.518,6.773,4.813,2.079,11.834,3.873,20.865,5.332,17.857,2.884,43.365,4.409,73.766,4.408,5.894,0,12.027-.057,18.229-.171,31-.568,64.4-2.487,99.256-5.7s68.037-7.439,98.624-12.553c34.834-5.824,64.053-12.47,84.5-19.218l.221-.074a1.425,1.425,0,0,1,.9-1.176c4.107-1.781,8.866-2.054,12.756-4.329l.016-.013a6.242,6.242,0,0,1,1.079-.654,1.349,1.349,0,0,1,1.2.034C429.828,127.273,434.95,122.911,434.605,119.152Z" style="fill:#fff"/><path d="M432.435,105.669c-.066-.19-.135-.378-.2-.568a1.524,1.524,0,0,1-.347-.764l-.054-.323c-.287-.761-.58-1.519-.858-2.283a17.334,17.334,0,0,1-1.1-3.829,12.547,12.547,0,0,1-5.473-3.55,103.773,103.773,0,0,0-18.8-4.506c-17.858-2.884-43.367-4.409-73.768-4.409-3.15,0-6.39.017-9.641.049.665,3.441,1.165,6.954,1.487,10.455l.04.44-.38.222c-.3.178-7.622,4.41-23.992,9.526-15.071,4.711-40.958,11.057-78.7,14.539-15.156,1.4-29.713,2.107-43.264,2.107-22.047,0-37.735-1.892-47.013-3.479a97.85,97.85,0,0,1-15.074-3.5l-.415-.149-.041-.44a106.685,106.685,0,0,1-.439-11.121c-34.337,5.786-63.132,12.367-83.315,19.045-12.78,4.228-21.837,8.444-26.675,12.342a1.194,1.194,0,0,1,.006.532c-.361,1.6-1,3.123-1.369,4.718-.052.222-.1.439-.13.653.02.487.039.974.052,1.461.008.332,0,.705.036,1.045a5.363,5.363,0,0,0,.482,1.155,1.306,1.306,0,0,1-.072,1.283,23.579,23.579,0,0,0,4.525,2.47c4.827,2.073,11.853,3.862,20.885,5.317,17.853,2.876,43.333,4.4,73.684,4.4h0c32.417,0,69.425-1.722,107.6-4.994q4.929-.423,9.882-.88c57.529-5.307,111.459-13.517,151.856-23.117,11.656-2.77,21.82-5.568,30.4-8.367q8.8-2.869,15.348-5.731c6.018-2.63,9.924-4.971,12.409-7a16.093,16.093,0,0,0,2.514-2.491Z" style="fill:#fff"/><path d="M220,152.632q-4.952.458-9.882.879Q215.042,153.09,220,152.632Z" style="fill:#fff"/><path d="M402.253,121.148q8.8-2.869,15.349-5.731c6.017-2.63,9.923-4.971,12.408-7-2.485,2.026-6.391,4.367-12.409,7Q411.064,118.275,402.253,121.148Z" style="fill:#fff"/><path d="M7.945,148.79c-4.778-2.052-7.329-4.332-7.58-6.776v.006c.25,2.438,2.8,4.718,7.578,6.772,4.826,2.073,11.852,3.862,20.883,5.317,17.852,2.876,43.333,4.4,73.687,4.4-30.351,0-55.831-1.522-73.685-4.4C19.8,152.652,12.772,150.863,7.945,148.79Z" style="fill:#fff"/><path d="M222.472,190.088c44.034-4.062,79.237-18.638,94.639-31.068-29.968,4.945-62.377,9.04-96.375,12.176s-66.618,5.041-96.983,5.662c16.088,8.736,45.171,14.313,75.207,14.313C206.768,191.171,214.679,190.807,222.472,190.088Z" style="fill:#fff"/><path d="M317.111,159.02l.111-.088c-30,4.953-62.45,9.055-96.492,12.2s-66.7,5.046-97.1,5.665l.123.066c30.365-.621,62.979-2.525,96.983-5.662S287.143,163.965,317.111,159.02Z" style="fill:#fff"/><path d="M115.33,116.91a44.07,44.07,0,0,1-.757-11.433,76.7,76.7,0,0,1,1.87-11.625c.842-3.92,1.776-7.8,2.905-11.652,1.093-3.73,2.468-7.371,3.825-11.012,1.15-3.085,2.138-6.229,3.4-9.269-.148.355.088-.206.1-.223-.18.416.44-1.047.215-.513q.216-.513.442-1.021c.325-.738.665-1.469,1.014-2.2.674-1.406,1.4-2.788,2.155-4.149a84.321,84.321,0,0,1,10.875-15.229c2.15-2.426,4.427-4.737,6.8-6.943q1.792-1.666,3.663-3.245.9-.761,1.815-1.5.456-.372.92-.736l.463-.364.311-.241c-.157.121-.141.109.05-.038A110.846,110.846,0,0,1,171.93,15.005q2.161-1.121,4.375-2.137,1.057-.488,2.125-.95l.534-.229c.587-.251-.368.153.221-.093q.623-.261,1.251-.514,4.439-1.791,9.038-3.142a89.689,89.689,0,0,1,9.135-2.174c.729-.134,1.46-.255,2.193-.37q.548-.085,1.1-.162c.059-.008.668-.09.185-.026q.364-.048.73-.093,2.267-.28,4.547-.423a115.52,115.52,0,0,1,11.8.117c2.142.08,2.665-3.4.511-3.785-6.118-1.091-12.558-.617-18.68.222A90.306,90.306,0,0,0,182.757,5.8a109.074,109.074,0,0,0-34.109,19.96A93.261,93.261,0,0,0,125,56.01c-2.934,6.168-4.729,12.767-6.568,19.325-1.069,3.815-2.154,7.637-3.079,11.491a59.688,59.688,0,0,0-1.93,11.881c-.2,6.12-.007,12.337,1.843,18.222a.033.033,0,0,0,.042.02.033.033,0,0,0,.021-.037Z" style="fill:#fff"/><path d="M434.365,109.312c.025-.484.024-.973.018-1.459a1.485,1.485,0,0,1-.383-.411l-.028-.047c-.016-.029-.031-.058-.045-.088l-.018-.043c-.012-.029-.022-.059-.032-.089l-.011-.035a1.2,1.2,0,0,1-.026-.119l0-.029a1.21,1.21,0,0,1-.011-.134c0-.118-.006-.236-.012-.351a10.178,10.178,0,0,0-.318-2.031h0v0a18.293,18.293,0,0,0-1.027-2.833l-.008-.019-.018-.041-.011-.025h0c-.085-.191-.171-.381-.258-.572l-.031-.067-.282-.611c-.066-.142-.132-.284-.2-.426-.039-.086-.077-.172-.115-.258-.026-.058-.052-.115-.077-.172-.042-.093-.081-.187-.121-.28l-.066-.153c-.04-.095-.079-.189-.118-.285l-.062-.152q-.057-.141-.111-.282l-.062-.159c-.035-.092-.069-.185-.1-.277-.02-.056-.041-.111-.06-.167-.032-.09-.063-.181-.094-.272-.02-.059-.04-.118-.059-.177-.029-.087-.056-.175-.083-.264s-.059-.188-.087-.282a.3.3,0,0,0-.354-.074q-.269-.138-.553-.251a2.923,2.923,0,0,0-.816-.175,11.91,11.91,0,0,0-2.735-2.272,42.352,42.352,0,0,0-10.512-4.144c-9.526-2.735-19.475-3.7-29.328-4.348C376.6,84.8,367,84.77,357.433,84.7c-3.26-.024-6.524-.061-9.781-.212-3.034-.141-6.06-.383-9.1-.393l-13.158-.047q-1.024,0-2.049,0a11.078,11.078,0,0,1-.34,3.136c-.018.021-.035.042-.051.064a6.626,6.626,0,0,0-.524-1.269.278.278,0,0,0-.5.066c-.4,1.356-.536,2.758-.814,4.142a11.752,11.752,0,0,1-1.241,3.339,14.029,14.029,0,0,1-1.879,2.7,15,15,0,0,1-1.2,1.193c-.212.191-.432.373-.654.553l-.077.063c-.019.016-.044.033-.078.059-.154.116-.31.228-.467.34a26.249,26.249,0,0,1-3.724,2.174c-1.7.592-3.416,1.14-5.13,1.693-3.366,1.087-6.783,1.958-10.167,2.971-3.491,1.046-7.006,2.011-10.534,2.927-6.746,1.752-13.571,3.147-20.378,4.634-7.81,1.707-15.7,3.155-23.626,4.2q-1.81.24-3.627.444a1.542,1.542,0,0,1-.522.135c-1.413.124-2.831.219-4.247.333l-.326.028c-1.311.108-2.62.236-3.922.423a41.276,41.276,0,0,1-4.167.413c-1.153.049-2.3.094-3.449.231a1.475,1.475,0,0,0-.2.169q-2.3.055-4.609.137c-4.473.155-8.943.4-13.412.646-8.964.5-17.933.961-26.913,1-4.461.021-8.923-.073-13.377-.325-4.353-.246-8.71-.5-13.036-1.048-4.247-.534-8.507-.964-12.717-1.738-4.148-.762-8.286-1.619-12.407-2.512-2.048-.444-4.087-.926-6.135-1.369-.589-.127-1.179-.241-1.768-.361a11.351,11.351,0,0,0-1.627-2.324c-.3-.443-.54-.917-.807-1.377a11.809,11.809,0,0,0-.748-1.392,9.877,9.877,0,0,1-.5-1.308c-.071-.275-.156-.543-.216-.821a.654.654,0,0,0-.166-.287,1.239,1.239,0,0,1-.113-.156l.04-.014a4.058,4.058,0,0,1-.41-.827,15.857,15.857,0,0,1-.461-1.57c-.027-.107-.053-.214-.079-.321-.348-.058-.7-.108-1.054-.142a6.5,6.5,0,0,0-2.472.489q-2.327.685-4.661,1.347c-3.38.956-6.8,1.78-10.224,2.551-7.32,1.647-14.7,3.026-22.062,4.454-5.836,1.132-11.736,2.176-17.474,3.748-2.822.773-5.672,1.447-8.507,2.171-4.161,1.062-8.31,2.171-12.43,3.381a123.355,123.355,0,0,0-13.267,4.875,69.084,69.084,0,0,0-11.3,5.793,20.464,20.464,0,0,0-5.307,4.665l-.3.238a1.769,1.769,0,0,0-.74,1.262c-.033.149-.062.3-.092.45a6.325,6.325,0,0,0-.385,1.248l-.165-.033c-.03,0-.061-.007-.091-.008l-.009-.344a.033.033,0,0,0-.065,0l-.01.347a.493.493,0,0,0-.455.486q-.061,1.249-.146,2.5a7.667,7.667,0,0,1-.242,1.143,7.742,7.742,0,0,0-.091,1.355.842.842,0,0,0,0,.087,2.263,2.263,0,0,0-.075.305,25.094,25.094,0,0,0-.334,3.294,56,56,0,0,0,.4,9.28q-.178.177-.355.356a.418.418,0,0,0,.5.654c.159,1,.353,1.993.59,2.97a1.012,1.012,0,0,0,.469.663.418.418,0,0,0,.314.184l.025,0a1.186,1.186,0,0,0,.314.647.8.8,0,0,0,.227.566c0,.031-.006.062-.008.092a.654.654,0,0,0,.473.645,2.368,2.368,0,0,0,1.328,1.184c1.04.508,2.105.964,3.175,1.407.481.2.969.411,1.464.6a27.508,27.508,0,0,0,5.333,2.4.9.9,0,0,0,.476.158c1.266.41,2.542.752,3.787,1.043q.4.094.8.183c.052.146.106.291.163.436a.877.877,0,0,0,1.657-.059c3.532.688,7.133,1.133,10.7,1.467a106.913,106.913,0,0,1,12.241,1.386,77.439,77.439,0,0,0,9.322,1.053q5.037.409,10.082.72c6.814.428,13.635.712,20.461.9,13.807.378,27.624.347,41.433.07.875.679,1.777,1.329,2.7,1.927,1.5.968,3.07,1.793,4.595,2.715a41.266,41.266,0,0,0,5.119,2.373c1.825.782,3.67,1.509,5.529,2.206,1.827.686,3.673,1.318,5.51,1.977.806.29,1.584.648,2.369.99.974.424,1.978.752,2.984,1.091q2.574.87,5.164,1.695a50.2,50.2,0,0,0,6.589,1.406,127.463,127.463,0,0,0,26.032,1.625c7.283-.223,14.543-.876,21.8-1.494.033.014.064.029.1.042a8.351,8.351,0,0,0,1.829.39,26.158,26.158,0,0,0,3.509.055c2.24-.008,4.48-.116,6.715-.28,4.366-.323,8.711-.908,13.039-1.566h.059a2.158,2.158,0,0,0,.716-.117c4.338-.664,8.715-1.268,12.973-2.342,2.061-.52,4.1-1.113,6.171-1.613,1.979-.478,3.972-.9,5.958-1.35a54.171,54.171,0,0,0,11.816-3.768c3.815-1.854,7.839-3.2,11.813-4.659,2.08-.765,4.142-1.577,6.167-2.48,1.983-.884,3.852-1.939,5.735-3.014a51.507,51.507,0,0,0,5.4-3.445c1.729-1.293,3.576-2.424,5.255-3.785.96-.779,1.949-1.532,2.881-2.348a11.75,11.75,0,0,0,2.022-2.448c.419-.641.832-1.288,1.2-1.958a1.567,1.567,0,0,1,.2-.041c.384-.051.842-.323.788-.79v0a.544.544,0,0,0,.047-.049c6.353-1.314,12.792-2.247,19.2-3.255,3.4-.536,6.82-1.021,10.179-1.8,3.385-.781,6.759-1.61,10.137-2.428,6.587-1.594,13.172-3.2,19.731-4.911a245.376,245.376,0,0,0,34.54-11.46c4.69-2,9.66-3.483,14.167-5.884a22.194,22.194,0,0,0,4.8-3.417l-.016.029a1.934,1.934,0,0,0-.252.562c.785-.924,1.566-1.852,2.3-2.82a1.409,1.409,0,0,1,.39-.352c.017-.092.032-.185.048-.277a.827.827,0,0,0,.975-.648l.006-.031A35.918,35.918,0,0,0,434.365,109.312Zm-4.478-11.99c.014.164.038.326.066.487-.209-.311-.431-.613-.656-.912-.149-.2-.305-.387-.463-.572A3.332,3.332,0,0,1,429.887,97.322ZM2.291,146.839a1.462,1.462,0,0,0,.255-.272c.118.06.233.122.343.181l.069.037c0,.017-.007.033-.008.05.014-.17-.119.1-.191.2a.693.693,0,0,0-.481.31C2.282,147.178,2.286,147.009,2.291,146.839Zm.18,9.315c-.1-1-.162-2-.2-3,.625-.513.291-1.331.228-2.076-.067-.795.672-1.359,1.118-1.982l.2-.033a.453.453,0,0,0,.2-.093c.008,1.3.037,2.591.136,3.887-.141.008-.282.017-.415.017a.417.417,0,0,0,0,.833h.49c.016.161.033.323.05.485-.164.185-.328.368-.492.551-.43.479-.872.948-1.318,1.414Zm1.635.242a.343.343,0,0,0-.154-.138.426.426,0,0,0-.454.018q.165-.176.328-.353H4.48v.013c-.129.15-.254.3-.374.46Zm.518.7q.06.487.118.977-.246-.209-.48-.427.17-.283.363-.55Zm-1.991.215c-.011,0-.022,0-.033,0l-.011-.088q.418-.432.831-.868a.418.418,0,0,0-.04.068.426.426,0,0,0-.055.191,2.231,2.231,0,0,1-.157.693Zm1.749,7.017c.077.075.155.148.235.22C4.488,164.469,4.393,164.392,4.382,164.328Zm.467-3.686a.419.419,0,0,0-.415.416v.47a.685.685,0,0,0-.355-.079l-.065.006a.633.633,0,0,1-.111-.229.674.674,0,0,0-.655-.5l-.066,0q-.171-.772-.305-1.555a.423.423,0,0,0,.051-.044,4.954,4.954,0,0,0,.717-.926,15.559,15.559,0,0,0,1.231,1.049q.073.693.13,1.387ZM5.7,150.278a.406.406,0,0,0,.26.095h.309q.021.584.055,1.165c-.02.033-.04.067-.061.1a1.487,1.487,0,0,0-.547-.722C5.707,150.7,5.7,150.491,5.7,150.278Zm.186,3.308q.274-.344.534-.7c.029.359.06.719.094,1.078-.051.045-.1.09-.155.136l-.007.007c-.155-.122-.305-.251-.452-.384C5.893,153.679,5.887,153.632,5.883,153.586Zm.211,1.882q.169-.16.34-.316c.068.04.136.08.205.119q.072.7.146,1.392-.308-.245-.606-.5C6.15,155.931,6.122,155.7,6.094,155.468Zm.231,1.887q.288.227.58.445c.013.132.027.263.04.395q-.237.312-.448.642-.081-.741-.172-1.482Zm.27,6.464a.777.777,0,0,0,.193-.541c0-.943-.056-1.882-.133-2.82.173.1.349.205.526.3.093,1.205.157,2.411.162,3.622q-.385-.27-.748-.564Zm.385-4.173c.03-.054.061-.108.092-.161.007.077.014.153.02.229l-.112-.068Zm.939-9.548c.217.124.442.241.675.36.126.065.252.129.38.19a1.352,1.352,0,0,1-.988-.372l-.064-.06,0-.118Zm.051,1.195a2.075,2.075,0,0,0,.816.184,1.1,1.1,0,0,1,.432.127c-.381.348-.769.687-1.16,1.024q-.051-.666-.088-1.335Zm3.805,1.78c0,.363,0,.726,0,1.091-.125.075-.249.15-.372.227a22.091,22.091,0,0,0-2.816-1.13c.443-.381.883-.765,1.313-1.16a3.34,3.34,0,0,0,.306.225,7.216,7.216,0,0,0,1.566.747Zm-1.266-1.543c.052-.051.106-.1.158-.153q.48.183.966.347l.142.046v.389a7.248,7.248,0,0,1-1.266-.629Zm1.283,4.145q.009.635.025,1.269a15.678,15.678,0,0,1-1.338-.933c.157-.115.315-.226.474-.335.12-.084.244-.162.366-.243.157.084.314.165.473.243ZM8.177,154a18.882,18.882,0,0,1,1.969.727l.033.027c.112.073.225.143.337.213l-.136.092q-.264.181-.526.375a.932.932,0,0,0-.572-.346,5.783,5.783,0,0,1-1.009-.1q-.049-.492-.1-.985Zm.185,1.853c.073.01.147.021.22.028a1.364,1.364,0,0,1,.559.1c-.239.193-.474.393-.7.6q-.039-.364-.077-.729Zm.187,1.77a14.634,14.634,0,0,1,1.247-1.1c.052.043.1.086.157.128a16.547,16.547,0,0,0,1.9,1.284c.027.746.066,1.493.119,2.237-1.14-.709-2.276-1.427-3.381-2.189-.012-.12-.025-.24-.037-.36Zm2.321,6.083c.259-.03.605.064.837-.072a1.55,1.55,0,0,0,.427-.5l.151.116q.123.891.288,1.775a10.278,10.278,0,0,1-1.974-1,.379.379,0,0,0-.255-.065.945.945,0,0,1,.526-.254Zm-.642-.675c-.429.215-.8.864-1.23.961-.011-.788-.044-1.574-.094-2.358.83.382,1.677.723,2.527,1.029-.05.064-.1.13-.144.195a2.355,2.355,0,0,0-1.058.173Zm1.782-1.058-.27-.227A9.394,9.394,0,0,0,10.6,160.7c-.286-.168-.734-.029-1.059-.119a1.891,1.891,0,0,1-.762-.587c-.027-.307-.055-.615-.085-.922,1.1.74,2.231,1.439,3.358,2.137.02.218.041.437.064.655l-.105.114Zm-.236,5.171a30.165,30.165,0,0,1-3.091-1.863c.1-.367.323-.389.708-.494a1.313,1.313,0,0,0,.6-.454.4.4,0,0,0,.185.412,11.045,11.045,0,0,0,2.588,1.234q.2.915.459,1.819A11.89,11.89,0,0,1,11.774,167.147Zm1.662-14.914q.745.175,1.5.309c-.164.072-.328.143-.491.217-.34-.035-.677-.082-1.01-.143,0-.128,0-.255,0-.383Zm0,1.943q.466-.246.943-.472h.045c.1,1.243.608,2.249,2.012,2.386a9.739,9.739,0,0,0,1.919-.117q-.016.426-.036.853l-.106-.024a35.326,35.326,0,0,1-4.358-1.165l-.409-.215q-.006-.622-.009-1.247Zm4.706-.472a.384.384,0,0,0,.275-.105q-.008.771-.032,1.549c-.2.011-.406.028-.62.05a4.383,4.383,0,0,1-1.775-.035c-.59-.187-.714-.909-.745-1.5.983.05,1.966.039,2.9.039Zm-1.8-.84.2-.07.583.077c-.258,0-.519,0-.78-.007Zm1.777,8.614c-.022.832-.029,1.665-.013,2.494-.162-.052-.323-.106-.483-.16-1.22-.861-2.486-1.662-3.745-2.445.083-.066.167-.131.251-.2a18.627,18.627,0,0,1,1.6-1.089c.811.446,1.613.905,2.4,1.4Zm-.385-1.21.42.11-.006.142c-.137-.084-.274-.17-.413-.252Zm.416,4.958c0,.051.005.1.007.152-.029.032-.059.064-.091.094a.586.586,0,0,1-.112.08,25.757,25.757,0,0,1-3.751-1.977c1,.318,2,.642,3,.961.318.225.634.455.945.69Zm-.962-5.968q.513-.263,1.037-.507c-.012.256-.024.511-.035.767-.334-.084-.668-.169-1-.26Zm.519-1.714.57.125-.006.119q-.282-.12-.564-.244Zm-4.247-1.158.15.055c.669.353,1.335.707,2,1.041q.849.423,1.714.808c-.309.151-.616.305-.921.466l-.313.169c-.061-.02-.122-.039-.182-.061a2.788,2.788,0,0,1-1.211-.73l-.7-.7a.385.385,0,0,0-.515-.044q-.015-.5-.026-1Zm.089,2.512q.671.366,1.344.729c-.425.268-.84.553-1.24.858q-.063-.792-.1-1.587Zm.289,3.423q.381.237.762.48c-.137-.041-.274-.082-.413-.119-.105-.029-.21-.061-.316-.092l-.033-.269Zm.336,2.228a25.777,25.777,0,0,0,2.3,1.242,13.788,13.788,0,0,1-2.105-.249q-.107-.5-.2-.993Zm3.851,5.023A8.377,8.377,0,0,1,16,168.5a1.979,1.979,0,0,0-.936-.378q-.267-.841-.477-1.7c.314.053.631.1.949.128a.4.4,0,0,0,.322.463.391.391,0,0,0,.076.007h1.026a1.2,1.2,0,0,0,.72-.4c.193,0,.387-.014.58-.025a23.912,23.912,0,0,0,.56,3.405,4.574,4.574,0,0,0-.784-.434Zm.249-18.62a30.244,30.244,0,0,1-6.76-1.426q-.692-.246-1.36-.541a11.944,11.944,0,0,0-1.932-1.3,8.215,8.215,0,0,0-1.047-.486,2.749,2.749,0,0,0-.815-.649,3.126,3.126,0,0,0-1.124-.391,11.656,11.656,0,0,1-.894-.978l-.161-.187a.843.843,0,0,0-.076-.5,2.18,2.18,0,0,0-.265-.341,1.623,1.623,0,0,0-.055-.963,1.52,1.52,0,0,0-.325-.349c.024-.088.049-.176.073-.264.234-.839.37-1.679.521-2.535a1.9,1.9,0,0,1,.3-.86.67.67,0,0,0,.1-.346l.036,0a.324.324,0,0,0,.32-.321.564.564,0,0,1,.158-.565.777.777,0,0,0,.141-.5l.212-.017a.164.164,0,0,0,.162-.162c-.009-.132-.026-.21-.026-.275l.126-.1.037,0c.026,0,.036-.017.034-.037a.049.049,0,0,0,0-.012l.078-.061a9.6,9.6,0,0,0,.829-.732h.008a.024.024,0,0,0,.026-.025v-.007c.356-.35.691-.716,1.05-1.09.554-.578,1.155-1.133,1.743-1.674.326-.3.636-.617.944-.934.328-.168.655-.332.977-.491a76.667,76.667,0,0,1,12.175-4.656q6.739-2,13.524-3.865c3.918-1.087,7.858-2.09,11.8-3.069,2.548-.632,5.085-1.345,7.64-1.943,14.2-3.321,28.659-5.451,42.819-8.971q3.088-.768,6.146-1.653c.2.025.4.056.607.081a6.067,6.067,0,0,0,1.325-.132,11.253,11.253,0,0,1,2.406-.045,4.293,4.293,0,0,1,.684.137c.014.073.03.146.049.222a.828.828,0,0,0,.617.588.881.881,0,0,0,.227.4c.093.077.186.156.284.226.019.013.036.03.055.045l0,.028a6.38,6.38,0,0,0,1.218,3.533l-.079-.019c-.044-.012-.059.051-.018.067.059.023.117.049.173.076.683,1.1,1.63,2.651,3.058,2.662a.661.661,0,0,0,.47.4c.186.04.373.07.561.1l.209.27a.547.547,0,0,0,.066.07,1.044,1.044,0,0,0,.422.541,1.237,1.237,0,0,0,1.02.654,9.379,9.379,0,0,1,1.238.426,17.116,17.116,0,0,0,2.419.43,17.78,17.78,0,0,1,2.312.123c.747.164,1.45.487,2.2.652a5.418,5.418,0,0,0,1.934.014.828.828,0,0,1,.729.132,1.475,1.475,0,0,0,1.2.309,13.118,13.118,0,0,0,2.093-.242,1.356,1.356,0,0,0,.195-.066q1.478.336,2.962.649c2.107.442,4.225.813,6.312,1.337s4.221.879,6.347,1.208c4.365.676,8.729,1.392,13.138,1.7a259.815,259.815,0,0,0,26.813.227c6.335-.215,12.667-.506,19-.781a1.177,1.177,0,0,1,.807-.343c2.154-.008,4.3-.2,6.451-.269,2.056-.069,4.058-.673,6.1-.905q.969-.111,1.942-.21a3.437,3.437,0,0,0,.8.118c.512.011,1.03-.02,1.543-.034,1.122-.031,2.242-.082,3.362-.143,2.173-.12,4.344-.3,6.51-.516,4.413-.441,8.809-1.063,13.186-1.781,7.5-1.23,14.933-2.773,22.335-4.487,3.4-.785,6.762-1.719,10.126-2.628,3.51-.949,7.032-1.843,10.527-2.845q2.625-.753,5.236-1.558,1.242-.383,2.479-.779c.616-.2,1.205-.446,1.8-.687l.163-.021c1.3-.186,2.573-.423,3.85-.719a39.059,39.059,0,0,0,3.849-.914q1.951-.666,3.84-1.493a25.593,25.593,0,0,0,3.567-1.888,1.739,1.739,0,0,0,.509-.025,2.118,2.118,0,0,0,1.315-.709,24.573,24.573,0,0,0,2.219-1.65,9.64,9.64,0,0,0,2.067-2.041,7.134,7.134,0,0,0,.665-1.168,4.992,4.992,0,0,1,.959-.668c.043-.021,0-.089-.041-.055a3.759,3.759,0,0,1-.8.489,6.392,6.392,0,0,1,.457-.8,3.7,3.7,0,0,0,.58-1.08,3.058,3.058,0,0,0,.022-1.173,1.7,1.7,0,0,0,.314-1.316.9.9,0,0,0,.312-.745l0-.022c.111-.114.219-.229.324-.347a5.337,5.337,0,0,0,1.219-.812c.048-.034.094-.069.139-.1a.839.839,0,0,0,.606-.113c.2-.139.384-.307.573-.46-.39.316.354.012.4,0,.332-.1.664-.2,1-.29a5.336,5.336,0,0,1,2.888-.029,3.265,3.265,0,0,0,2.17-.093,1.593,1.593,0,0,0,1.04.055.654.654,0,0,0,.381-.259c1.559,0,3.117-.014,4.675-.057,1.036-.029,2.073-.05,3.11-.074s2.078-.24,3.118-.194c2.962.128,5.928.063,8.892.069,9.314.019,18.628,0,27.936.35,5.186.2,10.368.421,15.539.883A136.852,136.852,0,0,1,412.865,90.9a44.71,44.71,0,0,1,11.152,3.479,32.452,32.452,0,0,1,3.973,2.351A8.9,8.9,0,0,1,430.2,98.92c.055.224.108.452.153.686.19,1,.487,1.977.751,2.969q.236.886.448,1.778.014.371.02.742c-.018.039-.033.078-.052.116a11.945,11.945,0,0,1-6,5.36c-2.727,1.291-5.7,1.969-8.458,3.2-2.974,1.334-6.049,2.5-9.1,3.639a123.959,123.959,0,0,1-18.693,5.111q-10.47,2.126-20.857,4.59c-6.941,1.651-13.911,3.228-20.874,4.8-6.651,1.5-13.306,3.026-19.977,4.432-3.27.69-6.55,1.144-9.86,1.572-3.477.45-6.905,1.214-10.382,1.65-7.114.893-14.231,1.735-21.317,2.827-12.37,1.908-24.6,4.629-36.974,6.508a182.3,182.3,0,0,1-18.608,1.923,44.425,44.425,0,0,0-5.528.638c-5.6-.2-11.287.458-16.843.851q-10.8.762-21.592,1.567c-14.594,1.061-29.193,2.074-43.809,2.773-14.658.7-29.338,1.083-44.012.872q-10.931-.156-21.844-.819c-5.1-.314-10.224-.671-15.33-.7-2.981-.016-5.963-.322-8.933-.558q-5.944-.471-11.874-1.1c-3.98-.43-7.951-.932-11.907-1.544-.41-.138-.814-.3-1.236-.406-.6-.154-1.215-.257-1.821-.375-2.451-.473-4.926-.789-7.4-1.074Zm43.6,11.375c.078.884.168,1.766.261,2.649-2.047-.555-4.128-.961-6.215-1.332,1.053-.786,2.089-1.6,3.117-2.416a10.163,10.163,0,0,0,2.838,1.1Zm-2.143-1.652q.962-.771,1.921-1.543l.014-.014c.028.786.075,1.571.136,2.354a9.346,9.346,0,0,1-2.071-.8Zm-9.186,6.566c.686-.4,1.359-.815,2.02-1.244q.7-.458,1.392-.937.028.741.075,1.483Zm1.537.539c-.168.044-.333.092-.5.141l-.142-.012Zm2.008-.4c0,.011,0,.021,0,.032-.163.019-.325.041-.487.065Zm-7.484.135q-1.047-.073-2.095-.125,1.013-.207,2-.5c.028.207.059.414.091.62Zm-7.433-.279c-.194.008-.388.014-.582.02l.554-.362c.01.114.019.228.029.342Zm-.489-5.49c-.316-.011-.632-.024-.947-.045-.371-.024-.741-.061-1.11-.106q.969-.538,1.963-1.031.045.591.094,1.182Zm-4.943-5.52c1.366.168,2.731.319,4.082.486l.565.067c.005.175.01.351.016.526-1.579-.023-3.155-.1-4.727-.23l.19-.1a.407.407,0,0,0-.126-.753Zm-1.244,9.97a.449.449,0,0,0-.059.013,18.9,18.9,0,0,1-2.054.536q-.634-.087-1.26-.183c.816-.639,1.655-1.249,2.507-1.841.226-.157.454-.313.682-.467q.1.97.185,1.942Zm-.527-5.595c-1.028-.294-2.047-.621-3.06-.952q1.429-.822,2.884-1.6.068,1.276.176,2.55Zm-9-4.06q1.086.176,2.176.341.041.819.1,1.636c-1.308-.368-2.623-.7-3.945-1.013q.695-.25,1.388-.484a.413.413,0,0,0,.279-.48Zm1.041-.672c-1.277-.2-2.551-.412-3.826-.624-.046-.008-.091-.014-.137-.02.022-.643.037-1.283.038-1.917,1.6.416,3.192.834,4.776,1.287l.214.058q.007.695.033,1.387l-1.1-.17Zm-2.009.51q-1.024.354-2.034.753c.019-.372.035-.744.051-1.114.665.09,1.332.24,1.982.361Zm3.316,3.019.009.119a18.921,18.921,0,0,1-5.423-1.1l.019-.38c1.811.411,3.608.853,5.394,1.364Zm.083.954c.012.138.025.276.038.413q-.652.408-1.3.826c-1.294-.415-2.512-.987-3.789-1.449-.172-.062-.347-.12-.52-.175l.03-.686A19.6,19.6,0,0,0,25.4,160.35Zm.126,1.34c.009.1.018.2.029.3L25.2,161.9l.322-.206Zm-2.279.485q-.448.3-.894.6a4.45,4.45,0,0,1-1.417-.426,8.507,8.507,0,0,1-1.161-.767c.006-.249.014-.5.022-.746,1.168.391,2.283.931,3.449,1.337Zm-.685,1.466c.374.037.752.05,1.125.053a.416.416,0,0,0,.024-.83q.276-.183.554-.363.684.2,1.376.37c.1,1.042.2,2.084.291,3.126q-1.5-.3-2.99-.67a.4.4,0,0,0-.473-.23l-.234.055q-.664-.169-1.326-.352.819-.588,1.651-1.159Zm-.327,2.366c.077.02.154.042.231.061q1.75.436,3.536.8c.009.126.017.253.026.38-.862.04-1.726.055-2.587.06q-1.132-.262-2.248-.6c-.142-.137-.285-.272-.431-.405.5-.085.986-.186,1.472-.3ZM19.76,162.58a6.184,6.184,0,0,0,1.12.661,4.533,4.533,0,0,0,.532.187q-.767.536-1.52,1.085l-.108-.031c-.024-.632-.03-1.267-.025-1.9Zm.131,2.963.174-.129c.122.036.245.07.367.105-.159.026-.32.051-.48.075-.021-.018-.042-.034-.062-.052Zm.143,1.929c-.012-.087-.022-.173-.034-.259l.286.1a.367.367,0,0,0-.253.162Zm.6,2.882a20.4,20.4,0,0,1-.51-2.293.4.4,0,0,0,.239.074c.353,0,.706,0,1.062,0,.3.319.586.645.861.985.337.418.921-.175.587-.588-.108-.134-.221-.264-.332-.395h.727c.428.1.858.189,1.29.274h-.87a.42.42,0,0,0-.416.416v1.11a.416.416,0,0,0,.831,0v-.694h1.8a.434.434,0,0,0,.232-.074q.038.885.044,1.773c-1.856-.134-3.708-.325-5.547-.589Zm6.11-15.28c1.639.376,3.308.655,4.984.888,0,.312.01.624.02.936-1.66-.168-3.316-.378-4.968-.614-.018-.4-.029-.806-.037-1.21Zm.077,2.053c1.328.189,2.658.361,3.99.508q-1.492.809-2.961,1.666c-.3-.1-.6-.192-.9-.284q-.077-.945-.129-1.89Zm.275,3.594q.426-.258.857-.512c1.36.442,2.721.881,4.1,1.259q.075.828.156,1.653c-1.13-.125-2.257-.269-3.379-.452q-.789-.128-1.571-.289-.082-.829-.161-1.66Zm.244,2.522q.273.054.548.105c1.167.216,2.342.381,3.521.521q-1.737,1.188-3.375,2.514l-.415-.071c-.083-1.024-.18-2.047-.281-3.07Zm.4,4.721a26.01,26.01,0,0,0,2.621-.365q1.138.151,2.281.257c.014.182.026.364.039.546a48.772,48.772,0,0,1-4.936-.343c0-.032,0-.064-.006-.1Zm4.467,2.671a1.5,1.5,0,0,0-.745.132.821.821,0,0,0-.34.421l-1.09-.038q-1.092-.039-2.187-.1h0c0-.712-.022-1.424-.055-2.135,1.645.19,3.3.292,4.945.322q.033.57.055,1.142a1,1,0,0,1-.584.256Zm1.186-14.454.243.031a.436.436,0,0,0-.184.047l-.058.03,0-.109Zm.056,1.708c1.661.136,3.326.224,4.994.248q.037.771.089,1.541-1.638.8-3.214,1.719c-.552-.1-1.1-.217-1.646-.348-.095-1.053-.173-2.107-.224-3.161Zm.3,4.011q.263.06.526.117c-.163.1-.324.2-.485.3-.015-.139-.029-.278-.042-.416Zm.13,1.33q.793-.5,1.6-.98c.589.1,1.181.184,1.779.243.5.049,1,.079,1.5.1q.054.6.109,1.209c-1.657-.191-3.323-.338-4.985-.5Zm.09.912c1.661.162,3.324.308,4.979.5q.06.655.119,1.312l-.271.174q-.867.563-1.725,1.136-1.413-.015-2.823-.117c-.084-1-.181-2.006-.28-3.007Zm.345,3.84q.8.047,1.6.069-.77.531-1.525,1.082-.036-.578-.078-1.152Zm.166,3.318q-.012-.591-.037-1.182c.222-.164.446-.327.67-.489.742-.536,1.5-1.053,2.255-1.562q.938,0,1.873-.05.057.735.1,1.47l-.252.051c-.526.1-.3.908.22.8l.08-.016c.019.376.036.753.049,1.129q-2.483-.075-4.962-.155Zm5.579-14.325q2.478.285,4.96.535v.218a.84.84,0,0,0,.831.833h.277c0,.924,0,1.859.021,2.8-.111.076-.222.152-.334.227a20.462,20.462,0,0,1-4.928-2.082c.213-.091.428-.18.643-.267.49-.2.277-1-.221-.8-.39.158-.778.321-1.163.492q-.059-.978-.088-1.955Zm.159,3.08a19.038,19.038,0,0,0,3.5,1.7h-.36c-1,0-2,.019-3,.019q-.072-.858-.134-1.717Zm.208,2.554c.886,0,1.774-.024,2.655-.024h1.238q-1.245.817-2.5,1.615-.63-.1-1.263-.19-.068-.7-.129-1.4Zm.205,2.252.121.017-.113.072c0-.031-.007-.061-.01-.09Zm.093,1.02,1.266-.809a35.9,35.9,0,0,1,3.751.829.417.417,0,0,0,.22-.8c-.972-.274-1.954-.5-2.942-.685.936-.6,1.869-1.208,2.792-1.828h.37c.04,1.166.113,2.333.24,3.49a27.88,27.88,0,0,1-5.589,1.053q-.054-.625-.11-1.248Zm.171,2.021.155-.013a.378.378,0,0,0,.369.247c1.336,0,2.67.055,4,.134l-.718.144a5.57,5.57,0,0,0-2.577.516l-1.142.229q-.044-.63-.092-1.258Zm.2,3.275c-.014-.359-.031-.717-.051-1.076a.42.42,0,0,0,.558.207.4.4,0,0,0,.111-.075,3.6,3.6,0,0,1,.4-.328c0,.011,0,.023,0,.034v.69a1.158,1.158,0,0,0-.822.242.861.861,0,0,0-.2.306Zm1.752.379-.988-.029c0-.022.005-.045.01-.066a3.569,3.569,0,0,0,.659,0,.421.421,0,0,0,.415-.417v-.768a20.435,20.435,0,0,0,3.957-1.209q.13.606.291,1.2c-.179.154-.354.312-.525.479-.383.376.2.964.588.589.064-.064.132-.122.2-.183q.1.309.207.615c-1.6-.095-3.209-.172-4.814-.22ZM47.8,161.215c.943-.669,1.872-1.36,2.778-2.082.42-.335-.173-.92-.587-.589-.721.574-1.455,1.126-2.2,1.665,0-.82,0-1.631,0-2.428q3.126.3,6.255.559a.786.786,0,0,0-.16.5c0,1.478,0,2.966.026,4.454-1.162-.2-2.323-.405-3.479-.63q-.483-.095-.97-.2a.422.422,0,0,0-.287-.716H47.806c0-.179-.008-.359-.01-.537Zm.3,5.157c.432-.159.861-.328,1.283-.514.49-.215.066-.932-.42-.719-.315.139-.634.268-.955.391-.083-.854-.136-1.713-.169-2.571.581.136,1.162.261,1.741.38,1.411.292,2.832.54,4.252.787-.555.392-1.115.778-1.684,1.151a37.5,37.5,0,0,1-3.88,2.257Q48.173,166.957,48.1,166.372Zm.35,2.137.085-.017,1.266.107a12,12,0,0,0-1.188.639c-.059-.242-.112-.485-.163-.729Zm1.486,3.411-.475-.032a17.664,17.664,0,0,1-.624-1.806,11.464,11.464,0,0,1,2.839-1.32c.855.074,1.71.146,2.565.211.016.146.035.29.053.436-.964.071-1.932.111-2.9.114a.416.416,0,0,0,0,.832q1.512,0,3.013-.119c.012.085.024.17.037.256-1.409.475-2.832.9-4.269,1.266a.379.379,0,0,0-.235.162Zm2.23.156q1.211-.351,2.408-.752c.055.315.113.629.177.942l-2.585-.191Zm3.38-13.238a.828.828,0,0,0-.087-.381q2.189.182,4.379.356.4.032.8.074l-1.648,1.321a6.029,6.029,0,0,1-.66-.554c-.385-.374-.973.214-.588.589a6.641,6.641,0,0,0,.575.5c-.911.722-1.828,1.436-2.758,2.132-.021-1.35-.017-2.7-.017-4.035Zm.276,9.3h0a.416.416,0,0,0,0-.832l-.074,0c-.006-.085-.014-.169-.019-.254l.2-.041c.526-.1.3-.907-.221-.8l-.037.007q-.051-.889-.078-1.782c2.214.392,4.422.816,6.59,1.42l-.113.086q-.915.7-1.8,1.438a12.275,12.275,0,0,0-2,1q-1.221-.042-2.44-.121c-.005-.04-.009-.078-.012-.117Zm.1.955c.307.019.614.038.921.054-.3.04-.6.076-.9.111-.008-.056-.014-.111-.021-.166Zm4.807,3.592c-1.42-.087-2.839-.187-4.258-.29-.072-.331-.141-.662-.2-1a1.469,1.469,0,0,0,1-1.041h.742c.314,0,.624-.379.865-.642l.2-.084q1.734-.32,3.44-.773.063.72.112,1.44a26.754,26.754,0,0,0-2.593,1.5c-.445.294-.029,1.015.42.719.724-.478,1.468-.911,2.225-1.311.027.53.042,1.061.051,1.593l-2.01-.12ZM63.5,161.814q-.107-1.288-.159-2.581c2,.3,4.069.661,6.1.928a.893.893,0,0,0,.215.387l.848.848q-.009.494-.032.985c-.324-.03-.648-.055-.973-.077.091-.288-.122-.662-.485-.537s-.746.277-1.11.44c-.716-.041-1.431-.082-2.139-.143-.73-.063-1.5-.135-2.265-.251Zm7.249,9.293q-1.226.225-2.466.366a19.241,19.241,0,0,1,2.2-1.532q.109.588.27,1.166Zm-7.177-8.46c.481.07.962.127,1.433.178s.951.089,1.43.122a28.352,28.352,0,0,0-2.662,1.726c-.072-.676-.141-1.351-.2-2.027Zm.483,4.739.4-.2c.361-.046.721-.082,1.077-.108q-.729.247-1.462.474c-.007-.058-.012-.113-.018-.169Zm.1,1.013q2.012-.608,3.973-1.389c.492-.195.277-1-.221-.8-.207.082-.415.161-.623.24a.376.376,0,0,0-.374-.255c-.641,0-1.3.037-1.973.1a.41.41,0,0,0-.453-.048c-.089.045-.178.088-.267.132l-.258.037c-.027-.27-.056-.541-.085-.812a23.545,23.545,0,0,1,4.183-2.562c.792.044,1.585.09,2.373.163-.082,1.363-.2,2.724-.194,4.09a.426.426,0,0,0-.112.021c-1.994.666-3.969,1.36-5.874,2.211q-.045-.566-.1-1.131Zm.158,2.016a59.81,59.81,0,0,1,5.947-2.266c.018.3.046.6.082.9a23.405,23.405,0,0,0-2.519,1.73c-.241.191-.471.394-.7.6-.082.074-.163.151-.243.227q-1.249.1-2.5.124-.027-.66-.068-1.319Zm1.039,2.443a3.56,3.56,0,0,0-.658,0,.413.413,0,0,0-.192.047l-.091,0c0-.11,0-.22,0-.33.327-.007.654-.017.981-.032a1.6,1.6,0,0,1-.036.324Zm.819.133a2.072,2.072,0,0,0,.047-.416h.519a.808.808,0,0,0,.492-.161c1.263-.11,2.522-.278,3.768-.51q.233.683.531,1.349-2.681-.121-5.358-.262Zm11.526-1.126-1.108,1.11a.412.412,0,0,0-.07.486q-1.632-.062-3.266-.132a.846.846,0,0,0-.086-.479,11.3,11.3,0,0,1-.531-1.289,31.059,31.059,0,0,0,6.672-2.372c.48-.238.059-.956-.42-.719a29.877,29.877,0,0,1-6.5,2.3,13.125,13.125,0,0,1-.338-1.737,63.724,63.724,0,0,0,7.253-4.282c.425-.316.011-1.039-.42-.719a57.238,57.238,0,0,1-6.92,4.1,25,25,0,0,1,.028-3.363c.03-.454.061-.907.089-1.36.457.073.912.16,1.362.269.521.127.742-.676.221-.8-.5-.123-1.016-.219-1.53-.3a3.809,3.809,0,0,0-.079-1.941,2.28,2.28,0,0,0-.144-.209l.1.009q4.146.317,8.3.544c-.3,3.069.856,6,1.665,8.977a11.142,11.142,0,0,0-3.57,2.183.423.423,0,0,0-.71-.279Zm1.227.912a9.545,9.545,0,0,1,3.177-1.972l.084-.036q.121.495.22.991a.46.46,0,0,0-.4.492c-1.217.459-2.447.878-3.68,1.262.23-.2.4-.531.6-.738Zm1.78.829q.95-.33,1.891-.69.048.373.075.75l-1.967-.061Zm3.31-2.156c-.091-.44-.2-.879-.309-1.315a16.7,16.7,0,0,0,5.66-3.232c.384-.375-.2-.963-.588-.588a15.536,15.536,0,0,1-5.286,3.028c-.183-.661-.378-1.319-.563-1.972a16.953,16.953,0,0,1-.964-6.3q4.8.248,9.6.4c.01,1.452.045,2.9.156,4.353a24.892,24.892,0,0,0,.644,4.249c-1.215.423-2.44.817-3.68,1.162a23.624,23.624,0,0,1-3.529.742c-.106.012-.215.025-.325.036a47.943,47.943,0,0,0,5.556-2.818.417.417,0,0,0-.42-.719,47.751,47.751,0,0,1-5.955,2.98Zm.321,2.264q-.027-.4-.076-.8a16.936,16.936,0,0,0,3.818-.661c1.322-.328,2.627-.724,3.92-1.164a.388.388,0,0,0,.4.379h.405a11.869,11.869,0,0,0,.513,1.195,27.12,27.12,0,0,1-3.133.192.417.417,0,0,0,0,.833,27.786,27.786,0,0,0,3.565-.242c.049.082.1.165.15.246a.9.9,0,0,0,.209.227q-4.886-.072-9.769-.2Zm9.934-3.081c-.036-.107-.073-.214-.106-.323.216-.081.432-.162.647-.245a3.7,3.7,0,0,0-.438.568Zm4.077,2.706a.42.42,0,0,0-.7-.364,1.244,1.244,0,0,0-.428.982q-1.072-.012-2.143-.027a.759.759,0,0,0,.383-.774,20.317,20.317,0,0,0,7.124-2.858c.446-.293.03-1.014-.42-.719a19.714,19.714,0,0,1-7.108,2.808,9.873,9.873,0,0,1-.457-.922h.019a.413.413,0,0,0,.359-.206,4.515,4.515,0,0,1,2.989-1.946c1.5-.439,3.033-.708,4.519-1.193.507-.166.291-.97-.221-.8-1.609.525-3.281.808-4.9,1.306-.056.017-.11.035-.164.053a.343.343,0,0,0-.4-.275.333.333,0,0,0-.081.026q-1.383.552-2.78,1.074a23.937,23.937,0,0,1-.569-3.905c-.1-1.358-.134-2.721-.142-4.083l.588.017q4.446.119,8.892.157a27.355,27.355,0,0,0,.6,4.4c.341,1.524.774,3.023,1.222,4.518-1.086.532-2.176,1.054-3.277,1.554-.883.4-1.775.8-2.694,1.112-.069.023-.14.048-.214.071Zm.839.636c.375-.157.735-.338,1.032-.463,1.541-.647,3.054-1.363,4.555-2.1l.153.506a.422.422,0,0,0-.756.242v1.11a.419.419,0,0,0,.415.416,3.8,3.8,0,0,0,.852-.04c.035.12.067.241.1.361q-3.178,0-6.354-.031Zm5.815-1.135v-.674c.067.226.135.452.2.678a1.97,1.97,0,0,0-.2,0Zm2.266,1.167c-.018-.063-.035-.126-.052-.189.306.078.616.139.928.187l-.877,0Zm-.318-1.128-.123-.419c.245-.045.488-.1.726-.168a1.439,1.439,0,0,0,.748-.189,2.6,2.6,0,0,0,.308-.176c2.474-1.011,4.665-2.938,7.169-3.807.5-.174.287-.979-.221-.8a26.719,26.719,0,0,0-4.792,2.506c-.5.3-1.018.6-1.548.876a.384.384,0,0,0-.492.055,4.56,4.56,0,0,1-.4.358.421.421,0,0,0-.7-.358,2.005,2.005,0,0,0-.552.8c-.158.04-.316.072-.476.1l-.3-.994.72-.36c.48-.241.058-.959-.419-.719l-.543.27c-.369-1.244-.727-2.49-1.031-3.752a25.3,25.3,0,0,1-.646-4.4q5.887.038,11.772-.047a.784.784,0,0,0-.171.736c.8,3.268,1.043,6.631,1.559,9.949-1.487.328-2.985.608-4.5.792a14.584,14.584,0,0,1-6.086-.252Zm5.874,1.107.211-.023a45.447,45.447,0,0,0,4.633-.8q.066.39.141.779-2.493.03-4.986.046Zm15.159,4.219-.776-.329.791-.018a.916.916,0,0,0-.016.346Zm-8.489-4.287q-.114-.564-.212-1.13.465-.113.928-.228a.368.368,0,0,0,.3-.344c1.55-.7,2.714-2.233,4.236-3.028.475-.248.055-.967-.42-.719a13.614,13.614,0,0,0-2.56,1.9,4.625,4.625,0,0,1-2.65,1.369c-.5-3.265-.749-6.572-1.535-9.788a.847.847,0,0,0-.146-.313q5.9-.093,11.805-.288c-.03,2.142-.278,4.275-.271,6.42a20.689,20.689,0,0,0,.106,2.254c-1.773.418-3.551.815-5.324,1.234a8.029,8.029,0,0,0-1.727.479c-.531.264-.173.834.3.842a.367.367,0,0,0,.346-.188c.168-.049.338-.093.507-.136.715-.182,1.435-.344,2.154-.509l2.334-.536a4.559,4.559,0,0,1-2.017.537.416.416,0,0,0,0,.832,6.336,6.336,0,0,0,3.627-1.38,5.705,5.705,0,0,0,1.2,2.519q-5.489.13-10.975.2Zm12.09,5.763a.67.67,0,0,0,.074-.077c.044.055.088.109.134.161l-.209-.085Zm.184-7c-.047-.049-.088-.1-.131-.154a15.37,15.37,0,0,0,7.509-2.228c.448-.291.031-1.013-.419-.719a14.9,14.9,0,0,1-7.58,2.14,5.476,5.476,0,0,1-.366-1.255l.509-.124a.4.4,0,0,0,.223-.626,4.485,4.485,0,0,1,1.884-.469.417.417,0,0,0,0-.833,5.669,5.669,0,0,0-2.748.812c-.033-.645-.024-1.278-.022-1.831.006-2.038.247-4.067.272-6.1q6.39-.222,12.777-.541c.04.646.119,1.292.22,1.936a.875.875,0,0,0,.243,1.36q.111.564.23,1.121a32.3,32.3,0,0,0,.8,3.137q.084.648.171,1.3a39.718,39.718,0,0,1-4.934,1.964c-.288.1-.593.211-.9.307.249-.159.5-.31.755-.461a.416.416,0,0,0-.419-.719c-.557.337-1.933.928-2,1.715-.068.808,1.282.409,1.64.314a34.225,34.225,0,0,0,5.975-2.254l.024.19a.44.44,0,0,0-.1.035,3.785,3.785,0,0,0-.612.311.418.418,0,0,0,.32.761,4.311,4.311,0,0,0,.509-.164q.1.828.164,1.657c-.7.025-1.394.052-2.091.076q-5.9.2-11.794.35a.79.79,0,0,0-.1-1Zm13.871,6.351q-.377.3-.767.586a5.761,5.761,0,0,1,.02-.657v-.953c.263.33.509.673.747,1.023Zm-4.87-1.166-.537.459-.187.16q-.363-.463-.72-.932c.471-.015.942-.028,1.413-.044v.2a.388.388,0,0,0,.03.154Zm-4.465,3.174v.057c-.578-.267-1.161-.522-1.73-.809a5.643,5.643,0,0,1-2.046-1.48,1.7,1.7,0,0,1-.317-1.05q1.5-.039,2.991-.081a.494.494,0,0,0,.016.1.423.423,0,0,0,.149.262,5.385,5.385,0,0,0,.374.4,2.189,2.189,0,0,1,.563,1.492v.006C136.314,180.293,136.295,180.666,136.295,181.039Zm1.094.591-.263-.135v-.012c.089.006.182.012.274.015a.49.49,0,0,0-.01.132Zm.407-1.007h-.665c0-.268.008-.543-.006-.815a3.8,3.8,0,0,0-.349-1.876q.561-.1,1.123-.2.594.786,1.2,1.559c-.374.327-.743.657-1.106,1-.056.053-.5.332-.195.332Zm3.346,2.22a.382.382,0,0,0-.388.306l-.762-.276q-.811-.3-1.621-.6c-.045-.04-.09-.081-.138-.118v0a3.6,3.6,0,0,0-.048-.886c.413-.406.839-.8,1.272-1.18a7.184,7.184,0,0,0,1.391,2.361.409.409,0,0,0,.686-.192c.174.2.348.4.525.591Zm-.593-3.708.083-.072c.359-.308.729-.619,1.1-.938h.117a22.581,22.581,0,0,0,.359,3.013q-.846-.981-1.655-2Zm1.7,4.556a.7.7,0,0,0,.209-.072,1.5,1.5,0,0,0,.169-.117c.02.115.038.231.056.346l-.433-.157Zm.734-2.86a19.693,19.693,0,0,1-.319-3.122.464.464,0,0,0-.007-.064l.678-.227.872-.03a.374.374,0,0,0-.159.321v2.221a.434.434,0,0,0,.055.2c-.31.2-.629.382-.957.551a.387.387,0,0,0-.162.151Zm.179,1.013q-.049-.267-.1-.536a.414.414,0,0,0,.5.092l.259-.127c-.223.188-.443.378-.663.571Zm2.781,3.147q-1.258-1.131-2.41-2.369c.452-.408.92-.8,1.389-1.187l.032-.026.087.172a12.332,12.332,0,0,1,1.089,3.474l-.187-.065Zm.049-3.307c-.118-.276-.244-.546-.383-.808.264-.214.53-.427.8-.639.6.966,1.175,1.949,1.762,2.923q-.3.387-.59.794h-.826a14.6,14.6,0,0,0-.757-2.27Zm1.568-4.371c-.315.3-.635.6-.961.89q-.32-.447-.662-.875c.558-.02,1.115-.042,1.672-.063l-.049.047Zm.662,2.1a7.028,7.028,0,0,0,.238,1.743c-.292-.5-.587-1-.892-1.485q.327-.13.654-.258Zm-1.126,5.983v-.58c.4.028.868.04,1.051-.232.154-.227.315-.449.479-.667.355.575.72,1.144,1.105,1.7q.274.4.565.782c-1.078-.275-2.143-.635-3.2-1ZM152,179.4a26.008,26.008,0,0,0-2.538,2.281c-.059-.177-.113-.354-.162-.533a.432.432,0,0,0,.014-.108v-.862a18.332,18.332,0,0,0,2-1.276l.291-.174v.092a.631.631,0,0,0,.4.58Zm-.4-2.266c-.786.352-1.585.68-2.388,1,.025-.1.052-.2.083-.3q.363-.326.715-.663l1.589-.062Zm-1.49,1.528q-.527.325-1.047.662l-.007,0c0-.083.006-.167.011-.25q.523-.207,1.044-.417Zm.96,6.69c-.412-.942-.9-1.874-1.288-2.82q.41-.446.847-.869a25.413,25.413,0,0,1,2.176-1.865,6.242,6.242,0,0,0,.351,1.2c.154,1.247.355,2.491.526,3.737q-.925.8-1.815,1.649c-.276-.339-.542-.686-.8-1.037Zm1.776-7.157V178l.075-.044c0,.081,0,.163.006.244Zm-.316,8.712q.631-.6,1.279-1.172.09.76.146,1.525-.71-.183-1.424-.353Zm1.164-9.4.91-.521.788-.033c-.225.152-.451.3-.675.457a.329.329,0,0,0-.461-.079l-.026.02c-.152.116-.321.234-.483.363v0a.41.41,0,0,0-.053-.205Zm1.215,1.2c.7-.263,1.385-.565,2.068-.868l.187-.084c.074.359.335.537.648.8.237.2.469.4.7.611q-.464.366-.937.72-1.064.393-2.136.754a.418.418,0,0,0,.111.817,2.535,2.535,0,0,0,1.709-.323q.37-.254.731-.521.737-.276,1.467-.567l.111.105c-1.05.8-2.114,1.575-3.157,2.37q-.269.206-.532.413a6.38,6.38,0,0,1-1.913-3.917,5.934,5.934,0,0,0,.945-.31Zm6.389,3.8c.122-.092.245-.181.367-.272.828.839,1.655,1.679,2.5,2.5-.875.478-1.77.925-2.684,1.319a24.717,24.717,0,0,0-.554-3.514.33.33,0,0,0,.369-.032Zm-.5-.654,0,0q-.061-.311-.119-.621l.376.377c-.086.078-.17.158-.254.239Zm1.905-.373q.651-.468,1.309-.925c.015.789.048,1.577.114,2.363-.477-.478-.95-.96-1.423-1.438Zm-.673-.68q-.426-.428-.854-.848c.568-.444,1.128-.9,1.676-1.362q.577-.264,1.149-.542,0,.716,0,1.43c-.675.415-1.34.845-1.971,1.322Zm.366-2.912q-.992.456-2,.88a.621.621,0,0,0-.014-.062l0-.007.043-.036c.688-.586,1.358-1.19,2.018-1.807q.522-.138,1.045-.273l.36-.017q-.706.683-1.451,1.322Zm-1.727,8.5-.2.073q-.5-.308-.986-.63a22.946,22.946,0,0,1-3.019-2.312c.183-.143.366-.286.55-.427.919-.7,1.853-1.389,2.78-2.087.077.458.163.913.252,1.369a25.245,25.245,0,0,1,.619,4.013Zm-.274-8.8c-.184.163-.371.323-.558.483-.016-.016-.034-.032-.048-.047a2.237,2.237,0,0,1-.3-.371c.4-.111.8-.22,1.2-.329-.1.089-.2.177-.3.264Zm-1.113-.742a.087.087,0,0,0-.025-.046l0,0,.011-.011.025-.011.295-.014-.31.085Zm-5.032,6.03q.318.418.679.81c-.169.137-.335.276-.5.416q-.088-.613-.178-1.226Zm3.1,4.819a.8.8,0,0,1-.14.425c-.8-.217-1.6-.434-2.4-.645-.052-.8-.141-1.6-.246-2.4q.47-.4.949-.795a23.27,23.27,0,0,0,2.756,2.224c.225.159.453.314.682.466-.427.124-.858.233-1.293.323a.421.421,0,0,0-.3.4Zm4.7,1.658c-1.349-.305-2.688-.655-4.024-1.013a1.7,1.7,0,0,0,.1-.3,17.762,17.762,0,0,0,1.731-.48c1.253.779,2.551,1.482,3.864,2.157q-.837-.175-1.675-.363Zm3.541-.095c-1.428-.717-2.845-1.452-4.222-2.259a32.279,32.279,0,0,0,3.141-1.516,7.957,7.957,0,0,0,1.549,3.306Zm-.774-12.741.4-.019c-.132.071-.265.142-.4.211a.368.368,0,0,0,0-.192Zm3.62,0c-.014-.021-.061-.043-.193.081-.174.163-.355.318-.54.468-.052-.076-.106-.151-.158-.226a2.558,2.558,0,0,1-.274-.439l1.16-.059v.081a.494.494,0,0,0,0,.094Zm29.913,13.089q-.474.2-.958.373a20.564,20.564,0,0,1-3.772-1.263.456.456,0,0,0-.037-.119c-.063-.132-.123-.265-.179-.4a19.535,19.535,0,0,0,4.013-2.366c.958,1.049.941,2.422.933,3.772Zm-.274-4.282q.21-.166.417-.338,1.8,1.417,3.732,2.67-.872.508-1.767.97-.631.326-1.279.618a5.628,5.628,0,0,0-1.1-3.92Zm-4.957,2.1a17.248,17.248,0,0,1-.587-5.277.416.416,0,0,0-.831,0,18.035,18.035,0,0,0,.652,5.577c-.15.053-.3.1-.45.151a30.75,30.75,0,0,1-3.8-2.435v-1.434a25.1,25.1,0,0,0,5.3-3.673c.73.787,1.5,1.54,2.282,2.264q1.046.962,2.152,1.861a20.01,20.01,0,0,1-4.715,2.966Zm-5.019-4.366v-2.022a.38.38,0,0,0-.153-.317q1.956-1.114,3.97-2.105.448.563.925,1.1a22.782,22.782,0,0,1-4.743,3.342Zm4.444-5.673c-.169-.22-.335-.442-.5-.668-.308-.43-.6-.874-.873-1.325-.053-.087-.1-.185-.154-.285q3.844-.227,7.689-.458c-2.077.865-4.139,1.765-6.166,2.736Zm-1.145.558c-1.708.848-3.39,1.751-5.033,2.733a.417.417,0,0,0,.42.72c.16-.1.322-.189.483-.284v2.408l-.938.514q-1.4-1.182-2.674-2.5c0-.547.01-1.087.01-1.613a.416.416,0,0,0-.831,0q0,.368,0,.742c-.135-.147-.27-.293-.4-.442l.006-.006a.372.372,0,0,0,.118-.333,57.025,57.025,0,0,1,5.656-3.436c.542-.287,1.1-.577,1.679-.857.2.366.4.741.629,1.091q.418.644.879,1.258Zm-4.13,6.522v.338l-.017-.013c-.079-.062-.155-.126-.232-.189Zm-2.1.21h0q-.671.379-1.335.771a20.959,20.959,0,0,1-.163-2.138q.733.7,1.5,1.366Zm-5.142-2.436q.761-.547,1.481-1.166.643.723,1.324,1.411a23.889,23.889,0,0,0,.244,3.422c-.628.391-1.244.8-1.839,1.241q-.494.366-.957.769a.4.4,0,0,0,.061-.219,38.277,38.277,0,0,0-.315-5.458Zm.09,5.818q-.183.163-.36.333c-.126.12-.841.038-1.2.01a31.457,31.457,0,0,1-2.649-2.051V185.2c0-.179.009-.337.008-.481a37.92,37.92,0,0,0,3.342-1.951,39.233,39.233,0,0,1,.251,4.93.415.415,0,0,0,.42.408.421.421,0,0,0,.187-.047Zm7.869-12.427a54.052,54.052,0,0,0-6.245,3.808q-.722-.846-1.383-1.741c1.983-.751,3.956-1.53,5.925-2.316l1.939-.111a.559.559,0,0,0,.126.175l-.362.185Zm-7.373,1.081a11.808,11.808,0,0,1,1.162-.725c.284-.153.879-.479,1.181-.206a.2.2,0,0,0,.023.017q-1.182.462-2.366.914Zm-.314-.791q-.4.274-.8.562c-.033-.053-.067-.1-.1-.155q.369-.239.735-.482a.424.424,0,0,0,.126-.127l.363-.02-.326.223Zm.427,4.246q-.472.346-.937.7a19.874,19.874,0,0,0-.571-2.162c-.166-.507-.968-.29-.8.222a19.688,19.688,0,0,1,.634,2.509l-.527.416a.331.331,0,0,0-.085.459l0,0c-.9.58-1.84,1.109-2.794,1.612l-.045-.052a3.12,3.12,0,0,1-.74-1.579,4.606,4.606,0,0,1-.056-.673c0-.128-.006-.257-.006-.386,1.192-.907,2.354-1.852,3.528-2.783.273-.1.547-.2.82-.3q.754,1.034,1.577,2.015Zm-10.358,6.075v-3.705q1.236,1.433,2.577,2.766-.6.3-1.209.608-.492.25-.978.514a1.377,1.377,0,0,0-.39-.183Zm.285,2.109c-.258-.152-.513-.312-.765-.477.22-.133.442-.262.666-.389a2.639,2.639,0,0,1,.1.866Zm.4-6.924c.186-.128.372-.255.556-.384q-.245.23-.486.465l-.07-.081Zm.615.711q1.2-1.173,2.507-2.223.864-.285,1.721-.587l-.267.215a.376.376,0,0,0-.428.09l-1.066,1.068c-.464.464-.1,1.853.077,2.406a3.806,3.806,0,0,0,.686,1.213c-.258.133-.517.264-.776.4q-1.276-1.239-2.454-2.577Zm3.434,3.005c-.01.13-.022.25-.022.335v.138c-.109-.1-.215-.2-.322-.3l.344-.175Zm2.763-7.4c-.305.111-.61.224-.916.334-.171.062-.341.123-.512.183l.2-.137A.387.387,0,0,0,176.9,178c.056-.055.114-.109.171-.164q.57-.373,1.145-.742a2.1,2.1,0,0,0,.245.075l.047.069q-.321.249-.64.5Zm-1.339-.537q-.327.216-.652.435c-.044-.272-.312-.5-.588-.29q-1.6,1.2-3.221,2.355-.237.072-.475.141c-.285.083-.575.168-.868.25q1.32-.872,2.671-1.693c1.249-.756,2.538-1.506,3.871-2.153a1.625,1.625,0,0,0,.11.195q-.437.364-.848.76Zm-3.361.365c-.242.144-.482.291-.722.439.609-.633,1.193-1.279,1.733-1.959l1.847-.1c-.975.51-1.928,1.061-2.858,1.617Zm-2.4.955a.389.389,0,0,0-.017.549l0,0-.384.251v-1.618a.416.416,0,0,0-.831,0v1.863q-.679-.87-1.319-1.768,1.321-.815,2.669-1.583l2.159-.111c-.712.833-1.486,1.62-2.279,2.415Zm-4.834,6.158q.573-.334,1.135-.675c.834-.5,1.655-1.025,2.468-1.56v4.142a.405.405,0,0,0,.253.378c-.162.094-.325.188-.486.285-.056.034-.111.071-.168.106a32.462,32.462,0,0,1-3.2-2.676Zm2.112,3.391c-.358.249-.3.319-.726.319-.175,0-.349-.016-.514-.008a6.4,6.4,0,0,1-1.305-2.395,31.92,31.92,0,0,0,2.545,2.084Zm.45-7.822.176.222-.137.095a7.6,7.6,0,0,1-.8.054.425.425,0,0,0-.292.714q-1.077.769-2.133,1.563c-.424.318-.01,1.04.419.719q1.543-1.158,3.128-2.26c.152-.023.305-.049.457-.078l.166.2q-1.218.811-2.463,1.582c-.56.346-1.13.69-1.708,1.026-.087-.083-.173-.167-.259-.252-.045-.347-.081-.693-.11-1.032-.081-.934-.107-1.872-.113-2.811q.414-.281.832-.557c.341-.206.68-.413,1.014-.627.169-.108.335-.218.5-.331q.644.9,1.321,1.772Zm-3.348-1.47-.323.195c0-.423,0-.846,0-1.268a.382.382,0,0,0-.007-.068q.653-.333,1.293-.689c.05.084.11.162.163.24.133.2.27.4.407.593q-.772.49-1.536,1Zm2.961,11.741c-.019-.011-.037-.022-.058-.032q-.839-.42-1.678-.836l.394-.4.029-.029c.032,0,.07,0,.12,0h.8c.286,0,.535-.28.755-.436.1-.07.2-.139.3-.206a17.372,17.372,0,0,0,6.535,2.837q-3.61-.328-7.194-.9Zm9.783,1.106a.63.63,0,0,0-.182-1.223,13.509,13.509,0,0,1-6.233-1.6h0a4.931,4.931,0,0,0-.214-1.711q.538-.288,1.084-.565.612-.31,1.226-.617.343.327.693.648.4.363.812.72v1.525a.416.416,0,0,0,.831,0v-.83a24.229,24.229,0,0,0,6.427,3.869q-2.226-.072-4.443-.221Zm11.469.265a.491.491,0,0,0-.571-.378,14.2,14.2,0,0,1-8.952-2.29h.087c.281,0,.492-.316.677-.487.288-.267.593-.516.9-.756.556-.431,1.139-.826,1.735-1.2A10.349,10.349,0,0,0,184,189.02c.232.484.949.061.717-.42a9.654,9.654,0,0,1-.738-2.273c.532-.318,1.071-.624,1.609-.929l.261-.147q.7.574,1.418,1.117v2.442a.416.416,0,0,0,.832,0v-1.834q.972.693,2,1.315a10.3,10.3,0,0,1-1.313.1.419.419,0,0,0-.415.416,3.208,3.208,0,0,1-.034.7,3.483,3.483,0,0,0-.659,0,.416.416,0,0,0,0,.832c.377,0,.939.061,1.237-.237a1.228,1.228,0,0,0,.288-.887,11.318,11.318,0,0,0,2.006-.288,24.724,24.724,0,0,0,3.8,1.675c-.222.013-.446.015-.679.015h-.313a.417.417,0,0,0,0,.833,7.424,7.424,0,0,0,2.1-.17c.2-.056.393-.114.588-.176a19.067,19.067,0,0,0,2.134.406c-3.158.191-6.319.332-9.486.387Zm12.152-.561a.626.626,0,0,0-.534-.927,16.443,16.443,0,0,1-2-.139.392.392,0,0,0,.079-.06c.543-.238,1.078-.492,1.607-.755q1.2-.6,2.355-1.287.972.6,1.971,1.162v.593a.42.42,0,0,0,.416.417h1.108a.411.411,0,0,0,.232-.073q.586.3,1.181.58-3.208.263-6.419.489Zm111.64-29.926a.489.489,0,0,0,.026.161,5.077,5.077,0,0,1-.45.9c-.017.026-.036.051-.053.077a4.179,4.179,0,0,0-1.279,1.207c-.824.536-1.715.958-2.536,1.5q-1.4.918-2.808,1.81c-1.8,1.137-3.7,2.139-5.554,3.189a65.986,65.986,0,0,1-11.678,5.116c-4.079,1.367-8.218,2.545-12.2,4.187-1.956.807-3.63,1.58-5.686,2.256-1.938.637-3.919,1.138-5.9,1.606-4.03.948-8.056,1.844-12.059,2.906a129.306,129.306,0,0,1-13.1,2.491l-.815.126q-2.805,0-5.606.1a9.519,9.519,0,0,1,2.469-.89,21.779,21.779,0,0,0,4.053-1.2c.482-.233.061-.951-.42-.719a27.924,27.924,0,0,1-4.53,1.3,6.976,6.976,0,0,0-2.6,1.238.415.415,0,0,0-.827.04v.3c-4.331.183-8.654.492-12.976.841a1.549,1.549,0,0,0,.443-.74,17.214,17.214,0,0,0,6.51-2.261c.479-.24.058-.957-.42-.719-2.022,1.013-4.127,2.121-6.438,2.163a.424.424,0,0,0-.416.417.676.676,0,0,1-.693.694.416.416,0,0,0-.405.428.4.4,0,0,0,.025.132q-3.424.284-6.848.577a.59.59,0,0,0-.213-.15q-1.365-.591-2.694-1.265h.163a2.748,2.748,0,0,0,.99-.45q.675-.345,1.333-.722a8.83,8.83,0,0,0,3.576-3.475c.248-.475-.469-.9-.718-.42a8.148,8.148,0,0,1-3.278,3.176c-.309.184-.628.353-.946.521a4.819,4.819,0,0,1-.979.537h-1.086a.42.42,0,0,0-.326.163q-1-.546-1.979-1.136a30.616,30.616,0,0,0,4.815-3.866.416.416,0,0,0-.588-.589,29.785,29.785,0,0,1-5.021,3.964q-2.044-1.292-3.957-2.775c.63-.562,1.234-1.138,1.809-1.71a.416.416,0,0,0-.587-.589c-.6.593-1.223,1.193-1.882,1.776q-.883-.71-1.734-1.458a34.874,34.874,0,0,1-4-4.117c2.685-1.282,5.428-2.439,8.189-3.561l.218-.014a.626.626,0,0,0,.61.521h.485v.486a.621.621,0,0,0,.308.539,14.745,14.745,0,0,1,3.752,3.372c1.3,1.427,2.52,2.93,3.879,4.3.566.572,1.448-.311.881-.884-1.358-1.371-2.584-2.87-3.878-4.3a16.941,16.941,0,0,0-3.7-3.395v-.743c0-.014,0-.026,0-.04l4.254-.262c1.212-.075,2.425-.13,3.637-.188a.6.6,0,0,0-.086.931l.877.879a12.894,12.894,0,0,1,1.2,1.868,46.447,46.447,0,0,1,3.36,4.9c.368.716,1.444.084,1.077-.631a48.638,48.638,0,0,0-3.5-5.093,12.441,12.441,0,0,0-1.19-1.849l-.953-.955a.8.8,0,0,0-.1-.083c1.226-.062,2.451-.133,3.675-.242q.785-.069,1.561-.15a1.687,1.687,0,0,0,1.165.111,10.7,10.7,0,0,1,1.442-.255,34.568,34.568,0,0,0,4.966,5.648.208.208,0,0,0,.294-.3,35.516,35.516,0,0,1-4.789-5.392,9.862,9.862,0,0,1,1.575.029,17.41,17.41,0,0,0,4.537.264,20.133,20.133,0,0,1,2.816,2.063c.192.187.486-.107.293-.294a17.317,17.317,0,0,0-2.533-1.875c1.26-.263,2.472-.707,3.718-1.034a16.433,16.433,0,0,1,4.142-.4c2.617,1.9,5.035,4.053,7.718,5.859.224.15.431-.211.21-.36-2.515-1.692-4.8-3.694-7.227-5.5h.111a58.9,58.9,0,0,0,7.188-.359A28.232,28.232,0,0,0,250.737,179c.223.151.431-.21.21-.359a27.666,27.666,0,0,1-7.218-7.025c.81-.1,1.622-.234,2.441-.391,3.2-.617,6.359-1.473,9.6-1.83q.832-.091,1.665-.189c1.465,1.758,2.726,3.684,4.337,5.322.188.191.482-.1.293-.3-1.538-1.564-2.757-3.392-4.141-5.084,1.42-.168,2.835-.349,4.248-.555a13.284,13.284,0,0,0,5.181,4.855c.238.123.449-.236.21-.359a12.916,12.916,0,0,1-4.945-4.563c1.172-.175,2.343-.366,3.515-.582q.786-.144,1.572-.294c1.248,1.272,2.786,2.309,4.038,3.546a.208.208,0,0,0,.294-.295c-1.182-1.167-2.635-2.158-3.842-3.344,2.175-.414,4.352-.827,6.544-1.13l2.545,2.549a.208.208,0,0,0,.293-.295l-2.319-2.324c.335-.043.67-.086,1-.125,1.211-.135,2.422-.246,3.633-.346a15.56,15.56,0,0,0,2.97,2.011c.238.121.449-.238.21-.36a14.706,14.706,0,0,1-2.584-1.7q1.455-.114,2.909-.216c.669,1.131,1.59,2.258,2.9,2.3.268.01.267-.407,0-.416a3.327,3.327,0,0,1-2.438-1.921c1.379-.1,2.757-.2,4.134-.318l1.482,1.484a.208.208,0,0,0,.294-.294l-1.235-1.237c1.494-.134,2.986-.293,4.476-.5,1.2,1.023,2.868,1.378,4.263,2.063.24.118.451-.241.21-.359a26.043,26.043,0,0,1-3.906-1.785c1.1-.161,2.206-.35,3.306-.575,5.377-1.1,10.645-2.658,15.969-3.981a2.34,2.34,0,0,1,.406.522,1.717,1.717,0,0,0-.108.8ZM432.021,121.66c-.043.076-.084.153-.121.233a9.94,9.94,0,0,1-2.712,3.2,26.017,26.017,0,0,1-7.176,4.117c-2.526,1.049-5.125,1.908-7.666,2.916-2.994,1.189-5.932,2.5-8.944,3.652-12.241,4.661-25.068,7.686-37.788,10.718-3.364.8-6.723,1.668-10.127,2.286-3.436.624-6.873,1.064-10.343,1.446-6.885.761-13.754,1.959-20.594,3.053-6.865,1.1-13.616,2.466-20.339,4.239-6.614,1.744-13.166,3.354-20.007,3.848-3.035.219-6.074.354-9.1.645-3.089.3-6.143.838-9.191,1.41-2.952.555-5.9,1.145-8.885,1.521s-5.943.631-8.9,1.238c-2.8.574-5.576,1.283-8.417,1.611-2.936.338-5.905-.015-8.848.225a19.752,19.752,0,0,0-4.231.847,11.386,11.386,0,0,1-3.688.724c-.232-.006-.463-.026-.693-.054a1.343,1.343,0,0,0-.479-.164c-.7-.1-1.371-.177-2.048-.217-.091-.007-.182-.013-.274-.016-.027,0-.053,0-.08,0a13.169,13.169,0,0,0-1.6.035c-1.611.138-3.218.31-4.829.444-3.212.267-6.445.345-9.663.545q-10.107.629-20.217,1.214l-.472.026a.421.421,0,0,0-.338-.753q-2.036.51-4.078,1-8.058.447-16.119.835a.821.821,0,1,0-1.463.068q-7.591.357-15.184.641c-.064-.78-.151-1.558-.249-2.335a4.493,4.493,0,0,1,1.745-.5.394.394,0,0,0,.4-.386c0-.013,0-.026,0-.04a.378.378,0,0,0-.348-.406.325.325,0,0,0-.054,0,4.522,4.522,0,0,0-1.408.327.912.912,0,0,0-.09-.331,12.268,12.268,0,0,1-.633-1.592,38.654,38.654,0,0,1-.362-4.648.84.84,0,0,0-.831-.833h-.052c-.092-.591-.163-1.186-.2-1.78,12.123-.618,24.238-1.449,36.338-2.324,7.935-.575,15.868-1.171,23.8-1.744q3.646-.264,7.295-.517a1.713,1.713,0,0,0,.705.4c3.129.911,6.231.288,9.349-.379.833-.179,1.665-.363,2.5-.533,1.275-.042,2.548-.12,3.817-.282a2.133,2.133,0,0,0,.894-.313c.7-.027,1.4-.045,2.1-.085a208.114,208.114,0,0,0,21.366-2.51c14.009-2.265,27.868-5.318,41.941-7.208,3.532-.474,7.07-.912,10.607-1.347s7.031-1.088,10.55-1.653c3.366-.541,6.751-.864,10.1-1.51,3.239-.623,6.445-1.4,9.652-2.171,6.836-1.638,13.695-3.2,20.531-4.852,6.944-1.677,13.835-3.522,20.8-5.117,12.519-2.866,25.2-4.811,36.949-10.257,1.411-.654,2.762-1.534,4.124-2.289a39.532,39.532,0,0,1,3.943-1.839,27.333,27.333,0,0,0,7.039-3.881c.254-.21.5-.431.732-.661a.876.876,0,0,0,.273.443,1.273,1.273,0,0,0,.239.476,3.069,3.069,0,0,1,.467,1.271c.077.378.112.77.157,1.155.023.547.106,1.078.157,1.639.146,1.578.308,3.149.335,4.735a23.3,23.3,0,0,1-.07,2.349Z" style="fill:#171723"/><polygon points="313.472 159.936 313.472 159.936 313.471 159.936 313.472 159.936" style="fill:#171723"/><path d="M160.257,162.168v5.55a.831.831,0,0,0,1.662,0v-5.55A.831.831,0,0,0,160.257,162.168Z" style="fill:#171723"/><path d="M179.094,161.058v4.44a.831.831,0,0,0,1.662,0v-4.44A.831.831,0,0,0,179.094,161.058Z" style="fill:#171723"/><path d="M187.959,159.638v10.3a.831.831,0,0,0,1.662,0v-10.3A.831.831,0,0,0,187.959,159.638Z" style="fill:#171723"/><path d="M192.391,165.5v2.22a.831.831,0,0,0,1.662,0V165.5A.831.831,0,0,0,192.391,165.5Z" style="fill:#171723"/><path d="M204.58,159.948v7.77a.831.831,0,0,0,1.662,0v-7.77A.831.831,0,0,0,204.58,159.948Z" style="fill:#171723"/><path d="M140.035,170.355h1.108a.417.417,0,0,0,0-.833h-1.108A.417.417,0,0,0,140.035,170.355Z" style="fill:#171723"/><path d="M229.122,185.038a16.267,16.267,0,0,0-3.394-2.256,3.237,3.237,0,0,1-1.964-2.853.623.623,0,0,0-1.246,0,4.2,4.2,0,0,0,1.93,3.522c1.241.883,2.684,1.391,3.793,2.47C228.817,186.482,229.7,185.6,229.122,185.038Z" style="fill:#171723"/><path d="M236.6,182.657c-1.762-.621-3.075-2.113-4.3-3.461a25.889,25.889,0,0,0-4.42-4.246c-.666-.455-1.289.628-.629,1.078,3.275,2.236,5.14,6.469,9.013,7.834C237.032,184.13,237.356,182.923,236.6,182.657Z" style="fill:#171723"/><path d="M246.1,183.8c.717.359,1.349-.718.63-1.079a21.287,21.287,0,0,1-5.415-3.233c-.578-.559-1.461.323-.881.883A22.168,22.168,0,0,0,246.1,183.8Z" style="fill:#171723"/><path d="M222.782,183.049c-.782,1.465-2.572,1.962-3.979,2.619a10.559,10.559,0,0,0-2.137,1.313c-.019.015-.081.053-.144.1-.01,0-.019,0-.03,0s-.06,0-.086-.006a3.154,3.154,0,0,1-.4-.095,3.275,3.275,0,0,1-1.294-.826c-.579-.559-1.462.324-.882.883a5.457,5.457,0,0,0,1.136.851,2.231,2.231,0,0,1-.036.516,3.5,3.5,0,0,0-.659,0,.416.416,0,0,0,0,.832c.378,0,.94.061,1.238-.238a1.119,1.119,0,0,0,.282-.765,2.78,2.78,0,0,0,.7.1.58.58,0,0,0,.6-.557.451.451,0,0,0,0-.052A9.98,9.98,0,0,1,219.4,186.3c1.515-.707,3.26-1.261,4.1-2.834C223.752,183,223.034,182.576,222.782,183.049Z" style="fill:#171723"/><path d="M231.8,185.12c-1.739.887-3.3,2.126-5.33,2.164a.416.416,0,0,0,0,.832c2.2-.042,3.86-1.313,5.75-2.277C232.692,185.6,232.272,184.877,231.8,185.12Z" style="fill:#171723"/><path d="M250.732,182.858a17.43,17.43,0,0,0-4.287,2.506,11.377,11.377,0,0,1-2.947,1.652.572.572,0,0,0-.1-.966,11.282,11.282,0,0,0-2.827-1.018,16.051,16.051,0,0,0-3.028-.177.625.625,0,0,0,0,1.249,17.7,17.7,0,0,1,2.512.1,9.1,9.1,0,0,1,2.714.923.731.731,0,0,0,.128.048,5.012,5.012,0,0,1-.922.107.416.416,0,0,0,0,.832c3.551-.069,5.8-3.346,8.976-4.455C251.456,183.485,251.239,182.681,250.732,182.858Z" style="fill:#171723"/><path d="M257.2,182.965c-1.182,1.116-2.636.988-4.139.988a.417.417,0,0,0,0,.833c1.754,0,3.36.058,4.727-1.232C258.175,183.185,257.587,182.6,257.2,182.965Z" style="fill:#171723"/><path d="M113.734,170.754c-.389-.368-.977.22-.587.589a3.025,3.025,0,0,0,1.956.954,2.819,2.819,0,0,0,1.956-.954c.39-.369-.2-.958-.588-.589A1.754,1.754,0,0,1,113.734,170.754Z" style="fill:#171723"/><path d="M221.927,179c.239.121.449-.238.21-.36a9.388,9.388,0,0,1-4.358-4.365c-.121-.24-.479-.029-.358.21A9.745,9.745,0,0,0,221.927,179Z" style="fill:#171723"/><path d="M254.167,173.477c.268.01.267-.406,0-.416-.558-.021-.813-.4-1.085-.836a7.76,7.76,0,0,0-.985-1.323c-.186-.195-.479.1-.293.294a17.96,17.96,0,0,1,1.231,1.7A1.409,1.409,0,0,0,254.167,173.477Z" style="fill:#171723"/></g></g></g></g></svg>