<svg xmlns="http://www.w3.org/2000/svg" width="200" height="50" viewBox="0 0 200 50"><title>uP_light_app_main</title><g id="f9149adc-6f0c-4532-affa-9202e114a1f2" data-name="Слой 2"><g id="cb48b4fb-980a-48e5-92e0-9075d6982922" data-name="Слой 1"><g id="7e34e88c-1583-4aaa-a1a8-d803f1fedd90" data-name="4184d266-6b4e-44ac-b294-b1122a3b504e"><g id="da2e7b1b-0698-4604-989e-520f0a1f9c35" data-name="a6f2b378-0920-4097-96c1-e6542fc28fee"><path d="M59.029,3.959H75.107q16.066,0,16.067,14.649a14.5,14.5,0,0,1-4.067,11.278,16.975,16.975,0,0,1-11.8,3.7H67.291v15.75H59.029Zm15.3,22.686A9.117,9.117,0,0,0,80.685,24.7a7.779,7.779,0,0,0,2.092-5.942,7.58,7.58,0,0,0-2.152-5.941,9.517,9.517,0,0,0-6.519-1.912H67.291V26.645Z" style="fill:#fff"/><path d="M101.307,47.711a15.305,15.305,0,0,1-5.744-6.093,17.886,17.886,0,0,1-2-8.426,18.28,18.28,0,0,1,2-8.491,15.194,15.194,0,0,1,5.744-6.158,18.374,18.374,0,0,1,17.686,0,15.2,15.2,0,0,1,5.745,6.158,18.28,18.28,0,0,1,2,8.491,17.886,17.886,0,0,1-2,8.426,15.308,15.308,0,0,1-5.745,6.093A18.374,18.374,0,0,1,101.307,47.711Zm15.008-7.13a11.487,11.487,0,0,0,2.226-7.389,11.74,11.74,0,0,0-2.226-7.487,8.156,8.156,0,0,0-12.329,0,11.746,11.746,0,0,0-2.227,7.487,11.494,11.494,0,0,0,2.227,7.389,8.224,8.224,0,0,0,12.329,0Z" style="fill:#fff"/><path d="M132.285,3.959h8.009V12h-8.009Zm0,12.964h8.009V49.331h-8.009Z" style="fill:#fff"/><path d="M173.148,20.423a17.291,17.291,0,0,1,3.093,10.8V49.331h-8V31.9a11.874,11.874,0,0,0-1.5-6.708,5.54,5.54,0,0,0-4.878-2.161,7.627,7.627,0,0,0-6.062,2.787V49.331h-8.031V16.923h7.493l.124,2.268a15.051,15.051,0,0,1,8.665-2.787A10.79,10.79,0,0,1,173.148,20.423Z" style="fill:#fff"/><path d="M187.091,47.484a8.762,8.762,0,0,1-2.2-6V23.534h-4.583l.71-6.611H184.9V9.793l8-.843v7.973H200v6.611h-7.1V38.183a14.925,14.925,0,0,0,.29,3.6,1.769,1.769,0,0,0,1.227,1.3,13.032,13.032,0,0,0,3.388.292H200l-.71,6.611h-5.745A8.127,8.127,0,0,1,187.091,47.484Z" style="fill:#fff"/><path d="M42.494,10.8H37.653L46.259,0l8.607,10.8H50.025v18.9c0,15.124-8.607,18.365-18.289,18.365a20.739,20.739,0,0,0,11.3-18.365Z" style="fill:#ff5521"/><path d="M38.729,29.168V13.5H32.274l6.455-8.1V3.781h-11.3V29.168a8.29,8.29,0,0,1-8.068,8.1,8.291,8.291,0,0,1-8.069-8.1V3.781H0V29.168A19.79,19.79,0,0,0,19.365,49.153,19.79,19.79,0,0,0,38.729,29.168Z" style="fill:#fff"/></g></g></g></g></svg>