<svg xmlns="http://www.w3.org/2000/svg" width="120" height="30" viewBox="0 0 120 30"><title>split_logo</title><g id="Слой_2" data-name="Слой 2"><g id="Слой_1-2" data-name="Слой 1"><g id="_4184d266-6b4e-44ac-b294-b1122a3b504e" data-name="4184d266-6b4e-44ac-b294-b1122a3b504e"><g id="a6f2b378-0920-4097-96c1-e6542fc28fee"><path d="M35.417,2.376h9.647q9.64,0,9.64,8.789a8.7,8.7,0,0,1-2.44,6.767,10.183,10.183,0,0,1-7.081,2.216H40.375V29.6H35.417ZM44.6,15.987a5.467,5.467,0,0,0,3.815-1.167,4.662,4.662,0,0,0,1.255-3.564,4.547,4.547,0,0,0-1.291-3.565,5.717,5.717,0,0,0-3.911-1.148H40.375v9.444Z" style="fill:#fff"/><path d="M60.784,28.627a9.193,9.193,0,0,1-3.446-3.656,10.733,10.733,0,0,1-1.2-5.056,10.982,10.982,0,0,1,1.2-5.095,9.119,9.119,0,0,1,3.446-3.694,11.022,11.022,0,0,1,10.612,0,9.115,9.115,0,0,1,3.447,3.694,10.969,10.969,0,0,1,1.2,5.095,10.732,10.732,0,0,1-1.2,5.056A9.2,9.2,0,0,1,71.4,28.627,11.027,11.027,0,0,1,60.784,28.627Zm9.005-4.278a6.894,6.894,0,0,0,1.336-4.434,7.049,7.049,0,0,0-1.336-4.492,4.89,4.89,0,0,0-6.917-.483,4.974,4.974,0,0,0-.48.483,7.037,7.037,0,0,0-1.336,4.492,6.894,6.894,0,0,0,1.336,4.434,4.935,4.935,0,0,0,7.4,0Z" style="fill:#fff"/><path d="M79.371,2.376h4.805V7.2H79.371Zm0,7.778h4.805V29.6H79.371Z" style="fill:#fff"/><path d="M103.889,12.254a10.374,10.374,0,0,1,1.856,6.481V29.6h-4.8V19.137a7.128,7.128,0,0,0-.9-4.025,3.323,3.323,0,0,0-2.927-1.3,4.574,4.574,0,0,0-3.637,1.672V29.6H88.666V10.154h4.5l.075,1.361a9.038,9.038,0,0,1,5.2-1.673A6.474,6.474,0,0,1,103.889,12.254Z" style="fill:#fff"/><path d="M112.254,28.49a5.255,5.255,0,0,1-1.316-3.6V14.12h-2.75l.426-3.966h2.324V5.876l4.8-.506v4.784H120V14.12h-4.26v8.79a8.933,8.933,0,0,0,.174,2.158,1.062,1.062,0,0,0,.736.778,7.89,7.89,0,0,0,2.033.175H120l-.426,3.967h-3.447A4.88,4.88,0,0,1,112.254,28.49Z" style="fill:#fff"/><path d="M25.5,6.482H22.592L27.756,0l5.163,6.482h-2.9V17.825c0,9.074-5.164,11.019-10.973,11.019a12.444,12.444,0,0,0,6.777-11.019Z" style="fill:#ff5521"/><path d="M23.237,17.5V8.1H19.365l3.872-4.861V2.269H16.46V17.5a4.975,4.975,0,0,1-4.841,4.861A4.973,4.973,0,0,1,6.778,17.5V2.269H0V17.5A11.875,11.875,0,0,0,11.619,29.492,11.874,11.874,0,0,0,23.237,17.5Z" style="fill:#fff"/></g></g></g></g></svg>