<svg xmlns="http://www.w3.org/2000/svg" width="138.296" height="200.044" viewBox="0 0 138.296 200.044"><title>split_man</title><g id="Слой_2" data-name="Слой 2"><g id="Слой_1-2" data-name="Слой 1"><path d="M40.13,43.174a.11.11,0,0,0,.026-.071C40.121,43.146,40.117,43.166,40.13,43.174Z" style="fill:#a7a6ae"/><path d="M20.663,59.539l.169-.248A.922.922,0,0,0,20.663,59.539Z" style="fill:#a7a6ae"/><path d="M53.816,36.541l-.03.022c.217-.091.522-.182,1.01-.352C54.47,36.321,54.139,36.421,53.816,36.541Z" style="fill:#a7a6ae"/><path d="M.29,109.4l.02-.343C.3,109.211.286,109.312.29,109.4Z" style="fill:#a7a6ae"/><path d="M8.51,78.147a2.363,2.363,0,0,1-.148.411A.9.9,0,0,0,8.51,78.147Z" style="fill:#a7a6ae"/><path d="M61.635,34.729l-.421.085A1.215,1.215,0,0,0,61.635,34.729Z" style="fill:#a7a6ae"/><path d="M76.676,31.98h-.04C76.613,31.983,76.638,31.983,76.676,31.98Z" style="fill:#a7a6ae"/><path d="M70.705,32.526l-.425.07A3.52,3.52,0,0,0,70.705,32.526Z" style="fill:#a7a6ae"/><path d="M70.078,32.631l.2-.035A1.227,1.227,0,0,0,70.078,32.631Z" style="fill:#a7a6ae"/><path d="M136.637,176.183l.841-.883Z" style="fill:#a7a6ae"/><path d="M10.815,157.233l-.074-.071C10.794,157.238,10.811,157.247,10.815,157.233Z" style="fill:#a7a6ae"/><path d="M136.956,175.724l.221-.222Z" style="fill:#a7a6ae"/><path d="M54.035,37.478c-.385.224-1.238.521-1.212.567A8.069,8.069,0,0,0,54.035,37.478Z" style="fill:#a7a6ae"/><path d="M18.465,164.621l.165.238Z" style="fill:#a7a6ae"/><polygon points="136.956 175.724 136.7 175.98 136.78 175.906 136.956 175.724" style="fill:#a7a6ae"/><path d="M47.392,192.364l-.015-.008-.1-.034Z" style="fill:#a7a6ae"/><path d="M49.832,193.594l-.535-.229A4.228,4.228,0,0,0,49.832,193.594Z" style="fill:#a7a6ae"/><path d="M137.478,175.3l.48-.5Z" style="fill:#a7a6ae"/><path d="M78.369,199.957h0Z" style="fill:#a7a6ae"/><path d="M9.48,76.3l.124-.2C9.6,76.065,9.574,76.072,9.48,76.3Z" style="fill:#a7a6ae"/><polygon points="5.136 96.035 5.134 96.042 5.136 96.042 5.136 96.035" style="fill:#a7a6ae"/><path d="M5.248,94.976a3.768,3.768,0,0,0-.112,1.059A4.2,4.2,0,0,0,5.248,94.976Z" style="fill:#a7a6ae"/><path d="M4.593,98.24l.039-.119A.868.868,0,0,0,4.593,98.24Z" style="fill:#a7a6ae"/><path d="M11.55,78.218l-.009,0,0,.015Z" style="fill:#a7a6ae"/><path d="M9.839,82.056a1.907,1.907,0,0,0-.154.249A1.565,1.565,0,0,0,9.839,82.056Z" style="fill:#a7a6ae"/><path d="M3.366,108.643l0,0v.022Z" style="fill:#a7a6ae"/><path d="M9.472,147.378A77.816,77.816,0,0,1,5.533,134.97a21.471,21.471,0,0,1-.877-3.249l.2-.172-.235-1.019c0-.432.168.786.131.029l-.2-.366c.065-.1-.372-2.658.063-.954-.242-1.329-.345-2.679-.5-4.02-.087-.891-.255-.5-.292-1.492.053-.208.07.351.15.262a14.175,14.175,0,0,0-.347-3.164,10.693,10.693,0,0,1-.3-3.026l.035.236c-.071-.472-.076-1.374-.111-1.384-.236.361.139.5.009,1.349-.2-.069-.126-1.057-.28-1a10.681,10.681,0,0,0-.077-1.608c.16-.969.111-2.365.3-3.09a7.579,7.579,0,0,1-.171-2.04c.222-.72.144.182.285-.808l-.111-.168c.083-.814.108-.683.164-.649a10.876,10.876,0,0,1,.064-1.824c.01.206.036.413.061.62a18.452,18.452,0,0,1,.254-2.253c.068.033.006.481-.057.807.263-.586.053-1.049.115-1.376-.066.087-.19.86-.264.466a6.843,6.843,0,0,1,.177-1.586l.044.624a6.253,6.253,0,0,1,.175-1.962c0,.073.034.043.055.077a19.606,19.606,0,0,1,.55-3.166l-.007.24a8.547,8.547,0,0,1,.063-1.065c-.229.685-.223.487-.359.526.415-.883.074-1.465.533-2.955a1.092,1.092,0,0,1-.1.825,3.557,3.557,0,0,1,.161,1.6c.078-.579.2-1.258.257-1.1l-.159-.222c.08-.345.143-.618.2-.879-.093-.178-.362.655-.266-.17.137-.923.311-.433.253-.6.213-1.263-.086-.567.293-1.741A2.092,2.092,0,0,1,5.323,94c.312-.83.534-2.1.841-2.285a.682.682,0,0,1-.024.5l-.033-.023c-.081.981.166-.793.3-.439-.153.026.207-1.158.419-1.674l-.2.123c.138-1.9.258.185.765-1.576.26-1.139-.176.405-.058-.307.272-.74.465-.982.818-2.076.17-.279.475-.862.654-.853.188-.674.793-1.959.819-2.376-.6,1.045-.262,1.172-.967,2.392l-.018-.425a23.042,23.042,0,0,1,1.045-2.673c-.083.112-.146.151-.145.058a25.9,25.9,0,0,1,1.075-2.935c.206-.1-.141.606-.348,1.14.448-.747.355-.832.992-2.016.15-.007-.4.81-.352,1l.61-1.353c0,.009.015.007.024.012-.1-.29.51-1.01.846-1.857a16.012,16.012,0,0,0,1.34-3.461c.2-.253.3-.309.28-.163-.337.418-.226.373-.265.563.316-.659.974-1.275.839-.884.543-1.019-.313.3-.006-.339l.831-1.347c-.191.1-.5.568-.146-.179.339-.6.512-.89,1.011-1.645-.026.138.294-.149-.083.415a4.319,4.319,0,0,0,.717-1.183c-.634.768.828-1.4.279-.881l.633-.768a4.243,4.243,0,0,1-.286.513c.29-.141.413-.7.594-1A9.2,9.2,0,0,1,19,64.992a3.675,3.675,0,0,1,.785-.938c.252-.393-.061-.093-.021-.233.322-.419.628-.85.963-1.258.122-.011.395.037.271.242.314-.514-.067-.326.511-1.022-.2.508.854-.844.535-.135a20.16,20.16,0,0,0,1.844-2.105c.239-.459-.646.6-.7.482,1.475-1.739,1.306-2.09,2.481-3.3l-.322.3A12.633,12.633,0,0,0,26.3,55.8c-.085.322,1.139-.553,2.334-1.789.044-.166-.791.568-.678.28.258-.283.536-.547.813-.81.07-.047,0,.057-.1.172.721-.737,1.543-1.146,1.64-1.481l.914-.539-.366.207a9.263,9.263,0,0,1,1.076-1.1A8.5,8.5,0,0,1,33.7,49.357c-.194.083-.674.3.024-.309.123.171,1.591-1.119,1.642-1.006.3-.228.868-.571.846-.675l.035.154c-.048-.211,1.03-1.049,1.888-1.645-.047.351.937-.664,1.449-.729.057-.271,1.5-1.095,1.588-1.3a1.319,1.319,0,0,1,.9-.312l.286-.251c.385-.145,1.666-.941,2.488-1.3l.663-.528.3-.093c.1-.1.7-.449.3-.287l.4-.211c-.033-.146.528-.359,1.322-.8.2-.07.164-.014,0,.089.406-.2.265-.044.508-.108-.306.1,1.35-.944.226-.471-.1-.017.523-.364.935-.533l.3,0,.426-.352a13.077,13.077,0,0,1,1.46-.552c-.529.23-1.085.718.28.131a15.313,15.313,0,0,0-1.394.725c.279-.127.424-.178.012.072,1.041-.509.323-.227,1.369-.7-.016.124.292.03,1.224-.335l-.717.225a.641.641,0,0,1,.121-.083c-.265.1-.346.118-.418.1a12.467,12.467,0,0,1,1.375-.662c-.562.151-.11-.076.395-.316s1.081-.443.714-.367A4.342,4.342,0,0,1,55.6,36.6c-.879.4.719-.143.594-.026.327-.149-.734.193-.292-.009a10.985,10.985,0,0,1,1.261-.374l-.219.1.844-.267c.122-.094-.831.221-.072-.084a9.132,9.132,0,0,1,.969-.276c-.352.175-.058.17-.715.394.547-.179,2.292-.741,1.562-.6l.657-.2c-.422.094-1.6.387-.28-.034l-.007.021.9-.347.412-.081c-.017-.016.122-.084.464-.181.1,0,.425-.072.407-.034a3.275,3.275,0,0,0,1.035-.333c.56-.146.774-.184.523-.074.769-.186,2.106-.544,2.648-.591,1.033-.24-.217.029.382-.139a21.632,21.632,0,0,0,2.278-.393c.958-.193,2.029-.338,2.883-.479-.475-.012.467-.079.774-.193-.367.078,1.634-.18.135.061.305-.046.61-.1.917-.126.63-.046-1.513.222-.561.153,1.027-.135,1.7-.252,2.918-.351-.405.081.936-.1.635-.031-.252.04-.589.069-.934.107l.215-.013c2.263-.21.65-.134,1.838-.233,1.385-.061,1.093-.022,1.174-.011l1.278-.067c-.846.058-1.564.055-1.176.018.611.007,2.057-.089,2.436-.11-1.981.051-1.372.058-3.235.086-.254.031-.212.03-1.325.107.7-.082-.049-.017-.247-.007.216,0-.772.079-1.109.119-.312.006.662-.115-.467-.03l-.207.081a3.158,3.158,0,0,0-.754.034,4.445,4.445,0,0,1,1.114-.157c-.761.036-1.344.087-1.882.151l-1.611.283.248-.055c-.248.055-.7.117-1.048.17-.776.088.607-.121.4-.115l-1.254.172a.084.084,0,0,1-.032,0,5.754,5.754,0,0,1-.759.1l.759-.184c-.438.074-.874.154-1.305.266.139-.056-1.087.148-.161-.046l-1.933.371L66.5,33.1c-.461.1-.471.113.085.019a24.666,24.666,0,0,1-2.576.531c-1.484.439-2.05.48-3.825,1.076,1.359-.484-1.613.367-.159-.1a16.137,16.137,0,0,0-1.69.572c-.645.149-.392-.023.285-.253l-.794.274.009-.022c-.229.08-.45.189-.675.282-.745.206-.184-.037-.944.212l-.136.139-.528.129c.2-.028-.235.143-.78.341l.005-.023-.66.249c.637-.287-.612.2-.333.034-.561.222-.573.228-1.576.653l.2-.012c-1.294.589-.091-.067-1.161.36l.1.044c-1.6.474-2.528,1.229-3.682,1.645.627-.314.426-.325.423-.3a29.8,29.8,0,0,0-3.4,1.839,4.826,4.826,0,0,0-1.539.562,3.9,3.9,0,0,0-.988.7c-.706.359-1.943,1.184-2.029,1.121-.12.153-.615.36-.94.661l-.1.016.109.042c-1.282.607-1.922,1.388-3.176,2.066l.182-.167-.458.385c-.1.021.078-.145.067-.208L33.566,47.6l.487-.262c-.466.351-.721.663-1.273,1.041.764-.823-.718.577-.934.595l.436-.407c-.626.52-.625.52-.506.56-.795.7-.693.3-1.375,1l.542-.434c.2-.081-.131.3-.491.591-.1.054-.376.234-.117-.006-.6.58-1.559,1.376-1.8,1.652-.358.275-.3.119-.139-.066-1.25,1.269-.638.5-1.84,1.82l-.023-.066-.382.484-.719.518.283-.162c-.408.419-.635.708-1.147,1.162l.126-.26c-1.105,1.225-1.423,1.287-2.391,2.529-.086.067.056-.134.129-.236-.872,1.173-.88.693-1.678,1.941.032-.09-.1.005-.088-.057l-.379.554-.072-.126-.194.545-.373.226-.115.241c-.68.37-1.114,1.313-1.869,1.966l.242-.028a13.675,13.675,0,0,1-1.087,1.641c-.408.555-.827,1.14-1.28,1.722s-.916,1.178-1.354,1.793c-.418.628-.821,1.27-1.174,1.926l-.1-.121-.5,1.135c-.447.5.1-.4-.072-.263-.624,1.161-.1.579-.812,1.93-.465.636.038-.291.171-.639-.628,1.292-1.605,3.166-2.1,4.057.008.03,0,.1.035.054-.354.892-1,1.979-1.413,2.948-.051-.052.039-.3.136-.542a5.846,5.846,0,0,0-.477,1.125l.04-.417a15,15,0,0,1-1.07,2.318c.092-.068.18.013-.1.652-.363.271-.587,1.815-1.1,2.818,0-.144.275-.919.191-.7a5.915,5.915,0,0,0-.439,1.5l-.034-.173c-.279.827-.469,1.683-.707,2.521-.335.3-.729,2.355-.819,2.141-.251.9.3-.728.019.419-.174.277-.232,1.043-.363.955l.016-.127-.2.8-.006-.541a2.179,2.179,0,0,0-.049,1.3c-.265.626-.425,1.57-.607,1.842l.018-.253c-.325,1.862-1.1,2.975-1.08,4.5-.038.106-.072.086-.033-.143l-.2,1.154L1.3,99.951l-.15,1.939-.068-.036c-.237,1.258-.382,3.259-.561,4.893L.511,106.5c-.034,1.8-.188,1.723-.2,3.041A.455.455,0,0,1,.29,109.4l-.073,1.18-.052-.264c.065.879-.259,2.5-.138,1.959a10.487,10.487,0,0,0,.208,1.5c-.013,1.287-.094.313-.164,1.111-.032.932.129,1.095.1,2.358L.1,117.22c.032.591.093.956.13,1.778l-.04-.243c.171,1.334-.109,1.683.261,2.715-.008.564.119,1.625-.016,1.585.191,1.662.475,2.938.714,4.576-.163.291.034.355.1,1.361l.1-.09c.213,1.153.369,2.4.536,3.682.22,1.27.466,2.57.774,3.827l-.089.095c.076.16.152.319.239.475.359,1.346.732,2.9,1.174,4.364.472,1.452.888,2.85,1.276,3.891a26.206,26.206,0,0,1,1.2,2.741l-.056-.108c.364.936.844,1.856,1.263,2.824s.857,1.953,1.334,2.939c-.1-.1-.028.1-.161-.105a9.237,9.237,0,0,1,.781,1.573l-.178-.526a7,7,0,0,1,.762,1.67l.571.814a.627.627,0,0,1,.051.175l.13.128.141.519a15.906,15.906,0,0,0,1.105,1.62c.011.1.468.9.073.308l1.86,3.08-.257-.5c.04-.107.658.778.95,1.253-.477-.563-.146.023-.026.32.318.376-.171-.4.018-.212a17.078,17.078,0,0,1,1.309,1.817l-.239-.281c.5.667.576,1.085,1.088,1.73.507.546.781,1.021.815.8.67.831.163.392.359.677a13.729,13.729,0,0,1,1.311,1.748c.552.305,1.782,2.26,2.067,2.3l.51.716c.058-.012.26.04.755.55.412.528.24.47.34.655l.441.2a80.112,80.112,0,0,0,9.578,9.013l2.55,1.791c.9.645,1.883,1.229,2.785,1.859l-.215-.117c.6.41,1.189.846,1.818,1.218-.448-.284-.876-.6-1.3-.913l1.13.667c1.018.632,2.184,1.412,3.464,2.135,1.3.683,2.632,1.468,4,2.03,1.811.644,1.082.688,2.805,1.326-.152-.043-.216-.043-.35-.088,1.855.686,2.842,1.109,4.736,1.678-.273.082,1.214.418,1.017.443l.178-.01a9.989,9.989,0,0,1,1.216.532c.283.07.566.139.855.189l.051.085c1.112.312,3.494,1,4.062,1.229,2.8.617,7.225,1.493,10.793,1.875l2.367.14.865.131c.831.048,1.716.014,2.488.056,0,.007-.036.012-.091.015.844,0,1.647.052,2.437.007.923.042,1.823,0,1.54.08a12.052,12.052,0,0,1,1.961-.054,65.787,65.787,0,0,0,7.571-.691,76.634,76.634,0,0,0,16.969-4.454,78.827,78.827,0,0,0,17.228-9.452,76.655,76.655,0,0,0,10.562-9.21c.259-.287,1-1.058.7-.776.573-.593.854-.849.956-.972-.79.8.22-.27-.559.5l.491-.5c.094-.109-.663.689-.555.554l-.121.159-.772.76c-.373.384-.571.671-1.5,1.551l.257-.242a3.946,3.946,0,0,1-.643.565l.169-.156-.655.584a8.63,8.63,0,0,0,.864-.814c-.919.836.242-.213-.44.421-.424.393-.316.271-.3.247l-.763.7c.017-.035.507-.465.187-.191l-.952.9c-.194.149-1.059.952-1.545,1.3.716-.61-.074.043.032-.063l-1.769,1.476c-.172.134.457-.4.189-.173-.338.272-.544.459-.733.6-.168.11-1.374,1.035-1.343.971-1.265.915-.493.439-1.683,1.278-.161.1.932-.684.4-.318-.4.305-.827.575-1.239.863a6.949,6.949,0,0,1,.695-.506c-1.7,1.127-3,2-4.345,2.735l-2,1.157L117.408,190c-.478.22.322-.2.642-.391-2.34,1.343-3.424,1.626-5.487,2.619l-.026.043a89.4,89.4,0,0,1-10.047,3.48l.419-.1c-.468.163-1.229.418-1.8.564-.093,0,.4-.172-.617.082.214-.037.647-.126.524-.078l-2.825.613c-1.1.256-2.354.425-3.657.669a72.784,72.784,0,0,1-8.041.847,76.989,76.989,0,0,1-20.877-1.7c1.007.189.55.248-.2.053-1.994-.747-3.578-.808-5.587-1.634-1.895-.5-3.6-1.223-5.307-1.848-1.658-.743-3.325-1.367-4.987-2.109l-.032-.1c-.474-.267-.628-.286-1.144-.527l.021-.013c-1.215-.579-2.647-1.359-3.317-1.743l-.085.052c-.7-.38-.334-.254-1.074-.612l.042-.025-.857-.43a27.4,27.4,0,0,0-2.426-1.588c-.858-.576-2.553-1.582-3.786-2.558-.18-.25-1.731-1.39-2.657-2.193a71.182,71.182,0,0,1-6.563-5.905l-.04.119-.563-.561c.026-.009-.04-.094.053-.017-.34-.527-1.322-1.268-1.675-1.813a3.04,3.04,0,0,0,.665.759c.425.494-.114.149-.651-.555l.03,0L25.029,173c.021-.11-.313-.544-.293-.655L23.489,171l-1.106-1.265a30.8,30.8,0,0,1-2.242-2.781c.247.161-1.171-1.543-.7-1.214-1.015-1.26.041.3-.5-.218-.269-.364-.589-.72-.574-.831.154.152-.114-.369.1-.073l-.612-.891c-.046-.093.107.09.183.182-.651-.887-1.182-1.707-1.665-2.521-.463-.828-.91-1.63-1.466-2.447-.134-.091.388.681.256.593a32.234,32.234,0,0,1-1.755-3.154l.265.293a7.129,7.129,0,0,1-.937-1.588c.018-.2.477.692.748,1.084-.325-.592-1.14-2.091-.988-1.585a8.515,8.515,0,0,1-.581-1.43c-.032,0,.259.715.007.31-.423-1.02-1.173-2.545-1.66-3.8.031,0,.034-.1.092,0A17.562,17.562,0,0,1,9.472,147.378Z" style="fill:#a7a6ae"/><path d="M11.808,77.738l-.258.48c.03.015.054.054-.023.3Z" style="fill:#a7a6ae"/><path d="M3.987,102.231a1.823,1.823,0,0,0,.006.2C4.009,102.3,4,102.253,3.987,102.231Z" style="fill:#a7a6ae"/><path d="M3.485,108.481c.005-.448-.065-.054-.119.162C3.394,108.655,3.429,108.648,3.485,108.481Z" style="fill:#a7a6ae"/><path d="M19,64.992c-.046.085-.065.143-.032.147C19.021,65.022,19.022,64.988,19,64.992Z" style="fill:#a7a6ae"/><path d="M49.913,39.3l-.151.059A1.161,1.161,0,0,0,49.913,39.3Z" style="fill:#a7a6ae"/><path d="M47.823,40.153l-.407.214A3.6,3.6,0,0,0,47.823,40.153Z" style="fill:#a7a6ae"/><path d="M13.742,73.3a2.163,2.163,0,0,0-.163.4A1.606,1.606,0,0,0,13.742,73.3Z" style="fill:#a7a6ae"/><path d="M47.008,40.6l-.5.265c0,.008,0,.015,0,.022Z" style="fill:#a7a6ae"/><path d="M50.56,38.99l-.647.3A4.456,4.456,0,0,0,50.56,38.99Z" style="fill:#a7a6ae"/><path d="M28.665,53.652l-.043.043C28.334,54.035,28.522,53.83,28.665,53.652Z" style="fill:#a7a6ae"/><path d="M44.913,41.948l-.068.034-.131.1Z" style="fill:#a7a6ae"/><path d="M52.823,38.045c-.1.045-.186.087-.254.127l.3-.119C52.836,38.055,52.826,38.052,52.823,38.045Z" style="fill:#a7a6ae"/><path d="M35.246,48.255c.1-.132.132-.192.122-.213C35.219,48.157,35.135,48.246,35.246,48.255Z" style="fill:#a7a6ae"/><g id="rocket_man" data-name="rocket man"><g id="fire"><g id="fire_middle" data-name="fire middle"><path id="Fill-23" d="M48.7,30.22c.163.362.609,1.082.893,1.559a9.347,9.347,0,0,0-3.55-1.038,12.961,12.961,0,0,0-2.094-.049l-.848.094.844.178a2.475,2.475,0,0,1,1.2.676,4,4,0,0,0-1.638-.262,5.087,5.087,0,0,0-1.794.509A5.226,5.226,0,0,0,40.055,33.1l-.125.157.214.065a6.131,6.131,0,0,1,2.7,1.132,7.229,7.229,0,0,0-2.157-.225l-.4.035.361.226a3.182,3.182,0,0,1,.568.446,3.359,3.359,0,0,0-1.742-.568,8.3,8.3,0,0,0-2.523.211A15.4,15.4,0,0,0,34,35.563l-.584.252.637-.041a5.4,5.4,0,0,1,3.69.963,23.976,23.976,0,0,0,3.53,2.008,7.636,7.636,0,0,0,4.278.829,33.042,33.042,0,0,0,3.25-.811,3.731,3.731,0,0,0-.212,1.341l.024.437.226-.361c.759-1.215,3.749-1.674,3.785-1.663h.118l.008-1.442-2.432.551.124-.665-.165.028a6.147,6.147,0,0,1-3.473-.78,12.118,12.118,0,0,1-1.586-.95,26.612,26.612,0,0,1,4.831-.994l.165-.028-.281-.749a2.869,2.869,0,0,0,1.721.248,4.176,4.176,0,0,0,1.067-.3l.047-.025.322-1.19-.154-.008c-1.151-.193-3.973-2.22-4.008-2.231l-.386-.273Z" style="fill:#f7ad31"/><path id="Fill-26" d="M50.889,36.389c1.328.129,1.753.141,1.775.07l.154.008.043-2.33a14.648,14.648,0,0,0-3.86.625,15.818,15.818,0,0,0-1.863.606l-.222.089.229.148a9.3,9.3,0,0,0,3.744.784" style="fill:#ff5722"/></g><g id="fire_top" data-name="fire top"><path id="Fill-28" d="M54.829,21.341a9.222,9.222,0,0,0,.708,1.27,7.888,7.888,0,0,0-2.871-.832A12.724,12.724,0,0,0,51,21.741l-.683.066.665.124a1.949,1.949,0,0,1,.972.529,3.81,3.81,0,0,0-1.306-.2,3.276,3.276,0,0,0-1.443.382,4.5,4.5,0,0,0-1.356,1l-.115.121.179.054a4.64,4.64,0,0,1,2.187.9,6.852,6.852,0,0,0-1.742-.177l-.319.02.265.159a2.168,2.168,0,0,1,.471.377,3.342,3.342,0,0,0-1.43-.434,6.517,6.517,0,0,0-2.041.162,14.667,14.667,0,0,0-2.389.8l-.455.213h.508a4.458,4.458,0,0,1,2.964.782,15.941,15.941,0,0,0,2.822,1.637,6.081,6.081,0,0,0,3.434.651,20.8,20.8,0,0,0,2.614-.662,2.724,2.724,0,0,0-.171,1.08l.009.355.17-.3c.611-.985,3.024-1.347,3.06-1.336l.082-.014V26.86l-1.938.466.088-.521-.165.028a4.808,4.808,0,0,1-2.818-.62,7.973,7.973,0,0,1-1.261-.734,21.062,21.062,0,0,1,3.9-.769h.118l-.241-.62a2.061,2.061,0,0,0,1.377.223,3.922,3.922,0,0,0,.856-.248l.046-.025.257-.976-.107-.033a14.407,14.407,0,0,1-3.24-1.8l-.29-.2Z" style="fill:#f7ad31"/><path id="Fill-30" d="M56.41,26.428c1.077.054,1.42.08,1.42.08h.118l.031-1.9a13,13,0,0,0-3.083.509c-.856.248-1.476.49-1.476.49l-.186.1.168.09a6.733,6.733,0,0,0,3.008.639" style="fill:#ff5722"/></g><g id="fire_bottom" data-name="fire bottom"><path id="Fill-32" d="M54.17,41.405a9.211,9.211,0,0,0,.708,1.269,7.888,7.888,0,0,0-2.871-.832,12.723,12.723,0,0,0-1.668-.037l-.683.066.665.123a1.949,1.949,0,0,1,.972.529,3.81,3.81,0,0,0-1.306-.2,3.263,3.263,0,0,0-1.443.382,4.476,4.476,0,0,0-1.356.994l-.115.121.179.055a4.66,4.66,0,0,1,2.187.9A6.852,6.852,0,0,0,47.7,44.6l-.319.021.265.158a2.168,2.168,0,0,1,.471.377,3.2,3.2,0,0,0-1.4-.423,6.513,6.513,0,0,0-2.04.162,14.764,14.764,0,0,0-2.389.8l-.456.213h.509a4.458,4.458,0,0,1,2.964.782,15.845,15.845,0,0,0,2.822,1.637,6.09,6.09,0,0,0,3.434.652,21.035,21.035,0,0,0,2.618-.651A2.707,2.707,0,0,0,54,49.406l.01.355.169-.3c.612-.986,3.025-1.348,3.061-1.337l.082-.014V46.94l-1.926.465.08-.522-.164.028a4.819,4.819,0,0,1-2.819-.62,8.051,8.051,0,0,1-1.261-.734,20.978,20.978,0,0,1,3.9-.768h.118l-.242-.62a2.056,2.056,0,0,0,1.377.223,3.815,3.815,0,0,0,.856-.248l.047-.025.257-.976-.107-.033a14.515,14.515,0,0,1-3.241-1.8l-.289-.2Z" style="fill:#f7ad31"/><path id="Fill-35" d="M55.786,46.505c1.077.054,1.421.08,1.421.08h.118l.031-1.9a13,13,0,0,0-3.083.509c-.856.248-1.476.49-1.476.49l-.186.1.167.09a6.746,6.746,0,0,0,3.008.639" style="fill:#ff5722"/></g></g><g id="spaceman"><g id="hand"><path id="bg" d="M107.765,13.777a41.036,41.036,0,0,1-3.692,4.19,20.97,20.97,0,0,0-3.245,5.419c.025.047.025.047.014.082,0,.119-.018.19-.015.308s-.019.19-.015.308l-.033.107c-.022.072-.007.154-.046.025a.407.407,0,0,1-.2.526.452.452,0,0,1-.525-.2l-.114-.269c-.139-.315-.3-.677-.477-1-.024-.047-.06-.058-.085-.1-.2-.255-.356-.5-.553-.753a6.787,6.787,0,0,0-1.07-1.106c-.207-.219-.414-.438-.585-.646a4.766,4.766,0,0,1-.474-.5,1.827,1.827,0,0,1-.306-.8.336.336,0,0,1-.217-.183.405.405,0,0,1,.2-.525,6.031,6.031,0,0,1,.752-.163c.011-.035.058-.06.1-.085.151-.111.291-.185.441-.3a3.783,3.783,0,0,1,.406-.306,3.131,3.131,0,0,1,.43-.26c.29-.186.592-.407.893-.628.592-.406,1.233-.719,1.789-1.136.463-.367.78-.9,1.278-1.252a.337.337,0,0,1,.33-.056,19.62,19.62,0,0,0,1.665-1.759c.4-.425.744-.907,1.121-1.378.337,1.078,1.013,2.454,2.23,2.433" style="fill:#fff"/><path id="red" d="M109.8,9.785a6.923,6.923,0,0,1-.22,1.22c-.021.071-.043.143-.09.168a4.843,4.843,0,0,1-1.025,1.836,1.237,1.237,0,0,1-.932.5,1.3,1.3,0,0,1-.947-.482,3.244,3.244,0,0,1-.562-1.108c-.117-.387-.291-.713-.1-1.084a5.2,5.2,0,0,1,.738-1.143c.273-.386.51-.783.783-1.168.263-.35.939-.262.905.235a.136.136,0,0,1,0,.118.765.765,0,0,1,.373-.2.793.793,0,0,1,.861.378,1.538,1.538,0,0,1,.131.47.772.772,0,0,1,.085.26" style="fill:#ff5722"/><g id="shadow"><path id="Fill-43" d="M107.668,13.705c.036.011.039.129-.025-.046h0a.458.458,0,0,1-.141.465,2.938,2.938,0,0,1-.33.446,3.131,3.131,0,0,1-.819.767h0a2.974,2.974,0,0,0-.194.253c-.366.436-.722.836-1.124,1.26s-.757.825-1.124,1.26a4.329,4.329,0,0,1-.5.629c-.057.06-.068.1-.125.157l-.036.109c-.223.479-.4.933-.613,1.376a3.932,3.932,0,0,1-.712,1.189.144.144,0,0,1-.2-.013.142.142,0,0,1-.036-.1c-.069.1-.09.168-.158.264-.047.025-.047.025-.058.061l-.022.071c-.111.24-.141.465-.241.669s-.191.371-.292.575a3.715,3.715,0,0,0-.256.586c-.022.072-.09.168-.112.24l-.011.035a.036.036,0,0,1,.025.046h0a.867.867,0,0,1,.175.326.408.408,0,0,1-.281.5.353.353,0,0,1-.072.014c-.293.067-.443-.212-.521-.47a.038.038,0,0,0-.024-.047h0l-.037-.01a6.534,6.534,0,0,1-.613-.811c-.382-.545-.845-1.076-1.273-1.6a9.379,9.379,0,0,1-.728-.689c-.207-.219-.392-.51-.588-.764a2.741,2.741,0,0,1-.506-.779.56.56,0,0,1-.024-.436h0a.3.3,0,0,1-.036-.423l.013-.014a1.035,1.035,0,0,1,.559-.3c.071.022.082-.014.035.011.011-.036.047-.025.094-.05a.124.124,0,0,1,.082-.014.523.523,0,0,1,.236-.006,1.563,1.563,0,0,1,.37-.318,1.155,1.155,0,0,1,.359-.281.616.616,0,0,1,.668.242.6.6,0,0,1,.067.293l.107.033c.2.1.257.312.357.5a5.679,5.679,0,0,0,.252.584c.189.409.3.95.719,1.234a.856.856,0,0,0,1.071-.183,18.4,18.4,0,0,0,3.071-3.559c.388-.507.994-.831,1.392-1.373a9.742,9.742,0,0,1,1.02-1.175,3.869,3.869,0,0,1,.517-.546,1.3,1.3,0,0,1,.28-.149.779.779,0,0,1,.258-.078l.036.011.071.021" style="fill:#e6e7e8"/></g><path id="border" d="M109.3,8.853c1.263,1.243-.595,3.764-1.213,4.513-.082.014-.211.053-.211.053a1.341,1.341,0,0,1-1.233-.569c.011-.036-.025-.047-.05-.093a4.734,4.734,0,0,1-.69-1.459c.011-.036-.024-.047-.014-.082-.024-.047-.039-.129-.063-.176h0c.01-.036.046-.025.057-.06l.057-.061.011-.036c.011-.036.047-.025.058-.061s.046-.024.057-.06c.09-.168.287-.3.424-.5.126-.157.191-.372.327-.565h0c.09-.168.169-.3.249-.432.125-.157.262-.35.4-.543a.708.708,0,0,1,.369-.317.136.136,0,0,1,.118,0,.37.37,0,0,1,.089.222,2.571,2.571,0,0,1-.145.736l-.131.43-.086.286a2.606,2.606,0,0,0-.046.923c.042.247.049.483.091.73.028.165.311.133.283-.031a6.9,6.9,0,0,1-.123-1.013,3.222,3.222,0,0,1,.143-.855l.01-.036a7.129,7.129,0,0,0,.261-.858,1.7,1.7,0,0,1,.691-.22.53.53,0,0,1,.311.133m-1.317,4.6a.115.115,0,0,1-.057.06c.011-.035.011-.035.057-.06m.29.205c.527-.582,2.848-3.47,1.3-5.071a.916.916,0,0,0-.6-.22,1.736,1.736,0,0,0-.68.184c-.025-.047-.014-.083-.039-.129a.408.408,0,0,0-.421-.284.6.6,0,0,0-.42.224,3.7,3.7,0,0,0-.8,1.085c-.09.168-.19.372-.28.54a8.694,8.694,0,0,0-1.343,1.467,23.863,23.863,0,0,1-1.879,2.2l.033-.107a3.132,3.132,0,0,1-.392.389,8.514,8.514,0,0,0-.854.756,13.338,13.338,0,0,1-2.177,1.643h0c-.509.392-2.97,2.067-3.529,2.366-.011.035.025.046.014.082.047-.025.118,0,.165-.028.082-.014.176-.064.258-.078.115-.025.228-.056.34-.092h0l.326-.174c.187-.1,2.263-1.54,2.45-1.639a4.576,4.576,0,0,0,.512-.274c.384-.235.707-.528,1.055-.774a9.026,9.026,0,0,0,.9-.781h0a.8.8,0,0,1,.209-.171,16.788,16.788,0,0,0,2-2.087c.367-.436.708-.918,1.085-1.389.337,1.078,1.013,2.454,2.23,2.433-1.082,1.507-2.453,2.809-3.656,4.2a20.58,20.58,0,0,0-3.571,6.377h0c.014.082-.018.189,0,.272-.011.036-.018.189-.022.071a.126.126,0,0,1,.014.083l.025.046.025.047a.08.08,0,0,1,.05.093,1.588,1.588,0,0,1,.219-.207,19.191,19.191,0,0,1,3.749-6.705,43.4,43.4,0,0,0,3.7-4.344h0" style="fill:#231f2d"/></g><path id="Fill-67" d="M89.987,5.065a.714.714,0,0,1,.376-.081l-.011.036.061.057a.543.543,0,0,1,.256.312.516.516,0,0,1-.048.415.461.461,0,0,1-.287.3.52.52,0,0,1-.415-.048.457.457,0,0,1-.3-.287.389.389,0,0,1-.017-.2l.065-.214a.975.975,0,0,1,.323-.293" style="fill:#e6e7e8"/><path id="Fill-81" d="M90.119,5.144c.046-.024.036.011,0,0m-.606.324a.343.343,0,0,0,.242.62.124.124,0,0,1,.082-.014l.036.011c-.083.014-.047.025.071.022a.125.125,0,0,1,.083-.014c.071.021.118,0,.189.018a1.423,1.423,0,0,0,.62-.241.447.447,0,0,0,.152-.5.467.467,0,0,0-.422-.284l-.143-.043c-.071-.022-.132-.08-.2-.1a.438.438,0,0,0-.594.175l-.015.03a.4.4,0,0,0-.051.3l-.047.025" style="fill:#e6e7e8"/><path id="Fill-83" d="M102.334,13.145c-.011.035-.047.025,0,0-.025-.047.022-.072.032-.108l-.032.108" style="fill:#e6e7e8"/><path id="Fill-85" d="M102.5,12.454a3.362,3.362,0,0,1-.148.619,3.669,3.669,0,0,1,.148-.619" style="fill:#e6e7e8"/><path id="Fill-87" d="M102.208,6.352a4.335,4.335,0,0,1,.507,1.676,8.151,8.151,0,0,1,.152,1.686,11.55,11.55,0,0,1-.156,1.671c-.061.333-.148.619-.2.916l-.054.178c.032-.107.029-.225.061-.332.037-.38.11-.748.147-1.127a9.276,9.276,0,0,0,.059-1.739,7.932,7.932,0,0,0-.367-1.751,6.461,6.461,0,0,0-1.667-2.615A7.153,7.153,0,0,0,98.426,3.37a5,5,0,0,0-2.7-.234.163.163,0,0,1-.1-.3,3.209,3.209,0,0,1,2.513-.174,6.088,6.088,0,0,1,2.379,1.424,7.7,7.7,0,0,1,.891,1.051,9.282,9.282,0,0,1,.8,1.22" style="fill:#e6e7e8"/><path id="Fill-89" d="M99.3,4.493a.389.389,0,0,0,.017.2,1.175,1.175,0,0,1-.2.289.815.815,0,0,1-1.016,0,.627.627,0,0,1-.127-.741.762.762,0,0,1,.592-.406.5.5,0,0,1,.561.209,1.457,1.457,0,0,1,.178.445" style="fill:#e6e7e8"/><path id="Fill-91" d="M97.173,3.77a1.275,1.275,0,0,1-.037.379l-.172.182a.506.506,0,0,1-.569-.055.49.49,0,0,1,.167-.808.449.449,0,0,1,.589.236.483.483,0,0,1,.022.064" style="fill:#e6e7e8"/><path id="Fill-93" d="M94.017,3.75h0c.025.046-.011.036,0,0l-.043.143c-.011.036-.047.025-.094.05a.135.135,0,1,1-.08-.258h0a.136.136,0,0,1,.118,0c.036.01.061.057.1.068h0" style="fill:#e6e7e8"/><path id="Fill-95" d="M94.649,3.083a.143.143,0,0,1,.118,0c.071.022.11.151.124.233a.194.194,0,0,1-.265.232c-.25-.076-.153-.4.023-.461" style="fill:#e6e7e8"/><path id="Fill-97" d="M99.462,5.363a.355.355,0,0,1,.315.251.308.308,0,0,1-.288.3.262.262,0,0,1-.309-.205.231.231,0,0,1-.005-.046.308.308,0,0,1,.287-.3" style="fill:#e6e7e8"/><path id="Fill-99" d="M90.688,8.675h0a8.326,8.326,0,0,0-.069,2.673,6.237,6.237,0,0,0,2.392,4.084,5.933,5.933,0,0,0,2.248.955,7.507,7.507,0,0,0,1.339.093,7.117,7.117,0,0,0,.848-.094c.294-.067.577-.1.87-.165.047-.025.061.057.014.082a6.34,6.34,0,0,1-2.127.448,6.466,6.466,0,0,1-1.674-.273,5.887,5.887,0,0,1-3.405-3.063,6.932,6.932,0,0,1-.436-4.74" style="fill:#e6e7e8"/><g id="body_bg" data-name="body bg"><path id="Fill-51" d="M84.982,27.872c-.053-.211-.131-.469-.285-.477-.059-.447-.083-.884-.143-1.332-.048-.483-.179-.952-.192-1.425-.014-.082,0-.118-.017-.2.01-.036-.007-.236.01-.036,0-.118-.017-.2-.02-.318h0a3.414,3.414,0,0,0-.1-.577.737.737,0,0,1,.047-.415,5.356,5.356,0,0,1-.162-.752,2.651,2.651,0,0,1-.038-.519c.022-.071,0-.118.019-.19.011-.035-.007-.236.011-.035a3.03,3.03,0,0,1,.067-1l.1-.322L84.3,20.2c-.011.035-.014-.083,0-.118a1.97,1.97,0,0,1,.3-.882c.057-.061.068-.1.115-.122a1.731,1.731,0,0,1,.126-.157l.172-.182h0a.378.378,0,0,0,.079-.132c.011-.036.068-.1.079-.132a1.406,1.406,0,0,1,.334-.328l.011-.036h0a.636.636,0,0,0,.008-.154h0a.624.624,0,0,0,.007-.154c-.014-.082-.017-.2-.031-.283a.622.622,0,0,0,.007-.154h0c.011-.035-.014-.082,0-.118-.014-.082,0-.118-.028-.164-.014-.083-.017-.2-.031-.283l.011-.036c-.014-.082-.018-.2-.032-.283a2.154,2.154,0,0,0-.056-.329c-.014-.083,0-.118-.028-.165-.014-.082-.053-.211-.067-.294s0-.118-.028-.164c.01-.036-.025-.047-.014-.083-.014-.082-.039-.129-.053-.211-.113-.659-.272-1.293-.4-1.916-.014-.082,0-.118-.029-.165a.036.036,0,0,1-.024-.045h0c.01-.036-.015-.083,0-.118-.025-.047,0-.118-.028-.165s0-.118-.028-.165c-.014-.082,0-.118-.028-.164a.036.036,0,0,1-.025-.046h0c.011-.036-.014-.082,0-.118s-.014-.082,0-.118c-.014-.083,0-.118-.018-.2a.137.137,0,0,0-.014-.082h0l-.036-.011c-.014-.082,0-.118-.028-.165.011-.035-.025-.046-.014-.082-.025-.047,0-.118-.028-.165l.036.011a.037.037,0,0,1-.026-.044v0l-.025-.047-.025-.047c.011-.035-.025-.046-.014-.082a.13.13,0,0,1-.014-.082,2.167,2.167,0,0,0-.056-.33c.011-.036-.014-.082,0-.118a.4.4,0,0,0-.018-.2c-.014-.083,0-.118-.028-.165s0-.118-.028-.165c-.042-.247-.038-.519-.058-.837.021-.072,0-.118.018-.19-.014-.082.019-.19,0-.272.021-.071,0-.118.018-.19s0-.118.019-.189a1.508,1.508,0,0,1,.018-.19c.022-.071.008-.154.029-.225,0-.118.041-.261.048-.415.033-.107.029-.226.062-.333a.494.494,0,0,1,.029-.225l.065-.215.174-.572c.043-.143.133-.311.177-.454l.054-.179a.346.346,0,0,0,.09-.167l.032-.108.022-.071a.137.137,0,0,0,.068-.1l.022-.071c.033-.107.09-.168.112-.24l.022-.071c.021-.072.068-.1.089-.168.011-.036.058-.061.069-.1s.057-.061.068-.1a7.831,7.831,0,0,1,.959-1.232c.1-.085.173-.182.277-.267.046-.025.057-.061.1-.086s.057-.06.1-.085c.057-.061.151-.111.208-.172l.011-.035h0a5.359,5.359,0,0,1,.567-.453,7.413,7.413,0,0,1,1.91-1.021A6.54,6.54,0,0,1,90.712.873,7.461,7.461,0,0,1,91.757.644,9.877,9.877,0,0,1,92.771.522c.153.007.318-.021.472-.013h0a10.2,10.2,0,0,1,1.492.1,14.333,14.333,0,0,1,1.713.4,11.265,11.265,0,0,1,2.441,1.1,3.348,3.348,0,0,0,.422.284l-.072-.021L99.025,2.3l-.036-.01c.1.068.2.1.264.158l-.071-.022L99.074,2.4l-.107-.033a3.029,3.029,0,0,0-.8-.2c-.118,0-.19-.018-.308-.015s-.19-.018-.308-.015a.331.331,0,0,0-.189-.019c-.283.032-.555.027-.8.069a6.216,6.216,0,0,0-.752.163,8.47,8.47,0,0,0-2.545,1.18,5.583,5.583,0,0,0-.753.553c-.011.035-.047.024-.058.06a8.511,8.511,0,0,0-.933.888c-.011.036-.046.025-.057.061h0c-.011.036-.047.025-.058.061h0a.038.038,0,0,1-.025-.047l-.048-.1h0c-.025-.047-.05-.093-.086-.1l-.036-.011h0l-.046.025h0a1.433,1.433,0,0,0-.554-.363l-.036-.011-.107-.04-.107-.032a1.3,1.3,0,0,0-.561.066l-.047.025a3.406,3.406,0,0,0-.43.259h0a1.17,1.17,0,0,0-.287.3.672.672,0,0,0-.147.228.629.629,0,0,0-.112.24,1.178,1.178,0,0,0-.08.522,1.292,1.292,0,0,0,.12.5c.06.057.074.14.135.2-.011.036.025.047.05.093-.011.036.025.047.05.094.06.057.132.079.157.125.036.011.025.047.06.058s.025.046.061.057c.025.047.025.047.061.058l.071.021c.036.011.061.058.1.069L89.6,7.4l.036.01.072.022.071.022.024.017.022-.072.011-.036.01-.035.011-.036.011-.036a.035.035,0,0,0-.023-.045h0L89.8,7.2h0l-.035-.011h0l-.036-.011h0L89.7,7.165a.137.137,0,0,0-.1-.068l-.072-.022c-.025-.046-.025-.046-.06-.057-.025-.047-.025-.047-.061-.058s-.025-.046-.061-.057c-.025-.047-.1-.068-.121-.115-.036-.011-.025-.047-.061-.058s-.071-.021-.06-.057l-.025-.047-.05-.093-.05-.093c-.025-.047-.014-.082-.039-.129s-.05-.093-.039-.129a.136.136,0,0,1,0-.118.221.221,0,0,1,.008-.154l.032-.107.011-.036h0l.011-.036a.341.341,0,0,0,.09-.168.456.456,0,0,1,.1-.2,1.735,1.735,0,0,1,.287-.3h0c.011-.035.046-.024.057-.06a1,1,0,0,1,.337-.21l.047-.025.046-.025c.036.011.047-.025.083-.014a.389.389,0,0,1,.2-.017c.036.01.118,0,.154.007l.072.022.071.022a1.223,1.223,0,0,1,.422.284c.035.01.025.046.06.057l.025.047.025.046h0a.038.038,0,0,0,.024.047h0a.135.135,0,0,0,.061.057h0l.046-.025.036.011h0c-.057.061-.068.1-.126.157s-.125.157-.183.218l.011-.036c-.011.036-.057.061-.068.1.011-.036-.025-.047-.014-.083l.01-.035c.011-.036-.024-.047-.014-.083h0l-.049-.093-.025-.047c-.036-.01-.025-.046-.061-.057l-.025-.047c-.025-.046-.1-.068-.121-.115-.036-.01-.025-.046-.061-.057-.025-.047-.025-.047-.061-.057h0l.05.093-.036-.011-.068-.029h0c-.025-.046-.025-.046-.014-.082a.08.08,0,0,0-.05-.093l-.071-.025c-.047.025-.047.025-.083.014a1.789,1.789,0,0,0-.283.031c-.046.025-.129.039-.175.064s-.1.086-.151.111l-.2.289a.509.509,0,0,0-.1.322.662.662,0,0,0,.045.365.5.5,0,0,0,.185.29c.05.094.157.126.254.194a.516.516,0,0,0,.322.1c.082-.014.118,0,.2-.017a7.626,7.626,0,0,0-.472.911l-.021.071-.036-.01-.011.035-.032.108-.033.107-.022.071-.065.215-.011.036h0L89.507,8.2l-.033.107-.065.215-.011.035h0c-.021.072-.007.154-.029.226a.113.113,0,0,1,.014.082l-.047.025c.025.047.014.082.039.129a1.834,1.834,0,0,0-.027.734,7.8,7.8,0,0,0,.246,1.636,7.742,7.742,0,0,0,.489,1.476c.05.093.064.175.114.269l.025.046c-.011.036.014.082.039.129a3.782,3.782,0,0,0,.448.839l-.011.036h0c.061.057.086.1.146.161h0c.025.047.086.1.111.151.036.011.025.046.06.057h0c.036.011.025.047.061.058s.025.046.061.057h0c.036.011.025.047.06.058a.274.274,0,0,1,.1.068,2.113,2.113,0,0,1,.243.23c.121.115.242.229.4.355a2.4,2.4,0,0,0,.254.194l.289.205c.193.137.457.3.722.453a7.184,7.184,0,0,0,.922.436,6.872,6.872,0,0,0,2.364.444,8.921,8.921,0,0,0,1.342-.179,6.128,6.128,0,0,0,1.358-.486,7.284,7.284,0,0,0,1.266-.826h0a.038.038,0,0,0,.047-.024h0c.219-.207.448-.45.678-.692l-.011.036c.011-.036.058-.061.069-.1a4.051,4.051,0,0,1-.526,1.09c-.011.036-.058.061-.069.1s-.057.06-.068.1c-.046.025-.068.1-.126.157-.01.036-.057.061-.068.1s-.057.061-.068.1-.058.061-.068.1a.138.138,0,0,1-.069.1c-.1.085-.172.182-.276.267h0c-.011.036-.058.061-.1.086l-.047.025c-.093.05-.15.11-.244.16-.035-.011-.046.025-.093.05a6.136,6.136,0,0,1-.9.391c-.129.039-.247.042-.376.081l-.247.042-.247.042c-.036-.011-.083.014-.119,0a4.306,4.306,0,0,1-1.027.039c-.118,0-.261-.04-.379-.037-.107-.032-.19-.018-.261-.04-.107-.032-.19-.018-.261-.04l-.108-.032a15.852,15.852,0,0,1-1.748-.414,10.707,10.707,0,0,1-1.23-.451c-.179-.054-.311-.133-.382-.155L92.1,16.69l-.072-.022h0l-.071-.021-.036-.011a.036.036,0,0,1-.046.025h0l-.01.036a.167.167,0,0,0,.084.221h0a4.635,4.635,0,0,1,.454.177,10.9,10.9,0,0,0,1.23.451,17.2,17.2,0,0,0,1.82.435c.38.037.723.063,1.067.089l.354-.01c.154.008.318-.02.472-.013.083-.014.118,0,.2-.017a.817.817,0,0,0,.053.211h0c-.036-.011-.047.025-.083.014a.036.036,0,0,1,.025.046h0a2.154,2.154,0,0,1-.329.056h0c-.047.025-.118,0-.165.028s-.118,0-.2.018c-.047.025-.118,0-.165.028-.036-.011-.082.014-.118,0-.118,0-.2.017-.319.02a.692.692,0,0,0-.272,0c-.035-.011-.082.014-.118,0-.154-.007-.272,0-.426-.012-.035-.011-.118,0-.153-.007-.119,0-.19-.019-.308-.016-.036-.01-.118,0-.154-.007s-.118,0-.154-.008c-.118,0-.19-.018-.308-.015a8.107,8.107,0,0,1-.865-.107.632.632,0,0,1-.262-.04l-.143-.043-.107-.033-.107-.032a1.4,1.4,0,0,1-.368-.073l-.108-.032-.214-.066-.394-.119-.143-.043-.041-.025h0l-.036-.011h0l-.036-.011h0l-.036-.011h0l-.021.072a.166.166,0,0,0,.064.175l.286.087.715.217c.143.044.3.051.475.105.072.022.19.019.262.041s.153.007.261.04c.379.037.794.084,1.209.132.426.012.816.013,1.206.015.082-.014.2-.018.283-.032-.011.036-.011.036.014.083a1.077,1.077,0,0,1,.064.175c.014.083.078.258.131.469.014.083.039.129.053.212l-.072-.022c-.011.036.025.047.014.082-.082.014-.189-.018-.272,0-.154-.008-.39,0-.579-.02a1.508,1.508,0,0,1-.19-.018c-.154-.008-.354.01-.544-.009-.472.013-.981.015-1.535.042a11.557,11.557,0,0,0-1.708.224c-.222.089-.434.142-.656.23a.66.66,0,0,0-.222.089.444.444,0,0,0-.233.125c-.011.035-.047.025-.057.06h0c-.011.036-.047.025-.058.061l-.085-.1-.058.061c-.022.071-.068.1-.079.132l-.022.071-.021.072-.044.143a.711.711,0,0,0-.015.308c.025.046.014.082.039.129-.011.035.014.082.039.128l.075.14.085.1a.6.6,0,0,0,.207.219.979.979,0,0,0,.526.2c.153.007.343.026.5.033a4.376,4.376,0,0,0,.956-.061,6.237,6.237,0,0,0,.941-.144,5.553,5.553,0,0,0,.906-.155.817.817,0,0,1,.211-.053c.036.011.083-.014.119,0l.554-.027c.272,0,.591-.016.863-.011.154.007.272,0,.426.012s.272,0,.426.012a.143.143,0,0,1,.118,0,19.763,19.763,0,0,1,.3,1.966,13.4,13.4,0,0,1,.121,1.4c.013.473.026.945-.008,1.443s-.056.958-.126,1.445c-.058.451-.128.937-.222,1.377a18.545,18.545,0,0,1-.68,2.371,13.815,13.815,0,0,1-.645,1.483c-.6.052-1.167.115-1.769.166-.766.08-1.521.125-2.276.169l-.036-.011a1.688,1.688,0,0,1-.168-.09l-.072-.022a1.17,1.17,0,0,1-.192-.136.733.733,0,0,0-.3-.051c-.022.071.053.211.221.3a.3.3,0,0,1,.1.068c-1.357.1-2.738.146-4.084.206h0c.011-.036-.025-.046-.05-.093-.1-.186-.246-.348-.345-.534-.075-.14-.114-.269-.189-.409l-.124-.233h0c-.036-.011-.025-.047-.061-.057a2.828,2.828,0,0,1-.381-.546c-.014-.082-.075-.139-.089-.222l-.1-.3c-.05-.093-.089-.222-.138-.316a2.482,2.482,0,0,1-.253-.584.817.817,0,0,1-.053-.211c.011-.036-.014-.082-.039-.129a4.028,4.028,0,0,1-.383-1.053.9.9,0,0,1,.08-.523c-.028-.164-.045-.365-.1-.576" style="fill:#fff"/><path id="Fill-57" d="M85.821,30.9A59.605,59.605,0,0,1,84.762,25c-.148-1.958-.939-5.4.547-6.823-.036-.011-.061-.058-.075-.14.063-2.011-.7-3.882-.916-5.861a.038.038,0,0,0-.025-.047c-.057-.329-.077-.648-.144-.942-4.558.609-3.885,6.631-3.177,10.087.656,3.244.706,11.576,5.326,11.532-.2-.644-.332-1.35-.477-1.9" style="fill:#fff"/><path id="Fill-69" d="M98.3,20.005c-.192-.527-.358-1.007-.461-1.312-.036-.011-.047.025-.082.014a2.324,2.324,0,0,1-.33.057.389.389,0,0,0-.2.017c-.047.025-.118,0-.2.017-.118,0-.283.032-.437.024h0a1.18,1.18,0,0,1,.064.175,2.343,2.343,0,0,1,.167.481,1.577,1.577,0,0,1,.1.3,1.129,1.129,0,0,1,.343.026,2.615,2.615,0,0,1,.641.077,1.068,1.068,0,0,1,.225.03A1.356,1.356,0,0,1,98.3,20" style="fill:#fff"/><path id="Fill-59" d="M97.413,29.5c.095-.44.164-.926.215-1.223.07-.486.1-.984.137-1.481a14.668,14.668,0,0,0,.019-1.478c-.013-.472-.062-.956-.11-1.439-.066-.684-.19-1.307-.288-1.883.368.072.737.145,1.059.243a1.044,1.044,0,0,0,.311.133l.143.043.071.022h0l.072.022c.071.021.132.079.2.1a11.782,11.782,0,0,1,.458,1.193,14.749,14.749,0,0,1,.457,1.583,13.557,13.557,0,0,1,.31,1.812.523.523,0,0,0,.006.236c.014.082-.008.154.006.236-.007.154.021.319.013.473-.026.343,0,.662-.031,1v.236c-.022.072-.019.19-.04.261a2.168,2.168,0,0,1-.07.487,2.155,2.155,0,0,1-.105.476l-.076.25-.076.25-.032.107-.033.108a.473.473,0,0,1-.1.2l-.1.2-.069.1-.068.1c-.079.132-.194.253-.273.386l-.173.182c-.01.035-.057.06-.068.1l-.068.1-.068.1L99,32.76l-.047.025c-.046.025-.1.085-.15.11-.484.049-.931.108-1.379.168-.4.034-.848.094-1.249.128a11.8,11.8,0,0,0,.544-1.279,18.949,18.949,0,0,0,.691-2.407" style="fill:#fff"/></g><g id="shadows"><path id="Fill-71" d="M91,14.08a2.272,2.272,0,0,1-.813-1.184,8.294,8.294,0,0,1-.789-1.645c-.078-.258-.156-.516-.223-.809a3.261,3.261,0,0,1-.119-.895c0-.118.018-.19.015-.308.011-.036.019-.19.033-.107.007-.154,0-.272.012-.426A2.4,2.4,0,0,1,89.3,7.98c.022-.072.068-.1.09-.168-.086-.1-.146-.162-.232-.266a1.4,1.4,0,0,1-.367-.462l-.125-.233c-.014-.083-.064-.176-.078-.258a1.26,1.26,0,0,1,.006-.662.194.194,0,0,1,.365-.046c.065.175.139.316.2.491a1.322,1.322,0,0,0,.281.359c.122.115.171.208.293.323.06.057.085.1.146.161l.047-.025a1,1,0,0,1,.243-.16c.047-.025.108.033.061.058a1.722,1.722,0,0,1-.183.217c-.011.036-.058.061-.068.1l.074.14a.4.4,0,0,1-.116.511c-.046.025-.129.039-.175.064a1.247,1.247,0,0,0-.073.368.221.221,0,0,1-.008.154l-.011.036h0c.015.082-.018.19,0,.272-.011.036.014.082,0,.118h0a.582.582,0,0,1,.039.129.036.036,0,0,1,.025.046h0c.028.164.067.293.095.458l.014.082a.036.036,0,0,1,.025.046h0c.014.082.039.129.053.211l.117.387a8.135,8.135,0,0,0,.306.8c.014.083.074.14.088.223.036.01.075.139.075.139a1.685,1.685,0,0,0,.175.327,4.184,4.184,0,0,0,.456.685l.256.312a.035.035,0,0,0,.023.045h0l.036.011a.28.28,0,0,1,.121.115c.111.151.111.151.025.047l.025.046c.036.011.025.047.061.058.025.046.1.068.121.115.036.01.121.115.121.115h0c.025.046.1.068.122.114.085.1.217.184.3.288-.011.035.086.1.05.093.036.011.025.046.06.057.207.219.124.623-.184.608q-.095,0-.189-.018h0l.035.01c-.035-.01-.118,0-.154-.007a.623.623,0,0,1-.357-.109,3.9,3.9,0,0,1-.614-.42" style="fill:#e6e7e8"/><path id="Fill-79" d="M95.763,17.945a1.224,1.224,0,0,0,.566-.063,3.144,3.144,0,0,0,.59-.016,1.613,1.613,0,0,1,.415.048l.036.011h0a.442.442,0,0,1,.2.593.477.477,0,0,1-.049.077,3.355,3.355,0,0,1-1.675.116,14.283,14.283,0,0,0-1.753-.141.135.135,0,0,0-.1-.068c-.264-.159-.654-.16-.8-.439-.06-.058-.1-.069-.157-.126a.285.285,0,0,1-.157-.126l-.025-.047h0l-.071-.021a.341.341,0,0,1-.218-.183c-.086-.1.019-.19.126-.158.071.022.168.09.239.112h0l.036.011.071.022a.221.221,0,0,1,.154.007c.226.03.487.07.712.1s.487.07.712.1a1.087,1.087,0,0,1,.572.173l.072.022h.118c.036.011.082-.014.118,0a2.468,2.468,0,0,0,.272,0" style="fill:#e6e7e8"/><path id="Fill-103" d="M90.592,1.266a1.175,1.175,0,0,1-.268.114l.093-.05a.5.5,0,0,0,.175-.064m-1.949.893a.989.989,0,0,0-.244.16h0a.989.989,0,0,1,.244-.16M84.67,12.94a.425.425,0,0,0,.02.319c.014.082.039.129.053.211a.66.66,0,0,0,.089.222l.025.047-.14.075c0-.118-.017-.2-.02-.319-.018-.2-.01-.354-.027-.555h0m-.024,6.514c.025.046.025.046-.032.107l-.066.214.044-.143.054-.178h0M95.29.583c.118,0,.161-.146-.017-.2a6.362,6.362,0,0,0-1.171,0c.011-.036,0-.118-.085-.1-.555.027-1.11.054-1.675.116a.41.41,0,0,0-.287-.094c-.071-.022-.118,0-.189-.019A.471.471,0,0,0,91.64.257a4.217,4.217,0,0,0-.787.148.839.839,0,0,1-.222.089L90.559.475a2.344,2.344,0,0,0-1.275.472,11.807,11.807,0,0,0-1.127.752c-.093.05-.161.146-.254.2a.284.284,0,0,0-.4.035,4.766,4.766,0,0,0-.5.474c-.058.061-.069.1-.126.157-.047.025-.058.061-.1.086-.011.036-.058.061-.069.1s-.057.061-.068.1c-.022.071-.032.107-.007.154l-.452.331a.779.779,0,0,0-.258.078,1.388,1.388,0,0,0-.468.639h0a1.882,1.882,0,0,0-.284.422,7.808,7.808,0,0,0-.678,1.98,17.3,17.3,0,0,0-.114,4.495.779.779,0,0,0,.078.258c.031.283.051.6.072.92a3.47,3.47,0,0,0-.137-.706c0-.118-.133-.079-.19-.018a4.238,4.238,0,0,0-.366,2.622c.047.873.166,1.768.2,2.677.024.437.072.92.06,1.346a7.452,7.452,0,0,1-.072,1.267c-.1.712-.244,1.449-.307,2.171a21.908,21.908,0,0,0,.55,8.484l-.032.107c-.036-.011-.025-.047-.061-.057-.071-.022-.1-.069-.157-.126l-.061-.058a.524.524,0,0,1-.11-.15,7.3,7.3,0,0,1-.638-.857,8.706,8.706,0,0,1-.871-2.022,8.519,8.519,0,0,1-.29-1.1c-.053-.211-.117-.387-.145-.551a3.033,3.033,0,0,0-.1-.552c.011-.036-.025-.047-.036-.011a2.329,2.329,0,0,0-.034.5c.018.2,0,.391.017.591a8.622,8.622,0,0,0,.161,1.142,15.594,15.594,0,0,0,.513,1.913.279.279,0,0,0-.008.154c.05.093.017.2.031.282a2.594,2.594,0,0,0,.253.585,6.658,6.658,0,0,0,.313.641c.1.187.188.409.288.6.05.093.064.176.089.222a.865.865,0,0,0,.174.326,2.546,2.546,0,0,0,.571.564,2.939,2.939,0,0,0,.721.453,1.848,1.848,0,0,0,.419.166.791.791,0,0,0,.976.257.813.813,0,0,0,.361-1.062l-.025-.046-.025-.047a.678.678,0,0,0-.135-.2.6.6,0,0,0-.067-.294.205.205,0,0,0-.039-.129c-.025-.046-.014-.082-.039-.129a5.573,5.573,0,0,0-.217-.573c-.025-.047-.039-.129-.064-.175s-.1-.3-.05-.094c-.063-.175-.138-.315-.2-.491a.548.548,0,0,0-.257-.312c-.137-.7-.285-1.375-.387-2.069a.3.3,0,0,0,.126-.158,1.242,1.242,0,0,0,0-.508,1.8,1.8,0,0,1,0-.508,3.912,3.912,0,0,0-.025-1.335c-.017-.2-.081-.376-.1-.576s.012-.426-.006-.627a3.512,3.512,0,0,0,.031-.615c.007-.154-.021-.319-.013-.473l.088-.676.152-.5a3.913,3.913,0,0,0,.093-1.338,2.666,2.666,0,0,1,.085-.8A.779.779,0,0,1,85.457,19a1.721,1.721,0,0,1,.161-1.044l.011-.036a.035.035,0,0,0,.045-.023v0a2.832,2.832,0,0,1,.381-.353,3.312,3.312,0,0,0,.323-.292.408.408,0,0,0,.018-.19c.008-.154-.02-.319-.013-.472,0-.272-.016-.591-.036-.91-.041-.637-.129-1.249-.206-1.9-.045-.365-.09-.73-.172-1.106-.009-.355-.055-.72-.064-1.074-.049-.483-.073-.92-.086-1.393-.014-.082.019-.189,0-.272,0-.39-.009-.744-.007-1.134.007-.154-.021-.319,0-.508a2.468,2.468,0,0,0,0-.272c.011-.036-.014-.083,0-.118a.132.132,0,0,1-.013-.083,3.113,3.113,0,0,0,.019-.579c-.014-.083.008-.154-.006-.237.011-.035-.014-.082,0-.118l.011-.036.021-.071A8.43,8.43,0,0,1,86.4,4.915a9.571,9.571,0,0,1,.473-.91,7.269,7.269,0,0,1,.736-.753,1.276,1.276,0,0,1,.265-.232l.592-.406c.151-.111.255-.2.405-.307a4.893,4.893,0,0,1,.757-.434A14.294,14.294,0,0,1,91.849.984,12.719,12.719,0,0,1,94.581.605.2.2,0,0,0,94.71.563c.036.011.036.011.047-.025.189.019.343.026.533.045" style="fill:#e6e7e8"/></g><path id="body_borders" data-name="body borders" d="M85.317,32.815l-.107-.032c-.2-.1-.407-.2-.575-.292a.329.329,0,0,1-.168-.09c-1.254-.888-1.975-2.629-2.416-4.52,0-.118-.053-.211-.057-.33-.024-.046,0-.118-.028-.164,0-.118-.053-.212-.056-.33s-.053-.211-.056-.329-.054-.211-.054-.33-.053-.211-.057-.329c-.042-.247-.073-.53-.115-.777-.025-.046,0-.118-.028-.165a1.083,1.083,0,0,1-.057-.329,1.789,1.789,0,0,0-.031-.283c-.014-.082,0-.118-.017-.2-.028-.165-.032-.283-.06-.448h0c-.014-.082-.017-.2-.031-.283h0c-.014-.082-.017-.2-.032-.282-.042-.248-.084-.5-.1-.7l-.042-.247-.043-.247c-.031-.283-.073-.53-.115-.777a5.1,5.1,0,0,1-.2-1c-.014-.083-.039-.129-.053-.212,0-.118-.053-.211-.056-.329a16.9,16.9,0,0,1-.236-2.57c-.009-.355-.019-.709.007-1.052.04-.262.056-.569.1-.83a.226.226,0,0,1,.007-.154c.033-.108.03-.226.062-.333a.746.746,0,0,1,.04-.261l.044-.143.043-.143.022-.072.022-.071a3.848,3.848,0,0,1,3.323-2.975,8.4,8.4,0,0,0,.154.906.038.038,0,0,0,.024.047h0c.216,1.861.916,3.674.932,5.553l-.036-.01c.023,1.725-.078,3.217-.125,4.53a38.9,38.9,0,0,0,.024,5.2A17.524,17.524,0,0,0,86.6,32.727l-.412.071h0A2.62,2.62,0,0,0,85.317,32.815Zm12.97-12.894a.341.341,0,0,0-.168-.09,1.137,1.137,0,0,0-.225-.029c-.154-.008-.379-.037-.641-.077-.082.014-.225-.03-.343-.026a1.139,1.139,0,0,1-.1-.3,5.043,5.043,0,0,1-.167-.48,1.077,1.077,0,0,0-.064-.175h0a1.337,1.337,0,0,0,.437-.024c.047-.025.118,0,.2-.017s.118,0,.2-.018a2.154,2.154,0,0,1,.329-.056c.036.011.047-.025.083-.014C97.943,19,98.109,19.477,98.287,19.921Zm.209.727.025.047.025.047.274.512c.089.222.177.444.241.62l-.036-.011h0l-.071-.022-.036-.01-.143-.044-.036-.011-.178-.054-.251-.076-.143-.043-.071-.022a4.526,4.526,0,0,0-.7-.134h0c.011-.036-.025-.047-.014-.083h0c-.014-.082-.039-.129-.053-.211-.067-.294-.134-.587-.212-.845h0a.779.779,0,0,1-.078-.258h0q.094.014.189.018h0l.036.011c.261.04.476.1.63.113l.107.033.036.01.035.011.072.022h0c.046-.025.046-.025.082-.014h0a.194.194,0,0,0,.028.165l-.011.035h0c.025.047.015.083.05.094a.538.538,0,0,0,.207.1Zm-1.527.787h0c-.036-.011-.036-.011-.086-.1a1.128,1.128,0,0,0-.307-.016h0l-.036-.014c-.036-.01-.118,0-.154-.007l-.036-.011c-.082.014-.154-.008-.236.006l-.709.02c-.082.014-.118,0-.2.017-.036-.011-.082.014-.118,0h0c-.118,0-.2.017-.319.021h0l-.046.025h0l-.047.025c-.036-.011-.047.024-.082.014l-.036-.011c-.036-.011-.047.025-.082.014a.126.126,0,0,1-.083.014h0a.037.037,0,0,1-.044.026h0c-.165.028-.376.081-.541.109-.129.039-.247.042-.376.081a5.663,5.663,0,0,1-.906.155l-.036-.011a3.167,3.167,0,0,1-.884.083c-.118,0-.225-.029-.343-.026h0l-.108-.032a.524.524,0,0,1-.322-.1h0l-.071-.022-.036-.011h0l-.025-.046h0l-.035-.011h0l-.025-.047h0l-.05-.093-.025-.046h0a.511.511,0,0,1-.081-.376l.021-.072.011-.036.011-.035.022-.072.011-.036a.128.128,0,0,0,.057-.06l.011-.036h0a.761.761,0,0,1,.208-.171l.047-.025.046-.025a4.106,4.106,0,0,1,.491-.2l.036.011c.082-.014.211-.053.294-.067.129-.039.282-.031.411-.07l.036.011c.448-.06.849-.094,1.25-.129.282-.031.519-.038.755-.044l.036.011c.272,0,.508,0,.744-.009.39,0,.734.028,1.041.043h0c.083-.014.19.018.272,0a2.4,2.4,0,0,1,.308.016c.011-.036.047-.025.082-.015.053.212.1.459.173.717-.01.035.025.046.015.082.024.047,0,.118.028.165h0l.042.247a.124.124,0,0,1,.014.082c-.011.036.025.047.014.083Zm-6.258-15.8-.065.214a.4.4,0,0,1-.183.218c-.011.036-.021.071-.057.06a.036.036,0,0,1-.046.025h0a.52.52,0,0,1-.415-.047.425.425,0,0,1-.253-.194l-.025-.047-.025-.047a.275.275,0,0,1-.028-.164l.011-.036h0l.01-.036.011-.036.033-.107h0l.011-.036a.772.772,0,0,1,.323-.292c.046-.025.129-.039.175-.064l.036.011a.277.277,0,0,1,.165-.028h0l.06.057h0a.548.548,0,0,1,.257.312l-.011.036a.036.036,0,0,1,.025.046h0c.025.046.025.046.014.082Zm-4.557,27.51s.036.011-.07.487l.072.021h0c.082-.014.258-.078.422-.106.039.129.125.233.164.362h0a2.075,2.075,0,0,1,.128.351c.082-.014.189.019.272.005l.036.011c-.078-.258-.153-.4-.192-.527a.037.037,0,0,1,.044-.026h0c-.063-.176-.138-.315-.2-.491-1.766-4.089-1.658-6.633-1.467-10.48.046-1.313.148-2.8.124-4.53h0l.011-.036h0a.634.634,0,0,0,.008-.154c-.014-.082-.018-.2-.032-.282a.638.638,0,0,0,.008-.154h0c.011-.036-.014-.083,0-.118a.577.577,0,0,0,.007-.154h0c-.014-.083-.017-.2-.031-.283l.006-.037c-.014-.082-.017-.2-.031-.283a2.286,2.286,0,0,0-.057-.329c-.014-.082,0-.118-.028-.165-.014-.082-.053-.211-.067-.293s0-.119-.028-.165c.011-.036-.025-.047-.014-.082-.014-.083-.039-.129-.053-.212-.113-.659-.272-1.293-.4-1.916-.014-.082,0-.118-.028-.164a.036.036,0,0,1-.025-.046h0c.011-.036-.014-.082,0-.118-.025-.047,0-.118-.028-.165s0-.118-.029-.165c-.014-.082,0-.118-.028-.164a.038.038,0,0,1-.025-.047c.011-.036-.014-.082,0-.118s-.014-.082,0-.118c-.014-.082,0-.118-.017-.2a.137.137,0,0,0-.014-.082h0l-.036-.011c-.014-.082,0-.118-.028-.164.011-.036-.025-.047-.014-.083-.025-.046,0-.118-.028-.164l.035.01a.036.036,0,0,1-.025-.046h0l-.025-.047-.024-.046c.01-.036-.025-.047-.014-.083a.13.13,0,0,1-.015-.082,2.167,2.167,0,0,0-.056-.33c.011-.035-.014-.082,0-.118a.389.389,0,0,0-.017-.2.577.577,0,0,0-.028-.165c-.025-.046,0-.118-.029-.165-.042-.247-.037-.519-.058-.837.022-.072,0-.118.019-.19-.014-.082.018-.189,0-.272.022-.071,0-.118.019-.189s0-.119.018-.19c0-.064.009-.127.018-.19s.008-.154.03-.225c0-.118.04-.261.048-.415.032-.107.029-.225.061-.333a.467.467,0,0,1,.03-.225L84.54,7.2l.173-.572c.044-.143.134-.311.177-.454l.054-.178a.329.329,0,0,0,.09-.168l.033-.108.022-.071a.137.137,0,0,0,.068-.1l.022-.071c.032-.107.09-.168.111-.239l.022-.072c.022-.071.068-.1.09-.168.011-.036.057-.061.068-.1s.058-.061.068-.1a7.77,7.77,0,0,1,.96-1.231c.1-.086.172-.182.276-.268.047-.025.058-.061.1-.086s.058-.06.1-.085c.058-.061.151-.111.208-.171l.011-.036h0c.162-.146.348-.246.51-.392a7.413,7.413,0,0,1,1.91-1.021l.527-.192a2.075,2.075,0,0,1,.351-.128.036.036,0,0,1,.046-.025h0c.035.011.046-.025.082-.014s.047-.025.082-.014c.33-.056.623-.123.953-.18L91.9.911a.641.641,0,0,0,.2-.017c.036.011.047-.025.083-.014l.354-.01c.036.011.082-.014.118,0a.636.636,0,0,0,.154.008c.047-.025.118,0,.2-.018.036.011.083-.014.119,0,.071.022.118,0,.189.019h0c.072.021.118,0,.19.018s.118,0,.189.019l.036.01a.143.143,0,0,1,.118,0c.072.022.118,0,.19.019l.071.021a.279.279,0,0,1,.154.008h0c.036.011.118,0,.154.008h0a.342.342,0,0,1,.19.018,1.854,1.854,0,0,1,.451.059.468.468,0,0,1,.225.029l.107.033a1.023,1.023,0,0,1,.333.062l.608.184a11.2,11.2,0,0,1,2.441,1.092c.071.021.1.068.168.09h0c.1.068.2.1.264.158l-.072-.022-.107-.032-.107-.033a3.119,3.119,0,0,0-.8-.2c-.118,0-.189-.018-.307-.015s-.19-.018-.308-.015a.334.334,0,0,0-.19-.019c-.283.032-.554.027-.8.07a6.028,6.028,0,0,0-.752.162,8.465,8.465,0,0,0-2.544,1.18,5.583,5.583,0,0,0-.753.553c-.011.035-.047.025-.058.06a13.647,13.647,0,0,0-.99.949h0c-.011.036-.047.025-.058.061h0a.036.036,0,0,1-.025-.046h0l-.05-.093h0c-.025-.047-.049-.093-.085-.1l-.036-.011h0l-.047.025h0a1.422,1.422,0,0,0-.553-.363l-.031-.012-.107-.032-.107-.033a1.311,1.311,0,0,0-.566.063l-.047.025a3.131,3.131,0,0,0-.43.26h0c-.047.024-.1.085-.151.11-.01.036-.046.025-.057.061l-.172.182c-.011.035-.069.1-.08.132a.137.137,0,0,0-.068.1l-.022.072-.054.179-.043.143-.044.143c.015.082-.018.189,0,.272a1.292,1.292,0,0,0,.12.5c.061.057.075.139.136.2-.011.036.024.046.049.093a.038.038,0,0,0,.025.047l.025.046a.038.038,0,0,0,.024.047h0c.025.046.061.057.086.1l.035.011.036.011.036.01.036.011h0l.035.011h0l.036.011.036.011c.036.011.061.057.1.068l.036.011.036.011.071.021.072.022a.08.08,0,0,0,.093-.05l.022-.071.011-.036.011-.036.01-.035.011-.036a.038.038,0,0,0-.024-.047h0l-.043-.008h0l-.036-.01h0l-.036-.011h0L89.6,7.369a.13.13,0,0,0-.1-.068l-.072-.022c-.025-.047-.025-.047-.06-.058-.025-.046-.025-.046-.061-.057s-.025-.047-.061-.058c-.025-.046-.1-.068-.121-.114-.036-.011-.025-.047-.061-.058s-.071-.022-.06-.057l-.025-.047-.05-.093-.05-.093c-.025-.047-.014-.083-.039-.129a.2.2,0,0,1-.039-.129.136.136,0,0,1,0-.118.221.221,0,0,1,.008-.154l.033-.109.011-.036.011-.036a.349.349,0,0,0,.09-.168.473.473,0,0,1,.1-.2,1.735,1.735,0,0,1,.287-.3h0c.036.011.047-.025.093-.05l.187-.1h0c.046-.025.057-.061.093-.05h0a.037.037,0,0,1,.044-.026h0l.047-.025a.036.036,0,0,1,.046-.025h0a.037.037,0,0,1,.044-.026h0a.389.389,0,0,1,.2-.017c.035.011.082-.014.153.008l.072.021L90.4,5a1.247,1.247,0,0,1,.422.284c.036.011.025.047.061.057l.035.011.036.011h0l.036.011.036.011a.137.137,0,0,1,.06.057h0l.047-.025h0l-.011.036c-.022.072-.068.1-.079.132h0c-.047.025-.068.1-.115.122-.011.035-.057.06-.068.1.011-.036-.025-.047-.014-.082l.01-.036c.011-.036-.024-.047-.014-.082h0l-.047-.1-.025-.046c-.036-.011-.025-.047-.061-.058l-.025-.046c-.025-.047-.1-.069-.121-.115-.036-.011-.025-.047-.061-.058-.025-.046-.025-.046-.061-.057h0l.05.093-.035-.013-.072-.02h0c-.025-.047-.025-.047-.014-.083a.081.081,0,0,0-.05-.1l-.071-.022c-.047.025-.047.025-.083.014a1.915,1.915,0,0,0-.283.032c-.046.025-.129.039-.175.064s-.1.085-.151.11a.826.826,0,0,0-.3.339.517.517,0,0,0-.1.322.662.662,0,0,0,.045.365.5.5,0,0,0,.185.291c.05.093.157.125.254.194l.25.076.071.021c.011-.036.047-.025.083-.014l.036.011a.037.037,0,0,1,.044-.026h0c-.068.1-.09.168-.158.264a.135.135,0,0,0-.068.1c-.022.071-.09.168-.112.239h0l-.011.036-.011.036-.021.071a.329.329,0,0,0-.09.168l-.022.072-.03-.01h0l-.011.036-.021.071-.011.036-.034.1-.011.036-.011.036h0l-.054.179-.011.035-.01.036h0l-.011.036h0l-.033.107-.011.036-.011.036-.043.143-.011.035h0c-.021.072-.007.154-.029.226a.113.113,0,0,1,.014.082l-.047.025h0l.025.047-.011.035h0c0,.1,0,.206-.015.308,0,.118.032.283.024.437,0,.118.017.2.02.318a12.012,12.012,0,0,0,.225,1.318A7.745,7.745,0,0,0,90,12.992l.025.047.1.186.025.047-.011.035c-.01.036.025.047.014.083a.037.037,0,0,1,.026.044v0l.025.047a5.063,5.063,0,0,0,.424.792h0c-.011.036.025.047.05.093s.06.058.085.1h0c.036.011.061.058.086.1a.038.038,0,0,0,.024.047h0a.038.038,0,0,0,.024.047h0a.037.037,0,0,0,.023.046h0l.025.047h0l.025.046h0a.289.289,0,0,1,.1.069,2.276,2.276,0,0,1,.242.229c.122.115.243.23.4.356a2.507,2.507,0,0,0,.254.194l.289.205a.875.875,0,0,1,.264.158c.061.058.132.079.193.137a.526.526,0,0,0,.193.136.138.138,0,0,0,.1.069c.132.079.265.158.433.248h0c.071.022.167.09.239.112a.638.638,0,0,0,.239.111,6.4,6.4,0,0,0,3.2.386c.047-.025.118,0,.165-.028.036.011.047-.025.082-.014l.247-.043c.083-.014.176-.063.258-.078a1.3,1.3,0,0,0,.341-.092l.526-.191a.5.5,0,0,0,.176-.064l.093-.05.28-.149a5.25,5.25,0,0,0,1.043-.738h0l.047-.025h0c.219-.207.449-.449.678-.692l-.01.036a5.3,5.3,0,0,1-.515,1.054.13.13,0,0,0-.058.06l-.011.036-.011.036-.01.036c-.058.06-.069.1-.126.157-.011.036-.047.025-.058.061l-.01.035-.011.036c-.011.036-.047.025-.058.061s-.057.06-.068.1h0a.038.038,0,0,0-.047.024h0l-.01.036h0c-.047.025-.069.1-.115.121a.138.138,0,0,1-.069.1h0c-.01.035-.057.06-.1.085l-.046.025c-.093.05-.151.11-.244.16-.036-.011-.047.025-.093.05a6.136,6.136,0,0,1-.9.391c-.129.039-.247.042-.376.081l-.247.042-.247.043c-.036-.011-.082.014-.118,0a4.307,4.307,0,0,1-1.027.04c-.118,0-.261-.041-.38-.037-.107-.033-.189-.019-.261-.041-.107-.032-.189-.018-.261-.04l-.107-.032a15.923,15.923,0,0,1-1.749-.414,10.522,10.522,0,0,1-1.23-.451c-.178-.054-.311-.133-.382-.155l-.036-.011-.071-.021h0l-.072-.022-.036-.011a.037.037,0,0,1-.044.026h0c-.011.036-.058.061-.068.1h0a.161.161,0,0,0,.1.186,4.1,4.1,0,0,1,.454.177,10.969,10.969,0,0,0,1.23.451l.608.184a4.665,4.665,0,0,0,.69.17l.107.033c.107.033.19.019.261.04l.108.033a.136.136,0,0,1,.118,0c.118,0,.261.04.379.036a1.272,1.272,0,0,0,.379.037c.036.011.083-.014.118,0,.047-.025.047-.025.083-.014.082-.014.189.019.272,0a2.129,2.129,0,0,0,.472-.013h0a.238.238,0,0,0-.065.214.036.036,0,0,1,.025.046h0c-.047.025-.118,0-.165.028s-.118,0-.2.017c-.047.025-.118,0-.165.028-.036-.011-.082.014-.118,0-.118,0-.2.017-.319.02a.692.692,0,0,0-.272,0c-.035-.011-.082.014-.118,0-.154-.008-.272,0-.426-.012-.035-.011-.118,0-.153-.008-.119,0-.19-.018-.308-.015-.036-.011-.118,0-.154-.008s-.118,0-.154-.007c-.118,0-.19-.019-.308-.016a8.371,8.371,0,0,1-.865-.106.632.632,0,0,1-.262-.04l-.143-.044-.107-.032-.107-.033a1.4,1.4,0,0,1-.368-.072l-.108-.033-.214-.065-.394-.119-.143-.044-.035-.01h0l-.036-.011h0l-.036-.011h0l-.036-.011h0a.135.135,0,0,0-.057.061l-.022.071-.021.072a.081.081,0,0,0,.049.093h0l.143.043.036.011.072.022.035.011.036.01.072.022.035.011.286.087.143.043.108.033c.143.043.3.051.475.1.072.022.19.018.262.04s.153.008.261.04c.379.037.794.085,1.209.133a10.043,10.043,0,0,0,1.041.042.636.636,0,0,0,.154.008c.047-.025.047-.025.082-.014.047-.025.119,0,.2-.017l-.011.035-.011.036-.011.036-.011.036a1.077,1.077,0,0,1,.064.175c.014.083.078.258.131.469.025.047.014.083.039.129-.011.036.025.047.014.083-.082.014-.189-.019-.272,0-.153-.007-.39,0-.579-.019a1.722,1.722,0,0,1-.19-.019c-.154-.007-.354.01-.544-.009-.472.013-.981.015-1.535.042a11.557,11.557,0,0,0-1.708.224c-.222.089-.434.142-.656.231a.679.679,0,0,0-.222.088.455.455,0,0,0-.233.125c-.011.036-.046.025-.057.061l-.011.035c-.047.025-.058.061-.1.086l-.058.061-.057.06c-.036-.011-.047.025-.058.061h0l-.01.036h0l-.011.035-.011.036-.022.072-.043.143-.023.037a.545.545,0,0,0,0,.272.038.038,0,0,1,.025.047c-.011.036.024.047.014.082a.037.037,0,0,1,.024.046h0a.13.13,0,0,0,.015.082l.024.047.05.093.025.047.086.1c.025.046.06.057.085.1.061.057.086.1.157.126a.979.979,0,0,0,.526.2c.071.022.118,0,.19.018a.857.857,0,0,0,.307.016,4.312,4.312,0,0,0,.956-.062,6.005,6.005,0,0,0,.942-.144c.2-.017.376-.081.576-.1.118,0,.211-.053.33-.056a.037.037,0,0,1,.044-.026h0c.047-.025.118,0,.165-.028.036.011.082-.014.118,0l.555-.026c.2-.018.354-.01.555-.027.046-.025.118,0,.2-.018.036.011.082-.014.118,0,.047-.025.118,0,.2-.017.035.011.082-.014.118,0s.082-.014.118,0a.136.136,0,0,1,.118,0c.118,0,.19.019.308.015a.143.143,0,0,1,.118,0c.081.376.151.788.222,1.2.042.247.073.53.115.777.025.046,0,.118.028.164.007.237.049.484.055.72.018.2.01.354.027.555a2.865,2.865,0,0,1,.027.555,5.634,5.634,0,0,1,0,.9c-.034.5-.056.959-.126,1.445a.342.342,0,0,1-.018.19c-.033.107-.03.225-.062.333a2.566,2.566,0,0,1-.081.522c-.032.107-.029.225-.061.332a1.078,1.078,0,0,1-.062.333,20.1,20.1,0,0,1-.618,2.038,14.129,14.129,0,0,1-.6,1.458c.118,0,.247-.042.365-.045q.2-.466.433-1.04a.642.642,0,0,0,.111-.24l.087-.286.044-.143.086-.286a14.555,14.555,0,0,0,.485-1.727c.033-.107.03-.225.062-.332s.029-.226.062-.333c.043-.143.04-.261.073-.368.007-.154.04-.262.037-.38.069-.486.1-.983.137-1.481a14.646,14.646,0,0,0,.018-1.478c-.009-.354-.019-.708-.064-1.074a1.324,1.324,0,0,1-.046-.365l-.042-.247c-.063-.566-.161-1.142-.245-1.636a5.6,5.6,0,0,1,.736.145l.072.022.107.032.107.033a1.044,1.044,0,0,0,.311.133l.143.044.072.021h0l.06.058.072.022a.137.137,0,0,0,.1.068l.072.022a6.538,6.538,0,0,1,.277.63l.075.14a.839.839,0,0,1,.089.222c.025.047.039.129.064.176s.039.129.063.175a.525.525,0,0,1,.064.176c.025.047.039.129.064.175s.014.083.039.129l-.011.036a.2.2,0,0,0,.028.165h0l-.01.036a.192.192,0,0,0,.028.164c.025.047.039.129.064.176.014.082.039.129.053.211s.039.129.053.212a.136.136,0,0,0,0,.118.817.817,0,0,1,.053.211.817.817,0,0,1,.053.211c.07.412.141.824.2,1.271a.036.036,0,0,1,.025.046h0c.025.047.014.082.028.165h0l-.011.035h0c.014.083,0,.119.018.2l-.011.036a2.442,2.442,0,0,0,.023.436c.014.083-.007.154.007.237s-.008.153.006.236h0c.014.082-.007.154.007.236h0a.953.953,0,0,1,0,.272v.236c-.022.072-.019.19-.04.261a2.227,2.227,0,0,1-.07.487,2.155,2.155,0,0,1-.1.476l-.076.25-.033.107-.032.107-.033.108-.011.035-.021.072a.138.138,0,0,0-.069.1l-.021.072-.022.071-.1.2-.068.1-.068.1-.022.071a.341.341,0,0,1-.09.168c-.057.061-.068.1-.126.157-.046.025-.046.025-.057.061l-.173.182c-.046.025-.046.025-.057.061a.037.037,0,0,0-.047.024h0L99,32.806l-.046.024-.047.025c-.047.025-.1.086-.151.111.129-.039.283-.031.412-.07.082-.015.118,0,.165-.029l.057-.06.011-.036h0l.011-.036a.035.035,0,0,0,.045-.023v0a.117.117,0,0,0,.058-.06h0c.057-.061.068-.1.126-.157s.068-.1.125-.157h0c.011-.036.058-.061.069-.1l.011-.036c.01-.035.057-.06.079-.132l.057-.061.011-.035h0l-.022.071h0l-.011.036a.035.035,0,0,0-.045.023v0h0l-.022.071h0a.115.115,0,0,0,.014.083l-.011.036-.01.035c.024.047.014.083.038.129-.01.036.015.083-.007.154l-.011.036c.093-.05.211-.053.305-.1l.043-.143c0-.118.029-.225.026-.343.01-.1.015-.2.015-.308a.7.7,0,0,0-.045-.365l.011-.036.079-.132.032-.108.022-.071h0a.724.724,0,0,1,.141-.465,2.145,2.145,0,0,0,.1-.476c.019-.189.062-.332.081-.522.021-.071.018-.189.04-.261v-.236a9.375,9.375,0,0,0,.032-1.006c-.017-.2-.01-.354-.038-.519a.523.523,0,0,0-.006-.236l-.042-.247a17.468,17.468,0,0,0-.335-1.858c-.042-.248-.12-.5-.173-.717-.014-.082-.039-.129-.053-.211-.025-.047-.014-.082-.039-.129-.039-.129-.064-.176-.039-.129-.025-.047-.014-.082-.039-.129s-.014-.082-.039-.129-.014-.082-.039-.129c-.035-.011-.025-.046-.05-.093-.1-.3-.18-.562-.294-.831,0,0-.139-.316-.3-.678l-.05-.093c-.025-.046-.039-.129-.064-.175a.036.036,0,0,1-.025-.046h0c-.025-.047-.014-.082-.039-.129-.455-1.075-1.075-3.02-1.231-3.536.129-.039.247-.042.376-.081s.212-.053.341-.092a4.691,4.691,0,0,0,1.721-1.04A4.969,4.969,0,0,0,101.5,14.9a1.033,1.033,0,0,0,.133-.311l.054-.178c.011-.036,0-.119.008-.154s.1-.086.115-.122a5.269,5.269,0,0,0,.655-1.128h0c.046-.025.09-.168.1-.2a.473.473,0,0,0,.1-.2,1.8,1.8,0,0,0,.166-.418,7.784,7.784,0,0,0,.236-.9,7.581,7.581,0,0,0,.2-1.814,10.542,10.542,0,0,0-.155-1.8,8.539,8.539,0,0,0-.474-1.784c-.014-.082-.075-.139-.089-.222l-.089-.222-.089-.222-.049-.093-.058-.128-.1-.187-.1-.186-.05-.093-.05-.094c-.061-.057-.075-.139-.136-.2a5.274,5.274,0,0,0-.563-.717,5.166,5.166,0,0,0-.642-.586,2.126,2.126,0,0,0-.447-.33h0c.058-.061-.053-.212-.21-.337a.13.13,0,0,0-.06-.058c-.025-.046-.1-.068-.157-.125a4.612,4.612,0,0,0-.65-.432A9.944,9.944,0,0,0,96.6.512,10.349,10.349,0,0,0,94.8.123a9.636,9.636,0,0,0-2.036-.11c-.319.021-.684.066-1.049.112a7.823,7.823,0,0,0-1.082.218c-.34.092-.691.22-1.042.348a7.889,7.889,0,0,0-1,.476,7.985,7.985,0,0,0-.954.57,8.2,8.2,0,0,0-.878.709A8.052,8.052,0,0,0,85.35,4.128c-.057.06-.09.168-.147.228a.629.629,0,0,1-.112.24c-.021.071-.09.168-.111.239s-.09.168-.112.24c-.054.178-.133.311-.188.489a2.1,2.1,0,0,0-.176.454,7.454,7.454,0,0,0-.4,1.831,10.061,10.061,0,0,0,.053,2.789l-.022.071c.025.047.014.082.039.129-4.923.654-4.086,6.648-3.486,10.461.516,3.319.8,11.644,5.465,11.848Z" style="fill:#231f2d"/><path id="Fill-115" d="M100.7,14.678h0c.011-.035.058-.06.069-.1a.138.138,0,0,0-.069.1" style="fill:#e6e7e8"/><path id="Fill-117" d="M101.154,14.075c-.137.193-.263.35-.342.482a3.259,3.259,0,0,1,.342-.482" style="fill:#e6e7e8"/><g id="reflects"><path id="Fill-119" d="M103.125,8.348a6.577,6.577,0,0,1-.059,1.739,8.459,8.459,0,0,1-.488,1.609,8.475,8.475,0,0,1-.763,1.486,7.653,7.653,0,0,1-.5.747c-.057.06-.068.1-.126.157.069-.1.1-.2.17-.3.215-.325.384-.625.564-.961a8.719,8.719,0,0,0,.678-1.591,7.036,7.036,0,0,0,.3-1.745,6.507,6.507,0,0,0-.556-3.058,7.3,7.3,0,0,0-1.492-2.288,4.9,4.9,0,0,0-2.362-1.224c-.179-.054-.221-.3-.021-.319a3.139,3.139,0,0,1,2.33.788,6,6,0,0,1,1.636,2.217,6.013,6.013,0,0,1,.425,1.3,10.763,10.763,0,0,1,.264,1.447" style="fill:#fff"/><path id="Fill-121" d="M101.169,5.529c-.022.071-.032.107-.008.154a.636.636,0,0,1-.3.221.749.749,0,0,1-.944-.365.571.571,0,0,1,.146-.736.882.882,0,0,1,.67-.149.569.569,0,0,1,.424.4.925.925,0,0,1,.013.473" style="fill:#fff"/><path id="Fill-123" d="M99.534,4.1a.578.578,0,0,1-.19.372.374.374,0,0,1-.223.088.516.516,0,0,1-.5-.27.5.5,0,0,1,.3-.643.493.493,0,0,1,.183-.031.408.408,0,0,1,.444.366.389.389,0,0,1-.006.118" style="fill:#fff"/><path id="Fill-125" d="M96.664,2.874c.036.011.025.047,0,0-.011.036-.011.036-.035-.011a.115.115,0,0,1-.058.061.081.081,0,0,1-.093.05c-.072-.022-.132-.079-.111-.151s.08-.132.151-.11a.13.13,0,0,1,.1.068l.05.093h0" style="fill:#fff"/><path id="Fill-127" d="M97.481,2.5a.515.515,0,0,1,.168.09.4.4,0,0,1,.007.236c-.054.179-.194.254-.351.128-.218-.183-.024-.437.176-.454" style="fill:#fff"/><path id="Fill-129" d="M101.016,6.42a.266.266,0,0,1,.174.335l-.01.027a.281.281,0,1,1-.164-.362" style="fill:#fff"/><path id="Fill-131" d="M91.78,6.234h0A6.842,6.842,0,0,0,90.759,8.7a6.179,6.179,0,0,0,.659,4.65,5.47,5.47,0,0,0,1.666,1.716,7.962,7.962,0,0,0,1.186.594,3.29,3.29,0,0,0,.823.25c.3.051.547.127.844.178.036.011.039.129-.033.107a5.915,5.915,0,0,1-2.1-.4A6.038,6.038,0,0,1,92.4,14.9a5.966,5.966,0,0,1-2-4.122,6.9,6.9,0,0,1,1.38-4.541" style="fill:#fff"/></g><path id="Fill-63" d="M94.919,19.954a15.1,15.1,0,0,1,1.646.109c.092.34.209.727.3,1.185.014.083.039.129.053.211l-.035-.01c-.154-.008-.272,0-.426-.012s-.272,0-.426-.012c-.272,0-.544-.009-.863.011-.118,0-.282.032-.436.024l-.047.025L94.6,21.5c-.036-.011-.083.014-.118,0l-.247.042c-.294.067-.623.124-.917.191s-.577.1-.906.154a5.784,5.784,0,0,1-.92.073.989.989,0,0,1-.462-.023,1.394,1.394,0,0,1-.382-.155l-.036-.011-.025-.047a.035.035,0,0,0-.023-.045h0l-.025-.047-.049-.093-.05-.093a.511.511,0,0,1-.081-.376.617.617,0,0,1,.18-.336,2.064,2.064,0,0,1,.348-.246,3.189,3.189,0,0,1,.831-.294,8.137,8.137,0,0,1,1.672-.235q.832-.041,1.524-.006" style="fill:#ff5722"/><path id="Fill-65" d="M98.071,20.246a.221.221,0,0,0,.154.008,1.013,1.013,0,0,0,.114.269.8.8,0,0,1,.135.2,5.268,5.268,0,0,1,.36.616,4.659,4.659,0,0,0,.288.6l-.072-.021-.178-.054a1.289,1.289,0,0,0-.347-.145,6.786,6.786,0,0,0-1.213-.25c-.014-.083-.053-.212-.067-.294a7.424,7.424,0,0,0-.254-1.092c.072.021.154.007.225.029a5.617,5.617,0,0,1,.63.113,1.067,1.067,0,0,1,.225.029" style="fill:#ff5722"/></g><g id="rocket"><g id="turbine_back" data-name="turbine back"><polygon id="Fill-1" points="61.445 27.721 61.53 23.062 59.545 21.757 59.437 28.674 61.445 27.721" style="fill:#e6e7e8"/><path id="Fill-2" d="M61.734,27.926l-1.925.939.157-6.824,1.879,1.272Zm.351-4.891-1.878-1.273-.554-.363-.006.662-.156,6.825-.02.579.512-.274,1.925-.939.187-.1-.007-.237.112-4.61.018-.19Z" style="fill:#231f2d"/><polygon id="Fill-4" points="61.042 48.098 61.139 43.403 59.189 42.108 59.071 49.062 61.042 48.098" style="fill:#e6e7e8"/><path id="Fill-3" d="M61.082,47.837l-1.924.938.157-6.824,1.878,1.273Zm.388-4.881-1.879-1.272-.554-.364-.005.663-.157,6.822-.02.58.513-.274,1.924-.939.187-.1-.007-.236.111-4.613-.017-.2Z" style="fill:#231f2d"/><path id="Fill-17" d="M74.029,24.979a1.562,1.562,0,0,1,.006,1.525c-1.161,1.639-4.687,5.411-11.925,3.528a1.166,1.166,0,0,1-.8-1.1l.121-6.835a1.113,1.113,0,0,1,.834-1.074c7.3-1.653,10.675,2.262,11.762,3.958" style="fill:#e6e7e8"/><path id="Fill-19" d="M65.927,28.261h0a1.237,1.237,0,0,0-.323.293.33.33,0,0,1-.09.167l-.14.075a1.076,1.076,0,0,1-.591.406.642.642,0,0,1-.28.15c-.082.014-.211.053-.294.067a6.028,6.028,0,0,1-.752.162,6.992,6.992,0,0,1-1.2.1,3.906,3.906,0,0,1-.851-.024l-.036-.011a.931.931,0,0,0-.067-.294,1.139,1.139,0,0,0-.1-.3,4.477,4.477,0,0,0-.074-1.428c.082-.014.189.018.307.015.451.059.866.106,1.317.165s.866.106,1.316.165c.072.022.119,0,.19.019h0a.733.733,0,0,1,.4.083h0a1.076,1.076,0,0,1,.572.174h0a.143.143,0,0,1,.118,0c.072.022.143.044.168.09a1.742,1.742,0,0,0,.412-.07" style="fill:#c1c4cb"/><path id="Fill-21" d="M74.029,24.979A1.459,1.459,0,0,1,74,26.493a9.558,9.558,0,0,1-8.34,4.068,13.972,13.972,0,0,1-3.549-.529,1.166,1.166,0,0,1-.8-1.1l.121-6.835a1.113,1.113,0,0,1,.834-1.074,14.308,14.308,0,0,1,3.558-.4,9.662,9.662,0,0,1,8.2,4.363m.281,1.647a1.98,1.98,0,0,0,.067-1.893,9.39,9.39,0,0,0-2.712-2.775,10.438,10.438,0,0,0-5.786-1.76,16.686,16.686,0,0,0-3.673.4,1.508,1.508,0,0,0-1.131,1.414l-.121,6.835a1.513,1.513,0,0,0,1.079,1.46,17.947,17.947,0,0,0,3.631.515,10.442,10.442,0,0,0,5.856-1.542,9.283,9.283,0,0,0,2.8-2.665" style="fill:#231f2d"/><path id="Fill-5" d="M73.6,45.191a1.586,1.586,0,0,1,0,1.524c-1.161,1.639-4.686,5.411-11.924,3.528a1.166,1.166,0,0,1-.8-1.1L61,42.305a1.116,1.116,0,0,1,.833-1.075c7.3-1.652,10.676,2.263,11.762,3.959" style="fill:#e6e7e8"/><path id="Fill-9" d="M72.576,47.145c.079-.132-.067-.293-.264-.158-.094.05-.165.028-.258.078s-.176.064-.269.114a2.4,2.4,0,0,1-.573.216c-.083.014-.129.039-.212.053-.035-.011-.082.014-.118,0a.5.5,0,0,0-.258.078c-.211.053-.4.153-.609.206s-.386.117-.6.17c-.082.014-.211.053-.293.067l-.047.025c-.011.036-.093.05-.129.039s-.082.014-.118,0c-.011.036-.011.036-.047.025-.082.014-.118,0-.164.028a.6.6,0,0,1-.294.067c-.247.043-.448.06-.7.1a18,18,0,0,1-2.656.131L63.7,48.356c-.154-.007-.261-.04-.379-.037s-.19-.018-.308-.015h0c-.011.036-.047.025-.082.014a3.124,3.124,0,0,0-.58-.019.523.523,0,0,0-.236.006l-.247.042h0a.4.4,0,0,0-.119,0l-.247.043a.375.375,0,0,0-.222.088c-.035-.011-.046.025-.082.014s-.036-.01-.082.014c0,0-.129.039-.047.025a.537.537,0,0,0-.236.007,1.336,1.336,0,0,1,.023.437,1.324,1.324,0,0,1,.046.365h0c.036.011.061.057.1.068a.378.378,0,0,1,.132.079,1.8,1.8,0,0,0,.554.363,3.282,3.282,0,0,0,.822.25c.5.033,1.031.078,1.528.112.426.012.888.035,1.324.011s.885-.083,1.332-.143a14.058,14.058,0,0,0,2.725-.618,12.8,12.8,0,0,0,1.308-.579,4.136,4.136,0,0,0,.513-.274c.058-.061.151-.11.208-.171.022-.072.068-.1.079-.132a1.335,1.335,0,0,0,.266-.232,2.387,2.387,0,0,0,.438-.414c.057-.061.125-.157.183-.218.068-.1.1-.2.169-.3" style="fill:#c1c4cb"/><path id="Fill-15" d="M73.653,45.012a1.507,1.507,0,0,1-.03,1.514,9.563,9.563,0,0,1-8.34,4.068,13.928,13.928,0,0,1-3.549-.529,1.166,1.166,0,0,1-.8-1.1l.121-6.835a1.114,1.114,0,0,1,.833-1.074,14.363,14.363,0,0,1,3.559-.4,9.662,9.662,0,0,1,8.2,4.363m.27,1.683a1.956,1.956,0,0,0,.073-1.892,9.378,9.378,0,0,0-2.712-2.775,10.431,10.431,0,0,0-5.792-1.757,16.663,16.663,0,0,0-3.677.408,1.508,1.508,0,0,0-1.131,1.413l-.121,6.836a1.511,1.511,0,0,0,1.079,1.459,18.009,18.009,0,0,0,3.631.516,10.45,10.45,0,0,0,5.856-1.542,9.33,9.33,0,0,0,2.8-2.665" style="fill:#231f2d"/></g><g id="rocket_bg" data-name="rocket bg"><path id="Fill-133" d="M115.585,27.511a22.211,22.211,0,0,0-1.456,11.623,21.323,21.323,0,0,0,1.344,5.093,30.88,30.88,0,0,0,5.735-3.844,11,11,0,0,0,2.075-2.337,3.953,3.953,0,0,0,.7-2.053c.022-1.359-.907-2.93-2.7-4.607a27.258,27.258,0,0,0-5.7-3.875" style="fill:#e6e7e8"/><path id="Fill-137" d="M73.385,48.211a34.175,34.175,0,0,0,4.527,1.294,75.269,75.269,0,0,1-1.524-9.521,55.618,55.618,0,0,1-.279-5.9c0-1.171.032-2.294.121-3.36a33.183,33.183,0,0,1,1.9-8.952,36.328,36.328,0,0,0-6.358,1.78,45.956,45.956,0,0,0-1.189,16.663,57.34,57.34,0,0,0,1.23,7.4q.681.265,1.576.6" style="fill:#e6e7e8"/><path id="Fill-141" d="M89.589,45.122c-.216-.964-.4-2.034-.571-3.141a38.214,38.214,0,0,1-.4-6.017c.029-1.124.068-2.283.179-3.421.092-.948.185-1.9.348-2.822a14.54,14.54,0,0,1-5.507-3.467,16.189,16.189,0,0,0-6.18.936l-.139-.315a50.022,50.022,0,0,0-.376,13.083c.138,1.6.355,3.075.545,4.382a39.474,39.474,0,0,0,8.393.906c1.832.009,3.189-.087,3.708-.124" style="fill:#e6e7e8"/><path id="Fill-147" d="M115.09,44.462a18.04,18.04,0,0,1-.77-2.224c-.014-.083-.039-.129-.053-.212s-.039-.129-.053-.211c-.036-.141-.071-.282-.106-.423a9.738,9.738,0,0,1-.2-1c-.039-.129-.031-.283-.07-.412-.017-.2-.06-.447-.1-.694-.017-.2-.059-.448-.077-.648a22.534,22.534,0,0,1-.159-2.821c0-.39-.009-.744.028-1.123a6.58,6.58,0,0,1,.06-.841c.008-.154.04-.261.048-.415s.04-.261.048-.415c.021-.072.007-.154.029-.226a1.57,1.57,0,0,1,.048-.415c.04-.261.091-.558.131-.819.065-.214.084-.4.149-.618a1.524,1.524,0,0,1,.083-.4,6.115,6.115,0,0,1,.2-.8l.065-.215c.264-.74.517-1.444.8-2.137l.168.09c-.565-.328-1.151-.584-1.726-.875a53.415,53.415,0,0,0-7.071-2.692c-2.267,4-7.085,6.753-12.642,6.668a17.209,17.209,0,0,1-4.465-.729,41.534,41.534,0,0,0-.488,7.661,3.635,3.635,0,0,0,0,.626h0a1.628,1.628,0,0,1,.035.4c0,.118.031.283.034.4.038.519.076,1.038.124,1.521h0c.028.165.046.365.074.53a7.774,7.774,0,0,1,.13.859,33.683,33.683,0,0,0,2.168,8.428l1.673-.075c.165-.028.319-.02.483-.048.4-.035.8-.07,1.167-.115.283-.031.6-.052.885-.083.164-.028.282-.032.447-.06s.283-.031.448-.059c.2-.017.447-.06.648-.077.164-.028.282-.031.447-.059.577-.1,1.142-.161,1.683-.271.211-.053.412-.07.623-.123a57.764,57.764,0,0,0,13.5-4.221c.082-.014.139-.075.222-.089a3.486,3.486,0,0,0,.455-.213,3.432,3.432,0,0,0,.455-.214l.28-.149a1.933,1.933,0,0,0,.362-.164h0Z" style="fill:#e6e7e8"/><path id="Fill-135" d="M80.867,49.933h0c2.286.186,4.809.366,7.385.367.97.02,1.915,0,2.86-.031a31.22,31.22,0,0,1-1.478-4.782c-.483.048-1.876.134-3.79.138a43.412,43.412,0,0,1-8.322-.884c.411,2.506.839,4.315.984,4.867.736.145,1.566.241,2.361.325" style="fill:#e6e7e8"/><path id="Fill-139" d="M83.26,25.827a10.526,10.526,0,0,1-2.5-4.388c-.684.066-1.378.167-2.037.28A27.566,27.566,0,0,0,77.3,26.793a12.95,12.95,0,0,1,3.818-.873c.683-.065,1.392-.085,2.137-.093" style="fill:#e6e7e8"/><path id="Fill-143" d="M70.009,32.31a35.283,35.283,0,0,1,1.364-8.488c-.888.355-1.437.618-1.437.618l-.233.125c-2.428,7.619-2.141,13.367-1.479,16.848a18,18,0,0,0,1.826,5.435h0s.54.28,1.473.681a42.858,42.858,0,0,1-1.3-7.187,56.146,56.146,0,0,1-.276-5.784c0-.78.03-1.514.057-2.248" style="fill:#e6e7e8"/><path id="Fill-145" d="M67.3,35.978c.019-.58.039-1.16.034-1.786a42.078,42.078,0,0,1,1.843-9.554c-.372.2-.72.446-1.057.656a11.7,11.7,0,0,0-5.607,10.247,11.593,11.593,0,0,0,5.443,10.364,12.719,12.719,0,0,0,1.586.95,19.581,19.581,0,0,1-1.766-5.378,29.861,29.861,0,0,1-.48-5.494" style="fill:#e6e7e8"/></g><g id="shadow-2"><path id="Fill-151" d="M123.866,34.705c-.064-.175-.11-.15-.292-.323h0c-.022.072-.115.122-.1.2a.523.523,0,0,0,.006.236c-.043.143-.026.344-.08.522a3.564,3.564,0,0,1-.22.6,3.772,3.772,0,0,1-.691,1.119c-.265.231-.5.474-.75.67a5.256,5.256,0,0,1-1.044.738c-.408.188-.792.423-1.165.622a2.32,2.32,0,0,1-.523.31l-.667.266c-.186.1-.408.189-.594.289a5.065,5.065,0,0,1-.62.241c-.724.327-1.509.6-2.269.913a.726.726,0,0,0-.432,1.04.761.761,0,0,0,.171.208.48.48,0,0,0,.045.365.464.464,0,0,0,.551.245l.036.011a.679.679,0,0,0,.809,1.065,28.16,28.16,0,0,0,2.581-1.559,26.155,26.155,0,0,0,2.533-2.043,10.869,10.869,0,0,0,1.332-1.431,4.776,4.776,0,0,0,.679-.692,4.567,4.567,0,0,0,.467-.639,3.578,3.578,0,0,0,.3-.612,2.087,2.087,0,0,0,.125-1.055.194.194,0,0,0-.028-.165.136.136,0,0,1,0-.118,2.576,2.576,0,0,0-.009-.744,1.3,1.3,0,0,1-.149-.28" style="fill:#c1c4cb"/><path id="Fill-163" d="M113.491,43.04a1.529,1.529,0,0,0,.294.831c-.3.221-.592.407-.882.592a21.111,21.111,0,0,1-3.29,1.579,43.876,43.876,0,0,1-6.734,1.862,65.339,65.339,0,0,1-18.853,1.27,63.59,63.59,0,0,1-6.526-.769,35.069,35.069,0,0,1-7.624-2.157,19,19,0,0,1-3.244-1.643,9.72,9.72,0,0,1-1.689-1.254,7.51,7.51,0,0,1-.781-.9,4.724,4.724,0,0,1-.5-.932A1.227,1.227,0,0,1,65.4,40.048a9.646,9.646,0,0,1,1.272.7c-.1-.068-.228-.147-.325-.216l.289.2c.493.306.95.6,1.4.931-.132-.079-.229-.147-.361-.226a23.518,23.518,0,0,0,4.888,2.42,46.488,46.488,0,0,0,11.464,2.111c-.118,0-.272-.005-.426-.012l1.492.1a63.489,63.489,0,0,0,16.3-1.106c2.034-.4,4.076-.951,6.145-1.338a3.36,3.36,0,0,0-.411.07c1.41-.274,2.843-.621,4.215-1.025.645-.194,1.243-.364,1.852-.57a3.174,3.174,0,0,0,.3.949" style="fill:#c1c4cb"/><path id="Fill-165" d="M94.783,30.572h0c-.022.071-.09.168-.1.2a.935.935,0,0,1-.234.515,5.453,5.453,0,0,1-.56.689,3.413,3.413,0,0,1-1.532,1.058,5.9,5.9,0,0,1-1.762.4c-.318.02-.6.052-.92.072-.011.036-.046.025-.082.014a1.148,1.148,0,0,1-.4.035,3.934,3.934,0,0,1-.651-.042,6.626,6.626,0,0,1-2.674-.967,8.675,8.675,0,0,1-2.227-1.925,11.571,11.571,0,0,1-1.383-2.137c-.113-.269-.238-.5-.351-.771-.054-.211-.153-.4-.206-.609a2.689,2.689,0,0,1-.1-.812c.011-.036,0-.118.008-.154.039.129.014.082-.015-.083l.011-.035a.527.527,0,0,1-.006-.237c-.011.036.1-.321.043-.143a.412.412,0,0,1,.09-.167,4.325,4.325,0,0,0,.661.395.893.893,0,0,0,.429.13l.072.022c.035.011.025.047.06.058a7.014,7.014,0,0,1,.5.932.9.9,0,0,1,.124.233l.025.046a1.007,1.007,0,0,0,.164.362,4.736,4.736,0,0,0,.434.757c.135.2.306.4.478.613.035.011.085.1.121.115.06.057.085.1.146.161a3.4,3.4,0,0,1,.3.288,7.421,7.421,0,0,0,.643.585,1.387,1.387,0,0,0,.339.3c.061.057.1.068.157.126h0c.361.226.768.428,1.14.619l.611.3a1.011,1.011,0,0,0,.311.134l.143.043c-.419-.166.25.076.143.043a.625.625,0,0,0,.239.112l.215.065a2.161,2.161,0,0,1,.464.141c-.01.036.025.047.061.058l.072.021c.189.019.368.073.558.091.035.011.082-.014.118,0a.634.634,0,0,0,.154.008c.082-.014.2-.017.282-.032.119,0,.2-.017.319-.02.036.011.236-.006.2-.017.164-.028.3-.1.469-.131.175-.064.315-.139.491-.2l.046-.025c.011-.035.058-.06.1-.085a.859.859,0,0,0,.233-.125,4.139,4.139,0,0,1,.488-.32c.011-.036.057-.061.1-.086l.011-.036.011-.035a.783.783,0,0,0,.208-.172,2.541,2.541,0,0,1,.413-.46l.286.087a1.242,1.242,0,0,0,.508,0" style="fill:#c1c4cb"/></g><g id="rocket_borders" data-name="rocket borders"><path id="Fill-193" d="M123.294,38.01a10.136,10.136,0,0,1-2.054,2.266,26.726,26.726,0,0,1-5.734,3.844,21.219,21.219,0,0,1-1.345-5.093A20.984,20.984,0,0,1,115.6,27.475a26.271,26.271,0,0,1,5.7,3.876c1.76,1.666,2.725,3.247,2.7,4.607a3.947,3.947,0,0,1-.7,2.052M91.194,50.255c-.956.061-1.89.051-2.788.052-2.648-.022-5.171-.2-7.457-.388h0c-.794-.084-1.624-.18-2.361-.325-.145-.552-.583-2.325-.984-4.867a38.676,38.676,0,0,0,8.322.884,33.769,33.769,0,0,0,3.79-.138,30.156,30.156,0,0,0,1.478,4.782m-13.246-.738a34.048,34.048,0,0,1-4.527-1.3c-.608-.184-1.123-.418-1.577-.595a57.51,57.51,0,0,1-1.229-7.4A45.961,45.961,0,0,1,71.8,23.562a36.407,36.407,0,0,1,6.357-1.781,30.412,30.412,0,0,0-1.9,8.952c-.054,1.077-.118,2.19-.121,3.361.015,1.878.081,3.851.279,5.9a75.269,75.269,0,0,0,1.524,9.521M71.5,47.482a9.438,9.438,0,0,1-1.5-.728h0a18.724,18.724,0,0,1-1.826-5.434c-.662-3.481-.96-9.193,1.479-16.848l.233-.125s.549-.263,1.437-.618a39.253,39.253,0,0,0-1.339,8.535c-.038.769-.065,1.5-.057,2.247A56.143,56.143,0,0,0,70.2,40.3a44.819,44.819,0,0,0,1.3,7.187m-1.945-.668a13.287,13.287,0,0,1-1.55-.939,11.723,11.723,0,0,1-5.448-10.359,11.708,11.708,0,0,1,5.607-10.247,9.748,9.748,0,0,1,1.058-.655,40.08,40.08,0,0,0-1.844,9.553c-.066.6-.05,1.2-.07,1.775a29.84,29.84,0,0,0,.481,5.5,18.761,18.761,0,0,0,1.766,5.377M124.41,36.005c.018-1.478-.986-3.188-2.891-5.015a29.654,29.654,0,0,0-7.687-4.909,53.487,53.487,0,0,0-7.032-2.676c-.068.1-.111.239-.179.336a53.45,53.45,0,0,1,7.07,2.691c.611.3,1.151.583,1.726.875l-.168-.09h0c-.032.107-.112.239-.155.382l-.043.143c-.055.179-.145.347-.2.526l-.043.143-.044.143-.043.143-.043.143-.022.071-.054.179-.087.286-.065.215-.119.393-.12.393a1.52,1.52,0,0,1-.083.405,3.545,3.545,0,0,0-.149.618.471.471,0,0,1-.029.226c-.044.143-.04.261-.084.4a.466.466,0,0,1-.029.225c-.008.154-.04.261-.048.415-.022.072-.007.154-.029.226-.008.153-.04.261-.048.415s-.04.261-.048.415c0,.272-.055.568-.06.84a1.508,1.508,0,0,1-.018.19c0,.272-.02.58-.035.887a22.535,22.535,0,0,0,.16,2.821c.037.22.075.439.112.659a4.937,4.937,0,0,0,.1.694c.014.083.039.129.053.212s.039.129.053.211c.025.047.014.082.039.129l.042.247a.137.137,0,0,1,.014.082c-.011.036.025.047.014.083a.277.277,0,0,0,.028.165l.042.247a.861.861,0,0,1,.054.211c.014.082.038.129.053.211s.039.129.053.212.039.128.053.211a19.887,19.887,0,0,0,.769,2.225l.176-.064h0a.568.568,0,0,1-.186.1.554.554,0,0,1-.187.1l-.279.149a3.322,3.322,0,0,0-.456.214,3.426,3.426,0,0,0-.455.213c-.082.014-.14.075-.222.089a53.625,53.625,0,0,1-13.444,4.16c-.211.053-.412.071-.623.124-.541.109-1.106.172-1.683.27-.165.028-.283.031-.447.06-.2.017-.448.059-.648.076-.165.028-.283.032-.448.06s-.283.031-.447.059c-.283.032-.566.063-.885.083-.082.015-.2.018-.282.032-.165.028-.366.045-.566.062-.082.015-.2.018-.283.032a2.307,2.307,0,0,1-.483.048c-.118,0-.283.032-.4.035a7.676,7.676,0,0,1-1.038.076c-.047.024-.118,0-.2.017h0a36.56,36.56,0,0,1-2.168-8.428,7.325,7.325,0,0,1-.129-.859c-.029-.165-.057-.329-.074-.53h0c-.014-.082,0-.118-.017-.2s0-.118-.018-.2,0-.118-.017-.2c-.025-.047,0-.118-.028-.165l-.052-.6c-.014-.083,0-.119-.017-.2a1.628,1.628,0,0,1-.035-.4,1.536,1.536,0,0,1-.034-.4h0a3.848,3.848,0,0,0,0-.626,41.447,41.447,0,0,1,.488-7.661l-.393-.119c-.128.937-.256,1.874-.349,2.823a32.832,32.832,0,0,0-.178,3.42,37.989,37.989,0,0,0,.4,6.018c.161,1.142.344,2.212.559,3.176-.519.037-1.875.133-3.708.124a39.474,39.474,0,0,1-8.393-.906c-.189-1.307-.407-2.778-.545-4.382a49.172,49.172,0,0,1,.377-13.083l.138.316a16.167,16.167,0,0,1,6.18-.937c-.121-.115-.232-.266-.353-.381-.744.009-1.453.028-2.137.094a12.981,12.981,0,0,0-3.817.872A24.946,24.946,0,0,1,78.8,21.74c.659-.112,1.354-.214,2.038-.28-.039-.129-.067-.293-.106-.422a34.6,34.6,0,0,0-7.392,1.584c-1.569.539-2.737,1.044-3.275,1.271h0a2.812,2.812,0,0,1-.48.167c-.466.249-1.222.683-1.617.954a12.765,12.765,0,0,0-4.24,4.454h0a1.337,1.337,0,0,1-.18.335l-.011.036a12.985,12.985,0,0,0-1.331,5.8,12.8,12.8,0,0,0,1.219,5.766.55.55,0,0,0,.1.186l.075.14a.969.969,0,0,1,.114.269,12.543,12.543,0,0,0,4.077,4.321,10.125,10.125,0,0,0,1.022.622c.107.033.168.09.239.112a4.309,4.309,0,0,0,.669.242,3.653,3.653,0,0,1,.6.22c.035.011.1.068.132.079.311.134.718.335,1.244.534h0l.107.032q.681.265,1.469.563a32,32,0,0,0,7.41,1.7.523.523,0,0,1,.236-.006c.154.007.272,0,.426.012h.39c2.05.192,4.24.31,6.581.317a62.89,62.89,0,0,0,14-1.492,57.261,57.261,0,0,0,11.457-3.788c6.443-2.965,10.62-6.695,10.64-9.462" style="fill:#231f2d"/></g><g id="nose"><polygon id="Fill-153" points="127.689 35.751 124.235 35.679 124.225 36.613 127.679 36.685 127.689 35.751" style="fill:#e6e7e8"/><path id="Fill-155" d="M127.5,36.512l-3.11-.045.019-.58,3.11.046Zm-3.433-1.041-.011,1.324,3.808.062.011-1.324Z" style="fill:#231f2d"/><path id="Fill-157" d="M128.775,36.158a1.419,1.419,0,1,0-1.439,1.4,1.419,1.419,0,0,0,1.439-1.4" style="fill:#e6e7e8"/><path id="Fill-159" d="M128.586,36.14a1.228,1.228,0,0,1-1.237,1.217h-.03a1.242,1.242,0,1,1,1.267-1.216h0m.39,0a1.6,1.6,0,1,0-1.619,1.581h.007a1.637,1.637,0,0,0,1.612-1.581" style="fill:#231f2d"/></g><g id="dots"><path id="Fill-167" d="M88.547,46.367a.348.348,0,1,0,.213-.444.348.348,0,0,0-.213.444h0" style="fill:#231f2d"/><path id="Fill-169" d="M86.275,46.264a.348.348,0,1,0-.214.443h0a.353.353,0,0,0,.213-.443" style="fill:#231f2d"/><path id="Fill-171" d="M82.713,46.55a.348.348,0,1,0-.443-.214h0a.353.353,0,0,0,.443.213" style="fill:#231f2d"/><path id="Fill-173" d="M79.869,46.273a.348.348,0,1,0-.443-.214h0a.356.356,0,0,0,.443.213" style="fill:#231f2d"/><path id="Fill-175" d="M88.057,43.993a.348.348,0,1,0,.213-.444.348.348,0,0,0-.213.444h0" style="fill:#231f2d"/><path id="Fill-177" d="M85.8,43.854a.359.359,0,0,0-.443-.213.348.348,0,1,0,.443.214h0" style="fill:#231f2d"/><path id="Fill-179" d="M82.212,44.211A.347.347,0,1,0,81.769,44a.353.353,0,0,0,.443.212" style="fill:#231f2d"/><path id="Fill-181" d="M79.379,43.9a.39.39,0,0,0,.212-.444.348.348,0,1,0-.212.444h0" style="fill:#231f2d"/><path id="Fill-185" d="M80.19,25.52a.338.338,0,1,0-.443.178.339.339,0,0,0,.443-.178" style="fill:#231f2d"/><path id="Fill-189" d="M82.585,27.535a.335.335,0,0,0-.17-.441l-.008,0a.338.338,0,1,0,.178.444" style="fill:#231f2d"/><path id="Fill-191" d="M79.743,27.766a.335.335,0,0,0-.17-.441l-.008,0a.338.338,0,1,0,.178.444" style="fill:#231f2d"/></g><g id="seat"><path id="Fill-203" d="M95.846,30.543a18.282,18.282,0,0,0,12.268-5.689.977.977,0,0,0,.164-1.373.9.9,0,0,0-.135-.141,1.182,1.182,0,0,0-1.206-.014,1.325,1.325,0,0,0-.358.282A16.7,16.7,0,0,1,95.745,28.56h0c-6.039.472-11.938-2.606-14.641-7.213a1.372,1.372,0,0,0-.424-.4,1.135,1.135,0,0,0-1-.068.933.933,0,0,0-.489,1.226.908.908,0,0,0,.1.179c2.99,5.2,9.672,8.791,16.548,8.261" style="fill:#e6e7e8"/><path id="Fill-205" d="M108,23.569a.854.854,0,0,1,.039,1.207,1,1,0,0,1-.075.071,18.59,18.59,0,0,1-12.121,5.578c-6.712.5-13.354-2.958-16.345-8.16a.781.781,0,0,1,.16-1.094.66.66,0,0,1,.116-.072.874.874,0,0,1,.8.049.891.891,0,0,1,.328.334c2.788,4.711,8.77,7.775,14.844,7.314a16.827,16.827,0,0,0,10.974-5.027,2.167,2.167,0,0,1,.3-.221.9.9,0,0,1,.97.021m.264,1.447a1.1,1.1,0,0,0,.179-1.545,1.033,1.033,0,0,0-.167-.17,1.343,1.343,0,0,0-1.431-.043,1.612,1.612,0,0,0-.4.306,16.556,16.556,0,0,1-10.694,4.878c-5.993.447-11.8-2.563-14.473-7.123a.971.971,0,0,0-.474-.5,1.283,1.283,0,0,0-1.185-.086,1.115,1.115,0,0,0-.463,1.656c2.98,5.238,9.757,8.894,16.716,8.35a18.916,18.916,0,0,0,12.4-5.727" style="fill:#231f2d"/></g><g id="separate_2" data-name="separate 2"><path id="Fill-207" d="M115.473,45.516a.542.542,0,0,0,.239-.73l-.011-.021a20.553,20.553,0,0,1,.322-17.668.613.613,0,0,0-.234-.773.546.546,0,0,0-.733.244l-.016.036a21.709,21.709,0,0,0-.332,18.6.56.56,0,0,0,.72.329l.045-.019" style="fill:#e6e7e8"/><path id="Fill-209" d="M115.712,44.729a.513.513,0,0,1-.184.7.452.452,0,0,1-.08.038.817.817,0,0,1-.211.053.549.549,0,0,1-.518-.352,21.674,21.674,0,0,1,.332-18.6.618.618,0,0,1,.535-.345l.214.065a.615.615,0,0,1,.234.773,20.588,20.588,0,0,0-.322,17.668m.351-.128a20.09,20.09,0,0,1,.353-17.384.925.925,0,0,0-.364-1.243.765.765,0,0,0-.394-.12h0a1.035,1.035,0,0,0-.871.556,23.789,23.789,0,0,0-1.671,4.608,21.011,21.011,0,0,0-.638,4.8,22.077,22.077,0,0,0,1.95,9.533.957.957,0,0,0,.843.568.754.754,0,0,0,.376-.081.936.936,0,0,0,.416-1.241" style="fill:#231f2d"/></g><g id="separate_1" data-name="separate 1"><path id="Fill-219" d="M121.19,41.471a.454.454,0,0,0,.177-.454,11.8,11.8,0,0,1,.2-10.17.361.361,0,0,0-.141-.434.335.335,0,0,0-.442.171l0,.007a12.5,12.5,0,0,0-.2,10.714.307.307,0,0,0,.4.175l.021-.009" style="fill:#e6e7e8"/><path id="Fill-221" d="M121.331,41.005c.064.176,0,.39-.166.419a.207.207,0,0,1-.129.039.32.32,0,0,1-.289-.2,12.463,12.463,0,0,1,.2-10.715.321.321,0,0,1,.291-.185l.143.044a.307.307,0,0,1,.156.4l-.014.028a11.864,11.864,0,0,0-.2,10.17m0,.781a.578.578,0,0,0,.323-.751.571.571,0,0,0-.087-.149,11.6,11.6,0,0,1,.191-9.9.669.669,0,0,0-.229-.919l-.033-.019a.41.41,0,0,0-.286-.087.681.681,0,0,0-.627.4,14.8,14.8,0,0,0-.978,2.709,14.128,14.128,0,0,0-.349,2.823,13.261,13.261,0,0,0,.278,2.817,12.655,12.655,0,0,0,.89,2.73.658.658,0,0,0,.614.421.621.621,0,0,0,.293-.067" style="fill:#231f2d"/></g><g id="turbine_front" data-name="turbine front"><polygon id="Fill-161" points="56.893 38.093 56.966 32.961 54.859 31.541 54.71 39.11 56.893 38.093" style="fill:#e6e7e8"/><path id="Fill-195" d="M56.868,38.046,54.71,39.1l.149-7.569,2.107,1.42Zm.292-5.341-2.107-1.42-.553-.36-.006.662-.148,7.568-.02.58.549-.263,2.156-1.067.187-.1-.007-.236.109-5.121.019-.19Z" style="fill:#231f2d"/><path id="Fill-197" d="M70.645,34.846a1.616,1.616,0,0,1-.026,1.632c-1.3,1.832-5.179,6-13.168,3.893a1.331,1.331,0,0,1-.884-1.2l.138-7.533a1.283,1.283,0,0,1,.938-1.161c8.047-1.814,11.816,2.492,13,4.374" style="fill:#e6e7e8"/><path id="Fill-199" d="M70.293,35.364c.151-.11.365-.045.207.219a6.343,6.343,0,0,1-.31.765,1.356,1.356,0,0,0-.09.168l-.011.036h0l-.043.143a1,1,0,0,1-.238.4,7,7,0,0,1-.574.607c-.173.182-.356.4-.528.581a6.642,6.642,0,0,1-.811.614,6.315,6.315,0,0,1-.885.473,12.464,12.464,0,0,1-1.638.635,15.942,15.942,0,0,1-4.84.641,16.908,16.908,0,0,1-2.43-.23,2.751,2.751,0,0,1-1.19-.322c-.157-.126-.35-.262-.507-.388-.036-.011-.061-.057-.1-.068l.1-.322a.92.92,0,0,0-.016-.591l.14-.074c.129-.039.318-.021.447-.06a2.748,2.748,0,0,1,.544.009c.072.022.344.026.036.011a1.069,1.069,0,0,1,.343.026,11.517,11.517,0,0,0,1.567.241c.072.022.154.008.225.029h0c.154.008.272,0,.426.012.308.016.58.02.852.024.591-.016,1.145-.043,1.711-.1.412-.071.813-.105,1.189-.186l.035.01c.047-.024.083-.014.129-.039a1.565,1.565,0,0,0,.294-.067c.176-.064.376-.081.552-.145a13.1,13.1,0,0,0,2.153-.791l.093-.05h0l.233-.125a5.927,5.927,0,0,1,.595-.288c.176-.063.315-.138.491-.2h0c.047-.025.057-.061.1-.086a.774.774,0,0,0,.2-.135c.058-.061.151-.111.208-.171a.127.127,0,0,1,.058-.061c.046-.025.057-.061.1-.085.057-.061.1-.086.161-.147-.1.086.058-.06.1-.085l.28-.15c-.175.064-.036-.011.011-.035s.057-.061.1-.086l.172-.182a2.582,2.582,0,0,0,.345-.364" style="fill:#c1c4cb"/><path id="Fill-201" d="M70.645,34.846a1.616,1.616,0,0,1-.026,1.632,10.643,10.643,0,0,1-9.24,4.46,16.714,16.714,0,0,1-3.928-.567,1.331,1.331,0,0,1-.884-1.2l.138-7.533a1.283,1.283,0,0,1,.938-1.161,17.4,17.4,0,0,1,3.959-.438,10.618,10.618,0,0,1,9.043,4.812m.578.8a2.534,2.534,0,0,0-.23-1.046,10.625,10.625,0,0,0-2.979-3.051,11.2,11.2,0,0,0-6.364-1.93,18.757,18.757,0,0,0-4.042.453,1.638,1.638,0,0,0-1.236,1.5L56.235,39.1a1.8,1.8,0,0,0,.333.96,1.616,1.616,0,0,0,.832.6,16.907,16.907,0,0,0,4,.588,11.522,11.522,0,0,0,6.443-1.677,10.918,10.918,0,0,0,3.076-2.932,1.675,1.675,0,0,0,.3-1" style="fill:#231f2d"/></g></g><g id="hand-2"><path id="bg-2" d="M94.389,30.843a.589.589,0,0,1-.528.581c-.022.072-.115.122-.173.182a1.58,1.58,0,0,1-.315.139.6.6,0,0,1-.4.153.848.848,0,0,1-.724.327.735.735,0,0,1-.449-.177l-2.107-.132a.643.643,0,0,1-.358-.108,3.242,3.242,0,0,1-1.055-.125c-.261-.04-.536-.163-.833-.214a1.082,1.082,0,0,1-.454-.177,1.292,1.292,0,0,1-.369-.072,2.253,2.253,0,0,1-.889-.544c-.107-.032-.168-.09-.239-.111a1.136,1.136,0,0,1-.486-.46c-.025-.046-.1-.068-.121-.115.011-.035-.025-.046-.061-.057a.789.789,0,0,1-.317-.37.809.809,0,0,1-.232-.265c.036.011.025.046.061.057a1.444,1.444,0,0,1-.2-.254.823.823,0,0,1-.232-.266.038.038,0,0,0-.024-.047h0a1.6,1.6,0,0,1-.5-.932,4.239,4.239,0,0,1-.373-1.089c-.025-.046-.014-.082-.039-.129.011-.035-.025-.046-.014-.082a1.673,1.673,0,0,0-.174-.326.779.779,0,0,1,.017-.816c.011-.036-.014-.083,0-.118l.011-.036a.906.906,0,0,1-.206-.609c.019-.19.026-.344.045-.533a2.434,2.434,0,0,1,.116-.512c.011-.035,0-.118.007-.153a2.352,2.352,0,0,1,.1-.712,2.877,2.877,0,0,1,.234-.515l.033-.107h0l-.011.036.033-.108h0l.01-.035a2.464,2.464,0,0,1,.34-.991c.032-.107.04-.261.073-.368a1.044,1.044,0,0,1,.133-.311,1.044,1.044,0,0,1,.133-.311l.022-.072a1.082,1.082,0,0,1,.177-.454,1.518,1.518,0,0,1,.276-.267c.022-.072.068-.1.126-.157a3.191,3.191,0,0,1,.245-.551,2.749,2.749,0,0,1,.456-.6,2.905,2.905,0,0,1,1.184-.812l.526-.192a.194.194,0,0,0,.165-.028.86.86,0,0,1,.858.26,1.114,1.114,0,0,1,.126,1.131c-.044.143-.112.24-.155.383a4.564,4.564,0,0,0-.072,1.267h0a3.848,3.848,0,0,1,0,.626,3.037,3.037,0,0,0-.02.58,5.26,5.26,0,0,1-.024.851c-.029.226-.105.476-.145.737a1.5,1.5,0,0,1-.242.669c-.022.071-.068.1-.09.167a1.885,1.885,0,0,1-.156.773,2.808,2.808,0,0,0-.2.526.294.294,0,0,1-.007.153c.078.258.166.48.219.692.025.046.1.068.122.115a1.379,1.379,0,0,0,.325.215c-.072-.021-.132-.079-.2-.1a1.88,1.88,0,0,1,.443.212c.479.223.933.4,1.365.648.372.191.7.407,1.033.587l.286.087a4.526,4.526,0,0,1,.7.134l.322.1c.1.068.2.1.264.158l.286.087a.932.932,0,0,1,.407.2l.179.054c.2.1.372.191.575.291a1.657,1.657,0,0,1,.483.342,2.642,2.642,0,0,1,.27.394,1.858,1.858,0,0,1,.237.892.729.729,0,0,1,.181.563l-.007.154" style="fill:#fff"/><path id="red-2" d="M93.818,28.991a2.386,2.386,0,0,1,.431,1.926A1.942,1.942,0,0,1,92.806,32.2a7.338,7.338,0,0,1-1.027.039,3.7,3.7,0,0,1-1.1-.1.452.452,0,0,1-.367-.462,1.853,1.853,0,0,0,.058-.451c-.477-.614-.094-1.747.269-2.3a.5.5,0,0,1,.29-.186,1.877,1.877,0,0,1,.733-.871.409.409,0,0,1,.472-.013c.29.2.68.207.969.411a3.451,3.451,0,0,1,.717.726" style="fill:#ff5722"/><path d="M82.723,26.952a6.71,6.71,0,0,0,1.12,2.488,6.314,6.314,0,0,0,1.973,1.731,8.548,8.548,0,0,0,2.746.989c.522.08,1.08.171,1.613.216a14.432,14.432,0,0,0,1.764.1,3.181,3.181,0,0,0,1.619-.446,1.83,1.83,0,0,0,.813-1.393,2.625,2.625,0,0,0-1.149-2.262,6.247,6.247,0,0,0-1.869-.918c-.668-.242-1.348-.448-2.016-.69a3.656,3.656,0,0,1-1.586-.949,2.386,2.386,0,0,1-.51-1.8A7.174,7.174,0,0,1,87.5,22.77c.032-.107-.147-.162-.179-.054a4.382,4.382,0,0,0-.23,2.429,2.459,2.459,0,0,0,1.138,1.4,7.246,7.246,0,0,0,1.865.8c.43.131.894.272,1.313.437a2.884,2.884,0,0,0-.772.742,3.044,3.044,0,0,0-.591,1.3,5.179,5.179,0,0,0-.094,1.338,2.238,2.238,0,0,0,.16.634.517.517,0,0,0,.1.186,2.217,2.217,0,0,0-.486-.069,10.582,10.582,0,0,1-2.976-.746,6.74,6.74,0,0,1-2.168-1.462,6.56,6.56,0,0,1-1.314-2.234,9.267,9.267,0,0,1-.413-3.014,9.848,9.848,0,0,1,.444-2.752,10.189,10.189,0,0,1,1.272-2.777,4.046,4.046,0,0,1,2.034-1.687c.082-.014.211-.053.294-.067a.038.038,0,0,0-.025-.047,3.191,3.191,0,0,0-2.175,1.25,8.926,8.926,0,0,0-1.5,2.628A10.661,10.661,0,0,0,82.723,26.952ZM91.55,32.09a6.943,6.943,0,0,1-.876-.071c-.039-.129-.114-.268-.153-.4a2.244,2.244,0,0,1-.063-.566,5.944,5.944,0,0,1,.086-1.184,3.083,3.083,0,0,1,.487-1.219l.377-.471.345-.364a2.1,2.1,0,0,1,.454.176,3.984,3.984,0,0,1,1.568,1.14,2.047,2.047,0,0,1,.407,1.49,1.659,1.659,0,0,1-.96,1.231A3.369,3.369,0,0,1,91.55,32.09Z" style="fill:#231f2d"/></g></g></g></g></svg>