<svg xmlns="http://www.w3.org/2000/svg" width="500" height="400" viewBox="0 0 500 400"><title>split_stars</title><g id="Слой_2" data-name="Слой 2"><g id="Слой_1-2" data-name="Слой 1"><g id="_7a8aea02-34a8-46ae-a97d-2a571f0dd27e" data-name="7a8aea02-34a8-46ae-a97d-2a571f0dd27e"><g id="_1b7184f9-9ac0-4e8a-8e5e-78f1cf449b05" data-name="1b7184f9-9ac0-4e8a-8e5e-78f1cf449b05"><g id="bb691743-6927-435d-a358-1e5b06dcbcf7"><g id="adc4a306-5b6b-4d0f-8d3d-edf8ff4103ca"><path id="_20007947-18f6-4610-8f0c-bb86149097fb" data-name="20007947-18f6-4610-8f0c-bb86149097fb" d="M299.456,305.073c0-.4-.433-.859-.243-1.182s.99.094,1.328-.1.343-.967.751-.967.4.807.732,1,.723-.021.919.313,1.065.539,1.065.939-.418.876-.608,1.2-.809.248-1.148.44-.554,1.193-.96,1.193-.731-.838-1.06-1.027-.218-.634-.414-.969-.362-.44-.362-.839" style="fill:#f1f2f2;opacity:0.6000000238418579;isolation:isolate"/><path id="_96f0d0c0-7f03-4fe0-b63a-0323c44ff2e8" data-name="96f0d0c0-7f03-4fe0-b63a-0323c44ff2e8" d="M164.342,144.4c0-.84.792-2.261,1.645-2.261s.579,1.421.579,2.261.274.271-.579.271-1.645.569-1.645-.271" style="fill:#f1f2f2;opacity:0.6000000238418579;isolation:isolate"/><path id="_537d1008-3a36-4906-adc8-662522f06aea" data-name="537d1008-3a36-4906-adc8-662522f06aea" d="M329.507,112.587c0-.733-1.446-1.528-.959-2.008s1.3-.128,2.038-.128,2.354-1.143,2.841-.66-.924,2.068-.924,2.8.946,1.862.46,2.341-1.638.4-2.377.4-.808-.988-1.3-1.468.216-.543.216-1.275" style="fill:#f1f2f2;opacity:0.5;isolation:isolate"/><polygon id="_66d3421e-548e-47c9-8ba4-b90f8f0b7701" data-name="66d3421e-548e-47c9-8ba4-b90f8f0b7701" points="332.95 204.897 337.279 205.868 332.95 206.839 331.966 211.103 330.981 206.839 326.653 205.868 330.981 204.897 331.966 200.633 332.95 204.897" style="fill:#fff;opacity:0.5;isolation:isolate"/><path id="_255e4d38-af7e-4e44-a254-6a1729949431" data-name="255e4d38-af7e-4e44-a254-6a1729949431" d="M381.2,213.715a1.982,1.982,0,0,0-1.829,2.117,2.023,2.023,0,0,0,2.149,1.8,1.98,1.98,0,0,0,1.83-2.116,2.025,2.025,0,0,0-2.15-1.8" style="fill:#fff;opacity:0.5;isolation:isolate"/><path id="_5323ec52-bbf2-43f4-a9ea-03790928ebe3" data-name="5323ec52-bbf2-43f4-a9ea-03790928ebe3" d="M480.758,16.68c-.818,0-.71,1.248.1,1.248s.71-1.248-.1-1.248" style="fill:#fff;opacity:0.550000011920929;isolation:isolate"/><path id="_2b771e88-8f89-4d32-b198-0678f277a060" data-name="2b771e88-8f89-4d32-b198-0678f277a060" d="M397.1,138.345c-.818,0-.71,1.247.1,1.247s.71-1.247-.1-1.247" style="fill:#fff;opacity:0.5;isolation:isolate"/><path id="_62a12cdb-c015-40da-b4e0-74ee45132add" data-name="62a12cdb-c015-40da-b4e0-74ee45132add" d="M392.746,139.418a.64.64,0,0,0-.582.673v1.071a.633.633,0,0,0,.683.574.64.64,0,0,0,.582-.674v-1.074a.633.633,0,0,0-.683-.574" style="fill:#fff;opacity:0.5;isolation:isolate"/><path id="cd81a389-0ab6-4b47-a265-9490ef73d8c0" d="M379.315,153.781a.638.638,0,0,0-.581.674v1.073a.634.634,0,0,0,1.264-.1v-1.072a.636.636,0,0,0-.684-.574" style="fill:#fff;opacity:0.5;isolation:isolate"/><path id="a68fc630-cbcf-4877-a66b-85c26ff5d3b3" d="M405.219,215.767a1.007,1.007,0,0,0-.915,1.059V217.9a1,1,0,0,0,1.991-.157v-1.072a1,1,0,0,0-1.076-.9" style="fill:#fff;opacity:0.5;isolation:isolate"/><path id="_9cb88057-ca35-4e00-a488-ccfa9c8b337e" data-name="9cb88057-ca35-4e00-a488-ccfa9c8b337e" d="M447.827,15.7a.992.992,0,0,0-.915,1.059,1.011,1.011,0,0,0,1.075.9h1.087a.99.99,0,0,0,.915-1.058,1.013,1.013,0,0,0-1.071-.9H447.83" style="fill:#fff;opacity:0.550000011920929;isolation:isolate"/><path id="_963c9b49-19af-4a1b-80f1-226c5b971b70" data-name="963c9b49-19af-4a1b-80f1-226c5b971b70" d="M364.3,232.516c-1.29,0-1.117,1.96.159,1.96s1.116-1.96-.159-1.96" style="fill:#fff;opacity:0.5;isolation:isolate"/><path id="_17a349d3-1db8-4289-9b0a-1374bb27d6fb" data-name="17a349d3-1db8-4289-9b0a-1374bb27d6fb" d="M358.491,223.938c-1.289,0-1.116,1.959.16,1.959s1.116-1.959-.16-1.959" style="fill:#fff;opacity:0.5;isolation:isolate"/><path id="_3f5af353-91b7-4885-b432-6f86edb27840" data-name="3f5af353-91b7-4885-b432-6f86edb27840" d="M357.037,222.508c-1.289,0-1.116,1.959.159,1.959,1.291,0,1.117-1.959-.159-1.959" style="fill:#fff;opacity:0.5;isolation:isolate"/><path id="fa2c1878-06ce-486d-95d8-aa42a9284b2f" d="M223.572,29.938a.549.549,0,0,0-.5.578v1.43a.544.544,0,0,0,1.085-.086V30.433a.544.544,0,0,0-.586-.492" style="fill:#fff;opacity:0.699999988079071;isolation:isolate"/><path id="_717aa54a-e9e8-440e-a181-87cffd128c5b" data-name="717aa54a-e9e8-440e-a181-87cffd128c5b" d="M175.715,43.339a.55.55,0,0,0-.5.578v1.429a.544.544,0,0,0,1.085-.086V43.831a.543.543,0,0,0-.585-.492" style="fill:#fff;opacity:0.699999988079071;isolation:isolate"/><path id="_0b882458-f00f-4695-90f0-84fd6eaf534a" data-name="0b882458-f00f-4695-90f0-84fd6eaf534a" d="M393.5,137.752c0-.734-1.446-1.529-.959-2.009s1.3-.128,2.039-.128,2.354-1.142,2.84-.66-.924,2.067-.924,2.8.947,1.862.46,2.341-1.634.4-2.376.4-.809-.989-1.295-1.468.215-.543.215-1.275" style="fill:#f1f2f2;opacity:0.5;isolation:isolate"/><path id="b963f857-7d2e-4d7c-b923-9e85e09d60f7" d="M384.265,245.506a.992.992,0,0,0-.915,1.059,1.011,1.011,0,0,0,1.074.9h1.088a.991.991,0,0,0,.915-1.059,1.013,1.013,0,0,0-1.074-.9h-1.088" style="fill:#fff;opacity:0.5;isolation:isolate"/><path id="c6bf69f0-5105-447c-9522-b68235d36147" d="M428.286,257.68c-1.29,0-1.116,1.96.159,1.96,1.29,0,1.117-1.96-.159-1.96" style="fill:#fff;opacity:0.5;isolation:isolate"/><path id="_2b964ec2-f136-4664-ae00-5aaa1e763d6d" data-name="2b964ec2-f136-4664-ae00-5aaa1e763d6d" d="M422.481,249.1c-1.289,0-1.116,1.959.16,1.959s1.116-1.959-.16-1.959" style="fill:#fff;opacity:0.5;isolation:isolate"/><path id="_9d27df56-2b09-49b4-9689-fcb75f69978a" data-name="9d27df56-2b09-49b4-9689-fcb75f69978a" d="M421.028,247.672c-1.289,0-1.116,1.959.159,1.959,1.291,0,1.117-1.959-.159-1.959" style="fill:#fff;opacity:0.5;isolation:isolate"/><polygon id="_47d22a22-132e-4800-ade3-c7cfdd38f318" data-name="47d22a22-132e-4800-ade3-c7cfdd38f318" points="449.618 353.817 453.82 352.99 449.618 352.162 448.662 348.529 447.704 352.162 443.502 352.99 447.704 353.817 448.662 357.451 449.618 353.817" style="fill:#fff;opacity:0.5;isolation:isolate"/><polygon id="_62065c6f-968f-4942-9795-86ad28317e1a" data-name="62065c6f-968f-4942-9795-86ad28317e1a" points="338.32 395.736 342.648 394.766 338.32 393.795 337.335 389.531 336.35 393.795 332.022 394.766 336.35 395.736 337.335 400 338.32 395.736" style="fill:#fff;opacity:0.6000000238418579;isolation:isolate"/><path id="_4fbd50fc-f9b9-41f3-9a23-fef76ebf51f5" data-name="4fbd50fc-f9b9-41f3-9a23-fef76ebf51f5" d="M445.409,398.8a1,1,0,0,1-.915-1.058v-1.072a1,1,0,0,1,1.99.157V397.9a1,1,0,0,1-1.075.9" style="fill:#fff;opacity:0.5;isolation:isolate"/><path id="_5d08559d-8996-442d-bf8c-560d39d3fce3" data-name="5d08559d-8996-442d-bf8c-560d39d3fce3" d="M325.641,380.292a.992.992,0,0,1-.915-1.059,1.011,1.011,0,0,1,1.075-.9h1.088a.991.991,0,0,1,.914,1.059,1.011,1.011,0,0,1-1.074.9h-1.088" style="fill:#fff;opacity:0.6000000238418579;isolation:isolate"/><path id="_1cb44d0f-4b8d-421c-b7d8-61c8a8eff236" data-name="1cb44d0f-4b8d-421c-b7d8-61c8a8eff236" d="M457.379,385.938a1.007,1.007,0,0,1-.915-1.059v-1.071a1,1,0,0,1,1.074-.9,1.006,1.006,0,0,1,.915,1.059v1.074a1,1,0,0,1-1.074.9" style="fill:#fff;opacity:0.5;isolation:isolate"/><path id="e8b55ca4-942f-4992-951d-7a63304d4435" d="M441.058,387.011c-1.291,0-1.117-1.96.159-1.96s1.116,1.96-.159,1.96" style="fill:#fff"/><path id="ae8d10b9-2e79-4a2d-8546-4c29b83a5b05" d="M469.348,368.787c-1.29,0-1.116-1.961.16-1.961s1.117,1.961-.16,1.961" style="fill:#fff;opacity:0.5;isolation:isolate"/><path id="_162a8524-1ab9-45b0-97cf-5c226ef3026e" data-name="162a8524-1ab9-45b0-97cf-5c226ef3026e" d="M74.772,5.235c-.819,0-.71,1.247.1,1.247s.711-1.247-.1-1.247" style="fill:#fff;opacity:0.699999988079071;isolation:isolate"/><g id="_84f78b41-541f-41f2-b091-3a015f646eba" data-name="84f78b41-541f-41f2-b091-3a015f646eba" style="opacity:0.699999988079071"><path id="_04cd07e3-fbcc-4c83-9e4b-61af6fda1199" data-name="04cd07e3-fbcc-4c83-9e4b-61af6fda1199" d="M9.345,0c-.819,0-.711,1.247.1,1.247S10.156,0,9.345,0" style="fill:#fff"/></g><path id="_08cd9e77-c291-4ece-ab64-e54cbe3c2902" data-name="08cd9e77-c291-4ece-ab64-e54cbe3c2902" d="M144.635,44.641a.992.992,0,0,0-.915,1.06,1.011,1.011,0,0,0,1.075.9h1.088a.99.99,0,0,0,.914-1.058,1.011,1.011,0,0,0-1.074-.9h-1.088" style="fill:#fff;opacity:0.699999988079071;isolation:isolate"/><path id="_32a3dd70-639f-4c07-88f2-c780c13ad7f7" data-name="32a3dd70-639f-4c07-88f2-c780c13ad7f7" d="M97.472,77.869a1.008,1.008,0,0,0-.916,1.059V80a1,1,0,0,0,1.99-.158V78.77a1,1,0,0,0-1.074-.9" style="fill:#fff;opacity:0.699999988079071;isolation:isolate"/><path id="_451e5289-7952-4c56-b2d9-59c71e3cca24" data-name="451e5289-7952-4c56-b2d9-59c71e3cca24" d="M80.034,362.666a1.982,1.982,0,0,1-1.83-2.118,2.021,2.021,0,0,1,2.149-1.8,1.98,1.98,0,0,1,1.829,2.117,2.023,2.023,0,0,1-2.148,1.8" style="fill:#fff;opacity:0.6000000238418579;isolation:isolate"/><polygon id="dcee15fd-b0c2-43fd-a839-1e4c67e1be3b" points="20.925 32.948 25.255 33.919 20.925 34.89 19.941 39.154 18.956 34.89 14.628 33.919 18.956 32.948 19.941 28.684 20.925 32.948" style="fill:#fff;opacity:0.699999988079071;isolation:isolate"/></g><g id="_7b46a921-8f1c-4b9f-a23e-f4faaa19b619" data-name="7b46a921-8f1c-4b9f-a23e-f4faaa19b619" style="opacity:0.30000001192092896"><path id="ac891fe2-8440-4d41-9869-035d3a1c9482" d="M354.919,202.2c0,.84-1.878.268-2.731.268s-.521.572-.521-.268-.332-.014.521-.014,2.731-.826,2.731.014" style="fill:#f1f2f2"/><path id="_98794fcb-192f-4e95-94c8-25a46b820934" data-name="98794fcb-192f-4e95-94c8-25a46b820934" d="M149.341,38.011c0,.839.107,1.555-.744,1.555s-2.812-.716-2.812-1.555,1.96-2.545,2.812-2.545.744,1.7.744,2.545" style="fill:#f1f2f2"/><path id="_765d93d9-aca1-4efb-a344-73c3ffc3f7ed" data-name="765d93d9-aca1-4efb-a344-73c3ffc3f7ed" d="M261.366,311.074c0,.84-1.372-.214-2.225-.214s-1.171,1.054-1.171.214.318-2.078,1.171-2.078a2.81,2.81,0,0,1,2.225,2.078" style="fill:#f1f2f2;opacity:0.5;isolation:isolate"/><path id="_286c64f6-00fd-4727-aae9-05557770f9ec" data-name="286c64f6-00fd-4727-aae9-05557770f9ec" d="M127.034,48.3a.634.634,0,0,0-.683.574v1.072a.635.635,0,0,0,1.265.1V48.976a.641.641,0,0,0-.582-.674" style="fill:#fff"/><path id="_5fab205b-0c92-4263-82e6-7c77c5ecc936" data-name="5fab205b-0c92-4263-82e6-7c77c5ecc936" d="M149.884,66.527c-.812,0-.922,1.247-.1,1.247s.922-1.247.1-1.247" style="fill:#fff"/><path id="b17f3d9b-9e2a-4c5a-9b6b-d58a61457d88" d="M221.7,45.086a.634.634,0,0,0-.683.574v1.076a.634.634,0,0,0,1.265.1V45.759a.639.639,0,0,0-.582-.674" style="fill:#fff"/><path id="_615b77b8-8efc-4a8b-9ad5-effd3c45ff56" data-name="615b77b8-8efc-4a8b-9ad5-effd3c45ff56" d="M162.942,68.673c-.811,0-.922,1.247-.1,1.247s.922-1.247.1-1.247" style="fill:#fff"/><path id="bec5e942-db7c-489e-bf80-31ea38baa1ab" d="M170.559,72.96c-.812,0-.922,1.247-.1,1.247s.922-1.247.1-1.247" style="fill:#fff"/><path id="_2cf776d9-ab36-41e4-99e6-7506a6b8b1a3" data-name="2cf776d9-ab36-41e4-99e6-7506a6b8b1a3" d="M174.912,74.029a.635.635,0,0,0-.684.574v1.072a.635.635,0,0,0,1.265.1V74.7a.639.639,0,0,0-.581-.673" style="fill:#fff"/><path id="e16dcc1d-4ce9-454c-86a3-55419d59ba21" d="M82.954,132.409c-.811,0-.922,1.248-.1,1.248s.922-1.248.1-1.248" style="fill:#fff;opacity:0.5;isolation:isolate"/><path id="b3004b22-0d00-46f1-bccf-07d0f9c7021a" d="M96.012,134.558c-.811,0-.922,1.248-.1,1.248s.923-1.248.1-1.248" style="fill:#fff;opacity:0.5;isolation:isolate"/><path id="c1ca911a-f44c-42ce-a2fa-16899328f22b" d="M82.34,155.156c-.811,0-.922,1.247-.1,1.247s.922-1.247.1-1.247" style="fill:#fff;opacity:0.5;isolation:isolate"/><path id="dc6656ea-5e7b-4d6c-b804-64caa301b7be" d="M372.841,153.65c-.812,0-.923,1.247-.1,1.247s.922-1.247.1-1.247" style="fill:#fff"/><path id="_641ac530-1f92-4223-8aca-55e441790b46" data-name="641ac530-1f92-4223-8aca-55e441790b46" d="M19.968,17.177c-.811,0-.923,1.247-.1,1.247s.922-1.247.1-1.247" style="fill:#fff"/><path id="d9ddd6e6-0e7e-405c-b42d-0eb22a05fdcb" d="M103.629,138.842c-.812,0-.921,1.248-.1,1.248s.922-1.248.1-1.248" style="fill:#fff;opacity:0.5;isolation:isolate"/><path id="b29aad60-f765-46bb-bc68-de24ad2a053b" d="M312.036,286.641c-.813,0-.923,1.247-.1,1.247s.922-1.247.1-1.247" style="fill:#fff"/><path id="a38e0a89-1bbb-4015-be0c-95ee306618d1" d="M261.624,269.307c-.812,0-.922,1.248-.1,1.248s.922-1.248.1-1.248" style="fill:#fff;opacity:0.5;isolation:isolate"/><path id="_061ea12f-4115-4b8e-995f-cde4d7e5f781" data-name="061ea12f-4115-4b8e-995f-cde4d7e5f781" d="M108.615,292.815c-.812,0-.921,1.247-.1,1.247s.921-1.247.1-1.247" style="fill:#fff;opacity:0.5;isolation:isolate"/><path id="_61cb44c7-3c18-45d7-bcff-96fa8ca48461" data-name="61cb44c7-3c18-45d7-bcff-96fa8ca48461" d="M150.5,323.532c-.812,0-.921,1.247-.1,1.247s.922-1.247.1-1.247" style="fill:#fff;opacity:0.5;isolation:isolate"/><path id="_37bb38b5-3869-4880-905f-ef2e7f309f62" data-name="37bb38b5-3869-4880-905f-ef2e7f309f62" d="M107.986,139.914a.634.634,0,0,0-.683.575v1.072a.634.634,0,0,0,1.264.1v-1.071a.64.64,0,0,0-.581-.675" style="fill:#fff;opacity:0.5;isolation:isolate"/><path id="_6b28dab6-cb97-417e-8201-e7c526ca4f00" data-name="6b28dab6-cb97-417e-8201-e7c526ca4f00" d="M121.412,154.274a.636.636,0,0,0-.684.574v1.072a.64.64,0,0,0,.582.674.633.633,0,0,0,.683-.573V154.95a.64.64,0,0,0-.581-.674" style="fill:#fff;opacity:0.5;isolation:isolate"/><path id="_27de8e7e-aaed-45d4-8f9b-b34c16d83651" data-name="27de8e7e-aaed-45d4-8f9b-b34c16d83651" d="M91.179,310.13H90.091a1.011,1.011,0,0,0-1.074.9.991.991,0,0,0,.915,1.059h1.084a1.012,1.012,0,0,0,1.075-.9.991.991,0,0,0-.915-1.059" style="fill:#fff;opacity:0.5;isolation:isolate"/><path id="_88eb2e65-39c3-4e21-bc69-47b7894665fc" data-name="88eb2e65-39c3-4e21-bc69-47b7894665fc" d="M202.143,151.939h-1.088a1.013,1.013,0,0,0-1.074.9.992.992,0,0,0,.915,1.058h1.092a1.009,1.009,0,0,0,1.074-.9.989.989,0,0,0-.915-1.058" style="fill:#fff;opacity:0.5;isolation:isolate"/><path id="_19ac0ea6-05c6-4728-9ce8-6325d575d5bd" data-name="19ac0ea6-05c6-4728-9ce8-6325d575d5bd" d="M241.236,202.865h-1.088a1.01,1.01,0,0,0-1.074.9.991.991,0,0,0,.915,1.058h1.088a1.011,1.011,0,0,0,1.075-.9.993.993,0,0,0-.916-1.058" style="fill:#fff;opacity:0.5;isolation:isolate"/><path id="_217f12bf-e012-4990-9254-c5a87c3497e6" data-name="217f12bf-e012-4990-9254-c5a87c3497e6" d="M268.623,309.638h-1.087a1.013,1.013,0,0,0-1.076.9.993.993,0,0,0,.915,1.059h1.089a1.013,1.013,0,0,0,1.074-.9.991.991,0,0,0-.915-1.059" style="fill:#fff;opacity:0.5;isolation:isolate"/><path id="d77d9bf7-7bbb-4393-8b6e-5483eee67232" d="M180.455,220.84h-1.088a1.011,1.011,0,0,0-1.075.9.994.994,0,0,0,.916,1.06H180.3a1.011,1.011,0,0,0,1.074-.9.991.991,0,0,0-.915-1.058" style="fill:#fff;opacity:0.5;isolation:isolate"/><path id="bf1e2a39-cf8d-496a-8064-71233aa58b7b" d="M202.143,111.2h-1.088a1.012,1.012,0,0,0-1.074.9.993.993,0,0,0,.915,1.06h1.092a1.011,1.011,0,0,0,1.074-.9.99.99,0,0,0-.915-1.059" style="fill:#fff"/><path id="_5dffd3c7-af97-4e8a-af2a-be4c874c0413" data-name="5dffd3c7-af97-4e8a-af2a-be4c874c0413" d="M201.055,111.2c-1.276,0-1.449,1.961-.158,1.961,1.275,0,1.448-1.961.158-1.961" style="fill:#fff"/><path id="cd523844-b906-40bd-937b-da4753133631" d="M59.872,126.248H58.784a1.011,1.011,0,0,0-1.075.9.992.992,0,0,0,.915,1.059h1.087a1.014,1.014,0,0,0,1.076-.9.992.992,0,0,0-.915-1.059" style="fill:#fff;opacity:0.5;isolation:isolate"/><path id="c75505dc-27de-44fb-9e36-e891030664a9" d="M52.9,16.2H51.812a1.011,1.011,0,0,0-1.075.9.99.99,0,0,0,.916,1.059h1.086a1.013,1.013,0,0,0,1.076-.9A.991.991,0,0,0,52.9,16.2" style="fill:#fff"/><path id="be54c05e-ec85-4cd8-9300-4e8d35aca0b5" d="M36.75,232.345c-1.277,0-1.449,1.961-.16,1.961s1.449-1.961.16-1.961" style="fill:#fff;opacity:0.5;isolation:isolate"/><path id="_09ca8667-5395-4e41-af06-1e6cdc56c82b" data-name="09ca8667-5395-4e41-af06-1e6cdc56c82b" d="M189.086,133.713c-1.276,0-1.449,1.96-.159,1.96s1.45-1.96.159-1.96" style="fill:#fff;opacity:0.5;isolation:isolate"/><path id="e7bb70ae-e933-487f-9e2d-914fbe383a79" d="M136.434,233.013c-1.276,0-1.449,1.959-.16,1.959s1.45-1.959.16-1.959" style="fill:#fff;opacity:0.5;isolation:isolate"/><path id="_666cd34a-487c-46f5-85ea-5393b9605e83" data-name="666cd34a-487c-46f5-85ea-5393b9605e83" d="M142.238,224.435c-1.276,0-1.449,1.961-.159,1.961s1.449-1.961.159-1.961" style="fill:#fff;opacity:0.5;isolation:isolate"/><path id="_3df1d609-5839-475f-ba6b-57e2ba18a235" data-name="3df1d609-5839-475f-ba6b-57e2ba18a235" d="M143.689,223c-1.275,0-1.449,1.961-.159,1.961s1.448-1.961.159-1.961" style="fill:#fff;opacity:0.5;isolation:isolate"/><path id="_2423bbc9-c07c-41b6-bf0f-ddbeb0781674" data-name="2423bbc9-c07c-41b6-bf0f-ddbeb0781674" d="M277.16,30.433a.544.544,0,0,0-.586.492v1.431a.544.544,0,0,0,1.084.085V31.013a.548.548,0,0,0-.5-.578" style="fill:#fff"/><path id="c7ba303e-5d5c-48b2-9325-bd3a09dbcfc2" d="M325.017,43.835a.541.541,0,0,0-.585.491h0v1.433a.544.544,0,0,0,1.085.086h0V44.413a.55.55,0,0,0-.5-.578" style="fill:#fff"/><path id="_7d1fcd86-88b1-4217-af64-e9e3e179c364" data-name="7d1fcd86-88b1-4217-af64-e9e3e179c364" d="M18.962,157.573c-.811,0-.922,1.248-.1,1.248s.922-1.248.1-1.248" style="fill:#fff;opacity:0.5;isolation:isolate"/><path id="_476ec4fc-e850-4018-bf06-b48612ed1227" data-name="476ec4fc-e850-4018-bf06-b48612ed1227" d="M32.018,159.717c-.81,0-.922,1.248-.1,1.248s.921-1.248.1-1.248" style="fill:#fff;opacity:0.5;isolation:isolate"/><path id="_3b803207-77fd-46d0-8421-d19adc1880dc" data-name="3b803207-77fd-46d0-8421-d19adc1880dc" d="M39.635,164.006c-.812,0-.921,1.248-.1,1.248s.923-1.248.1-1.248" style="fill:#fff;opacity:0.5;isolation:isolate"/><path id="_6c183012-7bf3-4d99-98d1-7c728dffdc64" data-name="6c183012-7bf3-4d99-98d1-7c728dffdc64" d="M31.514,241.428a1,1,0,0,0-1.076.9V243.4a1.007,1.007,0,0,0,.915,1.058,1,1,0,0,0,1.075-.9v-1.074a1,1,0,0,0-.914-1.059" style="fill:#fff;opacity:0.5;isolation:isolate"/><path id="_987c1392-91ed-4af5-92dd-60c65e5d3bb6" data-name="987c1392-91ed-4af5-92dd-60c65e5d3bb6" d="M116.459,246.006h-1.088a1.011,1.011,0,0,0-1.074.9.99.99,0,0,0,.915,1.058H116.3a1.009,1.009,0,0,0,1.074-.9.989.989,0,0,0-.915-1.057" style="fill:#fff;opacity:0.5;isolation:isolate"/><path id="_375ab943-18ca-4b99-83d0-254b2a866e50" data-name="375ab943-18ca-4b99-83d0-254b2a866e50" d="M445.738,218.227c.811,0,.922-1.247.1-1.247s-.922,1.247-.1,1.247" style="fill:#fff"/><path id="_8bc60ae9-7561-4a01-9dee-0624f25c908c" data-name="8bc60ae9-7561-4a01-9dee-0624f25c908c" d="M467.4,171.056a1,1,0,0,0,1.074-.9v-1.072a1,1,0,0,0-1.989-.158V170a1,1,0,0,0,.915,1.058" style="fill:#fff"/><path id="_92857677-bb8e-4b1e-93dc-8cdf4b472660" data-name="92857677-bb8e-4b1e-93dc-8cdf4b472660" d="M498.954,206.435c1.276,0,1.449-1.96.16-1.96s-1.45,1.96-.16,1.96" style="fill:#fff"/><path id="fd6a3466-722c-432c-8b5b-8473eb50068a" d="M490.4,192.373c1.276,0,1.449-1.96.16-1.96s-1.451,1.96-.16,1.96" style="fill:#fff"/><path id="_843ae76d-eb79-4335-ad3d-b7fe878d4f06" data-name="843ae76d-eb79-4335-ad3d-b7fe878d4f06" d="M484.8,182.849h1.088a1.012,1.012,0,0,0,1.074-.9.99.99,0,0,0-.914-1.059h-1.091a1.012,1.012,0,0,0-1.074.9.99.99,0,0,0,.914,1.059" style="fill:#fff"/><path id="a8df93c0-739a-4312-95c1-0360b1089f60" d="M449.555,197.766h1.088a1.012,1.012,0,0,0,1.074-.9.992.992,0,0,0-.915-1.059h-1.087a1.012,1.012,0,0,0-1.076.9.992.992,0,0,0,.916,1.059" style="fill:#fff"/><path id="_92f06dcc-016b-46fd-9689-4efcb6b26587" data-name="92f06dcc-016b-46fd-9689-4efcb6b26587" d="M479.814,205.455H480.9a1.013,1.013,0,0,0,1.075-.9.991.991,0,0,0-.916-1.059h-1.086a1.011,1.011,0,0,0-1.075.9.992.992,0,0,0,.915,1.059" style="fill:#fff"/><path id="_4c71269f-7cfb-4759-a622-ea517086ba31" data-name="4c71269f-7cfb-4759-a622-ea517086ba31" d="M479.364,158.191a1,1,0,0,0,1.074-.9v-1.071a1,1,0,0,0-1.989-.158v1.072a1,1,0,0,0,.915,1.059" style="fill:#fff"/><path id="_6b4b41ec-8884-48cf-a731-771e290d1325" data-name="6b4b41ec-8884-48cf-a731-771e290d1325" d="M463.042,159.264c1.277,0,1.449-1.961.16-1.961s-1.45,1.961-.16,1.961" style="fill:#fff"/><path id="e0c9445e-bf85-4ded-be75-5ef8dc9bc85f" d="M496.062,213.665c.812,0,.923-1.248.1-1.248s-.922,1.248-.1,1.248" style="fill:#fff"/><path id="_93a63f72-2fd3-49b5-827a-fb9bece294cb" data-name="93a63f72-2fd3-49b5-827a-fb9bece294cb" d="M488.445,209.377c.812,0,.922-1.247.1-1.247s-.922,1.247-.1,1.247" style="fill:#fff"/><path id="_8d13fd00-72e0-49bd-80fa-4a58607b4614" data-name="8d13fd00-72e0-49bd-80fa-4a58607b4614" d="M484.092,208.305a.633.633,0,0,0,.683-.574v-1.072a.64.64,0,0,0-.582-.675.633.633,0,0,0-.682.575v1.075a.64.64,0,0,0,.581.675" style="fill:#fff"/><path id="_85b59289-561b-448a-ac72-79cb908fdeac" data-name="85b59289-561b-448a-ac72-79cb908fdeac" d="M470.663,193.945a.636.636,0,0,0,.683-.574V192.3a.64.64,0,0,0-.581-.674.634.634,0,0,0-.684.574v1.072a.64.64,0,0,0,.582.674" style="fill:#fff"/><path id="b9bd202c-1329-4dfa-b1cf-3eca77d68d7a" d="M1.045,239.282c-1.275,0-1.448,1.96-.159,1.96s1.449-1.96.159-1.96" style="fill:#fff;opacity:0.5;isolation:isolate"/><path id="ac6f6ee3-aaa3-4709-8ed3-9eb82c7e08c8" d="M72.44,258.177c-1.275,0-1.449,1.959-.159,1.959s1.449-1.959.159-1.959" style="fill:#fff;opacity:0.5;isolation:isolate"/><path id="_43db4e02-af0c-4a82-aedd-351a63bdf028" data-name="43db4e02-af0c-4a82-aedd-351a63bdf028" d="M78.246,249.6c-1.278,0-1.45,1.959-.16,1.959s1.449-1.959.16-1.959" style="fill:#fff;opacity:0.5;isolation:isolate"/><path id="_696199ae-0f58-4954-8f47-66584aa24078" data-name="696199ae-0f58-4954-8f47-66584aa24078" d="M79.693,248.168c-1.275,0-1.45,1.961-.159,1.961,1.276,0,1.448-1.961.159-1.961" style="fill:#fff;opacity:0.5;isolation:isolate"/><path id="_9326d78b-43ec-4ef9-ab34-d541793abe38" data-name="9326d78b-43ec-4ef9-ab34-d541793abe38" d="M114.157,387.413a2.024,2.024,0,0,1-2.15-1.8,1.981,1.981,0,0,1,1.83-2.116,2.022,2.022,0,0,1,2.148,1.8,1.982,1.982,0,0,1-1.828,2.118" style="fill:#fff"/><path id="_7d2b4ac8-e7bd-4374-b879-517a02f3d190" data-name="7d2b4ac8-e7bd-4374-b879-517a02f3d190" d="M306.666,314.987c-.812,0-.922-1.247-.1-1.247s.921,1.247.1,1.247" style="fill:#fff;opacity:0.5;isolation:isolate"/><path id="d99cf9ce-5e82-4d72-abce-60fc008a8e21" d="M256.254,332.32c-.812,0-.921-1.247-.1-1.247s.922,1.247.1,1.247" style="fill:#fff"/><path id="e2728aef-adc1-45cb-9efb-321ced57fb17" d="M103.246,308.817c-.813,0-.922-1.248-.1-1.248s.921,1.248.1,1.248" style="fill:#fff;opacity:0.5;isolation:isolate"/><path id="f9f68066-ca39-473d-bf28-1b4f22674db1" d="M145.13,278.1c-.812,0-.922-1.248-.1-1.248s.923,1.248.1,1.248" style="fill:#fff;opacity:0.5;isolation:isolate"/><path id="_1306da4b-c6be-4795-8ef9-dee1dfdf0f32" data-name="1306da4b-c6be-4795-8ef9-dee1dfdf0f32" d="M90.137,385.364a1,1,0,0,1-1.075-.9V383.39a1,1,0,0,1,.915-1.058,1,1,0,0,1,1.075.9V384.3a1.009,1.009,0,0,1-.915,1.06" style="fill:#fff"/><path id="b9125126-ad13-490e-a562-36d766e91f5a" d="M11.791,366.065H10.7a1.011,1.011,0,0,1-1.075-.9.992.992,0,0,1,.915-1.06h1.088a1.012,1.012,0,0,1,1.081.9.99.99,0,0,1-.916,1.058" style="fill:#fff"/><path id="c1321aa5-2d28-4615-b1a9-57ae1872ecc5" d="M85.806,291.494H84.718a1.011,1.011,0,0,1-1.074-.9.989.989,0,0,1,.915-1.058h1.088a1.013,1.013,0,0,1,1.076.9.992.992,0,0,1-.916,1.059" style="fill:#fff;opacity:0.5;isolation:isolate"/><path id="_07565577-546f-42e5-a1a6-8191d9e19d7a" data-name="07565577-546f-42e5-a1a6-8191d9e19d7a" d="M55.317,399.3a1,1,0,0,1-1.074-.9v-1.072a1,1,0,0,1,1.99-.158v1.073a1,1,0,0,1-.916,1.058" style="fill:#fff"/><path id="b65495ef-0bbf-4d93-b261-156eeb7c6a77" d="M235.866,398.764h-1.088a1.011,1.011,0,0,1-1.075-.9.993.993,0,0,1,.916-1.06H235.7a1.011,1.011,0,0,1,1.075.9.992.992,0,0,1-.915,1.059" style="fill:#fff"/><path id="cf8a2e78-52ac-410b-a7c3-de39963756a1" d="M263.253,291.989h-1.088a1.011,1.011,0,0,1-1.074-.9.99.99,0,0,1,.914-1.059h1.088a1.01,1.01,0,0,1,1.074.9.991.991,0,0,1-.914,1.059" style="fill:#fff;opacity:0.5;isolation:isolate"/><path id="_02dfceb2-c63b-4b89-bcd2-4942a74fdc47" data-name="02dfceb2-c63b-4b89-bcd2-4942a74fdc47" d="M366.5,338.123h-1.536a1.011,1.011,0,0,1-1.074-.9.991.991,0,0,1,.914-1.058h1.539a1.011,1.011,0,0,1,1.075.9.992.992,0,0,1-.916,1.059" style="fill:#fff"/><path id="_4badbf0a-50ce-4ca1-bbe0-1ff102b0c217" data-name="4badbf0a-50ce-4ca1-bbe0-1ff102b0c217" d="M43.347,386.433a1,1,0,0,1-1.074-.9V384.46a1,1,0,0,1,1.994-.154v1.072a1.008,1.008,0,0,1-.916,1.059" style="fill:#fff"/><path id="d7fdf028-6e8c-43df-8b09-262e8985450a" d="M59.673,387.508c-1.276,0-1.449-1.96-.16-1.96s1.45,1.96.16,1.96" style="fill:#fff"/><path id="f092f19a-5d32-4c30-8367-b9483b1c0f72" d="M31.378,369.281c-1.276,0-1.449-1.959-.16-1.959s1.45,1.959.16,1.959" style="fill:#fff"/><path id="ef7549c9-56bf-4b62-8f14-62db30f69833" d="M131.064,368.614c-1.276,0-1.449-1.959-.159-1.959s1.449,1.959.159,1.959" style="fill:#fff"/><path id="_6f7ca408-cf5c-44cb-8d9e-8a3fd6a9252f" data-name="6f7ca408-cf5c-44cb-8d9e-8a3fd6a9252f" d="M136.869,377.193c-1.276,0-1.45-1.96-.16-1.96s1.449,1.96.16,1.96" style="fill:#fff"/><path id="edb4f2cb-fab9-4d1e-869a-21aee572079d" d="M138.32,378.623c-1.275,0-1.45-1.961-.16-1.961s1.449,1.961.16,1.961" style="fill:#fff"/><path id="_2e3afb0c-9ed9-44ae-9322-c2cf310da1b0" data-name="2e3afb0c-9ed9-44ae-9322-c2cf310da1b0" d="M405.589,175.436c0,.84-1.732,2.072-2.585,2.072s-.416-1.232-.416-2.072-.436-1.378.416-1.378,2.585.538,2.585,1.378" style="fill:#f1f2f2"/><path id="_0592bf60-a288-40d0-852b-d9d9d74edc56" data-name="0592bf60-a288-40d0-852b-d9d9d74edc56" d="M466.837,221.134c-.81,0-.921,1.247-.1,1.247s.921-1.247.1-1.247" style="fill:#fff"/><path id="_09b473ea-7acc-4912-b7ce-41b4fd472b9f" data-name="09b473ea-7acc-4912-b7ce-41b4fd472b9f" d="M425.954,5.732c-.812,0-.923,1.247-.1,1.247s.922-1.247.1-1.247" style="fill:#fff"/><g id="c69a6c76-509f-4fc2-a4fa-1fee97de6872"><path id="_32f717d3-a253-4653-abc2-9c44c42ad6cb" data-name="32f717d3-a253-4653-abc2-9c44c42ad6cb" d="M491.382.5c-.811,0-.923,1.248-.1,1.248S492.2.5,491.382.5" style="fill:#fff"/></g><path id="_8499406c-c130-4ffb-acef-580b3a42122f" data-name="8499406c-c130-4ffb-acef-580b3a42122f" d="M437.759,181.462c-.811,0-.922,1.247-.1,1.247s.921-1.247.1-1.247" style="fill:#fff"/><path id="_1ffad7d3-7847-45c0-b518-274db02af5ef" data-name="1ffad7d3-7847-45c0-b518-274db02af5ef" d="M243.2,299.441c-.812,0-.922,1.248-.1,1.248s.922-1.248.1-1.248" style="fill:#fff;opacity:0.5;isolation:isolate"/><path id="c6dac943-7e7c-4c53-9f00-4322d56deb76" d="M356.092,45.139H355a1.011,1.011,0,0,0-1.075.9.991.991,0,0,0,.915,1.058h1.088a1.011,1.011,0,0,0,1.075-.9.992.992,0,0,0-.915-1.058" style="fill:#fff"/><path id="_2366c907-1abb-42d2-983d-32f9cce78ee0" data-name="2366c907-1abb-42d2-983d-32f9cce78ee0" d="M290.78,266.053h-1.539a1.01,1.01,0,0,0-1.074.9.99.99,0,0,0,.915,1.059h1.538a1.011,1.011,0,0,0,1.074-.9.99.99,0,0,0-.914-1.059" style="fill:#fff;opacity:0.5;isolation:isolate"/><path id="_8182eda1-1389-4bf3-994f-755e96b8834c" data-name="8182eda1-1389-4bf3-994f-755e96b8834c" d="M498.7,250.154a1,1,0,0,0-1.075.9v1.073a1,1,0,0,0,1.989.157v-1.069a1,1,0,0,0-.914-1.058" style="fill:#fff"/><path id="_05c73a40-85d1-49d1-9048-da9f1fba3c32" data-name="05c73a40-85d1-49d1-9048-da9f1fba3c32" d="M372.655,211.662a1,1,0,0,0-1.074.9v1.072a1.007,1.007,0,0,0,.915,1.059,1,1,0,0,0,1.074-.9v-1.072a1,1,0,0,0-.915-1.059" style="fill:#fff"/><path id="c66e9ff6-4129-4573-b105-e189d45c1bc0" d="M403.255,78.366a1,1,0,0,0-1.074.9v1.071a1,1,0,0,0,1.988.157V79.424a1,1,0,0,0-.914-1.059" style="fill:#fff"/><path id="_05a0c008-72b1-4fe9-92e8-2ce95d854aaa" data-name="05a0c008-72b1-4fe9-92e8-2ce95d854aaa" d="M371.658,130.756H370.57a1.011,1.011,0,0,0-1.074.9.99.99,0,0,0,.915,1.059H371.5a1.011,1.011,0,0,0,1.075-.9.992.992,0,0,0-.915-1.059" style="fill:#fff"/><path id="d6e7b733-f6cd-4014-825a-339f91b8ae03" d="M401.263,147.911h-1.54a1.013,1.013,0,0,0-1.075.9.991.991,0,0,0,.916,1.059H401.1a1.011,1.011,0,0,0,1.074-.9.99.99,0,0,0-.915-1.058" style="fill:#fff"/><path id="_2116128a-42d3-47a3-9346-0f560c78fa2f" data-name="2116128a-42d3-47a3-9346-0f560c78fa2f" d="M377.1,155.415a1,1,0,0,0-1.074.9v1.072a1,1,0,0,0,1.99.158v-1.072a1,1,0,0,0-.916-1.058" style="fill:#fff"/><path id="c56754f2-f553-42dd-9d1e-10b19efa1865" d="M393.421,154.342c-1.276,0-1.449,1.959-.16,1.959s1.45-1.959.16-1.959" style="fill:#fff"/><path id="deb90aee-84de-4a29-9530-f7a17fb64c3c" d="M461.467,387.552c-.811,0-.922-1.247-.1-1.247s.922,1.247.1,1.247" style="fill:#fff"/><path id="ce73d73f-5da6-4b22-9ed1-7f3dd79d263f" d="M285.411,342.632h-1.538a1.012,1.012,0,0,1-1.075-.9.992.992,0,0,1,.916-1.058h1.538a1.011,1.011,0,0,1,1.075.9.992.992,0,0,1-.916,1.059" style="fill:#fff"/><path id="a72890f2-b321-4a56-9efa-799b65b8694a" d="M456.33,369.154a1,1,0,0,1-1.075-.9v-1.072a1,1,0,0,1,1.989-.158V368.1a1.006,1.006,0,0,1-.914,1.059" style="fill:#fff"/><path id="_6138521e-6338-4a77-84aa-61969b74bd3b" data-name="6138521e-6338-4a77-84aa-61969b74bd3b" d="M367.285,397.019a1,1,0,0,1-1.074-.9v-1.072a1.008,1.008,0,0,1,.914-1.056,1,1,0,0,1,1.074.9v1.073a1.006,1.006,0,0,1-.916,1.059" style="fill:#fff"/></g></g></g></g></g></g></svg>